<mxfile host="app.diagrams.net" modified="2021-07-01T08:59:51.186Z" agent="5.0 (Windows NT 10.0; Win64; x64) AppleWebKit/537.36 (KHTML, like Gecko) Chrome/91.0.4472.114 Safari/537.36" etag="fFWm26HmiXeh_2t97nvr" version="14.8.3" type="github">
  <diagram id="wHXkYkQ3PvGg_jxOZHuI" name="Page-1">
    <mxGraphModel dx="981" dy="526" grid="1" gridSize="10" guides="1" tooltips="1" connect="1" arrows="1" fold="1" page="1" pageScale="1" pageWidth="827" pageHeight="1169" math="0" shadow="0">
      <root>
        <mxCell id="0" />
        <mxCell id="1" parent="0" />
        <mxCell id="HKHmvF8L9_0sOz7J5Tm9-3" value="" style="edgeStyle=orthogonalEdgeStyle;rounded=0;orthogonalLoop=1;jettySize=auto;html=1;" parent="1" source="HKHmvF8L9_0sOz7J5Tm9-1" target="HKHmvF8L9_0sOz7J5Tm9-2" edge="1">
          <mxGeometry relative="1" as="geometry" />
        </mxCell>
        <mxCell id="HKHmvF8L9_0sOz7J5Tm9-6" value="" style="edgeStyle=orthogonalEdgeStyle;rounded=0;orthogonalLoop=1;jettySize=auto;html=1;" parent="1" source="HKHmvF8L9_0sOz7J5Tm9-1" target="HKHmvF8L9_0sOz7J5Tm9-5" edge="1">
          <mxGeometry relative="1" as="geometry" />
        </mxCell>
        <mxCell id="HKHmvF8L9_0sOz7J5Tm9-1" value="个人项目" style="rounded=0;whiteSpace=wrap;html=1;" parent="1" vertex="1">
          <mxGeometry x="120" y="40" width="120" height="60" as="geometry" />
        </mxCell>
        <mxCell id="HKHmvF8L9_0sOz7J5Tm9-8" value="" style="edgeStyle=orthogonalEdgeStyle;rounded=0;orthogonalLoop=1;jettySize=auto;html=1;" parent="1" source="HKHmvF8L9_0sOz7J5Tm9-2" target="HKHmvF8L9_0sOz7J5Tm9-7" edge="1">
          <mxGeometry relative="1" as="geometry" />
        </mxCell>
        <mxCell id="HKHmvF8L9_0sOz7J5Tm9-2" value="utils" style="rounded=0;whiteSpace=wrap;html=1;" parent="1" vertex="1">
          <mxGeometry x="220" y="190" width="120" height="60" as="geometry" />
        </mxCell>
        <mxCell id="HKHmvF8L9_0sOz7J5Tm9-11" value="" style="edgeStyle=orthogonalEdgeStyle;rounded=0;orthogonalLoop=1;jettySize=auto;html=1;" parent="1" source="HKHmvF8L9_0sOz7J5Tm9-5" target="HKHmvF8L9_0sOz7J5Tm9-10" edge="1">
          <mxGeometry relative="1" as="geometry" />
        </mxCell>
        <mxCell id="HKHmvF8L9_0sOz7J5Tm9-5" value="infosysD&lt;br&gt;V2.0" style="rounded=0;whiteSpace=wrap;html=1;fillColor=#f8cecc;strokeColor=#b85450;" parent="1" vertex="1">
          <mxGeometry x="30" y="190" width="120" height="60" as="geometry" />
        </mxCell>
        <mxCell id="HKHmvF8L9_0sOz7J5Tm9-12" value="" style="edgeStyle=orthogonalEdgeStyle;rounded=0;orthogonalLoop=1;jettySize=auto;html=1;" parent="1" source="HKHmvF8L9_0sOz7J5Tm9-7" target="HKHmvF8L9_0sOz7J5Tm9-10" edge="1">
          <mxGeometry relative="1" as="geometry" />
        </mxCell>
        <mxCell id="HKHmvF8L9_0sOz7J5Tm9-7" value="infosysD&lt;br&gt;V1.0" style="rounded=0;whiteSpace=wrap;html=1;fillColor=#f8cecc;strokeColor=#b85450;" parent="1" vertex="1">
          <mxGeometry x="220" y="330" width="120" height="60" as="geometry" />
        </mxCell>
        <mxCell id="HKHmvF8L9_0sOz7J5Tm9-20" value="" style="edgeStyle=orthogonalEdgeStyle;rounded=0;orthogonalLoop=1;jettySize=auto;html=1;" parent="1" source="HKHmvF8L9_0sOz7J5Tm9-9" target="HKHmvF8L9_0sOz7J5Tm9-19" edge="1">
          <mxGeometry relative="1" as="geometry" />
        </mxCell>
        <mxCell id="HKHmvF8L9_0sOz7J5Tm9-9" value="依赖" style="text;html=1;align=center;verticalAlign=middle;resizable=0;points=[];autosize=1;" parent="1" vertex="1">
          <mxGeometry x="280" y="280" width="40" height="20" as="geometry" />
        </mxCell>
        <mxCell id="HKHmvF8L9_0sOz7J5Tm9-10" value="icons" style="rounded=0;whiteSpace=wrap;html=1;" parent="1" vertex="1">
          <mxGeometry x="30" y="330" width="120" height="60" as="geometry" />
        </mxCell>
        <mxCell id="HKHmvF8L9_0sOz7J5Tm9-13" value="依赖" style="text;html=1;align=center;verticalAlign=middle;resizable=0;points=[];autosize=1;" parent="1" vertex="1">
          <mxGeometry x="90" y="290" width="40" height="20" as="geometry" />
        </mxCell>
        <mxCell id="HKHmvF8L9_0sOz7J5Tm9-14" value="依赖" style="text;html=1;align=center;verticalAlign=middle;resizable=0;points=[];autosize=1;" parent="1" vertex="1">
          <mxGeometry x="160" y="330" width="40" height="20" as="geometry" />
        </mxCell>
        <mxCell id="HKHmvF8L9_0sOz7J5Tm9-16" value="版本不一致&lt;br&gt;冲突" style="text;html=1;align=center;verticalAlign=middle;resizable=0;points=[];autosize=1;" parent="1" vertex="1">
          <mxGeometry x="180" y="270" width="80" height="30" as="geometry" />
        </mxCell>
        <mxCell id="HKHmvF8L9_0sOz7J5Tm9-17" value="" style="endArrow=none;dashed=1;html=1;exitX=0;exitY=0;exitDx=0;exitDy=0;" parent="1" source="HKHmvF8L9_0sOz7J5Tm9-7" edge="1">
          <mxGeometry width="50" height="50" relative="1" as="geometry">
            <mxPoint x="100" y="300" as="sourcePoint" />
            <mxPoint x="150" y="250" as="targetPoint" />
          </mxGeometry>
        </mxCell>
        <mxCell id="HKHmvF8L9_0sOz7J5Tm9-19" value="跟随打包，不需要外部引入infosysD&lt;br&gt;&lt;strike&gt;问题：与外部infosysD冲突&lt;/strike&gt;&lt;br&gt;没问题！！！" style="text;html=1;align=center;verticalAlign=middle;resizable=0;points=[];autosize=1;fillColor=#d5e8d4;strokeColor=#82b366;" parent="1" vertex="1">
          <mxGeometry x="370" y="180" width="210" height="50" as="geometry" />
        </mxCell>
        <mxCell id="HKHmvF8L9_0sOz7J5Tm9-23" value="dependencies" style="text;html=1;align=center;verticalAlign=middle;resizable=0;points=[];autosize=1;" parent="1" vertex="1">
          <mxGeometry x="350" y="260" width="90" height="20" as="geometry" />
        </mxCell>
        <mxCell id="HKHmvF8L9_0sOz7J5Tm9-24" value="不跟随打包，需要外部引入infosysD&lt;br&gt;问题：外部仅使用utils / 不使用infosysD" style="text;html=1;align=center;verticalAlign=middle;resizable=0;points=[];autosize=1;fillColor=#fff2cc;strokeColor=#d6b656;" parent="1" vertex="1">
          <mxGeometry x="365" y="370" width="220" height="30" as="geometry" />
        </mxCell>
        <mxCell id="HKHmvF8L9_0sOz7J5Tm9-27" value="" style="edgeStyle=orthogonalEdgeStyle;rounded=0;orthogonalLoop=1;jettySize=auto;html=1;entryX=0.495;entryY=0.1;entryDx=0;entryDy=0;entryPerimeter=0;" parent="1" source="HKHmvF8L9_0sOz7J5Tm9-9" target="HKHmvF8L9_0sOz7J5Tm9-24" edge="1">
          <mxGeometry relative="1" as="geometry">
            <mxPoint x="330" y="300" as="sourcePoint" />
            <mxPoint x="485" y="260" as="targetPoint" />
          </mxGeometry>
        </mxCell>
        <mxCell id="HKHmvF8L9_0sOz7J5Tm9-28" value="devDendencies" style="text;html=1;align=center;verticalAlign=middle;resizable=0;points=[];autosize=1;" parent="1" vertex="1">
          <mxGeometry x="345" y="300" width="100" height="20" as="geometry" />
        </mxCell>
        <mxCell id="KOqR1XGdUxo7aQ16TKEq-2" value="最终发现问题并不是内外版本冲突导致的&lt;br&gt;而是 utils 里的 login组件 使用 cdn 方式引入的 css 文件覆盖了个人项目中的样式，注意以后 utils 使用 css module 方式，若无法使用请在所有样式外用复杂类名包裹" style="rounded=0;whiteSpace=wrap;html=1;fillColor=#dae8fc;strokeColor=#6c8ebf;" vertex="1" parent="1">
          <mxGeometry x="390" y="30" width="360" height="80" as="geometry" />
        </mxCell>
        <mxCell id="KOqR1XGdUxo7aQ16TKEq-5" value="" style="shape=image;verticalLabelPosition=bottom;labelBackgroundColor=#ffffff;verticalAlign=top;aspect=fixed;imageAspect=0;image=data:image/png,iVBORw0KGgoAAAANSUhEUgAABGMAAAFqCAYAAAC+mpdrAAAgAElEQVR4Aeydh3Nct7X/f/9LZjKZvJdJndRJnyQvkzh5mdTJy3MmTp5jW43qkrsdO7bjosZeRLF3NVLdarYkS1aXSMlWi6pVKFGFEjv3/OaD3bMCr3bJJbmkyOWBDeFeXOAA+AK43PO9B8D/E3OGgCFgCBgChoAhYAgYAoaAIWAIGAKGgCFgCBgCo4bA/xu1kqwgQ8AQMAQMAUPAEDAEDAFDwBAwBAwBQ8AQMAQMATEyxgaBIWAIGAKGgCFgCBgChoAhYAgYAoaAIWAIGAKjiICRMaMIthVlCBgChoAhYAgYAoaAIWAIGAKGgCFgCBgChoCRMTYGDAFDwBAwBAwBQ8AQMAQMAUPAEDAEDAFDwBAYRQSMjBlFsK0oQ8AQMAQMAUPAEDAEDAFDwBAwBAwBQ8AQMASMjLExYAgYAoaAIWAIGAKGgCFgCBgChoAhYAgYAobAKCJgZMwogm1FGQKGgCFgCBgChoAhYAgYAoaAIWAIGAKGgCFgZIyNAUPAEDAEDAFDwBAwBAwBQ8AQMAQMAUPAEDAERhEBI2NGEWwryhAwBAwBQ8AQMAQMAUPAEDAEDAFDwBAwBAwBI2NsDBgChoAhYAgYAoaAIWAIGALjFIFQKCT4ieQmWnsnUt+OtbaO9/k12PoPNv1Y66/xVh8jY8Zbj1l9DQFDwBAwBAwBQ8AQMARSGoFEyAZVmjQcz4BMtPaO575KxbrHGn86rzQcqN2aTsNUTz9Q++x5YggYGZMYTpbKEDAEDAFDwBAwBAwBQ8AQGBUEVKHr7e2VeF7TaDiYipEHud3d3dLV1SWdnZ0uJC7oVL6Gmk/zBNNz76f16x8rbX/p/bwqM14YT3YqxisGqdi2h9EmxXMw481Py7XK0DBWO/RZIukHK3+g9Fq2hoNNH6s9Fjd8BIyMGT6GJsEQMAQMAUPAEDAEDAFDwBAYdQRUsQqGfkVQuiBdSOM77lUh8+O5DqYNPg/ea/nB+OA95UH+4LkerNNyYoWDlTWe02v7x3MbxkPdFWc/7K/eiaZTGaOZXsvSsmOFmiZWGCu9xQ0fASNjho+hSTAEDAFDwBAwBAwBQ8AQMASSikAshciPUyJF44KFEz+WnNY3Xp20HfFCza9hMF08uakQT5shsGKRaqnQvrHQhuB40nGmYfB58N5PxzV9hdd4DTWf3ms40um13Hih1kPDYLqx0EepWAcjY1KxV61NhoAhYAgYAoaAIWAIGAIPHQEUm6G6W7duSX9elSYNL126JL4/dOiQnDp1Sm7evOkU+WA9Tp48Kb7fs2ePHDt2TK5cuSJ3794NJpczZ8708aRvampy6VtbWwdMf+DAAVfe9evX3bKoYIb+2sozbaeGE01ZBIO2trYhWRQFsbb7BxEIjj8dZxoGx1u89KTTpX/t7e2uz5hPzJE7d+7I7du33bxWudRE03d0dIj6RORrWsL+0lNWovXXegXTP4jY/RjSjiX3MOsz2LKNjBlLI8fqYggYAoaAIWAIGAKGgCEwqgg0NzfLzp075fjx445cgJA4ceKEIw6uXr3q6oISjCNEcfr444/l6NGj0tjY6PKRnntk4EnHj3L2VUEhgxT54IMP+vhVq1bJ6tWrZf369dLS0hJtM8oQRArPfU+6jRs3Sk1NjSNANAPyKXvdunV9fENDg6xYscJ5CBDS4QghYerr6/v4tWvXSl1dnVRVVcn58+fdV33S046DBw8Kz31P3TZs2ODkg6G2lzxg4Neda+qyZcsWJwOl1HeQOrHS02bKRL7vaC/t8/3KlSudDPJAQIEjjr64cOGC7N69u4/fvn274Pft2+cUYJWv6elj3zMu6EewYwyoco0STBwY+Z4xtX//fqeAY/WgjrGyY8cO1/f0v3rqv3nzZpcM5RoHptQbbHgOhuTXZzxX7yJT6B/GCtgwTunn4Pjeu3evIyBoMn0N9rt27XJzhHyMZd8jg3Gg4+Ly5csCQcgY1nL8ObF161bR+U9/MAaRT1rmodaJ602bNrmxjUydB8x96qTptAzaQZnEX7x4MdpjvAMYR5RbW1vbZ64xBygD+Thk444cORKdN8j3vZ9exx9jh7J1PhJq/fz28o6gHYx35Oh7RNMH60NdyHP27FlX/8rKymgezbtt2zZHFruKR/7hPcMcpA4+9lyDNcQw9aD+zDn677333nPvQJ2/GlJPyGh15EM+84eyg+9f4nlP4BgTzGf6g3cvMpmjvie/vqepD+0FT0hp6koeHOUOxhkZMxi0LK0hYAgYAoaAIWAIGAKGQMogwA9nFO7q6mqnpKAEoXDwgx+lCSUBBZmv2arEqbLEj3/SoCSTn7QoQ5ABqkSQB4UJGaTzPeWgGCHDtyyBaEDZQZ7vUSwpE6VAlQiUMtIiy5fNNWmRj0WLfnmnPkrokMf3qsihgGlb6WiUXtLpcw2RQ9kQLygm6lAoVdn06881bUWBoT7qILSQE6w/fYEcyocgwdFf3INFUHlT7JGjShPtUGJI660hbaIv6S+UMFVYIWc0nmfqqT9lUidV0qmPkiWqdGpYXl7u2gSpoP1FGyBpqCNyfI98cKDsa9euOYKIOp07d86ROtSXPsVDAFG27xXPVAnBBrzpLzDWftCQ5yjnOHBA4WZMkl7nsT++yadkBnnAm3FEejDl3veU6ZOA3POc/qVsHf/cQ2Aybxl31IV+4zn1oAzGAGXo+wJCFXJP3ytYzuh4ZgxQjrZdxyskgY4j5g/KP2UjC7mU43s/PfNAcUOutoFyyAN5EmwvdQY/npOO/OSlTYxt3mmMTdqL4x5cqD91Ds5n6sh7EUd9IDqIQyZYBdNTPvMAx/sF/JBPXZDv9y3XPIcM0neXyqSt1J16+R4ZvIt03pOOOOqE1z6gfnjK4G+FvruYp7z3KZdnSsZo+a7iCfxjZEwCIFkSQ8AQMAQMAUPAEDAEDIHUQ4Av3ihRZWVlTmHiRzg/yPkhrgo5CoCSJfxwRyHCkoOvoRAD5EfhR7mCiMCTTn+U84MfRYf0QQ9Rg1MlizzIRmHni6vvIWEgiXAoQEpQUAdVgKi7epQELDN8p0oczzSdhihD1E/rTT7aTZmkCSo/YIWSAzGAA0vqhbUBssDQ98SR3reKAScwQJEJykcBQkFCrtYJ8gn5KGq+bK5RiMHNd2AEuUR6H0uuUQZR4FGIUfZUyYIcAtNgevqFvvTJJPLgUdKC6ekv+h1ZOn6UtOKLvSp9GtKH4ANOWDL5jjJUIQQnMARr3/vpU+Ga9tKvtBeyDEx8D4Gh4wJ8dPkPhAjpmFP+0h0fE8YdxAx96VvC6fwlpK/Al7RcQ/wwNhhjvBsYs8wXxiPvAMpXixXqRTz9zzhgDOichiRhLGn9SYt8SEB/3HFNnHraQztx5NFxilw8c9r3fnryII+xxTwhHdjybtN2+O1l3iCTMalzmf5gfDJneMa89B3vGtrL+4L5xrXvSUv9wRTHO1PTg1Fw/pCGdmqbsTKiDcxb8A++S4P1AWPSQsrEqg/jxM9D+cik/njaSL3UM6bASB39SN+QT3HUOmuaREIjYxJBydIYAoaAIWAIGAKGgCFgCKQUAvwQR3nCcgQlA2UDpZof3Sh/KAL6Yx2FzHf8KOc58aRBedG0pEMuz1Tx4N5XnDVe5aoSh4LGMyVa/DL9a5WlcSpP7wmVAPDj9Nqvq8ZpmVoX4rV+tDXoKBM5Pk5aD122pPUkJJ0+1xBSgTJ8giZYjn8PPji/jvqcOL/N3CNbyyX0PXVQRY90eo080gWdH0dexdC/DuZRmZpWnxNPPt/rMz+ttpP0kBIoxyh+KP5+Xq5TzUECQAJimeErwdpO7V+9Hyik/8BRx/RA6YPPFW/kaL+QhvhYMv1+DMpCRrDPkBmMC+bT+0TTaXoNqWesuurzYEgb/Lb6z4n3n9EmbVewfooZoe98+ZpfQ18GddbytA1+OtL6svwy/Dr68QNdI1N9rLSKI2QNhKpaxvj1jpUvGGdkTBARuzcEDAFDwBAwBAwBQ8AQmBAI8IMaywm1/EDJTcTpj3RVCAg1LhgmKo90seQlkv9hpfHb6tc9Fh7JqqOWGZSn8RoG6xO813Qa8nwsO77uQ8ZAGk4EMgbyCUKGZThDVahHoj91vIyE7PEoEzxwiouGA7VF0yUaDkbeQGmT8VyJVqxpmJdYyPRHwMUr08iYeMhYvCFgCBgChoAhYAgYAoZASiMwkmTMYIBThcQnDDRuMHJGO63WkdCvO9f+M66T5VRuUJ7GaxisT/Be02kYlDfW7icaGYOCCyHDHiX03Vhx42W8jDZeiouGA5Wv6RINE5U3ULpkPQ+SMSxL07jBlGFkzGDQsrSGgCFgCBgChoAhYAgYAimDAEreSFnGDAYkVUh8wkDjBiPnYabV+sYLk1U3lR+Up/Ea+ljGutZ0GgbljbX7iUbGsK8Jyz+wWjM39hHQeaThQDXWdImGicobKF2ynivxopYx7D2k7xldwpRIWUbGJIKSpTEEDAFDwBAwBAwBQ8AQSDkE+PFsZExyunUgpSo5pdxfDhGUFyxfFaN4YTB9UN5Yuw+SMbTLb8NYq+9w68MmrWy+ioWMubGPgD8WuR7IBdMPdJ+ovIHSJeu5Ei5KxrDpM20gPtYeR/HKNTImHjIWbwgYAoaAIWAIGAKGgCGQ0gioAsDGsHzpRMFN1GneeGGicjRdPDkar+nGaqj11PBh11PrkWj4sOs7UPmc/sKJNXiugyRTsJ0DybPnhoAhMHwE2HycE+F0/ilJmqhkI2MSRcrSGQKGgCFgCBgChoAhYAikFAL8gB6q0x/f8cLByo0nR+MHK2+002s9NRzt8oPlaT0SDYP5x8O9T8gE2zke6m91NARSAYHhHDVvZEwqjABrgyFgCBgChoAhYAgYAobAqCIQVH6D94OtTDB/8H6w8iZ6+iB+A92PdbyovzquWQ6RSmSM3z5tp4WGwHhBIPh+SbTeRsYkipSlMwQMAUPAEDAEDAFDwBAwBCIIBH98B+8HC1Qwf/B+sPImevogfgPdjwe8OOJZj3n2iRhdGuG3cTy0x68jdTdnCIxXBPy5p/vJJNIWI2MSQcnSGAKGgCFgCBgChoAhYAikFAKq/BHu3r1bTpw4EW2f/8Nar6MPJ/AFSsbt27cdAoNROCYwZElrOpuCshyio6PDyWRc+oSMjlMNk1bwKAmi3jjCW7duSUNDg6xfv96Fra2t0T05xmv7RgnGhIphDPl4J5TJEvVBQN9/jFX+frDvmDo9aUnv+wuNjOkPHXtmCBgChoAhYAgYAoaAIZDSCKCYbNu2TTitBoUXBRenSp+GKQ3CIBq3YcMGSUtLk4sXL7qlMmQdjPIxiKIsqYfAgQMHpLS01JETbW1tbnwaGeMBZJf9IoBFFQQCRzA/9dRT8rWvfU2+9a1vyc9+9jN55plnohZX/Qqxh1EElBTdsWOHO3799OnTwrxUK7VowgEujIwZACB7bAgYAoaAIWAIGAKGgCGQugjcvHlT6uvrpa6uLtpI/WocjbALh0BjY6P8+Mc/lq985SvCtbnRQwClr7Ky0lmLNDc3u4KVKIwVjl7NklOST4KaZUxyMPXHBWQM4+c73/mOfP7zn5dvfvOb8qlPfUq+/vWvyyOPPCKXL1+OWstoXySnFqkpRTFasWKF4CFLwXiwxLSRMak5PqxVhoAhYAgYAoaAIWAIGAIDIICycvXqVampqXFKribXfTn03kJxisZLL70k3/jGN+RLX/qSU0DAxbAandHBl3dIQyyTrl275gr1le3g9ejUKnmlqHJLO4yMSQ6u/phYuXKlfPWrX5Uf/vCHsnnzZke8MI4effRR+elPfyoff/xxlIwZLKGQnNqOPymMWbDEqvL48eMOPzAfjDMyZjBoWVpDwBAwBAwBQ8AQMAQMgZRBQBW/tWvXCl4VwpRp4DAbglKmZMvq1avd0obf//738sUvflGysrKiyptfDPt7gKPm4xnm+zhM+/UZ2HPN0jAc91xrPtLiWVph/SJy8uRJ2bhxo1sScf369Shm4IYf7077mLZAxkA8rVu3zoXDOTp4vOOSjPrv379ffvGLX8jvfvc7R+Qp1sxvxtTf/va36DykPH2ejLJTWQbvJv5uMFYhs4bijIwZCmqWxxAwBAwBQ8AQMAQMAUMgJRBA8TMy5sGu1A0qeYL10J/+9Cf5+c9/Llu3bpUf/ehH8sILL0RJFtKQHiLm7bfflvT09AcFejGQLocOHXIyT5065T0JX6IMKsGAXPtSP/HImNraWsGag5BlWUo6afjAoLGIPgjonMH6BbIFixjmLs6f20p+aWadd3pvYXwEwNHImPj42BNDwBAwBAwBQ8AQMAQMAUOgXwSMjIkNj34dh2ApKChwVjEoxi0tLW4DUJY3QNLgVIE7e/as/PGPf5TnnntOdu7cKXPnznXEDSQOBA0WHaoIFhcXu/0rMPPPz893X+4/97nPyZ///Gd3OolfK90s04+baNexLGNSCQMdb0oOYImFokvICV7E+z6V2j4SbdHNZFmCybLChQsXOvJULc8oE8wVd+51Ho9EfVJRppExqdir1iZDwBAwBAwBQ8AQMAQMgVFDwMiY/qGGBPjVr34lU6ZMiVoozJkzx23kC/mC06/wkDOQKZzSwmktbBTKkiY2C8W/8cYbwobJOI4t/va3vy0QMGwI/L3vfc+l/cIXvuDy792716Xz5UcjJuDFRCNjOOGMTYsJcT4RY6TBwBMAouDChQvy5JNPCksL2aBX52kwN3j6pEzwud3HRgDMfMuYoYxLW6YUG1uLNQQMAUPAEDAEDAFDwBCYAAigtFy6dMl9fdf9SyZAsxNu4quvvupOXCkvL3d5wKuwsNBtBsopInfv3o0qcuzt8dhjj8l//ud/uiVIe/bscXtRYE2DUviTn/zEbXSJIPZZ+PKXv+wsZ3Jzcx3+KDeUA4mTk5MTLW8oSk7CDRwnCcH2yJEjznONAxf146QZMavpt4ExEMtrGg1jCrLIPghAaEKKMpdivdsUy1hhH0F20y8CWPyBL+N2sM7ImMEiZukNAUPAEDAEDAFDwBAwBFIKAVX+UErM3Ufg4MGDzgKGL+uZmZkyefJkR55wKstnP/tZt4mvpmb5AyTBjBkz3OksEDDgyXIJQggcLGYgYXBYPWAZw3Il36HYPP74486z34Vu/uunmYjXYIhlA17HKaH68YyJtsEP47VH08R7bvFhBMCJJUoQnrpXTBAbxTJWGExr9yODgJExI4OrSTUEDAFDwBAwBAwBQ8AQMATGLQInTpxwx96izPF1nZAlRew/8Z3vfMcRKWlpadEv7uzrgpXM008/7U5tYVkEDkUPAgErGWRwChPu6NGj7l4tbjQdoS6D4jhnI2PCe3uAoZKGXGOh5CvRDtRx+k+wHdzHc5o23nOLDyMATuzTBHHa1NQUExbFMlYYM4NFJh0BI2OSDqkJNAQMAUPAEDAEDAFDwBAY6wiggMRzQzE3jydrvMazpwvkCSex8IV9165dcvHiRXdiEhYrf/3rX+WXv/ylnDt3LtpECBk27X3kkUfk/PnzLl6x5HhdiJyMjAxHIhw4cEDYH4bTl3yHuf/8+fPdkiaWjynp4KeZqNeqNNN+vdZwPGNCGxgnhNq2eO1JhfbGa1uy4xctWuSs0Zh7Qac4xguD6e0+cQR0HCeSw8iYRFCyNIaAIWAIGAKGgCFgCBgCKYWAkgQ0qrGx0VlqaAP9E0c0biKFtP+1115ze8V88MEHMfdCeP75552it2/fvujGoOR7+eWX5bvf/W70pCVwg1BZtWqV20uGEIelDF/tlZzRvWcgep566in5zW9+4/aRmUi4D9RWThXCq/MVaY0br6FPxmARxXK2devWudOUWP7mt3Uwyu54xWO49QYjjgZn42ys0dTCDMJU8ePEM4jTLVu29MF3uGVPlPycNMcmyVj5sRG84koY9PEwMTImHjIWbwgYAoaAIWAIGAKGgCGQ8gjwI7qhocHtq6AkjE/UpDwAMRrIEiWUtEmTJsmVK1dipBBh817IFN+yBasWSBoUQMgWxZGNZzneGpmHDh1yiiGWMVjevPnmm87ahqU3EDF8zSc/SyyIMxdGAEKCY57xqbaBLy30LaCMjEnOqGecYNn2gx/8QEpLS6NLCrFwe+WVVxzZ+o1vfMNtmq3kQXJKnjhSNm/eLBs3buxDxiixqJgSxnPDI2OQG192vDIt3hAwBMY1Ajbxx3X3WeUNAUPAEDAEogjwIxmyobKy0n2J50e0EgjRRBPsgvbX1tY6ogTCJZ5jHwqWKbG5L5vukg+rjXnz5rmjqtmslyOrWZoE6fL1r39d8vLyRAkvCBqWKfH8M5/5jNuXBosa7n/729/KmTNn4hU9IePZg4djdPH+fjyq8I13UCBj1BkZo0gMPVQik024f/3rX7u5qMfNf/rTn3b7P/3sZz8TLN9w/REGQ69F6uesq6tzVn++ZQzvQp2XGsZDYvhkDCc4RQiZHhHBh29VYRtsGK+qA8cHS3oghybwH2jccENPZlAUEA3WK5YaDjb/UNJrvb2mhDtTHxBOAEczwU+x1+Zzz5+JoNd0scJE+yFWXo3T8vTeDxOV76fT9sQL/bSxrsP5Qm6e35fBfSL/PTik7svQd8fIDTLKUvy47tOIkSvWJBsChoAhYAiMYQQgEFBwN2zYMIZrOXpVQ5HA2mXatGnRpQ3xSuckJE5PwlwfZZoTlNgzBkLl0Ucfle9///vOygWrGKyPcCgnlKF7yPz4xz92VjNsDgxh88ILLziyQZdVqGITrw4TJR6rIbWM4VqxHEjZGy/4GBkzcj116tQp4Yj6H/7wh24+/vGPf4wSCCNXaupLZu5xUtWmTZsegmUMmgyaWk9IpLNberq75Z6E5I70SIf0SMg9DHcC192h7gd8byBdol3GS7m7p1s5IGnv6JS2ji5p6wz7oBwsg0KqVQYfujZ4GhqaWiSup7NHujqI6MeFRHp7MK0T6ewKOd/RHRJ8e3dI2npi+45QWKmnKFW2McTEd0Z8h4jg9V5DTaeh5ifUuHDakHQK/r4MnisUXPOMfBpH6JxqyN29Iu1dYR99qIlSK+zsBImwfg7uqrgrvu0icjeGvyci6ttEBE9afKz+8/vDvyat5tMQuZTZGgnjlaNlaT5CZOt4IKQdSkTQldEpHBiDWifqE6y/jh/yhnEJz2IdLsHQHyH+Mz++vatLOrp7+oxDP+1A173MQc+7PuwV6erqkc7OHjc33fyPFAqGt3poScRpAXpvoSFgCBgChsCEQkDJGAgZnC6XUCVXwwkFyhAbi9ULm++yHOnkyZNOCvjpV3pf7N69e53FDMuR+nOGfxidiUbGMB+rq6vdfiaMJR0HGvY3ZuxZGAHFKpHQMBsaAhCkEM3x9nJS7ONJH7pljCowIZG79+7K7d5OuS4iNyMKHMrgLemRa13tLuQ66G878iasyKoyqYogqpJ/zb16GoMy2SYhud3bFY3X9Dd7upwCG1atUWZDci8UkjZ8ROFFIbsT6pGbXZ3Rcsiv5VIfFOBb0it3Itfcx/KnblwX/Mkb1+VES9h/3HJdPrp5XY6rv3Vdjkf8oauXZO/Fs7Lj9Mey9aNGWXdon/NrD++TNYf3ScORfVIf8MSpJ4168mj+dYf2yrrDH8qBK+flwJVzcuDK2Yjnmriw33vxjHx0u1muSo/Dg23AaKOGtBFirS3UI529imJkCNHvKeZuttySjg56XqStu9sRIp9Ip+RsWi3rPz4sx5qvyPFrV+TwjSty4GZff7DlisTyh1quCJ48A3ntc7/fVx/dJ+rrG/cLfk3TQVnbGPbrGg/KhqZDsqEx7Dc2HhL8psZDsnLPTll7cK8bWzvPnJDG61fk2I2rzh+/0SyMzZM3bzjPeP24+aocu3pZmvDXLkvjtcty9NplOdIc9kebP5Gj18KeZ2dab8nFzjZpdnP6PhGlRJEfMt+U1GFOQSwxztQz7nCgz7i7KT195qPO6XghMilDy0R+i3S78UwedZRz9s4tOfLJBdl38d9Ss2WjexSCndJ3mSa20BAwBAwBQ2BCIWBkTPK6GzKGo60TIWPY+JdlTAORMcmr3fiWNNHIGJZ/VFVVOWug48ePGxkzhOGrREAi4RDEWxYRNz4fKhmDqn6h647saj4jJY075O3tq+Wdd9dIxtZ3peCDHVK8b4/UHW+K65cfb5L3mq/I+9civvkT2dF8TnY2n3EeufgProX97mtn5HDrFTnWcV3OyF25IF1y9O41OXq3WY62NkvT3evS2NosB29+Ih9ePSs7LpyUdccOOL/+2AFZc/yA1J8+LKVHdsiSbfXyz/pyWfDuirDfvELe2bxClry/Rl5dVykzy7Pk77lvyayK3Lh+ZnmOTC/LlrTSLJlWmiVT8WVhP6UsSybjy/v6v+S9JY8vWyRTKrJlRk2BpFXlyrSqXJlaHfZTanJlck2uTIp4rtXzTNNpSF5kpFXlSFp1tuezJK0afz9uaiV1yZApFZkyvSZHZtbly/TqvGj+mZXZsmjzKsnctFJyNqyQ/PUr5OiNi3JDupxSzaxLQT7GvUywpKjftlnyd2yQp1cXyf/mvyHTanJldkmWzC3Odv08rTxb4nn6Ez854idVZov6yZXZEtOTpzIn7KtyZIrn6d+0mjyZWbdUZtYuldl1hTKrdqnzM2sKxPmqPJlZlSezIn5mRa6on11dIHNrlsrsyjw3fmeW5Qh+VlmOzCYszZZZJdkypzTH+dml4WcuXXmOzCjPdX5mWa6EfZ7MLMuXZ2vLZF5FkUxflitT8jJlemGOzFiKzw34SHxhtjxTuUxeX1MrCzc3yOJta2XxtjWyeFuDLNnWIAvfXSkZ2xskf/cmKTqwXWqOfyg1x/dKzbH9ztce2yu1xz6M63PfXy/qs3eslxfrS2X+ikKZUZktU0vSZQ5YVeVJWlm2TC/KkBfL8+X14nxpOvdvZ1FjZIz9Lct5rg8AACAASURBVDUEDAFDYGIjYGRM8vrfyJjkYRmUlOpkDCsf1LFnDCcBYR3D6Vtnz541MkbBGWI4ECEzRLETPtvDs4yJKOV8lX6+NFtmVGbJlKpMmYwyWV4ok0uK5KmiQnlyWYFMKl4mU8uKY/vSYpnm+bTSpZJWliXTy9NlRlm6zCxLl1mlYT+7JF3mlWfK05U58kxljswrzZC5xekyryRL5qsvypQ5hekyb1mGPF2cLc+U5DjPNX52UYZMKV4sk0vTZWpFpqRVZjk/rTJLICqmVtGOLJlamyvTVxbIjFWF8vfyzH79kxVZ8gS+8r7/e2WW4B+PhHr/RFW24Ln/a1m6PFayRKauWCpT8CuXyuSVS2XSqqXy1Kql8mTEc02cetKoJw95kTF1RYFMqsuVp2qz5cmaLHmyJjPiuQ77v1dlyF/LFjv/eEW6PFmTLZPq8mTK8gKZsjxfptXlyayaPJlXlSvPVOTIsxU5Du+1Zw7JNbcALWyVlIozD+uYBYX5MrM0U55cniv/U75AHqtYItPLIS9yJa0iV6ZWxveTq3JlUnWuPFWdK09W58oTNQP7x6uy5P8qMuVv5RlR/1hFhvwl4rmesqpQpnr+xR2rRf1L76+WoF94ZLu8tme9PLO5VmY0lMikmryon1yTJy9vXdnHT6nMFTz179uGPHmyOl+ewlfhC+SJ8nx5vDhHHi/OlSdKC2RS+TKZWlksaVWlklZVFvDElcjclVWSVl0kTxRny2P5i2R6TaFMr10q02sLZHptvkyvyRXmHyThpJLFMnnZYpm6bIlMLUx3flrhEplWuNjzi2Ra4X0/r4rxGvaQiZMqM+XvlRkyqTZHpizPk8l1eTKpNtfNuSdK02VGSabMz18ie059fJ9YTFWGMRUnqrXJEDAEDIEkIxAkY3SPkqDykuRiU1Icx+bGsozxFW1tuFnGKBKJhRONjGEfjt27d/c5qcafk4mhZqkUAR+7WNeazsLBIfBQyBj0FrhLLPw/un5ZJhculFlrimTW6kKZUpUrjxdmOyImraJUZlZXytzlNTKjqsLF/S0vR6aVl/T1HhkzvWyZzKzMlRkVGTK9dIlMK1oo86tzZV5Flswpy5A5JekyFxKmNENmLVsks5ctlrnFGQEyJkPmLcuUp4shYnKd5xo/d1mmzCxcIrOWpcuc4kyZW5oV9XNKs2R2WZbMrciTuVX5Mq+6wFkVzCjNkbSSbCHEzyzDQgBrg3yZVZ4vcyoKBvRzKwoEP69yqfNczyzJcX5WWZ7MLg/LmlmRL/gZlfkyPeK5nkFc5BnPXdkV+TK7skDmVxU6mbPLc2VmaZYjE2aVZcms8syw5zriIRqmF2c4hdRZSJTnyiwsH2hXabbLDwZgMa80U2ajIFely+zaXDncctFZxwywi87gRvAYS81yl+drCp0l0lO1ufLmrrXScKpRNnzcJGtPNknDqSZZ/++PpObIXsndvlHebqhz/q01dfLmmjp5Y22dzCnNk9mleUK/zijOlmnLMp0HY+K0v+dWLpWna5ZJ2rLMqJ9SlClPlGbK42X3/f+VZkTv/14O8ZctT1blOP9UdZ74flJNvuA17onK7HD6imx5qjLH+clVeTKlMk+mVueHw8o8mVKRI5MrcmRSRTjNU5W58mRlnvNPVebJU5X58lRFgUyuLJRp1UUypWKZ/L0oT/62NFumQcZUlAjzva8vkanlRTK1YplMrSiU6VXLZHp1oUytyJfJZdkRi7FMmbOiUKZX54TJmMKF8kxpjvyjvFDeXF4pC+vrJOfdNZLzbsN9v7lecjyfvq5OFqyulNdriuTFygJ5pjpsDYSF0IzyHHmyYKHMqSqQebWFzoINKxmsgVbs3eWWRrnvMLpUyUiZMTYjrTqGgCFgCIw8AhAFnE7DMbCQCaqojHzJqVeCkjG/+tWv5Pz58/02kFNeOBr7jTfe6DedPQwjwF5GHBeOj7Wv0XjHiXnXn9N5qWF/ae2ZITAaCPC+428Hexr5hLOOUT+MV59B7xnjEzEsUTp247L7qo3lBRYVU/MXyfPVpfJ0aZHMLVoqMwtyZUZ+jrt/bdVyWbBhrWRu2xz1Wds2y+oTH0l91B+TTec/km2XT8gHLedk/51LcvjeVTnW2eKWJZ2XTrkiIp9Ir1yQTrdMievLIs5/IiG5KD1ySULu/qqI4Mmj+S5Kl3wi3XJFQu6ZnwY556VbTva2yeG71+XDG5/I/tvXZP+tZjl457rzh1pvCP7w3Rbnj967JY13+/qmu7fE+dZbcszzH929LXjijt687nzj7RvSdKdFGu+0yNHWFjmCj8imDK5dXOQZaRrV32mR43dvy6nOe3LBtUmE/dXDPiTXBK/3YSwuS6/DgvjmyDPFgPCidLq9fy5Ih2y/flqeqE6XtBW5cvDmRbeXTCqTMVh6vb6yXKZX5sq06lzJ3rPZ7YXEniO3Invr6P4k7HGie5/wzPe6/w75wpj2yOmOe3L8zi3nD9+4Jh9+ckF2nTsjaw4fiPr6IwdkedMBqTl231c17Rd85bGwX7xtnahftG2d4BduD/tF760XvN6/s6VBFvh+c4PMK8uXeaVhP780X5ZsXuP84i1rZBF+6xpZuHWtLHB+nbteuHWdLNyyThZtWS+v1dfJkq0bpGjfbqn7qFFqmw5H/BGpbfL9YalpPBjxB6Tu+EFZ8fFh2dFyKeIvyo6bF5w/4JYd9rixekV6pSWCp+IbLwRf+kH754Z7NzCHe+Wc9MhZ6ZLDrdelqf2W7L95Rdaf+0hmVOfJ9IocqTmwy/WZ2xXJyJh4fyMs3hAwBAyBCYGA/mjWxnJvbnAIoIywUW9hYaE89thjcu7cuX4FoMD84Q9/kP6Oz+5XwAR6GByfYI3X+FQYrwO1wW/rQGkn0NCwpj5kBCBGByJi+huvQyJjUF7YcBPvyJjyTJlemyfrTh6Ww5fPy5lb1+XSvTtuw1422GQjTT0pBkWWuP48f/6QfUe6pKWLbXrD+e+wSXB7q7uHENCNQUlLnfCUhWyeEU86teLhWp8Tkl6faxri7rDhbyQt96oIovTh9UQdVcq1PGTiKVfr5MunDNX5uNb0lKGefMQrXkHZvnwtgzGIvLaeXrndTs7+ndYjbioSROrEfjGTK9Nl+vKwZUx7n3Oy4koYtw/AO3PTKpldniOzKnKk+shut0EskNCX9FN7KOy51v7UkHSaVq/bOnqFQ6nUBe81neajX3VsUx8IIt2klrHHuNMxqGNSCQm9h5xQgkLHr4b+GFZ5KtPPr+lVFiHpGYNggafd1I16xvI6RwhpE3lJp/Fsrh324Thk6bgm3d2QSGtvr7SGfN8jraH7HlmkJV+0jzzMaBPPb/b0SNOtZplenSuTq7Ol4tBOgbwhn2sIHUCDzBkChoAhYAgYAobAkBBQkoC9YyBmgoRBPKWE9Ob6RwAswXQwuPYvcXw9NTJmfPXXRK1tcJzqfTw8Bk3GoK+gvCgpABkzvSJLZlbluhN6KAiFqNf9Fz7imqOt9Xjrzu5Oae9sc76jq0O47+ntlpA71iS2NsSx2aEenvV1PRxxDSsciSZ09YscG63xfi6OwO3qIV8oms9/7l93clJUZ5e0dnTJ3c4eaevqdZ4jq/EdvSKcfN3VK07ZRuHu6Ql7jrumSSFlWTRULbZbpKe91/nejpCEukR6u0Q4cbenO3xUNsdlBz3PSENa9Q5wv+IDXYc7qG8qwFIPiBG4Ub6nlC+R6bU5cvg6tjL0bOo6lPbC7etlXlm2zKvIkYbjB9xYj9dijkyOHpuuuGkfE9Lv6nSAKs76XPtD8+tzDTVe5Qwi9EVwCr2OUcZVF0exdyajNzk7Xgd83zDEEfQRHx1UCda/o7tXWts73PD2IQ1et7a3u6Ox44ltbYXiCbvr0iMzIGNqsqX88I4HyZhkwKGFWWgIGAKGgCEwbhGIRxqM2waNQsWDSkeiGCqBMwpVHNdFgJO6REkuTT+ewnjjRseXhuOhTfHaMh7qnsw6pjIOWMZAkBLidHwGw3h4DpqMQbmjKCVkmm5ckSklGW7T3WPXWfgTy4VVwt5Qr/i+p7dH8KEQZna8YGLnjiVxJOPCtb3PTQTvIXTieVXO/dCxFzQv4iFq8HofJUFGslH9yaaBXv20G+hnjiqfWr5EZtXkSGPzBemkr/qTNc6fYb1R9eF2ealumTxdmSerGj8MW070067g+Ogn6ag/8rtVrxOpRLw2ISP8LExm3k/H/YP/aer7YSKl30+jdYZIcj4wVO/X536e/q4g29jjKq0mRyoP7XDj21nGIEhZHhplzhAwBAwBQ2BCIaCntqjSEPwhrfFjGZSLFy8Ke7Vs2LBhLFczqXVra2uTyZMnS0ZGxpDk5ubmyn//93+7fR+GJGCUM7GvUUtLywMK3yhXY0SLg2hqbGyU6upqOXbsmOzatcvt5xSckyNaiSQJVwItPz9f/vKXv0hzMxtETAy3detWt1zx0qVLCTXYf8fW19fL97//fdm/f39CeR9WIuYje2MdOXLEjdGh1GNIZAw6C4o61jE+GXP8OruyxHfBScQA9Znd+DnH1hOWEQ/H9/aEBK8yxkLrtC6QTOii9DH9y94dU0oXyayqLGm8el46sWIaCxUeoTpAxtTt3yHPV+W7jZ3XHN/fh4xBZw86JQyCYTDdw7gP1ilW/QdTr7A8tXXry+HFKivmWCGyPz9AhfxyBisfMmZuZY6kVWVLyZ6tbnw7MkaJGMKYQgeolD02BAwBQ8AQGNcIBMkY//ep/n4d6w1EIfjBD34gdXV1biPisV7f4daPzTMhoP7nf/5H3nzzzSGJW7RokXznO98RTnYa6472NjQ0uCOfOQFMx6WvxI71NiRSPywMIGM40hqlHHKRfvbbO17aTD15lyxYsGDCkTHsHfXII4/ImTNnEul217+akH7/whe+4MYAcWO1v6kXp34xRiFmhuIGTcY4QDxlvbElEcuYcNWocH9+KA14GHn6a0Miz8Y6CYUuOpHJmPqje9xJUjMKF8mm00eiZAy4xCIzfHLAv34YYzNWmX6dYtU/Vp54cUFZA93H5DWI7M9HCle8+ysjIfmeABYsvVxfJlMqMiVn2xpplp5w/xoZE6/LLd4QMAQMgQmBQCqQMTt37pRvfvObUlNTIxNhDxba+PHHHzvLlqGSMW+99ZZ8/etflw8++GDMj/O7d+/K5s2bZf369c7CQnWOMV/xQVZQyRiODIaQwR8/fvwBHXKQYkc9uS5bYQnL888/P+HImPT0dPnRj34kp06dSgh7xrO68UDGaH1ra2sdQTqqZAxAod9gOeHImNIMSSvPkmM34i1TCkOrL414oXbAWA/j1T/R+PFCxmAx4JYpTTDLmLXH98ncknSZmveWbDnXFN0zRsmB4Pgk3veq+wfTPax7rY+Gw6mHYqCyBgpJ/4DzwYp1HcmQSFmDlQ8Z8+bm5TKpLF0Wb1oh16TbyJgHOsgiDAFDwBCYeAhgcYDSx2853Hi0jGE5B1YeKDITxXEi069//eshLVPC0uTtt9+WH/7wh3LixIkRgUzHUzKEQz5t3LjRkTEofqp3JEP2WJKhZAynbB06dEggZbCU0fZqOJJ1Tka/KSHKOJs+fXqUjEmG7JFse7JkFxcXyy9+8Qs5e/ZsQiJ9XHiHjfQyJR1HGiZUSS8R+fg7sWXLFjcvHwoZg7IOGTO5NEOmJUDGePV3l0NtfFDOeLvXdms4FuvPTxGMBThRJ61sicypzpGmaxekawLsGdPQiGVMhjxTmSP7b110J/HQR2ASU/kfix3YT536I1AGaqM+70+G/ywmXiokXhipO499WbGuByufk5cWbl/tyJgl765yJ051sDSPdZfdkX2II5sy675P/UBpjwwBQ8AQMARSBAF+/I8EGcNvPfY1UcWsvZ0Fs2FHPI44FFCUNn7c+y54co4+Qy55CNWtW7dO/vM//9MtuUEWLlge8snX2spZg/fN/7V+LnKQ/2hevyzqjcOaA0eZ2hYXEYnjmniVQf30mrapHL+d5FG5e/bskS9+8YtSVlbm8mm7gzhqmfpc77GoQWGE1InltE3UQ69pSzzHM+qvbeovbTwZ/cVDGvIl/vr16336vr884+WZ9jX1ZdkY83H37t3RvWMYA74fbLt0vsXL548Z7Tcdd4Qap/m5x/tpeKZzTNMx1/7617/KzJkz3bj1yyGN5mfp2XCcL1fnEPL8eJUfK4563Lx5MzrnNK2GWk+9J9Q5wTVzS/FA/tNPP+0IKJaY4fz+5Z40+GA8z1auXClf/vKXE94zJpYMZINDsN/oD+pKe/rzrtL9/EPeW7duuXGKtVosfPrJHn00pGVKaKS8+nXPGCVj2D+m75+QaDkxLxSAmA9TOFLbreFYbCr9CxnD6re00olFxmw+c1Tml2XK7OIlsu/mhQlHxgw0HhkbsYiRWHH3fyJ6Uonsz0eSJlLOYOVDxizYtkpm1OVL1vY1clm63JHbkDHOcxiUkTFeZ9mlIWAIGAKpi4D/41mXRGgcP+T1d5qGiSKhMkjvEzHEB8kA0qgi4Ss2wThfufIVDNJpeSjpX/va12Tv3r2uqsRDWuhz0tIu36ny5Mv3nw90TT5VeigHr3Unb6z2qkzy+m3ReK2j4oFMVaiC8k6fPi1f+cpXHEGh7SStylCZGqI8aTrCN954w+1roZYxWqamVznIVCyJ03hNpzL9ePrex0LTDidMZTJGcQEzlo0xJxnLjOtkLFPy+wYrBr0nDBI1xNHnOu60f7mPNVd4zjOVSVs0D+l///vfyzPPPOPGgx9Pej+Pj4FeJxoGLTOQq2X5MojXdvnx2i595s+FWHUM5tV8xIPnc889J7/73e8ccein5Zp5jHy/DCVYec6+V+wZA9mKU2yD7eGeZ8F48hCn9fbT6TuEZ74nje9dwf38Q16fjOknab+PBk/GRLQfAjh3CBjImKnlWe667yu+37In7EO/o7kei45a0ZcTkYzZc/WMzClaIlNy35QPr58zMiYwQHVsxCJfgnExRzeR/flIeYmUM1j5kDF5+7e405Te2VAnF0Md4WVofsVjCg2AYLeGgCFgCBgC4x4B/zdYMskYVQD++c9/SlpamvvafO7cOXnyySflu9/9rvtafPDgQaeYqbJOXdj/ZO7cufLVr37V7f3Cpp/82FeHsqSyqS+nCH3pS19y+zJkZWUJJwOxgS8n0JAO2XjKRhH81re+5RQcFCTS6xfreMqMlhsvZNNKlEz2hLhy5YrMnz/ftY9NcfnCXl5e7k53Yk+WefPmuTiVpfW7du2avPLKK67en//85x1ePmGi7SXfe++9557zxfzb3/62vPTSS255AO3SPV/46g1u4Bh0fL1mSROKPW0GG/ropz/9qcOM9DomIGdQJv/rv/5LPve5z7k0RUVFfU7D8RV4rBpYUrNw4UJnBYElBIqmKrjBugz13idjhipjLOcDf5RlliWxJItNqbFaY6kLz3w/2HboXMPq5sc//rHbf4dxyqlNWEexXI05xBjStJQHyYHl1W9+8xs3FtgwmrHoOyULOOnqtddec3OS/ZueeOIJt4yFPK+//no0C+Ma8oE5xHxkbxVIxWnTpgl7Pw3H0abHH39c8vLyHJbgyLj/3//9X0du8H7gfUCZxLO8UecZ7cDRbpaJ/elPfxLmJUuGqKtuHO3XjzZT1ve+970oPuRlbjHvlfxgI9/f/va3bsNbLYOQ/CzjYsmgps3MzOxDxuj7gr7BYuqPf/yjfPazn3XWM7NmzXLtos4qV+cd6anz9u3bHbbM9crKyii5g1z1/thSWU5gnH9I81DJGOrV3hsKn6ZUlunIGJYsYZRoukycXotED7az+5c2Mk/pQ/RTjFidZUxtrhxtviAd0jso66eRqd3ISYVgPNJ6xZExf09/VfY0n015Moa+9v1A6PppE7mOKS9eRi9xvCTBeC/L/ctgosg9BuGrzhyWvy99R16oKpAbEQu/PqY+pDVnCBgChoAhkPII+D+4k0nGqEKDkvCzn/1MUCxQVL7xjW84xYZlNVOmTImevkE9UO5Q3rBsQSnDkx5lBmUQBQuHgs+msxASkBB+evJwTDNEgpINEA8ogqQnLV+bKR/ZkCeq/Ayls2kf5M+2bduc8kcZyKUMlC7qQ5nE0TYUWm0Hyi4KEriQD8KGJVYQH3/4wx/kwoUL0fbSFpRkSCpkaTu4Jo68KJQotyh2EGCQIUGHsod8/7hclin98pe/FCxs1KGsckQ4OEF2UQ6KOkopbaYMdRBdyKAOPNc2kw8iYTj4ahkaMk5SmYxhbDPW6e+rV6+68QFBCZlw+fLlPkSMP3cVn0RCxh3WFvTPjBkz3NIhxhD3hJAObJKs8ikXQoW5BgFIPzP+CNVqg3KRu2PHDjdOeM54Zzz8x3/8h0uLfEhKdbQxJyfHzRXGDOm1DswH5sZgnRIqBw4ccO2gPIgs6opsyoBcZM59+tOfdnHMB4gNPfEIghEC4+WXX3ZjmXzUDxnMa+awWrCQjrkCYcNcod6kQSZtBy8ITV1+xalDyIKoYV6oVQxHQ1OvF1980cWDDZv/8j5gXtMXpKd9xLMvFmXoe4A6UhZp6Qc8dWPZJiQbfUfdSE/4wgsvuDYoCaMh5fh+IPxJ+1DJGEz5IWOO37omaZVZ8vTqYjlx94a0S8jImIF6b5w8RyeFjJlRli6z63Ll6N2rckd63bHm46QJg64mZMyHzWfdBr7sGcNh7bq6W/V7J1RvNAyUpNEQWuYGQEDBGiDZkB+r/FDYmm/tRwdkdnGGzC/KdBtU0+f+0qQhl2MZDQFDwBAwBMYtAuzB0dzc3OfHuP/DnOtEHOlQJlBY2DOBH/94vlRjDYOyw1dgFCJdGgMRACGAkoHiSRryo6yhvKBkqGPJBvL46oyiiEOBZY8FvnT/5Cc/iRILPKdcCBO+JqslB2QCpML//d//OXKE/ENxkDkoaZTLF2e+nHOSE0ofFkAlJSWujlu3bnXKIUqQWvpgSfOXv/zFKVUoeChPOKxpUKwIFX+UXrCBwIKkQdlCgYIEomzKwzKGr+EofpA5KNraXuRyzdd76uUr0fQRxAsKIQ5LHZRv+gNFlrJwlEv9H3vsMWcFRFm05dFHH3VKI31K32HBQYhyCRmj+Z2QYf7DuMKaqampKarIDlPkuMqu40HDoVSe/sAyRskDxi/jgvFBf3GfkZHhRDMHsSBD8afvGRvEHT161PUvY0zHLSTjpEmTHPkK6cD4hGyArGPcUh5WUzrXSAOJANnK2KNNEA4QQYxH5s5QHeNDiRdIROqFpRFjlffJ3/72N0eiQHjRLuYEeXSs8i4hDkKTdxR1Y9wxX5GhcxjMsGqjDKyLeK8wRpkrEJQQM2CkpAtLjyBpmLd+H0IEMd+QpSQN+XkPMK+RiQMz3n1YxIEr5TMP2VeI9w/vHtqAbOYubYCcLigocH1LX2F5BObUSUkYDbVOGg6EP+lwYOQTtAPlCz4f2jIlyu4VaevpkTPtt2VqRabMWbFU9l0+G95/IViK3Y9LBOhmtYyZWZsjO66ccsuW4m9bNi6b2afSSsboBr4JkzExfqNFpkkf+dyM9IoYLdcvJ951jGo/UN8+ZjMJZXhQRL8xyBwJuVqoyg+F97nacPyAzFuWIU8XZQrftiDbjIxRsCw0BAwBQ2DiIqA/wuOFiSBDXhQClDYUEb7GPvLII1ESAeVBLVvYD4O0KINYX6BMoIzgUEBQoCAhUAg1HqUf5QryiDLUUS6WHyhyKIsoGIQoZSzPoRyUKIgPLGWwAiAeR51IP1jHl3fax5IPrAKoIyeLoHjq8drUC1KIMrFY0Xbw1RrFECxQjIgnLcQUSh/LjGgfChTEEwRLrFNZWHJAeWBJfpQ0FDPyo6yp45rjhSFJVA7tZlPVn//8565cMKcdKHEQSziUUJRILH1QDlHywB6HBQL48kVfv/4TIlcVSJcwSf/QR8jGax2SJHpciKF/fT/USkNuotRjMcHcAlfGHyQC5B7LjBh3kLPM3T//+c9uHFA2jrHEXkMsW4JI4B6LJeQR0vc6zukrNoeGEGV+8gzZEJmQfmoJBIE3Z84cRwZB3iiBMZQ2Yg3HGOadgmUK8x4iCRIGKxaueR9Qb8hd5g/jnThd4kR9mUtKWlCPwsJCRyJDfuAgNZkTkB3qdNzTRrCD7ISoAAdILspi3qgjnnveI+CjDgsY5hZlkUYxY2km9QdfyDPIJNrJu0UJEd4bEC70pS75ou/0HaehxnGP98eW9rXWJ1aoaajbcNzgyRhKYyz2ityDoe1tl8ml6TKjNk82Hjtoy5SG0xtjMC/Da8qyBTK1Il1WH98r7LlhZExkDnhKfiwyITJN+pAvQVIk/FpPbscnUq7WI6HySeT75Fb3vuxky1V5Xt3ZdFzJGCxjWKYU/tmriS00BAwBQ8AQmKgIDPbHeCyckIHygEKAIgTp4X/lRuHRr+2QJTi+9PpHwJIfJQ1lEEUQYgElB8UPUgNFBYcCQVpVLljKA9nAHi64pUuXOmICZYmlCCgtfK1G2bt06VI0H3VWGS5jgv9QD5Sr0tJSpxyhuGF1wNdvvq7jtH4oTRAaKFI4FDMUMFWWXGSEhKK9KI4okSiH1B1FFaUHHMBQHcokCqFau0BSUA7LLFA21XGNggbOtB1H3bAQgozRZRq0BTIHKwb28gAz6klecPXLpi1PPfWUs4xBcWRPDjDXpVha9kiEqvSOhOyxKnO481PHOJZa9CljAfIMuSj3WGthScG8pQ8ZU8xfrDRwzEnS4iDleIZFCY7xjPIPece4wuMYL5AxyF2yZImLg/Thnj1kICMhXJlHzF3IHOaR5ncZBvEP9cNSA4IUsoeycNSDdjGvNI60EBpgkZ+f79JQf+YPxCUYgJmSvsxVrISUxMXaDksiyB/S4RUfiBxIVcpUi0NdaqjvPdKCO8sGwdJfxoVVIOQW+zBRdwhdyB3wevXVVx1WVuJf2QAAIABJREFULAEDM/oCOchjXlAPlkIhk3nJ0jPIGqyOkAW2vA+0zhqS3/eJwk7+4bihkTGU2SPS1tUtF3va5aniRZJWlS3L977vTuAZXpWG0xzLm2wE+OYypfAdmVy2SCr2bhX+rE14MsZT7vsjKUimpIcfBrMns89Utl9ef9ekH9CpUA0HzDAGE0TqrmTMnMJ0eboky8iYMdhVViVDwBAwBB4WAkP5IR6sKzJQDCAOUM7ZIBPFhB/sxKMIoNzxZZ4v9CgZfD2GZOGadKqIcY8MvtSjRLCcgT1oVDmkDFUEyIMCo8uUUKTYyBZFi40uUWwgOdiDw3fIVRl+fCLXKJcoPP4eLKpYYe1D/agXZUBA8bWepVo47lGmVJnV8lB4IUjABEUZRRBCCgUMBQpZ6sATxRCFi6/rPCM/WCIjSMbw5R2FDgzIi2MjU/pICRoIJsgklpCgaGLdhLUOxBB9i6JMnbjGUQYkDcs0IGxYskE7lRxyiUbgH/pM6zAC4sekSNrr+8FWUscOViCQbFh64JTYoh+xLGPsMW4Zq1hvQczhyK/K/tq1ax3hAVmAg0iAGNCxpX1DepYDQbhA1HEP8cfG14wx3gOMSUhArR99O5T+JT/5aAfvCQhMlclchBCFgNIledSF+lI+7woceblnLCsJw5hnvmC9A5mLtQp5sRhjjmANhwMznVfMF8gYLICUnMQajvQ6NxRPyCoI0XfeecfJ4R/ILeYR9aNNWLOBIf0GZljusJTRryP5wF3bzPuTvbjoGwhW6s581zoqzhr6Y0v7L1qhGBeaj0cqM0ayAaMGRca4ivWGwhpmj0hXT8iZ+c+uzXdkzJojH8rdFN/gdUBEUywBljCzK9igeYmsPXHAkQsTmYxx3aukRKzQ638eB4kQzeIlC1/qg4HCBzLeNyzRrMEy+7snT0ynwgYKY2Yeu5H89Np58aRAxswvyZJ/S3vUMkabOnZrbzUzBAwBQ8AQSCYC/K5VhR2Fm2VBKBnJcCg/7C+C0sXXZnX8aEc5gMTgCzHlQQCwhwxWJVof0kPWQK6g9JCOL8zs44CyiFWGKjM84xqFir0XKI84CBEUF0z7tSytBwoWmxajoKFEDcWxfAhrALBTh6JHW1jGgVPFSJdiqSUMy6X4yo6Cp456IAtlUPOjyEGsoNjxTOVpHrWMQXFGOcIyBoUL7Fm2AN70M8/YSBmLBBROHMQN2OBRmHEo6JBXLAWDKCINDjyRg+UC+KtC63QjlyL8D0ojdaXfNa/3eNiXjCvKpj6p6sAUhZ/xCZHJPCAk3vdDbT9ECpYo9KXvsPCAjGHvEsgECD7INfrbd/QBllcs+VGigXEDecDGuzpWtK7IZR7rmGasMcax2CguLnZzHlKBMcr45jlEipIcftkDXSOD8pDN+4B7dbx3IEOwhlEH4YkFGG2kDpCSWKKxtwrvIuqjMrCwgwThPUnbmHO8XyBFcLxT1DH2H330UWf1p3FqkcSc5V0GTpQBGUN91XKI8iBOebdgrURZEFj0DRY/WBoin/y8M+gP5jpLOLGSIb3WmbK51vcd/V5VVfVAH2lf+aHWO15IWt4vLJGENBqqGxoZ0xO2jOnulT5kTEOEjOlmE19vwgy1cpbv4SOAJcwzNXkyrSJdGj7a544BTt3Xf3jJChv4xtszxvWIau2xQq/LeBwkQoh7wMWS019cQECscoLlxrsfifoEqjembiFj9l47J3OXZci8kiw50X3HyJgx1UNWGUPAEDAERhcB/dHOXiGYsfMjn9+ww3XI4ShrzON9AgEFgq/gWKqgFOD4Us9XcixXUKRwhCwpQPnhGmUCmVjFkBZlRQkECAhkIZMvwKq4ovyQnz1NUKC0rShcLDHgSzOb+OrSIVfwIP6hbRAvlKdtRInl6zttQVGivTiWLfFlGgUbhyKnSykgWVBqaCP5UGrpCxx9QV1pM5sRK5FCeqxR+KLOqStK8qDcYUlEPCe9aPkoa5BH1E2XJCEb0gaCS7+w66lWKM6k03ahdEOKQXaxNAnMWO6FgotCi6MsyBgUWRRc+ivZjvqBJe1PVUe/QMYwpiHEIE8gRoj3/WDbT15wYzwxFsESR7ySXPQvY4L+Jg5SjnmCBRb9S5+y3AZSAwJG+5jxjGUMhAEb1FIOciFBsexi/CrZwLxlnEN6MEeZv8xN5DNPeUb9IBbU6dzV+3gh4xWs9B3BHFTMaDcksB4DjwzmBaQSHksS2sPyKdKx75OWq+8L5rw65gxzEnwgWHQO0WYsypjHLMFkXlMHCAveFxDAxOEIqQ+kF+WCG3WA7CK/kp7EMa+Yv/QbfYNMHOWxHArM2OSX9ynWbmDJ+wgHDsxfyBgsnXxcFJ9g6DIO8A9zn/FJmUN1SSNjplVnS/3RDyOn7Qxvsgy1MZYv+QhAxvyjvkRmVmfJqmN7bANfIGbux/IB+EkSJEHCr40YCWPJixcXI3uwnETvh1SfQPkOi2DcGL3np8uR21ecVcysZelyuPVa7NOyxmj9rVqGgCFgCBgCyUcAhQOSAK/Kx3BLQXlg01kIFVU8UDQgC/jxztIaTPFxxLMsgCURLCvCFB+lhXu+3qM4qONLMTJRllAsWFJDSD5k6jIAlCwcFinEYe1BWq5Jy7V/Wgl1GKzTk1SU3AA7SAqsQlhehcKkeKKs+ktDwIRlVXxZpz5YydAm6kc89UE5Ai++omPtQjshnILtIZ6NfHEoo/Qj6ZBJWsolDcQUHmWY8pHNkiY8CrHmx1qBfKQFI+qFcsuXer7gY8GE4snmv8STBuwVV9KjTDIGkuloG2VjTQS2qerod8gYCACISEgJFPahKMs+RoxFCA/wg0BgXxHf0V+QLxAqus8J5WLVwhiir5mTjFlICPZeYZwyPwmZ18xbxh7jgWV4EAo6hliyQ7/Rj7QLMoY0zEVCxg+yGXsQFupod6KOtJCQlItlDO1VB2FAOeCq7yTICqxiaLPuJcN8pm60lXZoiFWZT+oiFxKU9lLvz3zmM44Q4RpihHZhJQaxpe8GyF/aCZ4675mbYAQBCpb0A+8WCFWtE2VBxEKyUB/y0EbmGmXhmXPMY/qXvvrUpz7l6kA5YEqfQwAztnDB8RS8d4kG+Ie2QUThh+qGQMaErWLYHKanV9zRsCxTmladI6uPfii3pCe8ia/HXg61cmM+nyrLgYr2ifbmjyrI+px795ilX+H/nfKuzwNio/p/MH4k7+EtX19fKbNqcmT5kV1yQ7pszxgA107SMNAJGq19rPeEDzj/oZ9A4/0MGqdh5Jne6hhLNNR8fhHuWh8Q+o14IOHAWDyQRWU/8GDkI/ipefzeDXm6NFtmLF0k+1ouGRkz8rBbCYaAIWAIjEkEUKiVLECB140pk1FZFAqsV1DYIUZQwNTxhZgv8ChFKEuQAigRRUVFbvkCSgwntai1h69QqRyWDCADpYP9IVBk2JOBOFWYSIvShULJl2rIBGSjVLFkh3ohW5UQrV+iIeWpBQp5wBKPJQ7LLFBUkI3DGoelGRAt2h7S8pWb5Qy0A1IETJRoAEPqr4qjWqbQBhRAsKUOkD+qYGndUY6oG0qb7rMDoUOcnqYEPtQTr9YtxFE+e99AkIEZCh9KIJYaWheURognlkyguKJcovBBwLE3CG2j/sl0lK2WMfrFP5nyx4ossKM/ITfYjJYxwfIfHacaDrW+EFqQD2p9hRz6k3IhSCES1eqMZxCJECko9Vi/sIksViQ48jB/9RorDcgNxgxkAbJoB9YukAVKxpCe+cf4YT4qeciY0z1VdKyRVueEKyjOPzrXIJKYU2qJo8mRC8GI5Y5asVB3xiukCXFaDvMVQkiJE5YAMW+0DL9uzAOWEkLCMN+QxTJE3jHkwynZC9EDFswVMKKe7B+FJRnp1WG9gsUabcHxzqBMyoJgxtpISRb6xl9SSHr6TE9Koywsb3gHkg5Z9JuOo3ih1qW/kDnOO8hfbtlf+ljPBkXGOAGqnPWKwCFgmDerKk8mlWXIyiN7pEW6pZO1Wj3h9VqxGhurIkmN6wm/+JHZ0cuiKZHO7i4JdUT+EN5/PPRifRm9IQnBTPlxcFb84WUtV8TBTeJJhufaPeWf7pDc7Wh3RFa7hKRTQtILodXTK93s/Nzb7ZYI8W0kUIyKH5EQMuatzbUyvSpTag/tMMuYBFDW/h2Iw4iK0gyRjmUVoBsXkfj2zg7X/9H0cS5ITr7Ber/4SBWiJXS03g0POFchkfae+z8mo4n6ueiNMPLt99oEH3XICxbGQ61MNGFyLyBjGluvRcmYg7cvGxmTXIhNmiFgCBgC4wYBfoQrGYF5Oz+q/bjhNAQ5/AZGvnrufa9KwHDKGW5e6qOK0kCyNJ0qconUnzQ4TTucMFb9hiNvNPLGqvNw4lCoISfU8mk4ssZqXuYL5AtWYRCXLMuCQAj218OufyL1CaZJ9B4MIIgIE3HIJS1h0BGn7x2/fI0bjRCSk/qNRlmJluFjEes6iGPwnjwQzlhu8bdjqG7IZEzII2NmVuRKWlWu1BzYKS3SI53s8ftQyZgwHK09nW4/CFRAFNwwA0LlHhyogwLQUxi7Q73SFep18omGvLgR6nBHQDuZHkmD/unqESnMvyaKzY8ht1jdhuckI5RHLQ41GDImohcPqspDTaxkTFplhlQffM/ImEh/xMNT+4o+isc3PJBXMxFGxgivXsYHYVukx+9C0EXGAGOBsRF9RUfyEmjZQwl7JOQIzA4JuZOzIAWlq1ekM0wKPlD3GBGUC6HYKt1Oxo2uNnfN2O0z5rXdKkPvI23R6GSGPhkzs3CxGBmTTHRNliFgCBgC4wsBfkyrApNsMiYWEsEf/LHSjHYcFhZYjGDmz1dt32OtEvQ854s2VkTB9th9320agngko28nAhmDMo01F9YGWFJgWcImviOB53D6JFifZN+DAXMNqyuW3OlcxAIFz3IdnmMhop7lU2rxx7utP58oaZGq6Qbqr4HGBvkfDhmDMooRCD4kTjmfXpIpc1cWSckHWxyJ0PGwyZi28NpaTgJafnCHpK+pkXP3Ihv4tLTG/iI/EOL6XLXdyKFSlNTc3ebIF0o43XtHFq+vkdcrC+Tgv0+Ec3l5VEyfsDckN+7dkavSK2WH35NnVhTI/JUFLnyxtkD23jgv17E4imQaQV21T7W4gYx5Z0udGBkTHjYQDeDfn/dJkIT6KoYwSBaMW1nx3SxdclHapHTPZplfkiEv1OTLc7X58kxdvvyjKj9MyEQqpqL8OgzmWsmd69Ir604fktdrCqWkvk66evTJA0MkGkE5jBfq/O7ZRlmwoUYYv/PLMuWFqjypOrBdzvW0yj02+I7m8sD040bo2idj2DPGyJgRAtrEGgKGgCEwDhDgx/RokjFjERKW5yRKxrBRLntOQNywrCvoBlJuJvrzIF5DuU9lMgalXx2b0I43y5hkj+94ZIySMsEQgoalPcxptarh/ZaqZMpw2zVQf+lYjBeS/+GTMb0ibB81rShdnm0ok8L3NzgFEoXnoVrGRDS9TScPywu1S2VeWbZsPXNM7nV2DcJcIQ70yOZdESFjUD6xZjkvbbKiabfMKlokz68ukmeqcqXx1uX7lgCYBODvv2eiBRDVdPmcvL6iWF6qL5apxQtlSvFCmVyy0F3PLFggmz46ILdDYTqmjyIblTIyF7RvwdYV7jQls4xJzOqE/vH9gD3jJ45cY/kCqcGK1PeunpLX60tlTkWmzKnKklnlGTKjIkOmVmW4U58uXLsSNTnpxgR6GNYxjLAz91pk6fvrJK10icwuy5Cs1VXO0sUtxYvTGIY2FmjUuezANnm2Nl8m5bwhs4qXyPyKLJldku5kQcocvHZOWiNWPk6ctj+CW5wikhKtZMy84kwxMiYpkJoQQ8AQMATGLQL8mJ7oZAwYoLgl4tivga/u7CcRa8+SgZSbif48EYwHSpPKZAzL4BgjOPZeYW8XxhmkBBveBsfPQFiN9PNgfZJ5D9GghEq8drC/i3oIGLDiHhyNhOm7JDQWcTNQf8XDXeOR+dDIGFeJiAKF9cm8ynx5ctliydlc76w3HjYZ097eIVfu3ZGXawplZnWOzKrJlfxdG52ySN1V94sXKsgxQzIFyJhr0iHlOzbKS+W58nR1rqTV5ci8lQXy/uWT95crkQeNlfwB13jprLxRni8v1xTIS5V5sv+T026J0pmeO1K4fa2zTnilKEv2/ftjuSvdsficgMTk3ULGLNq+ypExaz7e78i3gW0kklf+aEti7PZ3tPVARIeOqQfqrQ8GCrEu6ep0ewdhaXXg3hX5x7tV8vfSBTK3Kkd23zwvF0J3Ze8np2V2/gJ5cWm6HD5w0C0josy2nm5nKcO2SeoHqnPrPRbEibN+OXbhjLxaniczixZJWtkSFxauW+HImE7plY6err7jzxvPWHaVH9wuUwvfcdY7K/Zskwt3bzripenmZXlzbaUjlDK3rpJzIRZdRVykouyRxA5P0Xh9nsSQ/r0h4o62nl2UIWs/Omh7xiQRXxNlCBgChsB4Q4Af5PyoZgNdNovkmjhzhsBYQ4CxCSGmR5cHlcmxVt+h1Ke/uZeK7Y2HUX849JeHMaI+iJfd911GGA/HROO1j9gwXTcATzSvn27we8Zobv5OhcSRDc/VFcnk4nTJfnd1dJ+Th2UZQ7WwKlj94Q6ZX5kns1cslem1ebJoW71ckW63z4YaqMRSUgf880sCMnrLlC7duyVLG2plYU2xVB3e4ciY2asKZPuVk85qhuROw9S8EQwhNW5JlyzbtlaeLc6QBavL5dDVc46zYePh29IlzdIpNbs2y3O5C6Vw4yr5dysLlkbPQcYsfm+1TC1bIkbGhLs+1rjRuJjjh8hEfaRrW7rbpVl65V9ryuWJsoUyc1W+vN9yVi5LeB+kW6FOqdu5WTIqiuTS2fMiHeFRARnjxvcgyBgdTWwU/NH5M/KP/HQp3LVBFu+ol7nlmVL0br2b55TA3CJ07dQ2Sfg9sP3aKXltY5WkFS2Usj2bpaWrLXp6RHN7q+y5cU5eWlUkL6wukncvHouSIMoasV9N1yiRMXMK02VOcaaRMdr5FhoChoAhMIER4Ee1r8BMYCis6WMYAcYoG6Hi1IrEV7DHcNWTUjW/raoIJ0WwCTEEhogA45A5OZzxmBQy5pWGSplalinp61dE9zbho4JOmiG2L6FsTin0UqIonrpzQ95aWS5zq/Ikv3GHzKotkFfWVElT5223pw3GmKo8B8OgPE/0/cuIEkqgxi6QJ22hbjnXcUvmVOfI3JVhMgbrBsqLZHHldoZ63f1N6ZUjrVdkXlWOzCvLlPX7d7kybrexlW/YER69eEZeylsiL5fnyoHr5x2hdL8yI3sFGbNkR72RMZE+DI6X4H3M8aOdn0gY6c470u32iJlZmi5P1+XL2nNHI5s7d7n+x0KKvqH8ru6uCDsSvndzL7LBNkYnwToG7++2tbmTu/yRdFO6JPv9BrckKm/LarklWK0w3kPRMa+Dmv1kWKpX0rhDppQukufLc+SKtPc5eYlNrlnSmPf+WplWtkQydq1198jjJDH8aJMxc0uzjIzxO92uDQFDwBCYwAiMxm/WCQyvNX0EENAxq+EIFDHqImlLPKft1DBeOos3BEYLgUSXePZXn6SQMW+sr5W0imxZvLZWLne3hcmHkSJjfIVWSRWOgI58sWfBRc6GlfLGqnLJ3r5WDnbflLk1BfLc8mLZf/uq3PROJAoqpXqP0gmBwh4YLGtwrwUtN1IOvLRa2PgAN31yzpErT69YKjs/wTIm5GSEFdlwno7eHpf3mvTI9munZUZtjrywcpmcvH5Z2PPD7fvBV5qeXiHtlc67krO2Tl6qLpA1x/fdtyjwCx6hayNjwpvSAi9DQMeIH+rQ0DBmV+jDAUIec3rSB2eOyTPlWTK3MkuqDr7nrGQgaBhHraEwIUM5jMEHHEIiZAzjlD5kLDOm/XHIM31OGl9WW6hHFm9aLvNqcqVo50a3F9QD5XgRV0Pt8ubW5TK9KsstrbtJXdmIravHrZfq6ukR4hqO7XVL+J5duVTOtLXIrXut0fVUkDGjtUwJyxgjY7wOtEtDwBAwBAwBQ8AQGDcIQEhgKaPEBGEquP7a4be1v3SpgIO1YewjwL48uIH29hmoJUkhYxZsWSVPLlsoC1ZXeZYx99dlDVSJQT3nXeOxIFzy9R+Hgrzt3Efyz+Ul8nJZvjRduSQf37ohb29cIc/VLJONjYekub3dKaS+Mu1fo5yitC7dsErmFWfIrstnwsKJ5KGIfHzjiiyuLpGiuurwpsDhaJfvvY+PyryqXHl+xTI5cee6tEkoqgS7ZBgB9IbjbkhIyvZtk7SqbHlr20qncFOEaw+V6gkXCYGU+e4qmV+UIeW7NptlTATvkQgGu2cMQy+Zf/4YZvR32b6tMqcsQxasr5Z/32uJ7NnCuGEpT3hceNOgLxSRscPfZUiYjIY6eaWiUJqar7ipQxs5eppn2840yfM1SyVj8yo3L1TQHemVRe+ukPnVeVK9Z5tbphRSMxtN5IVn77TIK6tLZXZljuz85FSUvOnu7hV8ZyhS3rnjMqMyy50Edbbjltzr7XJHwzsSMtQrHBXP3jH+H1yvmGFf6p4xRsYMG0oTYAgYAobAuEeAvzVtbfw1FDl9+rTbKHTcN8oakNIIsEErxz0HiZhUISdoF2779u2ybds2txfHhg0bxuQGvik90KxxCSEAIcPJX6dOnUoofaxESSFj3np3uUwty5B/LS+VG9LjFMaRUqYc4+IYmLASjGLKtL0tPXJJemTJtnqZXpoR3bCX54u3NMis4iyp2LLJKaCqxJIv6El/U0KStWGFzKnJl4I974ZxUw1YRFbu2yH/KMmT4voV0urtQI91wbYTjTKvKk9eXL5Mzty6Lu0R4sVxZ2jtFBgKW9y4k2f2bXdkzJvbVsnViBVNL+moZHdY6b7OUqEtq2VeUaZU7DQyJtZATlbcUMiYZJWNHMbQoTuX5V/rq2R+VY5wghVHQavVSGRYOEJGx/ED5TPGesJHz2Mp9q9VlTI1d6HUH9kXXurklhX1uLmQtaVe0iqyJHPnerkZ6paOzvAG0TekW97ZWCdzK3Jkxb4drl6hLjaiic0+nb/dIv9cVSZzIWMunXblMIy7ekLOq3UOZOnMCBlzrj1MxnRIr7A5MERMT+ArT7J/XBgZ88BosQhDwBAwBCY0Aqr87dixQ7Zs2eKw0LgJDYw1fswhgOLHCUPr1q1zJ+f4ulayfy89rMbr3IOMqa+vdyTpihUrZNeuXX0+1KVKex8Wzlbu8BFg3yZOsNq6datwytlQXVLImH9trJXZtfnyj4oCp4SFjXaGWqUB8ilRwTKMyDIiFD32Ztl09pikFadL2soCqb1yTP4tPdLUfkteWVcjM0uzJWtVndxiGVAMEkZJGTiX6z2dsuboXnmurlBeqlsmVzvuCQQJ/nr7PXmzukheLS+QdXvCe7xojVH0IGNQYF9eWdIvGRMmfbCAMDJG8RsLoU/GcCTzlQhBQt2US9OxQkhcMh1jed2JAzK14G1HxhztaI6SMZSHgw9h/MQlY3jQEx6vnHZWtmurTM9eKIvr6+Rsd5tcF5YMiZxovykvlOXJ01X5spqj03u75e7dduno7pGrXe3yxppKmVmSISv373LWXX0mTqQu2v7BkjHP1uXLeZ+MiRAxLM0byR8XRsZEOs4CQ8AQMAQMgSgCKICrV692vr29PbpJajSBXRgCYwSB3bt3O5IiVTfw1aUfkDFr166VY8eOOfLpvffeG9Hfh2Oke60a4wgBNu5taWlx41SJ/KFUPylkzOvrq+WZ1UXyfHG225QTRXHEHNpfxKNzorw2S7dcFZHXVpXJC2vKZOqqApm/sULSli6R5yqWyozyHHlxVZmkNyyXs3duuTy+Qu1fQ9Tc7OmSi73t8mL1UnmhqkC2fXTEnRKFlcF7x4/IMwXpsqi+WhovX+jTTCVj5pRnyz9WlToypjN0f68O1eaxMKDMFrdMaRyQMe83RDfwvRPZd6RPw1PoRsmYuSXpblPlWGSMNwRHhIyp3LtVZixbKP/aWC0XpNuRMUrEEDJGEyFjWFUEGXOk+bK8Ul4oL5TkycFbV93RzpAx1ft3ODLmnYZqabp9zbWlp1fkbkenXGpvlVdXl8m0wkWy+sAHbs70MSOLsDCRQC5ELGOwCgtaxnT33t+3Ri1jnq0NkzFtvex/0+uWKvFjODQKZAwWaSxTml+WbRv4ptDctaYYAoaAITBYBO7eveuWe5APMqaqqsoti9ATawYrz9IbAiOJAEThBx984MgYjmEfyY9XI9mO/mTr3IOMWb9+vRw5ckQ2bdrkli2lYnv7w8KejX0EWOa6ceNGZx0z1NomhYxZuG21TClNl5fK80eejPFaChnDSt+L0iVvr6mWaQULZWZljkyrzpEZNQUyuzRXXqwrkbnVS2VywSJ5fXm5fHDutCNWIsYDzrrAv0bRvdXR4ZTP8g+3yeyliyVzwwq5JuJ81voVMr8wQ/I3N7iasMcHDqUURX7Ngd0yuyxLXq0vF5Z6IJs0yFUypvNeOBcWCjWHP5DJ5RnyXH2JNEfIJafgRhgi8n3cflP+tabS1aX+8J5R3zNm0fbV8kThO1L+4Va3F4hrS7jZKfcvfXisrVkgY+aUpMtlCYWJiPscYGIEDJ0Yy8dAzE/GeF68pkqwysn7cKOcly43xpWMAft74dHkJHGUdR+HsMiA5gnyOOkofUWNzMheKAW7NstF1sZLh2RuaZA3V1bIuiP73JhiSV17V1jeJx135bX6cnmmpkC2nWqS1hDrnjxzHK69Jt6RkPxjeZFborfp5BFdjScQMZBCbaEwju+eaZQnl74lC7aukEudUHsQS+FlWM7ktLfvfjEuzqVKzj/0r0/GvHumqU//JqcUk2IIGAKGgCEwHhDgbwxf4glR+FgWcfPmTXc/HupvdZx4CLDtAhKEAAAgAElEQVScjmVK58+f70PGpAISWPsoGYMFUF1dnVy4cMHNS8gZ5qnvU6HN1obxjcC1a9ekoaFhWPuNDZ2MAbvIl3fImMml6fLiKJAxqriinKJz8uX/vcun5Pnly2TqskUytyJX5hRnSfrmBmk4eVTevXhaNjeflWdrlsmzlUuloemg3A6Fj+f1SRj/ur2nxyloH1w67U5l+seKEtlx55LsvHNJXllRIv+oXSZ7ms+HNzWNjCHqpWTMrNJMeW1NhSNjiI9HxmAZs+HfTTKzLl/mLV8qx+40OxlOz/XImEMtn8izFXmOjPnwytlRJ2MWbF3lyLZlOzY6si2g/o/vWRSovZIxc4qWyOziJTHJmECW+6SLPtBBGivUNF5Iskh3O/JkydpqmVW8RLJ3r3cWXxAqOt4JwZ8NeNn89l43VEa4Ck5kJGGIg4wi5N7tnl7ZefIjmb00Xf61cbkck3bZdOmkPFdTKK/XlcrZO9jJhC1iWKLU1tUtp25ck2cr82VGUbojY25xfDaOwimDQu8Hbi6w4S97xlTu3hY5tjqcprO7R+71ukOsJe/d1TK9PF0WbV8VIfbCJyjxlD+wrAX0/9C6uLCYpPxL/7IH07ziTHea0soje4yMSQqyJsQQMAQMgfGHAH9jYpEx468lVuOJgkAqkzH0of4GhByFjLl48aIjY2yZ0kQZ4eOrnQ+NjInoYX3ImCllGfJiRb5TsEZymRJlQ5ygExK6pUMt5xwZBKGx+84nrg4QICixNyKeE5WmFqVL7vsb3Qa9PvnywDUkUygkV6RbCnZulBnlWZJ5aKtkH9wqM8uzZNHmVc6KBSJIsSCkTCxjZpRkyBvrqqNkjC4pccOLI7+7UEDD+9zsb70qL6yvkOkVWbKh6YCT4WSi8PaG24k1zPySLHmlrkhOdt0edTKGDZpn1eRJ7pYGp3RT91R1Phkzq2jR8MiYBEGivyPd7cZsxYdbHBnz9ru1ck46XVyEY3GbY3P0ddi2KlyAPoOAUdZGyRjac7eTPWJC8urKckmryJF1V0/Kwu318mTe21Kx772oLIgY+pbxyulI7JfEkjssY/4/e9/9Fcexbf1HvrXeL2+99753g6+tCMrJtmRbDte2JNKQc85RiCBAwbIiEgKhLFkJIYJAAkSasL+1q/sMRTPMDMOQRlWsQ3VXV9zd01W1+9SpUGQM61N85zL2Frlwpq4Urz59VPmwhjTiy+WEXPr0XVEG9leko7j/iiJspt1zajtrkjHOXZSkQw4TxrCiEQ8uaTxSlIZ9ecnIudDsJ2PCysBEMggYBAwCBoGYQYD9jFoi69CMiZkGmobEHAKByJhYaqSM/URTbWhoCNxNicuz5Jr4sdRu05aticCGkjGKMLC3zk3sbEBcUQq+LkpXSyLWkoyRiScnfxQuOTjZXIIdhYn4va0atHzBOGRJOPGiYd+3tM3S/Qf2lWbgWFm2stWyhIDRVmAw+bTHoyaLzQ/v4FhNLo40FSo5WpOLpge3Vb4sZ3hqUpFCLGuSOy3dvaaw+KmlQpE5rCMnojqBQXy4QIPyAjM41V6DPbmJKLzUpsgl5iWTYpJNtE/zfUUuci+24OXchH+Sux6PLetOA81H6vOQ3FKjMNXbsh51WM8yiD2XKe3LS8CqyJgwK83fkZOMufj6AY6UpePbmhzcmhhQvykSixQ+D4PeaRS1NyKxKAft1/5QvwPeEz8ZQ+PWPotU4bM2PetW6WrvXsfx+iJ831ahNLGOVWTjzsgbTH6aAWb5iwDeT39S5TybGlM7gpF8bP+rH8OYt35Xdrv47PPZoNCx/KZndxFfkIyjeS70vn+rfiO8xjgkLhvvXMPxogwcKk7F1bGXGJ6fwqzXve5kzCC8+LokU5ExiU2V/jZYLTH/DQIGAYOAQeBzQWCjyBjp+6X/lzEpz40LjQDHIDqGchwqpcQL12c54QrvoYzdOfaicA7AcSXHQfSZ12ocn9dYJmO4TEkM+HKZEm1xcLcabnHN7YOFhBF/NViatAaBaCCw8WSM/YI5+6gHBwpT8XVhOvrev/V/aY9GI5158AUqjkRM19ATHKvJwY60f6P93i18mJ0B3NZMdJ7GSDl5xRzOPbqLvXnJ+KWuGJf77mJW7R8N5fPlKWJNSaFsXXAC+Xp+CodzkrE3P1mRLCdrChXpwvh8sTIOSRXWheZ8Kx93q62qD1Rn4wV8qnzWgXEnJqaQX16G3yoLcXdqRF0bds/ixl9P8GNhFo4UpuL0uSq89M0oUunqu7/wS00Rvi3Nwq/VRXg4Oqhe7qt9mQt+4fjsQLgMjZoxuZdb1USdbY9Vx/tEbSqSMcfKMxShIISDdN6q7XISyA8BjjOJ3tGTcHmJGSR01iqbNceKU9Hxsh8vMI2/MI3zr/pxojYXR8szcCQ3CfU3LysDv24OS9SWXxYpQzst8kyzvBmPFw8HXuNEbir2VGViX022snvE51c5amzZz+l7+JRGzje1efi6qQjN7x7hEWbwDh7/89z96hlOVuUjta0e72dn1EDjOWZxqqMWRyuycbg0HeX3ruE5PGpHqrK+qzhanoVvSjNRfKlF/YZYLjVjpP12TdbU4/19B58yzL0/PwWuczWGjFlTxE3mBgGDgEFgcyPAid16OJlAsjT22dNet+r/1EcT+4ML+232iQxjfzVDe2u28HyWdux8Xky53ZiYo/n7BVJCbwPL4Hh2zuNTOyRy+f20261k1utV+bMsIQ3EZ5gQQ/Slf6Yv4TK2CJRe8omWr5el18UiOXyY9y2I2x7X6zgEOrbwB+a8Xj8mgg19zg9YLssTJ3gSA7aN5U9zuTi8mILXulf2BzPOCWirjx+DOTeg7cGXcOMdvKseb5CoePfuHZ4/f+7X6JI6xoovW1sHao//N2TbjgkUx4QZBNYbgUePHmFigr/8yFxENmPkhcgi2Tmce9CDw4XpOFqQpr6I8yW1Vo4vxBkPX4XAALzI77mA7em/4PvSTDwdHrCKVVsY+eBVyyMsQuTZ3EecOVeJ+MRfUN91Hp/mrDy4c4z+sucklhoGLIft4Au19FI7jhdn4lBxGmhjQqX0WJNdRdi4PyGr6yy+Kc/GzrwE7CpOwc6CRBwtzcTP5Xl4+nFU5ffk6XP8nurC1/mpyP2jDR9VqFXly7138FNVPo6UpONwViKOF6arpRQ8p8ZRx+NePxHCuq2XIzkgW5dz4s32Eq9YdXyeaUiZBnyPlqVjAG5/50nc/djLSSA/CDgSXX5DTp/lswPvmRjE8cJUnChKx5HsBHxb4FJyKMciib6tzELr0x68mp9QAwJlkUWRMVzuYw2a5LkWo7y03VJwtg5f5Z7Gl7mnce3FE0U6Ytq6oxyA9L58jl8KsvBdkfW8H6jIBOV4TR6q7/yptsSmraOCjmbE5yXiaEk6ng4PqmeTz0af56PaEpu/lQOFLnxblYsjZZmKiOF276ebyvH8wwimfW5Me+YxZw9GBZcg0EXlEvHlMiXulHagwGXImKigajIxCBgEDAJbF4H1ImMEoXnb1tvd54/R1duNtnu30fzgNs4+uI3mvpvofHgXV/56iBuvn6kPnPzIqcujiVG8mJvEgG/WvxSfH5Fo/Y3TAYoQAfyYpAvHtfxAyI8ug95ZFY9xOdalMC21vBnHKQynSBk64UDSYS2EbdJlwDONIbhVvTnmYB3pi3DMKuFST6k3febF6yRV6PT2MP4IPHjrncVf0x/xeGIU/e8H0T9myb2xQTTfveGXs3dv4MKz+6ApgYKuFiQ1Vqrl/GldTaCkXmjCyboi9SE4Li8RJyvz/ONJu/gVeyQq5ubmFBHDXVzW+9ldcYWjnMCQMVEG1GQXFQQmJ/kmidytmIzhpEkmkDzmS775YQ8OF2UoMubuOmjGzMzPKUKEeiJNj7txuqkMZ3uvWSQJsaBKzJy1TS6/u3OqSQKl61kfkqqLceXuneU1Y2wyhhNapuGL/ubLpzhVVYQfK/LQM8rpufUmJ3HD9o/45pHd2oCT5bn4uaFEESrHK3NxJDcFv1cU4p17BiOfptQXivLaWiSUFeLh+yF8mpmzegQCyYnsu9fIv9CCb3Nc+CbXhWP5qerF3j9lkTnEnXY97OhWojX+z47tREMR9tdk4981Rarjsqbua1zwBmXPyTqXsRwpScXBohT0TQ/7O0/i7sdeTgL5dt0DXWKY/H6cvnxx+eCbwzjm8XJiFFWdLXCVFeBMQRYSCrKQWlaA5uuXMIY5RYSS1GA65iuOtlf4lIiwHHHdzx7i24oc0Cj1exUD8NlkzJzXh74Xz/FrbiZO5qXjh7IcHMl3YV/mGRzLc6kBCF83HMz1Db3B0YJUJDZX4aNX6eWoARq3AqcGTfXViziWegYnMlNwPCMZ/y7OQdPtaxj00vSw9XVvat76qic4CF5S17XwA5Exa0ker0UbTJ4GAYOAQcAgsLURmPLM4XRRDr4uTFO22faVpmFfeTr2VKSrHTa/yDuN/5fxC7YVJS6So2eLcKAuF3EVadhenAzaa+QHQJHdxSk4XJODH9sqcfpSoxLaiKMkXGzEqa56JF0+i6ybHcjvuYSKRzeVVD28ieqHN1HzwJLa+zeh5GE3ajWpedSNak0SuhoQfanHmQuUOr+cvlCH0xfq8XN7Fb5vLsWxujwcrMzCoapsHNZkf2kavq3Lx6/t1Uj5o1m12d/+y004c7kJv3bV4mRrBb5tLFL2GmmzUeRfWb9je34C9pSl4WB1NuLL05TwvsRTKtMRV5mO+KpMJXHVmdhRnoqvSpLxRVECdldngmG8zs059lAq0tVOkz9XrJ6McT71hoxxImLODQLrj0Awba5wahMlMuauImOOFKTh7tigmiSGU3ikcThp+zA3rYySkiEfgU+RBAwffz9mkTEkZNxeuL0LZAz3KuJkctLeDnieCbQlSiQZRDNGyBiSLR/gw61Xz/DHXw8VEaMYdY+1KkQmcpzYMu+38KgtsAfgUV8s+OWAE0CZEM+4udTD56+DmtnamUzYX0veYl6x9/zSQS0NfsFgHqM282ZXO1L4VpSOZMzRqlzsq85SW5fzy0GskzFv4cbR0nRlM+bPoWcrI2M0dHmfhGjQfYYHEonD58uiN6zMaFdFnNuxlbWXW1FrDwQPhYQRn2mnZngn+UXLjZYHt3Hp1SNFNKpAOz09PmfyNYxfufQvUvLliT6fddKSQ/CpR5j5jMOjNGT4OPN3M+F1qy2x5TfCdo3Pz2JK2YlRJat/bDfLFn/hSvSPFpExhS6k2HaQol+SydEgYBAwCBgEtjICUZ/ocjXxjK2V7ZlHz8hrxBemYFtpiiJgthUn41+lyfiywoXt1enYWZOpfB5TtlWlqWtfVab6r++qycROxqVUpWN/Yx52V6bjy8IE/D37V7VsnoQCyQUREg+087grP9HS5s5LwO7cBMTlJCA+JwF7chKwN9uW3ETstYW2DffkJSqtWGrGUqjxEZcfXdmdn4jd+QmLZFdBAii7C5MQX+xSbdlbng4KSSzK/vJ0nGgqxrGaPOwvTsPu3ETEFST7ZVd+EnYVJCKuKBl7y9KUEJM44kFCxiZeeLyzKFltDLKr1IXdjFOermR3RRp2VaQpjBXpUpOlCJgdFanYVu7Cl2Up+KosBdtLLPl7wWnk3P8TD3xTGIG1PCxavwkxPB2t/DZDPqF+c0YzZjPcJVMHQYDPoxAxtHcUqVsxGcOCZNLIY0662p7040hxFg7lp6F7+M2akzH88s8NfT/Bhwn48NFesznP9UUe7ulri9vSjuGklPG51paiSBetHdIe8WViyMkju022kVNZCqFmPJkA85j5ccLJ65zI6uqePOc1xrHnvFZ65mHNui1fZWrF5QSY2+8yH058WaZeZyZdL8c2xRWkIJ5LVYqs3bJYl1h1xJo2RQ4XuxCfcxo3378Kn4xxgCLPkTxX9Bkmz4EjevBTPTPJRHzJWHum+Wjp5fKYYXwWSaTwubSGhHaFGEF7lokD48qzy7g8ps9ngs8liTnmxTBWReLw+bCzW9JYqTL9dXV2wWwDlylRO2h/oUsZpebvm07qZp8azyBgEDAIGARiHAEOprnWn35PTw/+/PNPzM+zN4N/kB01CNjJsCO2PRrQ316cgr8VJ6rJ/67cRFB25iRgR/ZpbM86hZ05Z/xkBw3k7y9Jw+GKLBytysE3NXnKThtttSk5X6M2hDjdXoPEjnokdzQghdJeryT1fAPSO5uQfakFeX+0ofDP82rpfX3vdTTcvY4mSs91nO25juY7tjiW5ZztvYEmTRr7bkCX5vu3UX7jItJaavFrZSEy2hqCSgPLDiR3rTqxXlwGJGWyfC4ParnXrXYgPf+gBx0P7+LCw15cfNiHvqEB3Hs3gH5beNxny73ht7jPZUfv3+Le6ADuDr/C3ZFXuDv6Rknf+wG1HOzu6ABuv3uFW4MvcX9iFNcHXuDcvduovHYJZ/tu4ey9m0qa7t1Um3awvTldzXC11yPjShtSL7fgUH4qDnOjgIosxOcm43xPt3+stNrniQZt+/r6MD4+HnPLlPg7FNfQ0IArV66oNl6/fh1PnjxRx4wjInGNbxDYKARmZmaUcWka8o3URUTG+Cct9jKdhnt3cKAgHUeLs3BvcnRdyBghWOZozIxb/fq8VsfptjRilDEMObZtafDHSyLHOUkNdi58CSeYSyaZC+8MNZGTuJzwcTIrwnS8pkW3TliwXLAv8lTW+nLSy7TK2QZWF+Uh19bQt8gYfhlIx/GibDX59tdpDcvdqKx5zzhZP1SUgrjsU2tCxixpG29qsBvLa/KQ8gGRY0nHczu9XNKj6WHyLDJMOclDSy9pVZ6OvJleSBf9+ZYy/NGZnwRKGVLmevtSvs8ilBQZU7mYjJHq0jfOIGAQMAgYBD4fBOSLJndv6ejowNQUP1esLRnD7rFn+A22l7gQX5+Lt2oTCLff7gq1oinUUOWYUMaFejiviQY1w7mbKDXFKZJO7LqIXRj5iMKPEOzDx+FT2t+0YciPm5O2UIObwg8vREOEH2BEmJd8fBSf41/mLR9spDxJo/u8FigP5sW66MLymSeF41KWQ+F4RMY1HLvwWI1TtO+ythlJFVfiMB3nDpZwHmFp+Ur9p7weTHm9/vImfJYGPstn+yisB/OhT83gEZ9b3QNqDPN+ND3owf6KbOzJTcbF7u6F8f4qflo04MvdlGpra/Hy5cuYI2NEy4AQkYypr68HJ7nNzc1ma+tVPDcm6dogQF6BBrXr6upw6dKliAuJChnT+uQ+DpdkK82YW8Nv1EtKIzcjrtxyCYURFd/r8YLio1YMRUgY+mq5EreWoVVTW7Sv4DJfdPra/G1xNfQLcswY+izOJk7kpS95S3Q553UKzyU5X+yyNISdgrogEe18F1dobc+EjNllyBh1K+Q++U/kpvovLNwPBsm9Fj9ANOseB7xg58VrIgvZL3skZTl9fxE84EXJU/ftS+oaH0aO1uhzdKMZBpbnltnI8aIKOfLUr+nF6+FrdqzVhb8pQ8asGdImY4OAQcAgsGURaG9vV5O/0dFR9XGPY8yoOun87O6Xttf2lmdiV2GKGvdNzlq7C7JPZV9F4bHWhWFibg6f3G7MeKnxvUA+CAEhw1/2zeIkPb9LynUJkyrJuUojJ/RDOEkvYwHanqPIuIC+ECSBfJoLWCqyQ5L1oZUfW7l0W0+v58thPof36rsrN+AIMr7RmyN1pq8n4bEQOCxTh+GTzwcKx8a6CEEjH6lYzrl7d7CnMhs7C5LRebt7oV56JSI4bm1tRWNjIwYGBgwZEwF+JolBIJoIULOyqalp48gYvqD4ArrxfhDfVhdhV1YCWh73qRdUtPswHTghYaw3r9272GTMEkJGJ2OEkLHfrHonIi9j/YXsL5MRVyKSieMFL1nwsnQk0pnynNf54ueXA34FYJjqIXhgR2Cc9XT8CrC7wIWd5ek4WpihvoKwzrHq2JFyidiB/KSVacY4ANHvtRyL74i68GwtuRBZAMvRn2ftcbTKkovOCtnn9NTDyBvN0aA8pBzsaM+0/CakvHBqK3EX1SmchKuJY7eL9WVzaGT4m8oc7OMypVZra2u9XqspyqQ1CBgEDAIGga2JAL/El5WVYXBwMPpLlAiJdDQ2PPeG3mAPd9CszMWEYhA03BhXDQK1MB4yjB1oICf50w/kGC7Mh3TCzI9jY7/YfT77fQqvh5JFAwOrYJ8H8Lh9Sry0segBGCayeDARqLIrC1O7oEo9lvMduHAuQW15BuuXFEwenyKuJKs5DzA97wG3CJ/xepWQFCM5pggyr0fBJbVmusuPHygyZlthMtp6uuWblkSJyKdmDImYc+fO4f79+zFLxvDeGM2YiB4Rk2idERgZGfFrbkVadMSaMXzR8IVFZvjmh2EcKM9BXHEa6h/3KLU+kjF+0iTS2oWbTluGxDL9JI0dvuTczpf1lxet+AyjhOUkciBfyyDQZQljuU4n/Z4zfCPOScbsKnThf3N+R3y+S6nKkrCIVce2Ub2XZMzXFZm4Nf5aEY5sr9yzUG2XePIb4XlQJwnEDxp56UVJJr48y7rPa8s5SSfX/XF5II2Qi/rvw5mQcfyJF/CSaHp9AmSrlRD8UPITP2BsuejwhYz5mmRMkQtJrTXqHcb68HdH3ziDgEHAIGAQ+HwQ4NIICie5FNri4LkaT0YTBvZHdifDw96hN4grTUd8abrqh8IeZOh1kj5OD1vLYykvmG+X74zir5bzAs+j5Zx5rzJfZ3YcJ1haOgv2J2XMrsY19v31zAO3/3quNJ++LEhCU+8tNTdi3NW4WCdjBBu9ndRU4+/ywoUL/nnlus0vpULGNwgsg8DTp0/V80l7Y/Jcir9MkiXBqyJj+M7hZP3Gh2HsL8/BztI01D7pUVod60nGSKOdvpAwS8JtGPiSZRtE5KW7BKUoBax1/lGq5qJsqKGzqygVfy9Owq78ZLWumdpQsepIxnCZGA34cmvr7g/Wsju2N9z7pz9XPA7pJGPxQyZYHEGe32C+ZB2uL3kx/rJuuczsBLws+ei+noxR9WsrPQ5YP70AxzHJmEEAJGP2FrmQ2Fqj3mEs15Axy95pc8EgYBAwCMQsAiReaLRXJ2Nk3BjVRkt/ZPd7vcNvEFeeoQgZjqXpGIX90aZ10oblfLvi0g69T2fYVnfUpJGdKukvaZ9983xzQM/z59hXlokvC5NQ33dL2ceh9vtqnE5SxKJmjGDD32RLS4uSsbEx9du8ePFixJNdydf4BoFoI7B5yJiPw9hXsUDGcJmN17Ng7XpNOjUNTck/XF+S6p2F9CtybS389Sgj2vUmGcMvN9urMxFXlIpH7km/pki0y9oM+ckypW8rs9QypbuT7/ztDff+OZ+rkO2SjMUPkUDv/FdyLNlLmlDnjMc4AZ0kDuTbCXhJylorP2D9AtXJDjNkTMC7aQINAgYBg8BniwDHjjLJFc0YGU9GFRTpm2zy/64hY4LAq4EVJNZ6XwqXjOGaJZIxNOD7VVEyGu91R2UDDNHgitVlSryf/O3RdXV1oa2tTWmq0YAvDRfL71L89b7/pjyDgBOBDSVj5DWpNGO2MBkj7bB++k6Io3suZUU317XNjWRMfFkG4hrz1drmno/DfnJibUvemNxJxtDA68n6AmxP/zd6p4b87ZX7F+xZkThCPgSLq1ooCXQ/RNMl7/XwA9ZfryuPpSISbtdfvyRRou2zjCVO6hHAFzLmWNVizRhdzXhJfibAIGAQMAgYBGIWAU7sNoaMGTCaMQGfKn30ELCXD5gq/EAZHISfQmKGImNoG0c5jyFjBLOV+CSbKHQkX0jGcCtvkk+GjFkJkibueiGwMWSMvMNsnzZjbthkzBc5Z1B+77pif6kZwx+UMJzrBYopJwoIyD0G8GhkSJEx/6pIU+qWN0YXlu1EoaRNlwXJGBp4PdVWjf0Fybg7uZiMYRch8Czn64QD4yxxzoSSQMKXJFgcINHXw19N/Zl2resYVv0EV9uAL5cpkYzZU+xCQluN31g21YdZX+MMAgYBg4BB4PNBgONUmQCuaaulL/JrxrxFXHkm4koz1HJZlq33myvt33RVVq2oxU2SC8v5dmy5vDhxGAMgLb2z/2eeoR1j6SnDSxU6X4mh56/nzWP9XOIv9vXUei15rK4JGeMDnrx7F3XNGD6rjx49UrK4ZrFzFmzeyGu6xE6rTUu2MgJ9fX3gcrpIn82V24yR95Xtk4y5O/sBe0ozsS0/CQXdl/xkTLAf1FYGPebrLvfYQcYcKM/GzZE3arfjWMVgMRmTgruTC5pAqqN1DBOcnbHznGmWOMFXfEkk50sSLA6Q6Ovhr6b+TLvWdQyrflpFqBnzFsDRqhzEa2QMiRhDxix+zsyZQcAgYBD4HBCQAfSat5V9kd1pcc5+dzgCMoaVlHycvtYAuaQFLRzKRae/EMNfhBa0cOhMJ+cLMSxiwjEGYLTgjjGco4bQqYLnyatSweXy18ODl6fHDFRTGu4VZ5ExWVFdpvS5z6vktyq+YG18g8BGIsDtrefm5vxkzErrEhUy5jHm1I47O4tdSLt8zpAxK70Lmy0+exu7P3o4MqTUaKkZc7A8G7cMGbNkqODskPXzgN264Cu+JJDzEM+DRF8PfzX1Z9q1rmNY9dMqImTMkWpDxoR4zMxlg4BBwCBgEIgmAuyL7E7LImOWX6bEvjNg/+asj5anfmmZYD2KdbxMxGWCV5Te2f8zz+COMVaeauV56mVISyVMainhi3MPVEM9JbfzFvdkaBAHK7OwrTgZTfe7lRbuag34Mu/Z2VklUs7n5AsJI/7n1HbT1s2LAJ/H1bhVkzHcWecVgB35iYgvT0dCey2m2IXw7bTOTl6d0fLXufqbpzjtmXowOoQ9ZRnYVp6Gw2XZ6B6Ofc2YIfhwurUa+/K4TMnWjAn3oVruLi6XXnpx8TXsV5rVckU4w6Uo8Z3XlyvXHy4Jl/MlQ3+CxcWieA0AACAASURBVAdy2ekvl12ocGc+i0uzz+xIfF8NcLes6hzElabidLu1mxIvc3DMsowzCBgEDAIGAYPAagfYSxCUzsq/TIm7KaUjrjQt/GVKSzJdGiDFiL80RvAQSSd+8NhLr0q6hb6buw75wiCXlqYMk5JaWgkVEii/hVotzlviii/x5Jy+lUKuOH3G8LgZarknQ2/XhIyJZSIi1G9O2i6+YG18g8BGIMDnUJa40u5YqOd3uTpGTsbwfeODMm5Ktf9dBUnYX5UFV1cjuHRJvXX1d9hqjwO0QM/S+VKM1rleRoAqLG1nkKYvmz7ghY0PJIYkYw4WZ2B3SRqOlsY+GUPNiSF48FtDKfbkJKBHyBiCwU8aVEGVNS26z5m8zObl4dMfHgkLxw916/V85ThUGvu6RJdqyHnA36seSY7pS1uD+Xp8OZbCxNfqLEESVfeDFSPXAt0Kuab7NEj9GNP4Ku8Mdldn4nRnvX/ZHevAco0zCBgEDAIGgc8DAQ6ep6fVqBXPnj1ThkI/fvyoGi8TPt1fNSrsaJaQMakByZhI+iNnXyrn4oeqv8STPljOxV9pepIwXvsvOB0jJYiv1yBUqYGuSz7BfGc6iStlO32rBc5QOWfq9SBjpqamQBsVb968cTZgy5/rk9mGhgZcuXJFTXCvX7+OJ0+e+JeByG9yyzfYNGDLIzAzM4Pu7m71e9Sf35U0bOVkDHPnG4dvHx/URIZkTFxhEg5UZcLV1YBpXpB32mr8IC0JlK28EKPlByojSJX8lwKlkzB/pE1+wPqSd7g/OoRDxRmIL07DsZLYJ2PY5vfwwNVcjf05ibg6/NLaTYkPFS+SrVmOkCEjIDN/eQgJpByH64d6NpbLRx6yUL6dv0QL+FtdrgyGSxtD+YHykELFZ12010WgJMGK0UmYcI4nATyDG9sKE7GzJhO/tFepW6owsF9toeA31w0CBgGDgEEgdhCQL5vcrYW7tggZI5tQyMQv0oH2IqTY9/nJmNeIq0hDXFn4ZIydfFGWciLdaqB+lGFyXeI7fbkevfQLRAwJGZ4t1EJKE19K5TmdhNunK/KYVs8v3Lz0dJJ+sU86xmqJ1Rr9KlMvJWMysa04CU33b0VlmRLtUly9ehV1dXW4f//+ilDZCpHlt8i6koypr6/H8PAwuLU1263/FqPye9wKoJg6bloESOQPDAygvb0djx8/jriekZMx9ruNav/cnSSuIBEHqjKQ0lXv350k2CQqnGv6S47H8jrV/YhbvsKEeply7KyfnPO600ka3dfjS7iErcaXvFbj8/7w3vaNDeFAaabSjDnyGWjGsN0TAArOn8WR3BR0Puu3NCd4Q0jCLEfEyAMtN2414DsfHjmXPFmGlBfKl/rovuQTqa/nFew4VP52uyRasKz0a84mh0PCSBySMfyWtKMkBV9VpuJ4Q5F1f1kJ+x1jV8t4BgGDgEHAIPCZIMBJICd/60rGjLxCXEUq4spcYWvGSH+5nK/3lYGOl0sn4YHS6GESbzlfj6trxSyQMYtjLJAmEs6cV+OYnnnJSEHypR8qb0m7XPrgLVKpPUxruSdDAzhYmYFtJYloun8zKmQMc+7o6EBTU5PSFJGyYsU3ZEys3MnPox3UiiEJQ3KUmluRutWRMfaE3SJjEvxkDCc8MvlZjc9XqfM1ypddwNepXIi270BWz16vm37sSLLoNFB6hkl66T5W6kt6+swvUse0LJsKIFzS0fNhCHvLM7GjNBWHyrJifjcltv0TgLKL7Ticm4KG/lvqnLj6b5KmyeG8n0wvz7wo0hDLlYik1/3lngf9vjuPJQ3zER5Jrwd3jqKQdKOStlMYTpF44kt4uL4z30DnxDwcYdpAdZK6hfI/2OTxrvJU/Ks8Bcdqcg0ZE+nLwqQzCBgEDAJbHAEu+ZAJIMkYfoH/8OGD+gIvNgD0r/Grbq49QGP/fFeRMS7ElaWsGxnjHCes7XkgzZhgJa5m9Cp3hnmwDBkB6eWFyl9PKyMw5rOQx+IWLaaYVOpFZMwbHKwiGZMQNTKGmjEtLS1Kbt26JY2OGV9+i/zNGc2YmLmtMd2Qp0+fqmd1NcsGV0fG2MuUSMbszD2FfWUu/NZchnHMYWZ+9TLnnse8ex5ujxser1d1jvDaL1N6Tll4X+rvzsiPnfnbRetPFeumR1PX9AC3F755N7zzbvj4kmb9pQ16RsscMys2i6U4RZq7JCnz91jlYt4NJXNuwCk0NOaxjS1rbePEnRNjTlxvfhhEHJn9ijQcqMxC7/SomgwvKTNGAtj9jsODoktt2J+fgoZnvRi38ZCJPrEhUeUUkpDUquFqcwrxew8fRuDFMDx4r/JeuC7xnL6eB6/9NT+BJ5/G0Dc2iNvDr/FgclTJ/alR3J96j/uTY7g/NYb+qfe4NzmipG9iCH0T79A7+Q7XR17i+sgrXLPl9sdBXBl8jtanvajtu4Gzj3uVND25i8bHd1D/6DbqHt5C3cObqH14E/WPulUYwym1D7sdwjBn+C2VlnnU9N9A05MetL96gK7Bp/hj5IUmL3Fl5JUtPH6hyV+4MvIX7s2P++XB3DhGAIzZWBJj4kXs9fvBMF4bh0/dC55TeA/+AhBflYm/FZ3B/tK0RWRMjDzGphkGAYOAQcAgEAYCnPQJ6UJVcycZw8khRSdkeByxs5OuhoxZrmxmTZGx4cb7i6kLa2GP1DKQv1zLVhquo6CXEyofSce7s3Iyxktjnhzn20VOwotD1ZnYXpqEsw+is0yJLWhra1PP6Z9//hmqQVv2On+TjY2NaG1txfj4uGrvpUuXovc73LLImIpvJgTYF7x48UItp+vv74+4alEhY4YBHCxLxZ7iZPzaXKYmPTJxjdTXv+DLsXzd/+idg8iEdw7rIVIefX6Zfzk2jKv9PRiencQH39wiYRzWadI3r2QKbnyCV6UTbQL5wu/8yi/Xw/VFy+ATfMpWzzS8mIUXc163knmPGxSSRoHFA7fHC7fHp2TW61NaFELG3Po0jJ1V6fiyKhV7q7PQMzNqGWiO+JHb3An5jL2em0LxjQvYU5aGHztqUN1/Cw19t9DUewuNvbdQ33cLtfcWJPV8E1LPN8LV0YCUjgYkdzQgqbMeSV11SOyqQ+rlZiR2NuDXc5U42VCMY2VZDsnGsTKKFf51eTa+rsjCsYpMHC3PwOHSdOwvdGFPfjLi8xKxpzAF+4pTsbeEkoa9xenYW5KOfYxXno4DFZk4WJmJQ1WZaiCwsyARO2zhcVxBsspjf3EqDpZl4FBFNg5SKrOwvyIT+8rTVdvjy1NB2VORjnhN4srTsCDpauvzuPIMa1cI7RrTUv2auxbtLU/HwepsHK7Nxe6iFCVxRSlQUuhCvJIUxBeKJCO+KEnJnuIUxBe7lOwrcuFIQSq+zhdJw7H8dFt4nIrvy3Lwc3UBTjeVIbmtGinttX5J6qhFwh9n8UXeaXxRmox/pP5syJjN/ZM0tTMIGAQMAmuGgJOM4fIPTv5IwHBCuNnImFBACJ2w8UQMSaHlyJhQrdCuC5eiBYU+1FHgcbhO0q2SjFEfRH0wZEy4uC+Nx98dNYD4e6TNGC4D6ezsNGTMUqhMyAYisDnIGHvJQOer+/imNgcHKtLxdW0Oah7dVF/V+VV8NcKv8rWPbiLnaiuyRa61IqmzzpKuOjXhlUkvJ77RFubtF7vc9D+alW2cwu4unGqpQHJn3SJR9euqQ/KFeiUpFxvgutSItMtNSuqfdEOXxqe3EUz+HHuJYPIUM3iGGTzHLF5iFm8xi3eYxRDmMBxERjCPUXgwBp/S/qAmAWUY83iHebzBPLpG/8KO2kz8szoV8TVZuD0b22QMycPGu9dxtCoHX5SnYGdjLrYVp2B3gUvJrkIXdhS5sK3YhR0lqdhZmobdJCIqMxFXnal26OEuPbtqMrCzNl3J/yv4XU38aTA2vjEXX1a4HJKKLysoVjhtmVjC82R8WZGC7VVpyuDs7vpsLJG6HMTV5WBXbZaKs6M6XcXfVunCV0okv1TsqEjF39N/wY7s04rQOVyZjQPlJGEsImYvSZfyNOwuS8WucpclFWnYpcnO8lQsSBp2lqfbwuOFa/70ZcSJuCUrEXKGpM++8gzsL8tUcqAsAwfK0v2yvzwNe8tSEV+airgSF3YVpyjZXZisCCX6lF2FKdhZaF1jnEN1udhbmYEdRYn4Mu93xJe7NElV5FBcZTp21WXhy4xfY1rTawP7KFO0QcAgYBDY9AhwMC2aL9SMETJGSJr1JmNWC5jQCTFBxqyER1kEnI7CSjKRdJGTMUrzndoxbq8iY/RlSpNKw31RRSM6iXXNGP726Lq6upRhVBrUpi0n2VmJ10UiAtAkMghECQE+hxunGaM1glor3+e58H1FNn6syce+3DM4TPsiURBq2xwodSnZV5ICyt6SFOwvdWEfpcyFvQ7ZU+ZCNMSZL8timSz7H6k/4ofmYvzSXoEfz5X468i6qrppdYovSUZcURJ2FyYgzhb/F//CJOwpTMK+omS/7C9KhsiB4hRQDpa4lDgxZTivM/3ewiQlBwqT8XWhC8cLU3GiKB0nii05XpwOp3xbnA5KUms1klprlCS31iC1rQ6u9nokdtQrbQSSCCQHqDnR9ym2lynxeX7wYRg/1hZhL7VLGguU9smBonRQ9ttaKHtK0rG3NEMTi1igBggJjT0VaYivXBCSG9uLk7CtKFH524uT4ZeiFGynqLAk7ChJtiUJO0uS8M/s37CtIEGRJAeqs5SmCrVVKHsrMpRNH9r1oVbL/ooMSyozlA0nGtX+ubMaP3fWKPmtsxauC03IvNiMnMutyL7civQLzUjtOqskpatRafUkdtQhobMWZzprkdBVv0hOd9apLaG5LbQlDTjdSeE5r9XhjJJalUfShQacbq/Bz02l+L4mH2faapDQVoPEVkqtX5Jaa/3PoXom22uQ1F6DxPZaJUrbiBpHndQ8akDShUYlR8qycLgsC4fKMnGoPAMHS9OVf6wqS5HEcflnIBKfl4D9eUn4pjxLxfmmKF1pgmmvNHNoEDAIGAQMAp8JAhxML0fGCBEj12UCSD9iZyeVZUrxldQgXbAZE3G+dkJmT4mEjPHY+x1Fkna5NNx9iPoxlmi4SUUdDZZ8VLDE0ZIxnKeMp4LtOBK2kJ19YSHAyjLkvWPOhoxxwLZup/KbY4Hc3YxbWtNxSRa389Z/g6v6Ha5bi0xBsYwAtSfXjYyRV5r4OrB8ZZ27cgGdd67jVF4GkisLUdN9CaU3OpF3+RwyOxuQfr4uIkk7X4dQknq+DushUo/0jnpQXG3Vqm6p7bVwtVYjpaXKL8mtVaCkcIlEWzVcjNNeC8bVhXkwbSj5qSIHlB/Ls5WcLMsC5YfSTHxXkqGERMs3RamKiDmWl4yjuUk4nJeEI/nJOFKYouRwYQoOFiTjYGEy9hckYW9+AvbmJyrZx/NCLgtJxsGaHOypycLO6nRsq0zFF0UJ2JZ1CrdG3+BjlJh9/RnaTMfSDf/Zdxc/Zbhwf2hA2SOhTRJdxE6JHqbbLOGxfk0/FvslK/H19Ks5Zr24tI0+V0QPfPyA0qYG1HWcx7hnXmmJ8OsN1WtFptS5b4mBXVkitxI/2PI755LGYHEDlbmcAWC2cwxzePb+HXpfPsXdF0/wbGQQrpJ8FNZWbabHz9TFIGAQMAgYBNYZgUCTOoZFlYSRNnEgbU/3acCXZMw/s3/FWBQ/C8hYXYiNcHyLfvBh1jOPWa9bySf3nPKl6jI+YlyRYHlLPfxGVCQjGwM51f0pr1sRLf4wFuCIz1MuKWcdMGftqDA2MWmd20uE4KWNRstOI+01etxuuN0qhT/rwAcsUOzF0GeahVYuXni11ICv3y6kxweOnaKtGcNnkgZDKTyORRfo9yjt5DVdJNz4BoGNQGB2dhbc3lpEfzaDPcfOuoZlM4YvPnkV8Vh/L1ovRStkfHpS2V/gRImGR2k8cwxe5csSmFjwufSn9konClrq8eezfryHO6Cw7dJ+YuEUuR7Kl4mnTDZl0s9JuRh/pZFZihiMHYIb7+DGINzo+TCAO5SPA7j9cQAtT+7g3NM7aLYlvasBaba4LjRid26CWhayvyYbRxvycbA4DfmX25RhWz5Asfn6X/hpTE5+gttNQ2xWmI/22ALIQoqtdyRtG3s/jrraBrS2tmN2lsMbjl8sg4Xiy8tl67VycY3ZHrEBIO1cHMOcGQQMAgYBg8DnhkCgQbP0e05/1djYA2gOL2Q3pW0FpzHk4UgvAsf87Dz11AyScXs4vlAOzGPaPYdx94z6cMPwKd88Ps3zc4lVFMNEguUdsGpaoBwyDxI/gxPjapw86rPGIqpAKUCdLPxj+UxP55lxK/qES+45TuaHHNaWms6kU1bmmPPmJWNW1pbYix3132PsQWRatA4I8DmUOcX8/DxEZI4hz2m4VVkxGcP3orxA6fN8xjOvwqz/3InHjRlYhmCdrzX9FbdVjwlu4/lWVDTWYXjyw7LbFrM7oSzXTrkeypf0Ek8MGs/ChxllGNiLaR8xp5FgSyxDvgsd0kIaq6NiZzWtOi5LC2IKXmVk2PKtHYUG5j/hxfRHPJt4r4gYlk8nHaB9GvNeICKGYVvZSf0DkTHyEnH6W7m9Qev+uT3QQcEwFw0CBgGDgEGACDj7QJ6v2tlZcGxMMmZHSZKyafbqEz+nReCYX4BqMUh4jHB9lcbNESfwzjuNprtXkVxXgoejA1bF7HJWkjfjiqhMpDL2+PgD5tUYmh9qH8+N49eqAvxWkov+l39xU1BHYqsa/gy5GeiMG5/cbjzzTiH3zgUcacjD0YZcnKjNxU9Vubjx+gnGvNzWIlznnLXwXCrtNEkcWjNmf0W62tq6sf86VmszRiZ/8lzKxC/clsVCPGm7+LHQJtOG2EFAnkvxw21ZRGTMwmtpoQ+Y93nV1suf5mYx655f9OJTu/goFUGqCW59mZubU9usNTQ0gIalBHSnH+5NWE08lkm1SP+22Y7MpNPkWmAR/f7px6rDpIonAzVHYu2Tz4tJj9VJOy5rMWPjcJ7bgfOrypwb8/MeEOJAspVbK2NKi4ypX6QZ43yO5Xwrt5d150CGv12qFRpnEDAIGAQMAgaBUAhI/yd+qPghr3OgZWuWCBlzoCYTzz9wX9II3CKmYyG9BDt9fcznPJbUHAF1POrBibJMtdy98/Fd57BQRXWmD3WuSBRyGxRbe4Xa3UPw4cLgY/zcVIKfGktwJDcFfW9fWWUyU50PYYOkIB4D6H7+BN+WZ2N3aQq+KDqDfxWewc78M9ibcwbHshJx4UEPRuY+qY+jTBrcsTAiIKIXHikZk4j6e6snY6TeMo+S81jy+TsL5uR3KH6wuOaaQWAjEJBnM9SzrNdt1WQMX2xuZUeEKykXyBl/IdITeOxJvrxEQ78R/Vn4D/S0PGaeKxFnen/GKzuYmZhEV1u7Eh77OwZn/nLuzF7CI/X1/ARf8e0uRDRhRE1TuhX6omEjvlxjl6Neg/zHuqkTq0uSpWdcGsX4sez0H1I4x1sRC/0lUV5ejsbGJkUssi3ONm/F9gWr85L2ab+dYOnMNYOAQcAgYBCITQTYL3A3JRoKnZqawszMjOoLSeLrsqT/WCkc9riK4y0hY/ZXZ+DB0Gvww2VYTvospx8isUQPNvRkFsPTUzien4b4rDPK2H3+pRZ9SBiilBCXpXB7GRE1sAsutuD7ilzszjkDboJwtDIb1948wwf3vDUWJSzCiTB7bXz6ZvIjfi3Lwzfl2ThQ6ELniwcYAzAID0r/OI9TFQX4uSgL3YMv1PKl0AizIMYSkYKtigezGaNaTpDtNnLJ1I9tFdhWnIT6ezf8tvpCIBTy8uTkJEZGRtRzGTLyFovA35c4fvC+cOGC+oDGnZT6+/tjfnwqbTf+1kHgw4cPqt/gFux6/7CSFqwvGSM9gfgrqSnjSjrxV0LEMK6kE3+l5Wvxm+rqQVFO8lvO19KFFX+5fMIJt8kW3RiqEDNCvui+3t2wy2ER6h87E+mD7E5TDM6G7sycDd5a5/qPKZzjrdU6q7Z6h8etPOvr6zE4OKjWPTrbvBXbZ+psEDAIGAQMAgaBcBFgv0cyhtvpDg0Nqb5QJ2HkeNX9oxpkWcMrkjE7y5KhkzG8bM/lrfFYoAYEGwsGiq+F6flLOeJzyEct6JpLHThemI7vqvKUxklqWz24jIhjScZdlWMGNgYcSw7NfkJ2QzVS6itQcucy4irTsa8mG5cHn4G2Y9yML4NWJrArQI+bDlTduATuiniqvhS3h1+rOvLjIYkQjlkrr17A4YwEZHadxfP5SXU9eP2JgoyM6ctAmCUG14xR+WoAW2RMJbYVJ6Ou93pUyBg+hyQoGhsbcfv27eBN2YJX2T5xJGMonORya+urV68umuzq41hJY3yDwHoiQE37V69eoaWlRRnVlv5hpXWIKhnDV5b+2pJ3kvJpAdvBp6y0ss70XhrQWYE406+0fD3+zVu3QKFz5us819OFE9+ZfiXnfI1Jv0Xf2aXI/ZE8nXXznzMCE0smPqsjpq0Z5hHLTn5M4fpbHQtuF9jR0aHIGL0j3OrtMvU3CBgEDAIGAYNAOAiwvycZw0nf48ePVRIuBwk1Dggn70VxOLayx1ERkzF6hjKYE1+/FuCY0ThOdI7XGUay5d671/h3aS6+K8pETe81fFeajd9qihWRwSVFHBZGy9lQYNbNRfTAy7lJRcbENeSgc+gZuBGFWlSsjUXd89YI9AN86Bl7i+O1+ThWloW2bmsL5FkutbcdyZCrb59jb8ZpHCvPws3xAaUdI9cD+8zfOXImOpaE1IxZiKrIl5NtldhekqLIGNYnGviRiKmtrVVf4wO3YeuG6mNQEjFVVVUYGBhQHwwvXbq05Pe4dVtqah4LCFBLjTub8Vl98OCBej4jaVfYZAxfbyLau0a9nmSZkrzc6TMO40tcxpFj8SW/cH1JJ76UG64v6cQPt9xA8Wgjh8K8eF3yDOQ70weKE60w/R7IfdDzZl0WOWflJAJ9rQNkz818GCRRFuUTQyehBl/O61u56WzLxMSE+sJCVTvjDAIGAYOAQcAg8LkhwL6QZExdXR3u3Lmjms8dMpz9vfN8pTjJ+InfuXpGXmFXaTL2V2Wgb+iV2kY66HgtUGHMUJdAcSRMi8dyOEZ0+7zKJxHDZehZbfU4VVuCzOY6PJwaw/el2ThRkoW+iWG1eyfrvZxj9syTeVE7xW+dTQamUqbtM/4Ud6+cYwSg+8VTxJWnYU99Di6+e4b38Kg81O6PLHgeEDJmBB50vH6IIw35+L6xGG8mFhtAZvnvPLPo+zSKX86W4VB5Jhoe3lb1Wq7+VrhCxR7tcsTL84W7spiMWTyvUekFWK+lnfNzayV2l7hQ33s9zGVSwWtHsoLPKD+gcUldrDknGUPiiUuyqHlw7dq1Jb/HWGu/ac/WQoB2KF+/fo3W1lY8e/Ys4sqHRcboucu7fOHVpL+mrGM9Po8lTaz40j5lmNhDKih4GyW++KHir9V1KT9snxXhjZYK2YdhpzcRNz0CHFg6LfIzzDiDgEHAIGAQMAjEOgKBJn+iGbNWbef0nrsI9X4cxPb804gvTcHt0VdKEdmiJVZQsjY+U6kCdd8Sh+M5MiXz1rCOVIObG0DY1MOFlw/xdWEavslx4d7rl3gxMY4fawpxqMCFjv47/q2ul6ud0Bh5rY04UpCKa+9eWFFlr2kAzyfH1ZKk/LpqjM/MYJ6mH0kE+Tz488Uj7C1JxdHqHLyancQ0xyccd0oFeeK16k7qpeLOH4gvT8OpCw3KToyKa1eOSUjIvIIHpzpqsa/QhdKbF6OsGROcjGGzfztXiQMlaWh/2BPZ/Q0ANid+JCmoKRJrzvl7JPHEZYPUWLt+/bohY2LthsdAe+7fvw+ae6BNo0jdiskYFiTv9eX8SCuzldLRvgbXL+ovjq1Uf1NXg4AgIM8wjRYaZxAwCBgEDAIGgc8FAen/2F6qmnOSu5ZkDPkQOm63fP3NExxWBmszcWf0ldICCUXGcNwd1MnAXCLJOX1mTnUVEjK2x6APPjfewI2Ui004WpWDtAvNykYM4/zeVoMTtQWo+/MiPtEsgJU04H+SIVzKlNFaj8NV2ci73mnFIytCZgJAY+9NtfQpq74KozOf/NX5AA/+ePkI+4pc+LYiB4OfJtXW1op/Yd15QLHnICyn4vYfiC9Lw6mLDRi126PXj019CQ9+76zF/kIXym6sMRkjGBNUr9XktK4mHC5OQ/PdG4aMsW5f0P/O3yOXY71580Yty+rs7DRkTFD0zMWNQGDDyJiNaOxmKpNqSbdu3VJrGc02uZvpzpi6RILA2NgYuru7/Vs/R5KHSWMQMAgYBAwCBoGthoCuCbrWZMz8nMWC0MZA5+WLaLn+B35rKMav9UV4MEI6JLB2uY6pzq3weImTCHJBzumTqbDtAPKQZAV5Ei5QPv/iPuLyE7G/MQ9NY8/Ajbb7Po3h3x11OFSWhaSqMryfnRU+RHJf5JODGPPOo+VeN47X5OGH6gK8+/QJnnkoGZ76hF+ri/BtcSYab/yBCZ9H8UJE5SN8fjLm+5p8DM9+As2/BCJjWOhWIGOIb8nNiziQn4KqaxYRZPNJi3Bb6Uksa8Y4f49cOsgxKn+bXJrF67qsFDsT3yAQbQQMGRNtRMPMj8s6aM28ra0N4+Pji14M+oskzOxMNIPAhiJAVVfupkQjacYZBAwCBgGDgEHgc0FAH7NFg4yRiaITP37EGxkaRse5VjTW1KG6ugaV55qQ1lqD5LMVeDYyCC56D0iwaJmRRBEJGFfIF0kj5/SZ0Nba4CGJmGHMYwjAv+tL8HV9PuIbcnC4pRhHy7OxLycZe0rSsSsnEYl1Fbg/OCBKNZL7Ip95TnjcGPTO4ruKPJwoz0VX/11li4b2aC7038WBzEScaqrA9RdP8BGByZgfagsxMjcTmIxhIdxJCb4lmjFUY+0ubgAAIABJREFUvrEvqziRacYwB1ImFBssP+LO3ZQcy5SIMZPYyVh+Td917MlOQMmldrXDkyFjrPu33H/n75E7RlFbhlox3N5afl/iL5ePCTcIrBcCW56MkR9TuH60gQ233EDxuI6RaxhHR0eXvByc8aNdb5OfQSCaCPT09KC5uXnFxuCcz/lWPY8mliYvg4BBwCBgENg6CLDfirbjBzsu+/348SPYv3K7bNoUaGk+h4bqOnS0nEddbT0aOs8jt6sZP5Rkof/1i6BaJ846kjIIWHMGhhKbL+DuPg8+vUdSey32FaTgX5m/4h+5p/BVQQLi85JwrCwb+0sysDs3CUfzUnH77Uu1VMlZFzlnsZNzc0r5pvzGJRzKSUFGWyPeA0oy2hpwoiIHSa01ysbLBHwqrmjGVF+/hL2FKfixvhjv3XOBlynZFoS57XXTw9vYWZSM786W4C3m1Eoo8iCCC8mZx/iEn1oqcKAoVe1oZK+WkioH8JlaY1Q0IoZUD+mXhb9lyBgyLl5L86jwWgfiMk+jtf92VLa25nN17949JbG4tDzU79E5zgxwA02QQWBdEZiensbz58/VZiiRPp8R2YyJViudlQ51Hq1yJZ9Q5QW7rpMxZG11caaT8oxvENiMCBgyZjPeFVMng4BBwCBgEFhrBDhei7ajFgw1p6lpQ5/jRUp7WzsuXbiMK39cRWVdPYqbG5HQXIXjJVm49dcTRUyEW5eIyBibqCDVQE6D2io3Pgyo3Yj2FLnwTU0eTtYVIbWrCdW913Bp6C/cnBnF72212JubhKb73Wpp0XJ1JJJzHotguT7wAr81lOOn+mJcnXyLaxNv1TG3ob76/rUiZz76PIqAcpIxPzWUYMwzH5iMcVvaLyRjLr19in2VmUqjp3dkwG9gWO4oiZeeTyM4XJGlyJhrwy/EdM1yTbARIrqBZaVkDO3a7M1OQM3Ny1EhY1hxmW8EacSWvRTq92jmV1v21sZ0xeW5jfT5NGSMY/2hE8jlzg0ZE9O/q8+qcYaM+axut2msQcAgYBAwCKwhAsuRMa3t7Xj59i0evPgLtZ3tyD9/Fkcrs3G4LBPnH91VBAkpgHBcJGQMSQqSMFw+YxEgQM2TbrUj0dcNhTj3oh8T9nXaZCFZw8XLaZdacKAsA3nXOzDuC77QhmWQBBmBD3lXOrC/NB2ZvZeQ3XsJ+0vT8EtLJV7bdmoYj8QQ68JyRTPm32fL1BImj9deLMRMGdEu2u21lindnxvHt80lOFCRibO3r6l8GE0nYxof3sb+kjScbCrBI/fE+pAxrITXalfTg9tqN6rs9sZVkzEkYah1Jc65E6aEb2VfJrXLtcE5J1sungk3CKwHAnzX6y7S59OQMYaM0Z8jc/wZImDImM/wppsmGwQMAlsSgVCTlS3ZqBir9OJlSnftZUpncfZcCyob6nHu8kXUXjiPs323sDs/CQfLM9HYt7Lddkg4COmwBD656PB5OgOvIiRIhHB76B+aihFXmoqkznqlrSJ5zXh9StOEcUpuXsKRunyc6eIW0gtkgMR1+kzLvRnPPbqLb2rz8c25EiXHavPQ+OgO/pqfVOQL45Ac4nKpMfhQfusSdhcn4+S5MozAg2n4FHHEODTmS6GjrZlReDAIL35vq8aBwhRktTeoPEkgMT8K657YWoMT1XkouHoeL+Ymgtq8sXJnIYG1YhgelmaMRsacf96Po8XpSKorU+RWaPSsWnyu/0O93yKd7H6ueJp2ry0CJGOEIJ2fn19itiTc0jeUjAm3kpsxHg2eUuicLwfn+Wasv6mTQUAQePbsmbJ/RFLGOIOAQcAgYBBYQGBychIzMzOqn2eofI2WSYP09wspVnckX79ZjgzyJEcpS/flmvEjQ4BYcs0/HfvCO3fuqI0ZIsttaarZ2TmMvR/HueYWnG0+h7qzZ1HdfBZlZxvRPfgS+wtTcaQ8W9kU4USd8/ioOp2QIRnDrY0AjLqnceXlQxytzER87hlcut+DiTlrtyRdO2cKPpx/1ItteWdwvLEI1x7fh9tmRdxcoq9RFzZX4l8C9dIzjUN5KThYlo5dxSn4oa7IT0jwezIJE2rEvINb7ehU8egGdlSn4dC5AjzFjCJTJmzyaNwzi4JzdThenI7LQ88wiFlF+Fx9+Qg/lmbj67IMJF9uwiNMK22eKxNvcLqjRoX/XlOIB0NvMKusvYRC10nG6ADSwDLpGJHFtI3KmTdQI2OujbxSZExmS72/7aFqEOw63wncXYjP7PAw97yKLcffozgu8xOjvdevX8eTJ0+WzLckrvENAhuFADc/uXbt2hIbsiupjyFjVoKWFrexsREUOn1gFOhYS2YODQKbDoHBwUGUl5err3d6R7jpKmoqZBAwCBgE1gEBvgf5lWt2lgs6FhzD+SVMf0+K/QbxHzx4gGDC9LpI7gwTUkDClvNZvshycUx4+Ajw3tH98ccfysbLixcvFBGm3+fwc1uIOTc3j+lPM2hsPIv29g5UVdWgtqERdc3NSjumZ+g19ue7cLQsG6193f5lNgs5ROFI5xJIxszPKd0W0k9VVzsRn30Kqefr8Mltqdv7CSHhJAC1O9KZi43KuO7ZPy9hds7S75iZmw1oK5hoMn9qphRfOY9vy7NxqDwTdfdvKqKGDA75CsZ5PT+J5MZynCjLxJ7CJPyrNAFflibgYFEKfinNxsDMRxWv59VTJFYX4ZvyTGReOYdRzOP97JTS8jnfexMnKrIQX5SE+IIEHCh1YV+pC/F5Z/BdSQYuPriDWc88vHMWEbU8qtLoQBSTlSpQDImtYvDEJmRY2vWRVzhWnI6M1npFPK1WM4bvJBqD5sfgW7duLd+ULXpF/82RjGE7STpxk4mrV6/633vm/bdFb3AMVvvRo0eq36ARX3ku9ec4nCYbMiYclALEEWvmvKSDH+g4QHITZBDYNAjwyy87vYsXLyrDcJumYqYiBgGDgEFgkyFA7Ql+pa2urkZmZia+++67RbJt2zYEku3bt0OXHTt2gPL7778jPz8f7e3tSitDJ2r4FVwf1Anho48zNhk8W7Y6xFYmf/wC78Q+3IaJNhPzGxh4qwgYkjF1tQ2oq29EZU2tImNuPbyP/vfvFpExXLbDeXxUnYOM8ZJQtJf/dD24g99qC3G295pFqni8otTh35GJxAu1Vxoe38HPtUW48aAfHlszxmOTWFJfKYptILXDJUNXXjzCr9VF+LGmEP1To9YiJy45sm3TjPhmkdtWj29zk3GyOhfxxck4WJGOYwUpOFNZgIHpD5iCVy1Xym+qxs9Fmeh++wwf5qYVWfppehqkhBiW0lyJQ2m/40jGaZwsykBKfRkevx+U6sH3aTbI2i5GC0S1MGzBBYqxHBlD4uXG8AIZQzs8qyVjuINrS0uLIic4Zos1J8Qo2yW/R0PGxNpdjp328Hnt6+tTyhmPHz/28wErbaEhY1aKmB1fBkM8lePl/AiLMMkMAuuCAAeP/MLCr7kykFyXgk0hBgGDgEFgEyLAr8+vX79W28dWVlYiNTUVR48exVdffYUvvvgC//znP/GPf/xDCc+//PJLJc5rEof+3//+dyV/+9vfQPm///s/5TMvpmfeFMlL9wsKCvDmzRv/cil9rLEJ4dtSVeL2wDIBlMnfasgY0aaiZtWDBw9RXV2LlpY29PT0qt2ByiqrUH+uBU8G3+LB+Aj25CbjcEkmzt29iXHuILQW6AlLouVNgoPLhEiajGHeImO8XH5j8xV2mvl5jyJChuBVS4ks/Rlr3Ktl5z9kMraBWiGWXRofrr58jD9fP1HhQkawHObFOtAOzTvM4iWmwIU372ytGZI5zI/xmOcU3EpLhvpqXDqouwnfvIr3wW4XtW4+eGYxNT+rjM1MjVJPRxqnp3Qes0ShV3i82OlXJZb4KiZPWFmPRbyQjDlSkKo0Y6JBxrx69Qq1tbUxu7RcfovEUn6PhoxZ/Ayas82FAOdOra2tePnypZ8PWGkNDRmzUsS0+Jy4UvSBUaBjLYk5NAhsSgT0DtD5DG/KCptKGQQMAgaBAAjw/UVHnxNtOr7f9HecTjrzmBPop0+fKpX43NxcHDlyRBEnOlFCbRdqtghhIuckWRiP4by+c+dORdiQgCE5Q+0XXpd4TEeiRcJ2796tNGl4/b//+7/9WjVSDsOZhvE4OaFmjt4W1UC7jSQAKPq4RK4bPzACfE4EL2onEWM+C4EwDpSDPFuSB/EXR8Lgw4ePmJz8BJIadC9eDeDhsxeKrHgwPoqjZbk4WJyJs3du+kkHSb+WPgkO0hlCdAQrizUnuUGxWhEstnWNnASRIHEiaXnM9EJoWIQNjf16MQkfJpRYdmTEEK/UT2gR8f2ZsCDbkehhGUyjgqnB4/EB89yWyT72Wkv8JE1gn6X4S1oUhaHMO5CoiLzARtpkTN/kCA7nu/B9fjqiQcaMj4+rZUp8TrmsLtac/rtjG0mGT0xMqGX0Yj9GH6PGWvtNe7YeAlwpw2V07Jtl/LHSVhgyZqWI2fGpjtTf368GcfqLIdBxhEWYZAaBdUOAS5XEOZ9hCTe+QcAgYBDYagjwfaYP8Fl/IV/a2tpw5swZRaT8x3/8h9JUIfEhRIgQJkKskEQR7RceMy41XEiYyDmPv/76a5w6dUrJr7/+iqKiIjVY44Ctrq4OHR0duH37tjJISZtdHz58WDSI4zmXQvEL+IkTJxAfH+/XxmGZ33zzjcqTtk24rEmIAFnixPay3caFRoA4CX6RkDHOEmj3h5NH3gs+Z263Fz4vFBkzO2sRNZOz82q5yr33QzhUkoV9helo7L6+IrLDWe5Kz0lciJZKOGmFhAgnLuNIfOEmApEX5Cy4ZIo7PHGpEY8ZxnoJWUTEmDagYyHaY85DpmUeKpwEDIVkDLV+omBrSW+Xs02qjtJgm4y5NzmijBh/V2CRMdYTELA1YQV+bmQMl4NSM4Y2Ojs7O9V7TR+jhgWaiWQQWEMEDBmzhuCGyrqrq0sZ7GGnq78YAh2HystcNwhsNAI0QEU1eOMMAgYBg8BWRoB9sDhqJlBITnDHAw7mf/vtNxw4cECRKiQ2qM1CgkUIFx6TWCEhw+s83rt3L3744QdF3PBL7blz55QxSa4V59cwThY4oRfHCTkn4+KoLSH14rGTHJJ4Tp/xKKwziaH/+q//UvVknaSeJGbEyGW4+TrL+ZzPeV+IG32djJH7FS42vP9DQ0NKXZ2EG50sWZI8RDuG59QW6R8fxqGybOwvTkfTnetKU0URCZIg2j5/GvbPw09wsMBghUoaYR6iUCc9S7ciYCyiRO1dzbqQO7E1a5armuQhPqvFNPzVqV8iLzAxyRgvCR9u1W2RPatpArMVKJy+ylfK9VjF900MKzLmeH6aWuZlyJjg6Ou/O2rGXLhwQe0exXccbeTwui7BczNXDQJrj4BOxkRamtGMiQA5drp8QfCrGllq/cUQ6DiCIkwSg8C6IUBCkV9quTUbj40zCBgEDAJbFQFZmkQS5ubNm+Cyo+PHj/uN55Jk4dIhEi203UIyhsf79u3DyZMnFdHC3UpoR+vjRy4ssBz7fZ1gYV+vL0mReCyX1+jok5gRkoQ+89DJGUkn8RlHyAGG8ZgTES5TYn16enpQWFiIb7/9VtWbJBLbw+VR1KKhRs27d7S6YVw4CPAeCd6RkDFMz3tOUo4f6aj9ROJPnoH5eS5lX6gJDeLydGxuFvc/DONoVS4Olmfh7L1baonNAqW3kCZqR1o9/IckLJZjPKRgRhbmwZ9QLkbuq2yJvz3BVkuK/KotVrVYrNPp1dGrxXCSHao5Eslj5U8iZt3IGLtSrEvvhyFFxnyTn6p2l1qgaJ2tCu881jVj5HdDNEjG3L9/X70zabSY2oS8rkt4qJlYBoG1Q8CQMWuHbdCcx8bG/CrHPNZfDIGOg2ZmLhoENhgBdu7s9Pi11ziDgEHAILCVECD5IhoInBSTjKDBXZIuXDIkdlx4vGfPHj+BQe2YkpISdHd3K2O9JElIuLAPX4lz9vkrSbuSuFKOkDWsK4WkETVn/vd//1e1jxo0JJdICpC8EaJBL2ulbdTTxuJxIDwChQVqOz9g8ENGRUWFIs1k6RjjEnunc3t9ijCgNaN740OIL0zBV7mnUXr7Mobg9ts7EZLBmT4Wz/1YO356PHUEraz5dgbMnxQYZVX52fWRe+P0Vd52mbxG7ae744M4nJuCo3kuPP40pu7vyhqxODaft97eXiU8Ztt0WRx76535n4Vlqq63NVTcZbIwwQaBqCLA3yHJeI4/InVGMyYC5AwZEwFoJsmmRcCQMZv21piKGQQMAkEQkMHPnTt3kJycjLi4OEXAcAkPhfZc5JhLe2jLhVol3C2HjgSMkDBBitkSl6gNQ9s0JJ9IzFBjhm2mZhBJGd0uGI+FwNoSjVvjSgaa1AUKc1aDWk8kYqi5JLtp8HmiC0TEMHyBjPHh7thb7C5Mwo6iJOTd7AR3LKIBWn2S7ywzFs/DwXo17Wb+IqvJh2nJtej3Rz/2kzH2UikSbnfG3ioyhoTMo+kxdX9XUwe2g5p1unadtI3+Vneh2qC3NVTcrY6Fqf/WQIDPIT+MrMYZMiYC9AwZEwFoJsmmRcCQMZv21piKGQQMAg4EhESgjStqf9CeC7VguOSIGiEkI3jMnYnoczkPNWC4Qw4nz4GWFjmK2HKnMhDkoJDjE9q14ZIlsXdDTKgtJCTUlmvgJqqwYE2fW5pSI4ZEjG5zbTkihs1we71qI2nuIHR3bADb805jb1U6Mv5oxih8nyUZs4lub8iqrJSMuf1+QJExB3OT8XCVZAyfK76/6Msxn0OdoAjZgC0eQW8rj40zCGwkAkK+r7YOhoyJAEFDxkQAmkmyaREwZMymvTWmYgYBg4ADgZGREWRnZ/s1Xrj8SBcSMKIRwp2KhLxhNjyO1uDJUa0NO+UyLSfBxAkatYZosJhkFfGhpgyx4e5RYlNGiIUNq/wmKTgYeeKsojxPxJc7vFAr5uXLl/5oofLyOMiYL3N+w8G6HKR01eO92lmIRmZ9S7Qv/AWYgw1FYOVkzFscyE5SdmMeTo+vWjOGjRdCQj/WwzYUoFUWHopgkXaKv8riTHKDwKoQ4HhC+l/pGyLJ0JAxEaDGwSCNSXGgwxshL4Xl/AiKMEkMAuuGAMkYGi7kNqrGGQQMAgaBjUaABAP7VpIFQhhwpxpuc8qlSLIEh0uQqAFD8oXaMVyGROP6+uR4o9uy0eVzPbvL5VIGfrlFtpAy1OgIRRxsdN3Xo3ySKjKYpsFnGmMkZnS8xnGdODmnhhUdlyjRVoCkl3ihfCq0fwLw3D2BuJIU7ChJhutCE4bhVbv+kIwRWbIMJlTm5vqaIrBSMuYNvNiXmYgjBem49OJRVMiY0dFRtXmIGIqWuceaNnydMuc7ie358OGD0nzkjnU8v3LlitLsk7aKv07VMsUYBJZFgB832A/wmY3UGTImAuQ4UORAhoYCpXOWF0MgP4IiTBKDwLohwK/H3D2ERnzN4HzdYDcFGQQMAkEQ0N9F3EHo8OHDygaM2IUhqUBjtfRpwJb9sZ4mSNaf5SUu0zp06JAirkhecQcmas08evRILd8iKBy/fG6OZJ+QKZzwsS8UgoXXRJuKYz0hCQUj4iVpJSwcX8iY15hDfGkqdpSkKDJmCB5Mw6uWMgkZIz5Jmc/v7oSD5vrGCYuM8Vnba9NmzDCA/VlJiozpeNK/ajKGpDQ3W+DSOJKHMudYXxTWrjT+5tgmIWNIrvMDOMenJD+lveKvXU1MzgaB0AhwzEHCkH0HjbdH6gwZEwFy7HwJPNcI80bIS2E5P4IiTBKDwLohMDw8rDS9/vjjj4gGlutWUVOQQcAg8FkgoJMqNErLbZtJvNAgL4VkApfc8KPI8+fPDQkT5KkQzSJG4RiFS2toQ4ZLl6hZRDKL9mR0A79BsovJS8SFjtrO1L56/PjxomeKWloMo40i+nQMEw0ZFbCCf9x6mZoxnKiTjNlenAxXZyOGDRmzAhQ3JupKyZiPAA7luHAoNxVn+7pXTcaQmOAzWldXp3aCk2d3Y9CIfqmGjIk+pibHtUXgzz//VGRhf39/xAUZMiYC6NgJU+QlSD+YRFCESWIQWDcE+MWP5KIMMtetYFOQQcAg8FkjIH2oTr5wMC4aCL///rsiX4Q8IBHDnYJ+/PFHpb3AflicDOLl3PgWArKOXceKmh/UNPqf//kf7N69W5FdJLyuXr362cLGZ5HLz6kZQy0i0YjhxzdqINA2DDUSZMBNPCMlYzih565J7wHsLUv3kzEj8GKaWzD7vP5lSrpmjGjHML3IZ3vDotVwAVL8QPkGu8b4cp2+fZPmAUzapNuh/DTszXOhuucaIt/81qoYlyaRUCUxyElgrDn+rvgup21OttNoxsTaHY699vB3yP7h/v37ETfOkDERQifkS4TJTTKDgEHAIGAQMAh8tghIH8qBN8kYIVPov3r1yr9NNckC2jqhNgxtwnAHGw7U6XQS57MFcoUNFwKBywASEhKUrR0SXCRmSHZRO0QInBVmveWjk4ghIcMPE7L8qLu7WxE0nBhWVVVFp40+a/7OyfqBskxsL0xCSkcDRmmnxt4W2U1SRtmOAahJo4tuRyYQQaNzA9GpcIzmogMV7FgAd8aRcN3njfICJGOoFfMSPhwoycD2IheSL51TGlGrQZP2YkjECFGxmrw2Y1p+HCQhQw0gTnC5NInvKh5Te1v6DfE3YxtMnT4vBPiMctkgxyaROkPGRIgcjbxRjDMIxAICpmOLhbto2mAQ2HoIOCf+1D6gMV4SA1xGQxKGS5Q4+RAiga0kEcMJsyFkVnbP+a4XR+y57Te3BCfeXPpFYqawsFCifFY+nzEas+faf056qQXDiS8H2vRfv34dHTzsST2XKh0uy8L2wmS4OhpAipFkjEW8BN5VSZ/389jJDzjPo1PhILk4C4z0PEgRa3YpnLo6AQ92zhtHg0BegDp7QsbsL8nAtpJUJF4+B9qRWY2LdTLGqRlDAoZL6UmEdnV1GTJmNQ+PSbsmCBgyZk1gDS9TdtoU4wwCsYAA1dYpxhkEDAIGgfVEgJowdPS5HIQGeknGUFODRAy1N8Q+m2jPkFDQtWnWs76xVhYJLQ4miTWF2NOezKlTp9RyMZ28ibW2O9vDMR01Y7gb15MnT5QdAH6RZzifwVVj4Zj8CxmzLT8JKe31GKctGhIs3sXbFzvruejckeeia7F8Ema7yT0qPIkpiRTdOfNY6XkgYkbTjOGeXK/hw6HiDOwuSoXLaMbo6Ac8lt8YdzTjb5HvJu74aTRjAsJlAjcBAoaM2cCbwBcDRV4cG1gVU7RBYNUI0FI9xTiDgEHAILDWCOjaLNKHkoghEUD7MEIKUENDSJe1rtPnkr/gTV832ks7KcePH1dLwkjGUEOGdmW425KkiXWMSLrQMCrX/lM4xqutrQV3HORzSFtGq3KOyT7JmCPlObDImAalSaGoSTWh9wFeez2TI91K1GGcSVdVf1sTJxAHEY0w1jVc52zXcueEUJfl4km4pZUk2kkr94kDlyjx3pJc4zIlkjG7Cl1IvWiWKYV7f7lcqaOjQ/0O+f6hVkxvb6/RjAkXQBNv3RAwZMy6Qb24IK5fZIfN9cV8SThlcWxzZhDY3AjweeazTOGxcQYBg4BBIJoISB8pxAp9homjKvp//ud/Ltrlh2HGRR8BwZ7481juCbWOKD/88IOfDNuzZ48iZ7g8h/HFjkr0a7WxOXL5mzyPJF44ESQZwyVztF/Er/RRcTLjt5kLTthdV9pxuK4Q35fl4T28imdZRLawYKZjGg/3TOYaGDd8s/PwzszDM+NW4p51Y37Wo4TKZgu/rtXXXIoXkoFocAlOtGQcPozCjfeeBYPcq6916BzYLrcPmKeNF69lVJlt+wAfPvplaTtp64fLyUSmAYgwjPeV+dBA818A9hSlYWdxKr5y/bpqmzH8DVJzi+Qpt7n+3Bx/p7p8bu037d18CHDpIHd1JFmvP5vSp4RTY2MzJhyUHHF0MkYf2MhNcEQ3pwaBTY2AIWM29e0xlTMIxBQCThsxJF1or4TLkqgVw2VK79698w9qYqrxm6AxMk5Zzv/48aMylCzaSbTX89NPPy2y17MJmhGVKggGzsw4rqPtCt0tF1ePE/KYs39NOGn/vaMB8WWZ+KE8H08mx9QOPNxRaVrtrOTFDHxBRUgA5kW9nWHvPN7MTePZxDgejA2jd2hAyd13b2DJa9x99xo9g6+WEV5bkK7+XlA67/Wgvb8HzQ/voPHRHTQ8vI3GgHIHjQ+WEaZ1pGn7qx9dbx7hysgL3B4fRN/7QfSPvFPSNzyIvuF36B0a9Evf8BCWyjuouCNv0TcyYMsb9I28Qe/wa/QO07ekj3FUvsx7EB33epWc7+tBa99tNN67hdr+G6i5d01Jbd916FJ26zIKr3Yh60ILUtubkHPp/CI5lpeJo/mZOFSYif3FGThYk4cvi5LxVWU64gtdq7YZw+eQhAz9z9HJ71D8zxED0+bNhQA/YrDPEFJfns2V/EYNGRPBPdXJGB10OY4gS5PEILBhCBgyZsOgNwUbBD47BDhoEccvvNSIIRHDZTGc9FMLgYMbkjaxqokh7d8IX8Ypy/n8usd7xJ2rSMhwJysuW+I240wTa47PGTVh2tra/FsF85zPHq85cVp1+zUyhuRJ6p/t2FWcim8K0lHdfQXJ5+uR0FmHhM5aJYldddDlULELC5KKQ8VpftlfmoZ/5p7Cl8VJ2FWVgb11ucrn8c7KdFvSsLMyDTsqUoNIGnaUp2FneRp2UcrSsKvUhZ2lLmwvs2RbaQq2U0pSsMOWnSUpUFKcgp2BRK7bPtMdqM9FfFUmthUn45/5p7GrPFWVybK3l6Vie1kavipN9cu2sjQEllRsK3fZkoJt5clKvipLxlelKX5Rccpc2FbmwlelLnxV7FJkybZiqy07WX5FGuIq0xCIhB7rAAAgAElEQVSvJB3xFQvyr7zT2FGUjL2VmThYl4e48gzElWcq2V2WgV1lGdhRatXxXxVp+J+SBPyrMQt/q0vH7soMpTGz6mfIzsBJGEYr382cT9R/j5u5saZumx4B9pV6vxjp82nImAhutSFjIgDNJNm0CNA4mlmmtGlvj6mYQSAmEaBq74kTJ5Q2DDViSMSs2iZHTCIV3UY5B4vOcxIQvA/UkDl58iR27NiBf/zjH+o+ZWdnR7cymyQ37pbEJUkkZEjEiONk14mPXIuGT62WuvvdOFyUjkMpp/BjYRb25yUhriAJcYWJiCtMQFxRkpI9xcnQZW9JCixxYW9JqpJ4EiiVafiqMhVflCYr+bLCpc6Vr8iKlP/P3pnAxnVdd/9Li6RpkbQoggJB0QVF0QDd0KYJ0iRFkzZFGxTdgbYp0jhGmnjRyn2TJdlx7MTyKlm7vMi7LS+x5SW2bCu2ZVuWrZ2URG3Uvm8kxZ0c8v/hd9+cmTuPM8OZ4ZAcUu8Sl/fNe3c979zl/N+552rGU0s1/cklGTzPlmrmUwH4Mvup5Spfs0LkneKfXK6KJ5er8smgbKtDvmHF40tdHjVPr1LNs/ep8umVrryypwGDljtAKABlAGaWa+aalWk84BHP4v7pZZr59FLnaavvE3Fc3gAvK1XmylypMtr65HKVP7FUFU8sUYWj+VJVUsfHoXfQ1srHl2n2w/dq9sOLnS97ZKnKH12m8seWqeLx5SrHP0l+K1T74sO69rFFmrZmmSofXVoUzRjjy2LwYKnlQX/L5sayP2YrN3oWUSBMAXjR/7jkPzc+9e9lu47AmGzUyfCMRQpG3Zi8jeB+mCFZdDuiQElSADAGXsZY4fnz51NQ3pKscFSpiAIRBSYtBUzjBbtrbE+qrq5WWVlZwl6VzaWTtoFToOIsMBH4AGUMkOHYa0AzjCqjjp1pETqZmg+v/fznP3dzH8Z7Ob76gw8+0KVLHDIdHJ8+2vZ4ijD+DiV3jQ2WC0P9un31fbrnoQe0eu1z+tm2D/Ty9o16Cb9jo17a+UGKf3HHRmX0OzdpbeOHen7nJj2z7T09vfVdvdK8Te+cOKDtl8+q6fJZ7Ws/pwNtZzP4czrQij+vg3Hf0nZB+OD3OR1sPaeW1rM6eOlM0l88o4MXz6jl4tm4P6eWi+m8PSdukOZsf5cuqV+XNeRstWCvBct1eAzghr09yx4m8zra1aqkb9PeC6cTvvn8KTWfO609Z08m/N5zJ4Xfd+6E9jof/Hb3LpxyaUnXdPp4wu86c0K7z57SnrNBfuS598KZuD+twx2X9Ni6l3XXAyvdydej5Sm2cXLcM4D2VHOmacBHb/ojRnvRlNywYYP2798/TOaaau2P2jN5KMD8gcOumPEpvwtZw0RgTAHvnRMInnvuObHX3YjuhwVkGSWJKDBhFACMeeqpp5xRarYITIVF9oQRMyo4okBEgawUQPMA45PYIkG4B4xhu5I5m0vtdxROHAWYC1paWtw2JU66ws+aNcudsEStJuNcYXUGFOS0Fj5EvPHGG27+44ME4AxGfIvlWK7H7fUOCzm5p723R4TE6/UMwZoNGELfYzw2k7d4PG/ToPMYomU7FJ78A/GhWK0bfT70d96J2V0YjA0pm0f+ye4DA6+51ixclo0/rl7UbWhIMQXe2VDG6C/Ge2OxhO8FvMSWi4sb2FkmLrRubw+MPw8MsJ0h11pljnfkyBHHr/DpO++8kzniJH0CH0B7A2OQs1ijAsxs2bJlmMw1SZsZVXuKUADljK1bt7rdBfRNGz/ybV4ExuRLMQyknTvnCN/U1OQmESO+hQVkGSWJKDBhFGDSA1zkaFmbCCesMlHBEQUiCkxpCqBtMWfOHCfUT58+3X1V4gMH86ep33MdudKgAIIyx8qyXQkbMtiPue2229z7Ko0aFlaLNWvWOKH2mWeeEduU0Apluy4aWwBQxXJwsg/GhI9O7h50h1mrtY9NS5zKM6guDaoz7rs0JN93aFCZvMUjbftgv9pivc5z3TE0oK7BAfUOxtQ3OKD+WNIPxAbk/EBMAyHP+w/AEv/ZgLOpg12d4Z5n2XxqGltz2Po513Ck95NLPunaZvcIY4BEngeUGdCQ+oYG1T3Qn/A9MaNrTANDQRriAuQU2zU3N8u0uF577bViZz/h+Rk/GBgD6MSpUfRLtNbC73XCKxxV4IqnwK5du0RfNDCmEIJEYEwhVAMVj+8rDg8M/I5cRIHJRAGQ3Y0bN6ZsE5hM9Y/qGlEgokDpUgChxndPPPGErr32WmewF0EYAAYtBd9F86hPjYm9tvf37LPPum1lADJsK8O+ijn/ffnX9rzUQoAXtGAAX9CO4QMb7UTIhT8ReK3do637SGAM+fcMDaitt9tpXADWAM+YD4M3dj9daHF51utOYeI0pkH1xj0gAmBCQtMjrvkBaMB7S+et/eFn0KdYPpx3Lr+tXhMV+gDbSHVgW1+xHB+BMZNg/FusfEslH+MpA2Pef//9hGYMGghh3iiVekf1uDIpAD+yRYm5g3mjUBeBMYVSLkoXUWCKUcAWDAwukYsoEFEgokAxKGAnIqERgwYM25M4OQlAhjHHnvtl+Qtu/350Pf4U4F2Y/ZibbrrJATJsL0OriY9S9iWbmtl7G/9a5l4iwh5gDFuTEPT4bRpZbIUwzRjuW3v8MPeSgphhMMYX4rk2bYswuGLACul9H04/0m/Lh5C4lle+7RjL+D59M12PZfmjydvo6YejyW+ktGhtwacvvvii8yPFn2zP6XeMKWwVBBg1G070S+zGhPljsrUvqu/UowAfswH2sWlUqIvAmAIpt3v3buEjF1FgslOAyQ1nRhnt92RvV1T/iAIRBSaeAiyuzT3yyCNuexK2RxCEWXT7LrzQjsYinzoTc23zAu/q5MmTqqqqEsZ8AWP805X89zwxNU1fKkALzniJkHsnTpxw2qDU28AYVM19MIZnYZ5MX0rmu8yu2QAT01IZK9BkvECCzBQY+UmYxul+j5zLlRHjSgBj6HcYJ6YvYjOGbUpoUbJdMswbV8Zbj1pZyhSIwJgJfDt2FPAEViEqOqJA0SiAet22bdtcfkx2kYsoEFEgokCxKMDimhNq0KhAkMfmSNiFF9n2Oxwv+j0xFDANJgQkTsFiuxLaTQao2fOJqV3mUjFKz/YGtlWxJdeczXOlAsYYYGPgidVz1GF4OrcCwvdHXdDUzAAy2bvJNxwLEk91MMbGETQp0V778MMPHWjKtiwAfJsXLJyaXBe1ajJRIAJjJvBtTVUVwQkkaVT0BFEAS/V8fWCxisBki9QJqk5UbESBiAJTiAII6yywmTPLy8vdFiUW2AjBZivGFtbpwokmBfW8kh3vxDRHjA68RzRj0HDihBOcaaBYnFIJN23a5Pbz82XdBD3qZttyeb/cp51jpRnj4x9hgd40YyxO0elmGacLi17Y1MswTLbw+wv/DscvNkWuFDCGPgn4sm/fPkdCTo7CUGp4jig2faP8IgrkS4EIjMmXYkWKj3orBrR8A3ZFyjrKJqLAuFOAY2b52okBKvbpXunCx7i/gKjAK44C2E4xx6Jzqvc5BHW0YrAXw0lKtBlvLrzA9n9bnIkKqadpf1i9/LrwBReHcE88NDFydX5+AOE4v7xc8xnveCw+TTOmtrZ2vIvPWp69K+YyTmJhXuO0QOxscIQ6fc33vAN+27uw3xbHv8/1aJwJ6pkE+GF5j664YdlFN0ZHgUzvz96nPR9dKdlTMz4AyGAmgW2DU82N1MeK2R+nGu2i9ow/BZgnsEHG3ELfLJQ/I5sxBbw7wBiEV76i2Je9ArKJkkQUKAkKHDp0yIGLfLlmby6DS+QiCkQUGFsKmBA/tqVMfO4Ix2jCsD2JY5E5lQdnCxeuwwsY//dEtsDqkUsdTDPEwADSYOCW92zPLB/Ll9BOZrRnpPc9cUrN8e4qKiocIDNr1ix32okdTz7RdYVeaMPwwezVV191p84Q7tixw1XNQJZcQ/9dFeNd8DZNeLew9N7wRL/F0i0/3fsbz/cID9rYabxZutQqfs2szRYWv4Qox4gCuVOAecTmfPAA40sLc80pAmNypZQXDyJHLqLAVKGALfyNryMwZqq82agdpUoB+hrq18uXL0983aTfhYX2Uq1/PvWiXUuWLHFgDIL78ePHXXLGnbBQYQsYP8ynrLGMa3UNl4FGjL03qze/iW+O+/zmPu22eIQ4W8wRQi+8xbE8SimkLZxywjYl7MeggVIq9eVEizVr1jgQBu3lp556KsFz0NDom2to7bJwtO8hnTAfrShHS9XxS5/u/Y0nGOO31MYd/95Uv7Z+aOFUb2/UvslFAeNLC3OtfcmDMTQo7KyRFoafj+Vvv0yubWFlZXIv7CyNheHn0e8rmwLGFxaONzUo1xc0WKRGLqJARIGxoYDfv9i6841vfEOcMnTmzJmxKbAEcq2vr3fblG688UYHSEAD5k7GHa5t7EsXTnT1qR9bAr761a86g5Lh+hiQQt3Rlv2Xf/kXfe5zn9MnPvEJ/b//9//0t3/7t1q4cKF7vwhP1kZbO6xfv17/+Z//qd/+7d/Wxz72sUSaRx991Gkqhssrpd8zZ850YMyCBQsS73Oi6wc49vTTT7t3wfsAnIHm5nifYW/zX/g+v+19WWj5FBpSk3S+0PyidONLgXTvzr831rWBD20cGeuyJiJ/v6+mK9/6oYXp4kT3IgpMBAWMJ/0w13pMCjCGidI8g1C6CbKQxudKpHA8vyy7tjj8troSlkJ9rW5ROPEUgHdLnT/gYXPGzwgOJjz5zy1eFEYUiCiQPwUOHDigL3/5y/rSl76kv/iLv3BHBZtw7+dm/dC/N1mujxw5oh/84AfO4Ou6deuccMs4SDttLi+1tlAv5m7Ujo8dO6Zvfetb+oVf+AW3NccMv1qd/W1GaIkAwOB/8Rd/0QEyhIAsf/Inf+K2zdj7tfzZvvXxj3/cpfmVX/kVl85+kwatE78MK3eiQ9px//33O6PMnI7Fb2vbRNUNOmEjBs9Wcvbxhx19yfe8T9tuznY67OFgAyByEQVKlQIA9+fOnXPHP5dqHQutl80JbW1tzs5TU1OT668Y82W+9Psu15GLKDDRFOA0WuYNZLtC+bPkwRgjMsfu2tG7dFbfF9p4yzvfMJfySqm++bYvij/2FChl/kg3wW3fvl14XC78P/YUjEqIKDA1KIAw/qd/+qcOjCFEk2LVqlWun9FC5joDcNP1zVKnAoZTsRXDlhYWLTZ+TLTgno1u9hGFOHV1dQ4oAYz553/+Z2fk3NLyboiLIwS0AXzhdDoDUDgBhDw+9alP6dd//de1evVqF5/2I1Dxvj/5yU86oMbyBQBCa+rTn/60fvmXf9lpTgEYUF6pON4jW5Uw5EtdJ9pduHBBL7/8sjPWy8lJbANMx2PGfxbaRzPqz3sDyMGoPe+TZ5GLKFBKFADc5shnQFpOGJpqjj5L3zQw5u2333bgKDYNsQVl/dbCqdb+qD2TiwKA+Zs3b3bAITY3jS8tzLU1kwKMwQAeqBOeax+I4doabWGujS80npVjYTifUqtvuH7R74mlwGTjDwYbFt14ro3vLZxYakalRxSY3BTgazzaMWjGEP75n/+505T5yle+omXLlrnGIYgjGJaSMJ4r1RcvXqyysjJdddVVCdsdpT52QGdoDpD02c9+NqHtwjvhS60J+QbEQAtOUfqnf/onFzcsJKFp8dhjj+k3f/M39Vd/9VdO2wYacP/f/u3fEmnslC0Dctiq9Eu/9Eui3FI5OcW0SGgzcxlgzNVXX52gSa58Ucx4GKEHREFge+KJJ9x7Q1hNd7KV8Z6F1MPWkWwZw8B0JiCnmHWO8oooUAgFALThdcYmtuFNNReBMVPtjU7t9jBXIxthMJ55yOYVC3Nt/aQAY2gUixs810ycvrdGW5hr4wuNRzm4TOVxv9j1tTILrXOUrnQoMBb8Mdat27Bhg/A443sLx7rsKP+IAlOZAvQjbG8AxLAt5c/+7M/0+c9/Xl/84hfdPTQnHn/8cbW3t09KMkyfPt1pxVRWViY0DWhzqTrThuBo5P/4j/9wQAnbcP7mb/7GbTtCe8JAGMBpc3zJ5V0BngCw4Swe1wAX1157rcsPA7M4gA1sBpk2Db/JE4GEtHjADrY9YYi2FOhmgJG1r7y83GnGsBBlXTbeDs0jtr+ZgIp2DKBMa2tr2qrYvGWhRYLmCLeAOdgImoi2WF2iMKJAJgoABiP4rV271mmCZYo3We9HYMxkfXNXbr3Z6cCcg9aazSsW5kqVkgJjqHzYMSGyQOGLxZYtW1IWN3Ra35HevihxzXM/Dnn5v1kc4bjve+L4XyHJ0xZofnlcW50t5F64vn6ZlEN+fnzSEMfqw6KbBY9fJvH9OrFIs4Ug11ZGOJ7VkTiRG18KhN8xpfP+w/xhtbJ3aL9JH+ZnP0/y8tMY//i8bHGMd4w/fN4K8wZ5WjnUled8Zdy6dWsKD1JP4hEn7EgDH1M+fBouw+rBcxzP0/FzOF/oQVzSkYeFVt9w/Oh3bhQwPsstdhALHso1Xa7x/PKvpPwR8LEbwzYlQBjfozHDb4y83nfffW5uML736VWq12xRYivWHXfcUapVTKkX4x/zLxo9gCBsPWLbCltx+I2xZRxjDmOWjT1oYQDe+MCKZWxj5Pz5810egGs4bD/83d/9nQNwELDYamP5kYY+cMstt7g0aNZYPpbvRIX+/PHjH/9Y11xzjTOUS32ov3m/ftYu/55/DU+TL+M7AItfhh+P65aWFqdlBb3YksSpSYSAKawVzeaLPz+G87DflGuOfAB1UDvPVr7Fj8KIAuNNgT179jjBD9BxKmrG0O/ot/RtACeAbdaS9EvsxtjYYuF40z8qL6JAmAKs3+iPaFQaX44034XzKBkwxq+4PwmyiOcLFYMONivCk6v99idU7iE44v37fuMtHaFPPOL7aXhm9yz060qefvxs9WUhxeKN+FY+6bn2F1n+MyvTr3v4mjwtjdUNGnLfpyXp/HLC+US/i0cBew/k6L+DbPxBXHuPPk9xb6z42cojtGujAm1gYYzAwJfHHTt2pPA6z2gP8fz6cs0zcz4tuOfHtTh+mI6fuQfv+nW0a/LDU47v/Tyj68wUgD/tHbEnm+OWs3kAgZUrV7o4Zkcoc+4B/0f5Z6NQ8Oy73/2u04zxgZgvfOELTksGTRkDZb75zW86mzI2vls/JBd/rBm5xPGJgaCOAV94ajI4eBXNiD/6oz9ydl5YZCEMzJs3z4EigCOANYw5Pr3RjOHd/OEf/qEDC2gredm4BViDFgmADqf9kPbEiRP6x3/8R7c1DYCB+ORLXMqgXDSKsFfzwAMPjDh2jjV9GXOtPdQTd9dddznNLeYI2kDdzdMGPhIwTxit+I2gxboO0ITTjtCqYRuW/Ybm2MUgDHtAK75CIqghmCKkcY/tRWgNkAd9wuaHkWhi7SBeBMaMRK3o+URTYKqDMUbfS5cuOftPrEkYW+nzCL2Mkb63+FEYUWCiKDBlwBg6Fo6QSZvJGaNNWMNnXyQLfjoiCySLy8QNYsrk+eqrr7qJG1SKiZWJHgSVZ42Nje6rPnlxj05NHsQjZBFgWzAsZJHLM1SOWGCwYKJsth5Rj+PHjycWRdSXr2Y8Y0HAwiFdfckL7QJbZBCfsnHkwW/qiuDLi6XdfJ2xBbfFszqxEDGr/yyAyBthGWeCMCF5IsizMLHFkIsU/RszChiPEk4GfmZyp57m6H/sgYTX+doIX7HgJZ45Tql46623HJ/yJZK+A2/iwvwMb8Kv1v+MD4mXCz9bmSyyKYfJmX6BM6HI+jM0N2/pojA7BYxfoSFAC0J/Ng9AYMBALgJ2lH92+ptGG6qu0NYHY6AzQAx2ZPB2jQ0Rts1Af/pAKTsM97LVBgBiMjj4tbq62oEm1Ns+YKCZgtbL//zP/yRs31h76DusSdhq9pd/+ZcJI7/cN8e6hPeJ3RjGMN47awfeKVvTuOaeP1czPn796193py2xRiglxxjMuog54rnnnnMaKcwTjPW+50MadMCzpmEtxnPiss5h/cY1ebAVi+ds4yIOc1DYc591FO+DZ4A2rAWhv70raGjroJFo5r8jH4zJFcwZKf/oeUSBYlLgSgFjGF+QvyLNmGJyT5TXWFAgHRiTbzkloxlDxel8AAtMznRCJly+diDMAXQgJOKYcGk8EzaTOZ6FHhMp6XEAFUzs5INnwUAepDNhkPxsIcBiwDyDHXXhRAPqgLBJHpTD5E85lgcAEPdZcGSqLxaWESJpC2VQD+pDHQGH+IpEWhZbLCzIzxY3BjCxQGRhRjzqwIKFa+KDIJM/ABZfm6i70ZK6sgDCsWiPFhiOFOPyz95BqfMz/M3CFR7jy6LP6/AqoAv8xrGCOE4AoR/Bo/Agz+BtABy+5NJu8gB8IS38Sv/kHot3Fr/58DNlkob+SF0BFw08YizgmeVJvubH5SVPkUJsXACMQTjM5tEYADBAgFy6dGlOFIjyz04mo88//MM/OEAGUMZALwNgDJDxbcpgDPa///u/XZ+kD1g+2Usb36ds7wGQYV6jb5aaC9eJOfVXf/VX9ZnPfMbNqzbXM4/+2q/9mjOmixFNc9Ac2rP2wObP5z73OQes8Jy8GVvJA9s5aMVwIpONk4y3vF/S+WA3aRlnoR3HXX/nO99xNlAMbLCyJyI08I92QQfWPswFzBWsb5jvfM+YbTRGsOIZvGBrGdIxhzBPcI+8eE5ehGHPmoa4ti6kfPJkHYXz+4DNa5RvPkwz3p058qZc3rWfjz2PwogCE02BMBhjfG3hRNdvtOXb2o58+LDNRwrWlPRzxg9rp4WjLS9KH1FgNBSAD6ccGMMkz2TIJMtChMmVjsmXeSZsEwb5goRgBwHsS5KBIghsEIcvT0zYLHaYVDHmBtjBRMsXdsuDsvjNYokvV0z8pCFf9i2zOGCix14N9xgYDAABBOEagZM8qD+LJQYMvt5QBhM9Aii/EVZ5zsBCm1iksCijjQAp1JcBB40Z2kNdGYyom6ns0W7qSb4IpaSjbZRFfO7xjDYD0EA3yrAFIbSJ3PhQoFj8TG15z/AZ/JAvPzN5wwPwNXwIj7PYpH7wCzwMbxMHAIXfaGjx23iVxTLCBnxEv+A3YCK8izcNNPKk39JnrO/AmwZ8mvYW2mU8py5maJG2wbPUhT5AXenH8D/9hr5KGgBM43FowbXvbZK2cHze9uQtBTrxnnEcu8vX/Wz+r//6r93Xf4AAtk6M5KL8s1OIPoOjTwJyGRBjYAzaFAjr2JRB64I4XAPccNqSz/tcG99bmL30sX+KvRg0TMxo7diXmF8JNoaQirn1v/7rv9xx0mytYt5lfAJ0wIbMb/3WbzlAhfHYHOMfjvUJQCWgGeMc4xb9ivXAt7/9bZeOPsNHFcZRHOMc7xdbQYyR1IU0jIOANoA3GAVm7MZZWe7HBP2jXTjqisNmTEVFhRvz0SJmvPe9z4dcM/YzlwG6sN7Bs+5jPcR96AMtWS9xj2e+p1zfMycwH9lazqcR8az8bKFrSBw8s3jWl+xZFEYUKAUKMEYhj+C5Nn7NFJZCnYtZh3A7i5l3lNeVTAFk4/zlY+YY5CXmcgP/C6FiSWnGmPBKo8zR8ZjgERBZENFYBD0mbSZdFi4sYpmM0QphoQBxEDKJR1p+4wBFACzQVOE5giD3KJeFEM9YAJhDwAT8YGFkX6S4R11YpBkYw+LBdwitLAwAVBAcEVrJl7bYQgsgiRfIb4ReyqY+JvAyyNJGBF/KtjzZHoKjTXjyZNFgWzgoFyCLdnNNudAMuhA3cuNHgWLxMzWGX1iY8m4L5WfADvoEoCR9B35AaIDv4Df4EZ5jIW2OsuA9FrzwM/EAbOBp+A7ghLpxj34Fr8HzxKfvwK/kYWAoQgW8SEh7yA9HOry1jfjUhTzo1+QNPwPOUC7x8FyHPe3yvbUlCtNTAPpBexzvFe2YbB6hlC0CaMXksnUiyj893e2ujc1sjUGrAuHc96YZAxADQPP3f//3Dhhg7sCVOv8DxGA3hrmItpaa8+dFtGk//vGPOxAEev/xH/+xuwYUwX/iE59w4cMPP5xoBn2HPFgn2PNPf/rTLh62XiwtR1gzLzNmmgOosThsgcITn5C8/v3f/z0BxJDGr6vlMV6hP6ZybWM1YBtGmllL4Wws513jbZy29MQBsGeMN95N14ZsbeUZacmb9RNrMuYKgB3yNWdlWzmEVg8LiWtl2T1Ci2t5RWFEgVKlwEj8Xar1LqRefh+1fltIPlGaiAJJCiAboyGJz09Opu8x5xGyJiuUJyclGIMAwJcphEYEOhPwkoSVAzEQPAFMbNGQCYxBI4X8mNQhKosl0iC8Msn7wmk6zZiRwBjqCIqNwEqdAFhsQKHOCK/UgXi2UKMu/EZYJi6LNoRRU8X128o1ix5ALL4gkYb4LE5M66dQBgmXE/3OnQK5gjG58DOCDAtN8syXn+FpAD0ASPIwDTNawj14D5AHMCbM75QVBmOIAwAKCGOApk8VeJc8eW6OBTL8SHnUB/6EV7nGUQ7e+JSBjX5Hf6Es+jjgjIGrFtf6UbbQ6hCF6SlgtOQp/FVsF+WfnaLwOryNNhK2YHwghuuvfvWr+trXvuY8IBnAJA66Gm1Lmf/r6urckc7MSwYgZafI+D6F/oyPaBl98pOfTAFR+G3AiIEmgCVVVVUJYIn0vAfGM5793u/9nn73d3/XXX/2s591J0mhocpYR1w8jnfGuoM0v//7v6/f+Z3f0W/8xm84mzJXXXWVA7R9Svhp/fsTcW3aJ6xX2IKGZ/7IxdFuowHxoYvxMb/tw1e6vIzPjRaWD2mYl5iPWDf56yQ/LteWh4WUw7WFdt/CdPWI7kUUmAgKhHkSfqbv+DxucSyciHqOpkzqnc1ZuyzMFjd6FlEgNwoUDsaE8x+Jf8Px7XdJgTFM7CxoTLuDCZVJn3HayzQAACAASURBVEUcixkDRYiDUAkwYl9BCBH0mIgRKGzbBAtXBiueI/SigQJAQV4Ih5RleVAe2jd81eeLPvlTDvcNJOHLMZO+rxnDQjrdNiWEWAZJ4lN/wBLyYfGBsTkEbNKyQGURAWBDXXHkb8IrNEAgJR80eExgAtQhD1vgsiChftSfdpEfZRXKHMYkUVgYBYrFz/Aw7x8eQUskX36Gj+BF+gd5AJYYDwEQ0ifQUIGH6T/wGQtr4sFb9D80z0wNj/6Hijl5kg9AIPWijnwdZqsgZQJ+Gj8D9lA2mi3wI0AnecDDVhfjZ/oMjrLpswAy5EtfgcfJkzg2GY8UFvb2roxURjtay7U5u58utDi5hJaeuFH+mSmGdoEdbR0GY9DQWLRokRvLmYvoA9ZHbHw3OqcLM5c6Pk9+8pOfONsn/tae8Sk591IY6zjpCODFAJlf//VfF1vyOD2JuZTxnG18gCccM26AhI1xzL3Yd+H0I8Yu3gVjY9jZeMd9QGny+9///d/E9kvuWxzyphzy4p3b/XCe4/3b2s5Y/73vfc9tQ4MXc3G0BUfb4GXj4VzSEsdoAT3MG51Y9zGfQX88c6fFsZD0vrc8LfSfcT1mjqx9n7YgP0Ih1/a1N99wpLLSVjbl5kg5FOt5SqEpBKWEfNtdnPhDGtRQ/M+ucnjZqU3J8ot+g8cZX1s4bvybpX6jeTRSnxvL9vkck2AlGpPyIM/WGaPnmMyiW5hjshKNZq1IhtYvgjDZKwprQDLfZE5Z7jGem7cXbL+HrO+TvjBHHxyJfzPlXFJgDJMyYAhCG+AFIUIdnmsmWiZdFgAIZgiICIYIa3ji8ZtFE4snbE4ATACoPPHEE074Y/GDY/EFYMEXfOL5HoEUgIav8aRnUscx+LFVg7gGtCBwkg8LALxpuJgwSjpAHe6bMWLqQ92pM8KpbQ9BmDVHWQigCKPQhfqy2DMjwOQHTSibBYcxAPZBLH+0CCI3cRQoFj+zoEfLBL4zQ9XYX4CH4HMci3SEHfgV3vA9PAKPwT/wky2kqR/gHnkC/sFD8DxpyQs+wtA0PAev0jdxYX6mTIAVQsqAH+mHgDg2cdKHeAa/I1ACdho4Snm0jfT0PYAh4uAAgACHeAaA6TvLOxz6caLr3CkAHcfSRfknqUvfMwdIivYLIAzAC1owaMh84xvfcCDMSPw90nMrZ6JCxhCM1zKOMH+XmuNdMMZee+21Doj51re+5cZF5lwTeCxkvAU8AaTxNQxpE8A2zzC6mytowniIxg3bfBgjeZeTQagyIIVxe9asWbr11lvda6XuY+18fjdaWch7tL7FWo05krUazuL46bn2HfMP6zDmMOPVbPH9tHlfU7St/wn5jayQuERcQZRP9amJ/AxiknxPXwMMLMST1s+La7+slIoGlY4TINwsP9VYXQc0C+iVrPdo2p+ZZkPqV3rfpyEFflD9imlAMQ06qgWkofVGR2pcuLOPZfC68TVhmFfD/F14ieOX0trBjgFkHNa+rFnpl3zUC7exmDXjDdmbN/bv7RtSb2dvwONM24C57i+F7YNqJDtvsiMb06d7ZvfijeCnRfdDi5YuLGb7XV7pCsnl3rCKkCh17KI3pP4xuiXbTIqEG7FMxqBBz8ekoWx+kElAGhiUYl6pAzGpPxbcKwCQgR/5kE2fNKwg0YY8LkoKjKFRTIJ8IUf4Y/FmYAuTJIIjHRXHBIvAaFonCHbcYwHFJGpf8y0fhDmACktPHgh8pDPAx0KEQTo/5VG+Te5M9AiELEBMMCUfBFjyYeAwoZS8KI80OBZu5IXgSbsQkNneRF0ZdEhvQBHxWfyxSOc+5Vs84kAL2sNCzrR6XCGSqx9CNBoz4WcWJwrHhwLF4mdqixAAb8HPAJWELDZ9BwjJxEWf8D0DBXwImGn8RDp4Co0WeIm+Qxw8+cK/lAfPImQAfvr9z+dngCHKQ9sMXqVfwaOANtAABz+jDUNe1icYvIhn4CF19ydb0tE3eM5EHBZwyDuddwVG/yIKlCgFDGi06mFTBdskgDEY6sUw75IlS9xHBeKEedzSWTjSc4s3USFjCMZw0ZApRceagDGGk5IAUxjPWFSxBrC5n7ESx7iHBhPxGCN9RzvRrAGMCb9jPx7vyxzj5mQEY4wud911l2bOnKnHH3/cNclvm7Wx2KHP7ya4cY9rPPMgjnmP9RbvxT7ksT7004Tra/MR8XmHBpD5ZRalPRkEDW6zwo1pKO4H4wJ9UoQxcCYpwphgEQZP4NkC/NCA5HxYsPEFH669r8zuOgkmBW1IwiLhmhX621rqh0lSIvhZzgW0O0daDWlA+MFhvl+AMAEQ06+B+B/8gvDe29+tri4+MlH75BiQLz8hV/Dhl/EHOcL43udR/zrf/Cc6vvVPA2P4KI1MhtzFBz2/bVwX0/FmwFsc5mJMZgX0xaRByou5Phn00eTbHFYTbuTj4+VYsX7oZ5PuvlVx4kNqSg3ph/STZJ9I7Rv0D+sj0DP4C0Y5H+oKg77hMSc+JiUgHev/4TBONcCa2IA0GPRhNz4yt/cPSDHGO6Mu7cjNMUcg1zB3YJy+UFdSYAyNQFBj4YPgRWc0Rwf1HZ2QuP59FggQhnsIfnRi0xpBGMTbooqJljxI43duK8Pv5FYG90yrwPIhvl0T4olP3cJ5+L+tHGsD9bB8bKFDHJ7z2+5ZfEvvh+SPUI2gDlNYGj9OdD2+FOB98V5Hy88AG3R2W+STL954yu4bD/mttHvwJd7SEMIjfr/w03Gd6Vk4H+KSH/FxtiCmbOrpP4cWRhe/fL/fkI7fAEMsqE3Li3uRiygwmSng9xMW04AwaMKgEYNxZBaeOPoA/YP4vp9sbQekZSsLQjvCcKk5xiw7dhrjyIDE5vw5lLGHDxxozmDkF4PL3GPNgX/kkUccSIOWC6Ay+dp4aPkR2nhIWrQSJyMYY+N3WVmZA5/4IDVezu8L/rWVz9xD38HzLvlIhnYWoAzvibqnS0d65lgEXRP6wnFJV7DzJap4NsEt4JXgD02KQHxJ6l4EYoOBM0Fo35sRW1IkPurnyxOhx2EMIF6NRC6ubaR3ssyQFPN9/IsyX5WdR7Dx/GAA4gBUBFohowvDYIeBIISpIFOq4JWOQinvLB1NuGd0s9CPl5JBkuIJUoVqRA15l9BhINannoFetfb36lJfryNtKLu8fqKNzwc5PpYRMo74/By+zivzEohMv6UNBsbwIY5xl/byUXAs28cr592ZdgzvV33dGuxh3qJn9qhf/epTLK4DlYxLGp8z4cowK2UlL4XHXSbWs/uWL6HdG30YgJlB/7FRJ6wFxv0kVJy85j5x0Qzr1ZB6NKRuDarL+Zi6ZH5AXUr6bg2ox/O9GlCfA2pice2y4XA0Y6VB0hYmae3TJvWauICove49xsQpiL3SYJ80yNujXUZRexO5hYAxyN0mp+SWKjVWyYExqdULhEGbQO0ZvxmAsjmEV746QRwWRHRgcwao8NtfbNlzJnNbMFEWzk/PYGECpaXxQ/LPVD/u++VbOvK0MnlOeZYHz+za4vPb6m4h92AKNIbIw+5bmiiceArAi/nyM7yAphegRDq+8/kJXknnfP5N95x7xDF+N37z0/nXlgfxDHixPAitTj7vwt+WL6HPnzyzNJYPdYGX+QJk6TK1z+oThREFSp0CxsPwNLZivvnNb7ojwll8hoV3+2hA3zNf6u0L14/2Xn311Q7wYH4qNceHGzSS0HbBPkwmRzt4BwsWLHBxOXLatrMwfnHMOzZjMGYL6JRuvCRvG/cszWQEY2gbH35oK0CWfQzIRLti3rd+EA4zlcFHOUAvvqwDfjKv0PcsvZ8OMIatTcTDWRw/9OPndW3SkkkILjFfY/ukWI/U3y31dUkDnXHPdZfUn8YTz/luqTfue7qZeKWeXqmnb7jv7ZPCnu2Svud5V5/U0SexNaOzx/PdUmeX5zulzo7Ad3VIaH10t0sIrr1F8OSTzqfkfVnq7fB8Z5IufT1SX2/QvnC7+Z2ORuF7fjqfTnbd3yc53w96LrktD4PBl3beZ2+H+lv2a+jsKcViCKqB0JgX34Qio1EPwAg/A8b4vJnuOpS85H/aWs/AGPovWm60F43/cBuL3aBAUuQ/2hK96mpu0ol33wxgj77z0kC71N+R7JeJvmh9MhT2dkn4njS+u0vyfVeXhKef2XW60E9TlOtOqedyvL+1ST2tUs8lqdfz/Hb3eY73+6fda42nuSj1XpB6z0vQLOz7z0vOX5D6L3r+ktTXKvW1SX3tUp/1786AhkZLxjw31jHeZRnzUvpzT5BHP+/P8u9wYJvrw2jNhNHqHJgLfgW8Z4fBaD5KlDwYAy3CnS/8Ox292PIAcejEEMv3lj5dOrtncQhxFnLNIsoW1BZ/IkNbCLGFikGaL5Es6m1Qm8i6RWUPp4DPW+muh6cIDD0CxrCtaDK5dO0L3wu3h/4F72JXhsWGb5uhlPpduN7R74gCuVDAeBi+xiBs2IX7R/h3OH6p/wZkxTguW5UAMsyFgSe7P94h7+BjH/uY237EV2d/reDPoVzzLvhS+5nPfMYBMmz7NIfA/6lPfcppAPkAtT23kPENRxy+9rK1CXs1No9PhvdNHTneGzCRMdoAJmtjKYXUjY9zgPpovYQBQXsf1BkghnUj75g2wqNFfR8mjbsPsGidBLaj2je8o/dvulmHFy9W1wtPqWPtE+pY+6TzemOtBn72nDqff0KtTz8s/fwVad0L6n1xjTqfe1wDLz+n2Ev4n6r/5eel7R9JOzZL2/FbpB3bUv07b0vr31TfK6+oc+0L6npxrbrxa9eq74W16n/qOfU+8qTa71+tC8tX6dzSFTq3dLnOLV3m+aU6t3SJzi0zv1jnlt2r80vvVWN9rXbV5e63lM1W8w0NOnfXnepZtVIdy5cGftlSdYZ8+4qlOn/fUp253/wynVh+ry48fL96nntKenWt9NrLGlr3igbX/Uyxda8qtu61hB9Y95q0+aPhfstHkvnm3dKeXVLTTmnntoCG2zZLvt+1UzqwVzpyUGpu8vweqXm/tOkjqWWP9NYr2lQzWycfui8A2NCLcUJf4T0EUwUAE2ythJ/D/Bn+XXhJE5sSQBt5BlkObVHMO/CBfezaF3TOGOBnX4d08ZSOvvS8dt76Y+2YO1cn7lui/Yvv0MnlC3V6mflFOrN0kU4vy+5dnCULdcb84oU6c+/dCX920d3CX7jnbu0qr1BzWYX2hPzu8gr3rKm8Qk0VFWoM+6pKNVZVqqm62vldNTXK3VdrV22lmmrK1FQzW7tqy7Tvhirn9zRUuN/c21Vbrl21/K7Urtoq7arxPL/dfZ4Tr0y76srU5PnGujLtrE/1O+rLtb2+QtsbAr/35rk6+OMf6sQ9t+sMdFq8SGcX36tzS5bo3JKlgV+8VOeXLNf5JSs8v1Lnl6zK4lfq7NIVOnbvQh2443adWrxcx5c/qFPPvST1DUl9gxJb0QKRP2fmZ10QgTHxr4XpqGb2KWyPsL/Ass6cLp3dsziEYceiiQGxVGyymPAKKsdiAhVp7qWre7gt0e/xp4DPW+mu09UIIYGFP+DiZHPp2ujfC7fHFvbYyWGxgXFhHH3YBNlwmuh3RIHJQAH4fiTn94101yOlL7XntGHlypVuWw/2VNCooB/7QvBE1hn7IF/84hd19913Jz5i+OsF6ua/B57ddttt+vrXv56wHcdztgZ/4Qtf0M0335y1OaTH0X7KxhgwNoJsHvfL4roUHSAFGjF4bPxZm0qxrtQJOpq9PeYUeNAAM6Mx9Ger2biAMW4PA8Yke6S282padq92VFdr98yZOlBbrv31ZYGvK9OBujLtq5mpPZXT1VR+vVrmVWn/DRVqbijT7tpZ2jb7Gm2bda22z75eWypm6P3aMr3bUKmNN9Ro4xx8rTbOqdMHN9RrE76hThvrqvVedaU2VJbrozn1zm9uqNe2hgY1NczRrtoGNVbXamdVtQubaurUVFsb8jVqqvV9tfbUVGtfRZUOlOfm95dVaN/schEeqqxxvqWielj6/eVVwjdXVmlnTZW21SV9803ztPvGudo5v0Hb5tZpS0ONNs+p1UfO1+mjOXX6sKEuaHd9jTbW1+i9+mq9W1+tDXVVCf9OXZXwH/1wrj6Y16B359RoQ0O13ruhTu/Pq3eee+/WVmlDTaXLx9FzboM2JfxcbZxzszbW3KCddRU6MrdCRyuma099ldR2LtCmiMCYEYcJ+iRbDJ966imnHU1fpV8CQPHM9yNmlnMExtp+DXael7rOS7u26cO5DY6fD86YqWNzanS4rlxHyqbr+OxpOj6bMPDHZk/X0bKkJw7+8OxpOhT3/D5aPsP54xUzdaJytk5VlaX68pk6O3OGzk2frrP4GUl/ZsZ0nZ45XSdmBWWeKJuh454/WTk7Jc/TNeXKyVdbvNk6XTPL+RNV03Ws/HodLbvO+WPl03SsnHszdaxsto6VletYWUUaz/2yIE75LB0rn6Wj5bN0xHzFLB32/KGKWWqpnK2WyjIdrCzTgaoyNU2/XrtnzdCestnaW1mhvZWV2ltZpX1VNSl+f3WdUn299ldl9+Szp3K2DlSV61hlvXaVNWjP3cukc23BHjM3WeTMMC4ic18ExmQAY1goYNwW9TauIZbvrSNnI7nFIQw7TnMCmUYDpVSEQ+oBGMN2FmtzuN7R79KggM9b6a7DteTd8mWPLTv29TQcZ7S/UX3Fj4VL10b/XrhM61MYyYafzflpuI5cRIHJSgH4lzkpnQvzefh3ujSlfI/6o42A9gcn79x///2uutwvBUDGxhsqhRZPmN7h38Tz04RpT3zeraVL99zuUR55sXWG+JPF8bUarRgALAPPS7nuVkfmFNZuCHYAMvCf/y7R8gmDMUVtF6/YTJxgLDLWLQ11aOfKu3Xolnk6WDFTB2dNV8usGQl/cGbw+0j5bB2qmK3dFTPUWDlDu6tnaU/tbBfuqpql3dWztb2+Uu/eOEc//9F8vXXLTc5vW3yPti6+R4TblyzSjqX3qmn5Eu25b4X2PbBK+x+6P+EPPHS/dixZpKZli7Vn5XI1r1rpwj0rVyjVc3+lmleYX6XmFavUvGyl9i5Zob33Lk/4ffcuVzZ/8oFHdey+h3R4+QNqWXqfDixZqf2LV2gfnrzivnnJCu1ZukK7lq1Q4/LA71y+QgcffUx7HnxQW5ct0aaFd6lx5TI1Ob9UTSuXahd+xVLtXrUs1d+3wtEAOvi+5ZHVjkbQ76X6Gr02ryHh18+fq/fmzdemeTfq/TlztaGuQRvqG/Ruww2Br79R6ytv1vs1N+uj8tnaes13dXL2TDXX1UkdbYFh5Hw/vYcY8ErSjKEvcpAJ4yM2OZhHbFy1MESe0f1ky6C6dOr1n+rowjvVUlWlI7Nm6FT5DDVf910dmP49HZv2fZ28/gc6ef21Onn9dTpx/XU6jp92nY5Nu05Hp12nI9Ov0+Hp1+nQjOsc2ALwAgBjYAzADCBNy6zrAz/7erWUTdPB8mk6WDFdLVUz1FI9c5jfXztTu+tnqnFO4HfUTdf22mnaWnO9ttVO07a6adpeP935nQ0zNLKfqZ0NqX573QztrJ+lXXMrtGd+tbZUzfB8mbZU1GhLRb22VDR4nt/4Om2pqA3iVFZrS2WVNldW6aOqpP+wqkrmN1VX64PqGm2sqdH7+No6bZpzgz6YM1fv1tXr7ZoavVVTp7dq6/R2Xap/p75e79TXhXyt3qnP7N+rr9QHNddq39wyHautUXNVvXbcvUg6x3ap9OuxkRiKuT4CYzKAMdjVYIK1L00+EJNtkeQT3Tp6ugUSWjcIxlg1T/fcz2c8rhHQaZctLAhLoV7j0fbJWIbPW+muw22yhSQLd4C2sXBMevixcOna6N8Ll8kz+m+4D/tpuI5cRIHJTAF4mLkq7MJ8Hv4djj9ZfpsmBYZv0XZj3uKLZyn0ZX9cDdM73W9fgGfuxdEW/36m95KpvZnuZ8pnou4zH82ZM8eBa5NBK8Y0YIxebPVFoMUmBTRnO6x95GAbhA/GsJYqqksBY9imhL2Di2p+8F7tnlOu/ZUztbuqSjur65zfUVOnPXPna/8Pb9bRBQt0YuE96n12jfpffE5a97L083VS07ak371T6miXujsDjx2XzvYACAAMwF+6ENwbYC0xGFx3tUvmL2MnghOpQI1gbPLAx+3DuBB7MfguqSPuE/ZlsDeD7Zn+3Px56tQhtWOTBns1PdLl7qTv6JbS+U7ix31Hp9TeJrW3BnWl3dZ22j+Sh2bEuRynEdfQEDsffj6X26XWdunMBenoSanliNTU7Pn90od7pY/2SDt26NSdt+nozFnqXb5SGgi2pOW9DyLEgFMdjPHHQcYXPn7TVwFROdGT574PkWd0P4fg2XP6YPmd2l4xW+dqq3WhrlJtN8/R5pnf17bqWWqsKtOuygrtqqzUrsoqNVVWqRFPv62q1I7qwG+rqRT+9D136NQ9d+r0ort0yvf33q1Ti+9x/uTie3RiyT06tvRuDb70jAZefkb9rwz3vT97Rh2vPaP2dc8mvLa8JW1+S9r6duC3vSPht2/I0b8rbX8v6T98S9q9VTp9WOq4IF32favU3im1odEX9t1SG75LaqM/4unXdu2FlzulhPfGEPo5w05Pv9R+WbpwUbp4KfBoyCf8Rakt7C9IbZl8PG7raan7pPTROh1rqFLjzJnau2K5dOmisy3Vjb2tPB1z/hUDxuRDG+ukYQDG/21xLMwnf+LydYUJ2z/eOt88ih3f2pIuLHZZUX7jRwHeJ50d/rV3W8zS2cYHL2OPBvXtUnHWVgut//I7chEFJjMFjIeNtydzW3KtOwI89lHQjOEo72XLlrnxjPRGj1zzGut49l4szFYecWxssjCXdNnyLLVntMvAKq6x3QCwBqjG/DEZHe1gGwR2m7AlwxZgtnfjaFPRQRgjEtMX2B0CB9cYfe3q0AG0VOoqtbu6XL2vvynt2S+dRRBplboxyNvLaRaBQdr+Ximjxxhw/JhWO+loAOOynrf74XCQo3s5HanfHf3K8a+ZfTyui++dqOTy9E9gil8PDEnpfH9MwvcNBJ4jZs07g7gYxQ15e25hX7/kfNwYMQCa83Hjun7bc7k2OqQLaR95J8rsDxlFHpA6+4P3e+mSTj71pA5WVGt/XUMAdrkXX9gXeGMhtkP63sabTKGlmywh7cjmwu3MFjfvZ05brdcBEANPPKTDlTN0sr5M2DrRgd3SmZMMEAEAacZh6Z9dPVIXwGDcqLWBgYkQA9fmO6Uu856hXgzx9gAAYpD6cmC81hmwNSO2cUPVfRipNh83DmxGvIsSYujWjF/bmNMTgIkAiq4Phfqk30etXyZC+gxGrXP0wVFkwUluA3Fj2PQ3lx9hvF8zTiU8417cD6tfLDCsjXFtAOjYZal5s/ZWTdfe2dfp0IMrg7450K8+5vM8wT7kMwD+Q4cOJebJvPlO0qQw4JtPw6yj2sIoXWhxLMwnf+JGYEy+FIviF0oB41H42K4tHE2elrYUwRhrXzg0GljdozCiwGSkQJivJ2MbCqkz2jAcb80JPNdcc42zNUI+9OtScvm8H4vrrzPsXim1qRh1oY2AFwAxHN+N/YbJ7mgTQAyADMZC4dExA2IgloExsLwDY4acJkjLylU6UFulxppKDTXuli52JM9qjRPZT0py89lF13g5RDI/wkuzcmw31Uih1cOaNEL2qY+tToOBtgOCEJ5DZu1wXf8gXXtufcyFsUENeV6DHO/teStjpNCrmdEgpzb5ZQ0OKcZvXE+3Tq97XQdqGuJgTCtnqSU1jrzy8rlMaXtIcEz3LJ+8J0PccBuLWmeAIEC4jjb1PfmQDlZN1+Hamdo+v1a6cDYABPwCjadcJyDtYJB+iGPe++MeUNMDL10cjz/jHYh2DQ5xbHMsOBJd/fEjnjkiPvhzxzwPpcoCiYEgnk/Rflvb/PYmru1hOExEKN4FRdCnXFGE1tBw2fzOxfVL+3eouXq69s/+gQ6vXi51s4Uw5g7lZrzxeWykHJlD+NgEKMN2ukJdBMaMgMKmI2wpgjF+PX1G4jpyk5cC9i7p8HZtYaGt8nliMoExo213ofSK0kUUKCYFjI8tLGbepZgXW7FMs+LWW291pyohzN9xxx2uuoxtk9nZewyHk7lNft1tmyz37rzzTgemYYiZrT3+Mz/NZLqGNwFi0NzCZgxfOHmXY+Z8GYJdUB098sEYHT4mdfN5OFVuJ5mJIX44Yk398kaMnMSLRgJh7HledQkT1eo2hcAY10Ta1den3s2btR8wph7NGMCYntSXGqZHlt82vjBepvP2PBxmyXJSPhrT9jkwZtBt9et98mEdjNtuaf7JD4Ptfwa08X59xnfXERgzJgzlaD2WYMyyUYExfpvhzUJdBMYUQLwIjCmU3aJ0+VLAJp7xAmNGM5jk27ZM8a3NmcJM6aL7EQUmAwXCfD0Z6jzaOtq4gnp9bW2tysrKnFCPjY4IjBktdcc2PV/7+Or385//3G1NQqsJ2w24MdUiGdtmpeQOX6Idw3ZdABk78SslUrF+sF43349mTHccjKl0mjE6dFRqx5bMgPrbkjalnEwSkgFzWvpbWRaO0A4rx8CWbKHJo5Y1YV7OEk40GBOqtFUrp/aENGPICk0dt51j7141V9WqubZW6rgoDfLlHIoWz4Xnk/Dv4pU0PjnZXJGptLFtX/yNt11S7JnHdaByuvZXTtfBu34iuS1AbIUBdAl1RB+M4bQspxmDdgw+fpw5odOKQXsmF82YAfEXc77UNGMyvZ0xuM8r8TVjEsT3e6ld51K+pxkz6/s6vBowpjWuGcPrzU8zxi/R5DT/Xq7XUw6MoeHhzjrS71yJZfE4jpJJGwO+kYsoMNYUCPPvaMsjP3NoxqCmDT+vX79+0gtG1q4ojCgQUWDiKWBjl/8lFwCmqqpKaFdUVFSkGL2drMK9tdMf4D/8eAAAIABJREFUWyee+qOvgb2PEydOuO1JvDM7Apy2TgXNGGsHIVuvAGOwn2Y2ZEZPxXAOfOWNf+nFjkJHl1pWrdSB2go11lQE25R6sbESB2285MmZ27s5Bpcm2owUFqVoKySeGT/TyrrDyRGkSBFsfSE3fm35W5hDpfOImgTWXMX554ExbW3aXVWj3TU10uXzUqxr1GAMYykGbeFPM0IN72byOTS3pKLQDnOsS+0EJQwXs00y3E6LW5wwXjZGrp97SvvLp2lPxfU6vOj2wPB1b58DBsJ1SP5Ggz0W9wPxkHu+D72rwWDnDXkktykBwRgYY5uUYm4LE3GS5WUDhtL0hXjHYqdPOp+244UI69hcQxpM45NvzkvEzbD3HqdcpssgJS0/Mo0O1jjToklTruOtPmnfdjVXXq/9M/9Phx9YKnVecra2egeHNDCYagfOpzXXYce98+fPOxtk0TalEHXCxBvpdyj5iD8ZEPhKNObqrCPWJIpwJVAgzL+jbTP5mQOMeeGFF5wRXyzXRy6iQESBiALFooCNXT4Yg4C/YMECZz8GLQuucZNZsLd2+mNrsWg4UfnwzngnnEbEO/rud7/rQDTe31RqJ22hnYSAMXg+ULDGw8gvztprYeHvJC5MMAdzmQBjVuhA3chgTOHllnBK6JBckrjLTOKWFy3ZoDEAY5KZ53Bl9SdEkOPVohmDodH2NjVVVmsXYEzbOWnAO6Uqh6zTRfnggw+cFhcHL7z++uspgjn8Gfbp8ijle4w75gBjOEUJ4ImthLR9XNrX1qrBp5/QgcoZDow5suQuqa01MDadxmRAsk4+GGOgTCp4koxr7yqOzQ4DY3ydmHw0Y9KBMMl76UAY/94wrMNeRjx0bJ4BEknbP/3+kTZCqIDwz5T0/Mg0OuQBxuwNgzGtUiymXhTa8gRjAGAADPmYjYZloS7SjPEE01yJiOVkzrxHQwb13chFFBhLCoQH79GWRX7mAGNQz+ZotnTH7Fq8KIwoEFEgokC+FAiPXTb2tLa2OjDmqquuctuVVq9enW/WUfwxpgCgC1/8li5dqquvvtq9J75O9/T0JMCJqbL+MQ0g5sI1a9a4OZGPFLQXh2FfnMVzPwr6FxcmRgHGJGfvgipQeolokNeoOIXSilxetGQ7SgmMicu8DpHhpJfL7Wo0MKa9OGDMW2+95QAKTjUDrEg3xvr3koSaHFcTDsYABvX0qOvRh9RSPVvNVTN1bNki6fLlOA5gIEq6MAJjhnGZ9W8Lh0UY4YalcyH/SguMofaAMWACaJAW6iIwxhNMcyWiqQgSf/STc66lRvGuVAr4E6sJM6OhhZ8HYAxf/+wL4GjyjdJGFIgoEFHAp0B47LKxB6Opb7/9tjPma/ZjEH4jVxoUMK0YtpR973vf0//93//pwQcfdKdFAMbgfKGpNGpdeC1sHQcYg8YBXzlZWJ89e9a1kw9vaM+YIerCS4oLE+5TNAtITm7pVMsqNGPK1VhTnnWbEuWSw5RyoQbxM04lJ3bZbwuHtX0kMGZYgsw3KCNvZxWLh1QnAcZ0tGtnVbV21dVKRQJjTPBDYwQtrnRjrH8v7/ZMcAJ/XJkQzRhe4MCAWh9YFYAx1TN1fOViqYstZm7gy7DtCCDGvGnFEOarGWPnKSU1Y9wpSoq5bUz+u2UYGY5NmBYMtmnCfijYnoT2VjqfLr8QPzj2TldsprEp1D9C2Y3800/vYudQAz9NyjU/+qS927W38nodmPF/OuK2KSU1YzgNDR40n0LvNHgB8fiYzbzR1NQ0cnsyxJiSYEyGthbtNpMykzdfhVDhHellFa3gKKOIAkWgAPyKM74tQpZRFhEFIgpEFMhIARtrbOwhIvPopk2b3DHJ1157rbMfs2PHjlEdD5mxAtGDjBRgDYMzQ712jVbID37wA2crhm1KBlhkzGgSP7C2AcYg5G7evDkBNrEdnfv+l0/WfrZYz6/ZzL1xk7jMw2hWd3aoZdVyHagrU2NNWUYwxmSK/MqboNhW2XThBFTJr0am4v04/nWm+GnvkxCHQI9mTEe7Ti+4PQBjWvYUZZvSVAdjrC8yV6D9w/YkQFH63/bt2xPrVptT4hQvbtDXq+OL7taBypnaVTldsZeeS4Ixw6BCK9rnGq4N2TCmsHjpQ0sdpMImS/A35Mqzp6G0djttyE2rg4XcG51Ll2vxcs+1bmkbnD5xSlRqGoAx+yqu10HAmPuXSh2t0kBMfTG5o+ltbCc0PrMwXEgExoQpMo6/jx49qt27dydKtJdkYeJBdBFRoAQpAJ/i0vGrffUswWpHVYooEFFgklLAxhobe6wZADLY5+Co6/nz5ztAhoW3fexgoRO58aGACUGAMtiiAIiZNm2aOI6c9zSVnbU9HRjDEd588UQo5Pm+ffscKdCSyZ8uzL3pwJhlHhizS0pjwNdkipJ/D1bRTOE4N4Bq5CIsWnWteuHfdj9rSCKcB8acuv127a6vlyIwJk6c3AL6JGAMHpsxGNVGY82fS8LzSW455xCru9uBMfvKZ6ixYpoGXvppBjAGzjJO8bmMe/7vkcv0UwTGcYP/WXXhrOhhIWovVn44JHLhLrWeyVZSyuhyLrxOWVOm0IaTrVLBmKMRGJOVfCX9kK95TMpmY2NcBoeSpkhUuclEAX8C45qvfHxxiAz4Tqa3GNU1osDko4CNN+ExCDsIADJoyHBiD3bZ7KvU5Gvl5KoxALyBEbwX04gpLy93WjHHjh1LsRMzuVqXW20N9AOEMs0Y41FC1npsVQKQYWsI4AxpAGryc0gG6cGYg/VsU0IzJjsYU5ICj0+EFOHHk1Xtvh93HK4p1sTRbLQLVy/8O6+qusQDUtdlnbrjDu1qiIMxRTjaeqprxhid6V8Y0WY7Kzab6JcbNmwYHzCmp0fHFt6jfeUztbNiugZeel7q4lhyHC/XOMogCP+ecY7F4ffIzs8hAmNGplfOMex1uDACY3Km22SIyADBhMzR1rZgZMI2PxnaENXxyqWALTKhANcAMUx0TPKj3xN/5dI1anlEgYgC2SkA8IvgT2iO34xDaMigjWE2SgBo/HgWPwqLSwGjMe8AGzGmETN9+nTt378/URj2xaaqywbG+NqibFnCjgX2AZg302nGQEffp9IMiQAwZiD4cj3Q707caVm1TAfry9RYOzIYk5pfCf5KEX4iMOb0XXeqCTDm4G5pCHtLvP/C3ZUAxli/am5u1smTJ505CDRjWlpaUvoW/WxMXE+vji1cqH3ls7SzYob6X35e6jHtQOvDvMdMYAy1so4wcg0tpsE3QcgGpRHaZwmHhaWuGTOswnF6jUyrvGOkFMWZ3n1S8w7tq5imgzO+r0gzJm+Klk4CgBgmZFDaCIwpnfcS1SQ3CtjCk9gsLvnax+KSYwNZmPsLyTGb7HKrahQrokBEgSlGAcYYf9605jHW8AXUDPrOnDnTGcbDpgmLc3/csjRRWDgFoLdP01WrVrlTkwBjqqurhSB0pbh85rkLFy44+xUYnMZwI8bv/Y8Y5JXZx4EY9QdC+UCf1HZJ78xv0MH62dpZM0uDO5ukHo5Gjst68ZdgMoX7aT8Ix9v5ZRdyPd71zbE8a0ra6PaQMGcXk3o6dPruu9VYX6vB/bsCexWjBGNYs/k+M68FfJhzdSdJxHB7x6TaPb06HgdjDs6vU+cLT3Pmcbwo9FYG4j4mrLuk+lQrLz7rZLtOBWKSME/W9mXMMH8wxrLKWl4cMklXV+6Rx0gugJjCNLPfueSQvoSM9bcHLgSM6Zead2p/+XS1TP+Bjt23TLrcJvUPqn8gf5sxjP2cOojnulD+jAz4pn+vWe9GYExW8kQPS5wC/gI8AmNK/GVF1YsoMMUoEF6s8Nt3bP1YuXKl27bEKT6ABIxZvsDrx4+u86cA2kim8QGYcMcdd7jtYQBgADHYxcN2TOTSUwD6oSHN13rWg7Zl3UBD+NV8Kr8DxoCyeGBM6wVtmF+vlvrZ2lEzUzEDY1AeM/kv/J3dFzDSV3Hs7vplF3I9djUbVc7WlLSZ2EPCnF0cjFl4j3bU1Si2j5NW4u895zxyi5jKY6lgYG45TJ5Y4baOSc09MGZ3fYUG170sxezlY1h3wPOxhLFdM7mbCazI976VmLGNPl+mXPMjU2npc7XkGcuKP8g/Zz9HoBgzTTw85FmhLmv97aE7xS4Mxix3R9Crf6ggMIb62lhvdfd51O6NFEZgzEgUSvM8AmPSECW6NWkowMBhLh0YY8+iMKJARIGIAsWmgL9QCV9TFqALHnX873znOw6Uuemmm5wdmWLX5UrPj61g2OiZNWuWO74aY70+CMP7idxwChhdOMhh69atiS+ixLSFuYWpPJ4GjGm7qHfn1etQQ5l21s5WrDGuGQMY45HfRCtXm4RwMbxuE37Hr1u66xwr6DU9xxSji2ZVtVzCv+1+7mFM6u3Q6XsXant9jWL7IzAmd9pljpnan4rLJYncevp0fOEi7Sufrc2zp0mb3nWaE0F/LGEwJkE2WmIjRjhMtDIRm4tAYyX9Mz9i/jmnph4vMIZ6DmuNB8bsq5iug9N/oKP3x8GYgaGCTlPyW+foGNKMDD/P9DsCYzJRJst9H4yJtnVkIVT0qCQpkA2MsUVmSVY8qlREgYgCk54C4cV0+Lc1EO0DbJZguwTAYM6cOXr66aftcdbQzzNrxCv0IWDX6tWrhSYMRpOh8cKFCx2ogGYSz42GVyiJcmq22bZgex3gIVpGBsJYaHQMwhAY098ntV7Uhjm1OlQ7S7tq4mBM76AzK+NLE6RMfEYxSWOYtJFTtV22fhZ+Nv51kJvFpHS7HqEci5YpjCe3x+Hcgu/ngXiYLJPfqQJW+Hc4H34TxxdH+Z3OWV7hMF3c3O7FpL4Onbp3obbVVmtob1Ngr2KIN1m4S+WnVC2YdM8KL2liUtKGbC7cxmxx832WKLmnX8cX3qt95WV6f9r3pZ1bpe7+uLmfsQRjhmQbn1I5l21H+KBFiXpyYT7UN1LTWw9IpAyRJuhxqT0l2DpkG4gIXWorzw/juaV97p5RPnwPwoy30cylSDQh+EUCyzxUzSw/LUW6MJnMtik1al/FDB2ccY2OPbBC6rzsqtQ/WNg2JcvfnzeNT+3ZSGEExoxEoTTP2SuMnQ0m35HVUpPslSar6FZEgXGnQBiMWbNmjbOBtG3btnGvS1RgRIGIAhEFslEAGx2LFi1ymhtsW6qrq3PGU0ljC3cLucf4ZguhdGG2sqbaMwMLDBigfaxb6uvrdf311zuNGAwmP/zww4mtNmGaTTWahNuDTSLTBsJuGpouYTsw4TTh38TnIx3rQk4lBJwxZ/SknDNnTqn98oWkQAIY09aqd+trdKxyhvZVxw349g15yEuQk4lTlu9oQhNYLE9bpRKamBQIRCZA9WlQvRoUIWJZHuKSH5kC49uvuOxNs3EnqEOwEYSyfAHRz8pqltz4w1OLz3XgrEjMrxKX35mcnz/xkrlkSpH+PuliUHKgQyeXLtK2mipdfHu91NctDVLz0TmMaWOjAuDU+CtTOLqSxj817TBntjlpK8daY8w33E6LW4wwUbIHxuysKZe2b5Y6ugPedT1gLLYpAcTA93AOp/5g5BuOxQ8wsSWY1/EmlY0PE/w2n2iDe24gTjzMSCQikwPl9gegoevr/erXgPoUU7/1fI5tHwj5GCBHnK+tIvzEuyO26X1dkjqloe4gf2tPPL5TWuHauXjj8uyBfiqrhn/PCDjQtE17K2bqRHWZTjz8gNSLYe04DR2pMoOcQf1S/584cUIHDhwYZnMzNVb2XxEYk50+aZ9y5j2nz5jBU1voWDiWg0XaCkU3IwrkQQH41BzblJjw+OJ88OBBux2FEQUiCkQUKCkKYKMDIMa21CxfvtwJJMy3fJFCSxXwAY0am4sJr7T5mPZCB2hC+wlxLBbRfgHQMn/DDTfomWeeSXxUIt6VRi+jFW3nUAY+tvFhwmzqOOJl+WdADgtywBjsyBDa9iWSwptoeb344lqte/2VuNATkwBj2tv0bm21jpdNV0t1eXC0dX8qGINAgVyTnLmzVMh7ZIKI3bLfmULyd/KTJXAlIh4CwvQkwJiwoJOInu7CL8wrAEwGEWg4QALYM+D+nFDqahRIdlYuv0iXBFgoxL64D68E8ZNxhz/375CTlUPI73wd6aAaYMyJpYu0pbpSrT9fL3V3jRqM2bRpkzv1DB7j9LNwfw3/zrfuEx3fX5+yNqWdnKJEv8So+Fi2L/GufTCmNg7GtHeOCxgD6OF4x/EzPB3nawdeBNopQW8I+qrFIITvEo7GOG2auEaN+514OvzCxY1Jg2EwJuj91MvZdKEeA/C2edRJ4uCRAbWURWWo6CBAUo80BBCD7wnKwAaP3xCySDTAKhsOqbZ/L00zQv2XLM0nenPLXu0pn6FjVWU6PkowBpDd+mT4tK/htct8JwJjMtMm4xPAGFBajrbG+Qu/K3Hxl5FQ0YOSpACTmTnAmFdffdUBiwwqkYsoEFEgokApUcBfnJ8+fVp33XWX21bDqT9oeLz33nuuuoAwGFK9kudj2o7gb47frFPuvPNOB8CUl5e706oAtG677bbEl2afxmMp7Fi9Si00AA/h9oknnlC+x6pDP8AbFuOcTMjHOvtgZ2ANvPviS2v11jtv6vDRA+q83Cr19UptbdpQU6ljs6c5MMadptSX/AoOrRAm4iJZzqRLJ7Jwj7ySK4AgO37bN3j3jH9OkAru97oU8RuBSJYQcIjq+2EVDD20tgCOJDnVIlEGT3rdt/hYotVB2X5a06oJSqf2QDucchO0MVkP7vQrph7FnHYPuWR2lt5aa/SyGmZOmXwS1DMmxTp0fNkiba2p0qX1bxYFjHn77bfdB7TnnnvOAX/h/hr+nazV5LjyxyLAGECYffv2uQ+GTU1N4w7G7Bg3MCbgW+sBmE8PODr+3hwjBhZXAEbok/QBvPWlBGc7ZgWEQWMF7wEymdjAMT4gMICMISNo6wT9NMibfOLAi9PaQXsnHtdpfAUaNIH+XFyzJ9YncWrcYF+g7eNGDm9Qs4EtXsWgP1Oaeet5Ftp9Qu6lOteM+PDl92Fiu/iATWdPqnH2NB2umKnDq++TugGJgrEOxZ9wH/J/p5YW/Nq8ebNef/11B7hb3HTxst2LwJhs1PGeQeCwYwJn4cPg4Xt7GRaG00W/IwpMJAV8XgaMQZjxJ8CJrFtUdkSBiAIRBXwKMM8i0DJuMd/yG0HkmmuucQADdk9uvPFGsSCK5uMk5Y4cOaLHHnvMbUfCJgyerUloxUA/oxUp0A4xMN7WLRYmc5y6V8ZbfIXn44QBfPnOi+RjWyrQNkWb65133hHvgq/6r/zsZb34yvN6+503AmLGBqTLl/V+XY1Ols/QkboqafeeMJrgxBKTWXJ9Cya6DF+5+jkgefDluk+K9Ur9PVJPt9TZLXX0Sd1Walygc1q17vt4RlHJz91dexXhEsHRhMzgOz9l9Eqxbqm/K/CxHidqDjiIyBepkgJrd9zkqGL9wTaDnk6JE8DI3KRUp2EU5D+obg04MIb8MjvqiODml+o1IXNC7wnpnXZDrEPHlgY2Yy6++XpRwBiOU2dLHBpY69atyyo4wo+Tzfl9zjRjWKcaKGPjkoXFbF+CWr5mTF2FtGOzdLlTg/CT0/4o/GhreCOTT/QHgA5AgwF4uz+wV9PVJ/XQT2BwgMU+9WpAQU8JAJNE/blw794ryd3LQC17Rhr6OJounPNM2T2Uy7jQ6QxSq787Xgc6GRZu4v2JohyggQ4d4CfgS4/U2yV10Tc7pZ6ueF7kSf6UA/Ac1Jwskr3PemCicnHwxWuTo2SQ1lrGL4thOdhvKthPHS63qnH2dLWUz1TLgyuljnbX4alOvmAM/Mp8Aa+iUVkoX0ZgjL3BEUIWLua4tkHOFjT2AtKFli4KIwqUAgWMd8N1QciJXESBiAIRBUqFAjafsuDxPfMudjqef/55BzAYMNPQ0KAPP/wwpfr+3M0Yl2n8S0lU4j+MLlQTugCmmGNhuHjxYkcXDB9DG7MPw6lUx48fTwAvgFw+XcnD8rbQ8p3qIe1FmwUhFx6ytV0h7caWByDMs88+m9BiAOR5/oWf6oUXn9WLLz2nQwf3BQJTW5s+qK/VibLpI4IxrEJTRY/stTMxJiVW/GaQDzkOqK9xm7YuuENbaurUXFepJoxb3jhflx59RLp4XupH8HLM5mpgwk3a/FMKi1fYK9M0cIJowC3oAHRIh5rVdN8KvfCjm9XRjNZ5n9uq5KQkZ4+CL/BxwY+teKYPcKlNatqvfQsWqbHhFm0pn6ct9bdq/8qHpeOnpa4uKdanHgfFBEBSuIr+b6pq7SMM6OTHyH5NfGrpgzE7Gmp1ft1rRQFj2BKB4AegCo9ZP80UZq9t6T1lPDJHO/FsoWesZ6tfuJ0WN9cwp3VuHIzZW16mHfUV0s4tLvt+pHXHEYR4n1PsOjPH8ARvMcNhoJvRKXWc1pHHHtGhuxdrZ92Naqy9Uc0336YDS5dJBwFr29V/+ZQG1OkAmQAWSe1rriAHyMTraYVnDXkoZ1Rcp87o/NPPaVNdvbbVVWnPj+rVsux26dAe6dwJ9V044WhAGyjBuXjeA4NSV29nsD3pwjnprfXae88CvVddrp1zbtBHDXN1+aWfSUdOSF196u3sc9UFZgpq4NM3XOEw1eJ1tjpkoTG5DwJwdXWqqWyWDlXM1rFHV0uX28TR1rh8wRjSYLIEIL+xsbHg9UUExngvMNulLejYf42Btra2Nhc9PDCk+50t3+hZRIHxpgA86jt+M0Hh/YnQjxNdRxSIKBBRYLwpYPOpDxj41wbK3H///e5UILYuATywfQlBmC3FYWd5hu9P1t+sSTAY++CDD6qyslJXXXWV036BFmjBAMhUVVU5eyjh8R1a+PTk2uhj4WSlSyH19sEYo0Uh+fj2Zo4dO+YAHr7sv7n+DW3buVnr31qn9W+8JnV2SK2t2lhbo+OzpxUdjElb97gsE3yF75U6L+jSupe0o6ZGJ+ob1DTzWu2cfa321FRoz/x5eqe+QTp6NG5MNABEfPEobRnpbsaXHSZKBWJXrwZ6zur45je19c5b9dG8G/Tm/Bs1sGu309Rh04MTXd1WCzR44h9F0d5xYMygul9drx1zbtXWyht09Ie3q3F2vfbU/lBb5/xI7968QH07m4JtEi6FmR9OV8HgHtW0OqaulDKn8Z+QBlHSbMYcWXyPds6p1/nXXo3AGJ9QGa79MQogBu0+ticxnmP3ysYlCzNkk/U2adnSava0hkX2wJjtdeXSnh0uSj9aHFnhFHs+LMfEDZ+/jM8shKdjFw9Juz7Qnh/+SAcq5+hg7Tztrm7QlvIqvTNrljbOr1ffe68HAKa6nAYKUDx5BABMAtGI36XP0G9DVbffFhKB/tXTqSPr1+mtW2/VmxUV+qBstraWz9C26un6sG6mNt88T/rwfXdSmIbYkBRASGTjykggM4A659X69LPad8uPtLF2lhpvqtWuumrtuWGu3qup14d33avexn2ONqTHxK9rh+tBZMQvq6CF3PM88owrPEHiRH7h1DwIwJgu7Sov0+HKcp1Z83hwmhJbQ3lewDalCIxxpBv7f36nZ3EHAsbgQGfG2fNM4djXMCohokDhFOC0kh07dqScAFF4blHKiAIRBSIKFIcC6ebUMHhASYAybAPBNgpgjGmCoBWCRgJbR3BokPh5FqeW45uLfRjiRBWMxN5zzz0yEAogZtq0afr+97/v7nGNMOODA2jDGB2ouU+PdNfj27qJLS0MxhRaG9NUYo3I9jmAGDRuXnvtZ+od6NIb63+mt9e/oYMffZgTGINYgsAFNJFG7sivmiahuJwCrZRzrz6j3TfVqf/x1VLbeanrsrR1i5rvXawtVQ3at2CBdHinNHhBGopryeRYanAkbrzWKZVnO0SPdjzxiF6vr9F75TPUOLdB786ZJwGg9LMBIw6+uLoGEIcrFhBroFvatUub627Wvhtv16nHHpeOH5HOX5D2HND+O5Zr67zbdGDF/dKRA456Q2jgJPJM3wCqaKJeSnXTRx92lzRBTQMDvkeW3KPGGxp09tWfBVvARnma0pWmGUOfBIQplmbMHXfc4exlsfUpo/PAmC01s6XD+6S+/vhuGp9DjFP8MDvXZEvtenj/Jal5m5pvWaBDt94lHW6Retqlg806vvo+HZx/g5rm1Gho09tS7LI7nYhNU9TAdRMKcFXgH5zIqIH9ljhj06UcPgP4YkAG0CyGebt15qWfauOP5uqNH87RgacelnZvl86flpoatXvFCu2+Yb4O/XiBdKgloTHHiEAp2OQNCsJgb5fOv/Ga9v1ogXbUz9WhNQ9KrS1O60dbNqrxjrv14Y236dijz0rtGPXl1KZg+1e8gvEKk6nvfVp79nBCL9NP4T8aZJdLd7d2lZc7MObSC886AGqwq49XPGowxi8rn+tIMyYHarFAMcfeXyZVPCpJuHQLGP+epY3CiAKlQgGfp1ksovKKkbTIRRSIKBBRoFQo4M+jdp0OjDHhF+2+3bt3a9myZU5T5uqrr3anL2EvhS06GN4HfLa8/HGwVNo8Uj3YQoMmUEVFhQNdrr32WqcNY3ZhvvOd7zj7MJySBD2gDWAM4E3Y+XTIdB1OM5V/+2BMobxhYBmGk7EZAxjIepF59tTpk458B1ua9fKLz+vnzzwz/mCMSSlOwOmSOk5q9yOLtbHmOvWvfSpu06FfwqD/pVYduf1uba2qUsvjK6TYRWkwGxjjPisnZScn4gXaKINOMER4covmQCIc6NaO1av10c03S88+qUM/uUXvz5kr7WiU+gIBLclvcTAGMAMbFu2X1HjvYn1Ue5POr35Caj8vtZ0Kop+/JB07r10/WaTG+TerA4Gr9YiGBi/GxcZkrv6VkYYQkY8wX2dp7WhrwJimeXMiMCZHQoY1Y/hQyE4EPoIztofHqRyzTUT70pfocogMAAAgAElEQVS+pK985Sv64he/6MbJtOve/kGdWrxU+yrLtRkw5uyxwF6Ly8XecAgUyJFjsqV22/D6u9S7fau2z7tF+267W2o7Jw1yklOXdOmcBlbfr/211Tq48C7p3ElpoNMOww741TFtAK4EYCYwLvZbQBqw0YJhF/ohJoABTQLNGc5wUqxTux5aprd+WKfLH7wldTNnOJhHutwjHTiqEz+8TQdqGqSd26X2VtdJGBEMkAkI3SGdOay3b5qnD2vnavCV16T2k1LsvNR3Qeq7LO3eqy0/XKBNdTdKH20LwFUH6cTBIxsvggHDA2TCdHcNTrxfu+BuuicxbOF0dWlnZbkOVper/WdrpYFexTp71NHZlzcYAz/6mjFWfr5hBMbkQTGIzp5FBgXU55homXjDi8PRDhZ5VCmKGlEgbwqwMLcJj724LBbhZ2wwRC6iQESBiAKlRoHwnJrtt9X97NmzDnzhOGw0ZMx+CqDFT37yE2f80tcYsXSEjI/M7SZY+88Kvba1wkjpaZuVDZiCIMLXcNP6+e53v5uwA2P2YGgT19XV1W5dwkejXF2Ylrmmm+rxoEshjncGX7FO5Gv+mjVr3PzKCU0fbNqoliP7dfrscb32ykt6/8UXdeHNN7WhslznasrVNOO6YQZ8ET0QlxB2EtsRCqkYaUxCcU3jH2DMce1+dJEDY/rWPiP1DDm7nR0Y8ezt1MDrr2jHvAbtuON26cDBwLhnuHzLz86m7Q4Am75ONh7wfZ7TX0xcc5EDUAQtm75uqfuy1LRFW2+aow3z5ko7AWN646e6mFQFJQBkJJH/+vXaWF+nd265VTpxVOq7pIHOs0FkirjYprbX16uxrkGnFt0jtZ+V+jAvgNHRJCmCDJO//WdWU4uTS0iaQFwMNGN2336LmubfoKPP/7QomjFoifg+3H/Dv3Opc6Fxwtt87OQwMwZOvr4Wnl8OYyzPDEgPP+M3cawf2prVj2fX1mb7TWj3wvl/+9vf1le/+lV97nOf0+c//3n9wR/8gRs3mS8SrrNX51as0t7Kcm1jmxJgTNymYrC9zwcEfI5J5JDxIskfxifJMM446vhguz6sm69Dd9+btNmE2salS9KBZm2pq9GOqjrpwy3OqC7b+QJIxYrFrC69rl893a1SP3wPyNEbGOUdAIg5r5jOSmjiKKbu3svBSNN/Ruqlr2BQO9AUweatM4zdclyH59+iIzfepM6NbzkAlGESWy/dQ1KvdZiBXrW/9FO9W1+jAw8/JF1ku3CPNAC4MwBTSJe7dODBR7Szuk6tDzwQGPB2dbSW0Nehs0/fdNSzQq3t2cNYX6AZs7FsuprrytX22ouBseTsyTI+Za6Gd44ePZqWlzMmDD2IwJgQQbL9pHNHYEw2CkXPJgMFTChgckO1PwJjJsNbi+oYUeDKpYAtrHMJ0y3+mbcff/xxpyVTVlbmtGbYymTHY69cudIBHiyqwot+ygzfy/VNkA7hnDE37MjXd8Sl7idPnnRaFGwvWrBggdN+oa5sOQJ0sZBTpPjNcdW0DdskhTqfroXmEaULKAAtAWM2bNjgABlOvmGO5cjrl15+UWtf/ql++sLTemntT/Xe2rXa8dBD2jL3Bh2efq12zbx+QsGYfsCY7gCMaQVY6e+Q3luvLbWV2nTzj6VDJySsc/rOyUpoxLDtiK0OmLPokzrYAiX19nViIliY3HWGejtbpVYEQCL2B6cn9VyWdm7Wprn12nDjPLclwhkNpo+Y3OuEsnjZ7Z3qf+YZba2vU9NDD0iXL8QtTvSoz+zK9PZqsKlJu2vrdOLHt0qnjwWnwTghNSnmWVNcM+yHJwJ6t3K6JJ+gygEYc2jx3do5f44OrHmqKDZj0lXC77/h63TxR3OPcYoycCdOnBCnO23fvt2ZbuA0GTT3AI99QNjSsN5EQ4ztlWi8YO6BtNwzO5zkS3wcYA/PLT5HxzOeWvkukge82G8+LGLcmGPqV61a5QyaoyWJNuHq1av1r//6rw6EQUvma1/7mr785S+L6x/dcqtOnTkvtV7W0XsW6mBdjZrm10ptSaAmPRhjJY8cJvnD+CQZOsaJSV3v79RHdXPVcs9C6eIFuRPD+mNSG9uV9mn7/HnaVX2D9Da2Wy67/hVsBwzyAm50NovocxjSBcRsPy7pstTbHWjZiI+vJwNNFbRv+jp17twxafCSMxA8MDSoXg46oklxDLTntbe1q7pBB265RTp7RBrocIc29Q3JmeHuCdjCaRGdfehBfdhQo2MvvyB1AQb1Bqcr0Y8BRPpjanv9De2uqtJFwFLXhwFs2aoUnNLE1inobX8BMBP0riTVrNCRae+awvjV2/f/2XvP5rqO9Fz0v5xPY3t8Jtke21Mepw8+VbbH/uDrcpXrXp/RiAFx54DAIAaRlBglMUuURtKMIsUIZjGImUhEzokACBA57Bzw3Hq617uxsLmRQYrkrEa96BU6vqt7re5nvwGVxV5UefMxdP6k9iRHla0lBPluc0xybMrYXWxRFhizCI6R2RYYswiGWUlfaA7wxcEPnQXGvNCPyWqcxQGLAyYO8DuciZiECyEhUxblGlsAEf6qTBWedevWKTBDQA1KltDWCt1kcwF//fp15cWDtgX4rmSgl5z0wLawTpafidLTS1m83tfXpzYzbM/WrVtT7SHgQqCI7SFxI/HrX/9agUgCwLCN3KSYA9tihe+XA/IMOBb4rGk3hqpx3Li2d7ShrrFa2Yw5cfxL3Dx5Ej1nz+LhxvVoXfMaGm05T4Ex3JYQytAubOf3BpSx9xwW6aQuUDKmB3WfvKMkY+Inv6AbFCCcQJy/jE+OAJ99ijqHAxXvvAsMcaNm2JmYUZ4BxkQT6PnmCu7uPIxEM+200M7nqLGbCwC9bbi/ew8ajn0MjPE6Jy0BmQhQVYWKdcUoI3DSYlKZ5t4rfVgPj6H3wH5UFRdgiF6K1IaTv88DIfEsxjxPnqDO50VDgRdorlUbTu4sZTtnLla6owoxsUvOFxqzHN1kqoRMYuCjI6go9qOaEgK0M7lMmzGZ3n1zXVtouxeTTqRNCGwTzKDKz09/+lMFaBDU4Pk//MM/pN67BCcJrFA9iPTzn/88lefv/u7v8KMf/Qj//M//nHrPsi2UsvnXf/1X/M3f/I2q40/+5E9U3j/90z9Vki2891//9V/K/ov0f8uWLSoN20CpF5ZLKZgf//jHqj4e064W1QbZDrad79pf/OIXKv2f/dmf45/+zz9jw6q1aNu5C3X2fJT6bIZkDMFEDkV5wplG0fxcTM8tpTBWA4eCI7cqUOYrQNvencBovwYxKEU2PgLcvInawmI0b9kOVFYqaRPlWYyexpLa0XRMwRlUO4ogVlmD2zv3YvjCGQ2IEPikvaX4GBAaRO/nH6F0z04E29qVXRxEKK0WVdpMKUkXgqs17ego3oaHDi8mv/pCq07RVXwiibghHcP0CkebmET9zh0oL/YjfP+Onp9JitcQ1THAGPa3rl6BMV1bNwO9lObUYAxVGjWJiqMZljFzjMfk6DyBScyUSKJr9w5UunPxpOQ4lLvuGL0kz1POM7xtgTGLYC4nvAXGLIJhVtIXmgP8OPIXCQuMeaEfk9U4iwMWB0wckIV3eswkvJYe5JcqbgjMQA03ynwHEtCgzaw33nhDAR+0wWKWRCFYQ6CGnoooqUKvHmYiaENbBiR6Wkwnqqt8+eWXOHjwoFI1ou0alv/f//3fKW9HIvHCulkXgRjGPCcIQxUrGp6k2gt/TTb/iiwAkPRN+JLOB+t8dg48D56xjkQyjongKHp6O3DpQgme0IXz8DDuF/jQlbdW2TDgBkXtbozmJvmLK6ZAxQLSArcf0501b0LMx2p3YoAxH2swZurE74GJcWA8AIyOAYNP0FHkR6PPjY6Tx7VXIs4xczmpY+7IEmh871PccG9C29dfKhsU9Liiwlg/Jm5+i9v+IpS/+bbqt7qu1JSCwP1SPPD68GDLG0AT3fca0mSirTDdI2BoFHXbtiowJn7vLkA9ingA4ciE4k+Cu0OG0VHU+72odOQjTvfEMb0hlO2ckUollW7ojNNdlPOFxixHPyMNxkx8/gnKC70oP3qEaO6SwBgZnzLHZc4z5jW5nyleaLsXmo51SuD7iGqTBF4IfJCo/kPwg8AH7xFk7u6mVAawa9cu9d4jkEIwhADLz372MyWZwpiSK7R5xXc1w9GjR9U78p/+6Z9UmQR8RIqF6Qm4sB4G9p2gNevmdaYl8fiHP/wh/uM//iPlsp7pCQj98R//sQKQaHLiBz/4Af78z3+OP//zv8L/89e/xF2PDzX5ObjnyQP6OoFI2DT3Mo0g1Yx5/8k4k1hKYqws4MaA+K0HqC3wo2fXdmCwR9tYIeA4OIjoh5+i2ulF+8GD2mZMgmOeKn30NkYIg+AtQQwNck5c+g4PNmxH9fYdQG+XtgNDMCZEGzQjaN2+VUnmxRo0eIpgUs1jUE0xFgVCYeB+OWrc69DkKkZ50XqgvQUIj2AqEVBqixSKo3SMmuns2OAQ7q4rQNUbxUBjnbZXw7QiYhNiewE0t6DR40HTuiKgrUEpYvJtl1ByPZTt0cpWhGamZWTMHGNl8wRhtMRG8pGjB1HmyEbf6a+0xFwkgkS61N88RafflrmYfn0h5xYYsxAuGWnIaIoxU+yUizcusuTlaI7TX4iLqMJKanHgmXOAY1UCxUn5QaW3B3oc4di1gsUBiwMWB15VDqR/n83fbh7T8CpVTD7//HO89957yi00wRACJgRmSPw1lTFdRjMmuMI0BFEIoAjxOvORRPKG6ehymr/QcvPAczPR7sv27duV6tGlS5eU+pF4bjQ/E+lHevvlusTmPNZxZg4ID7m248aMwNqzCpOhMVy4eEarHlCKY3gYD9/YgCceO7rX+YGmZm1g02gAv8jEIyibRRJsgl/xWb/WsvGYK06BMb24ufcNJRmD018Ak2NAbz9w5jIa172Bh/a1aH/nTa2WoFowGxhDsxAJ4EYFKtZvx903NwCj3cDksP5Ff7gPVXvfRmlBIXDlmgZj4lHlNYkb3dCJ07jv8aJlP+1kPFGbX9VE6bA8ELpsGRlHy663UVnoBaqrNEgUHjdUobiHNACDsTE0FxVOgzEKGMosGSPFZ4zNfMyYYPoinwubrGQUYpOIn/4aZQUelB05TLdvmW3uTGdf0JFIW9Eot8zz2eIFFbjIRAICEdD+z//8T/z7v/+7AmIEhCFAIkTwxDyfCLTwfUeQhFIvlKIxE6VV6LWWgaA35yQlBz/55BNl64sxVY24ZqXhVEoXUmJR+k+JGl4jaH3r1i3cvn1b/YhOnolEz8WLFxVQ8/d///fqHUzpHLbzxz/6Cf74j/43/s+f/BhlhUWoteXivlckYyLTYIwCJOeYBzJe5uGrJBN4QYmVJIDHX3+DNr8X49u2AAP9wNAwcK8C4wc+xGP3RjS4ChC4cUmpE1FVSBnVTtBjEs3wkow3Bo1g94+g9s3dyisaSsuBoT4gTvstwMTp86hwODBIYCdIo900jk1tQt5n3m70HDyCh+5C3LQ5UL71TeBhJUBptyTVEAmqaNVETkvBQPH4Me5vKEbN5g0auCEfkkFMMQ/bORFQakpobEZLQQGUZExXqwJjCCLFVQ+mgRiRk5kJymgZpYwsFsZmipkhGEHvvj0oc+Si7/TXGowJazBGxpHEGcs3XWQ67p2oGic2k0y3F3xogTELYBU/1PJgREyZ0gT0zEDmy4dcYkkr8QKqsJJYHHjuHOCHiR8q6rJTv3ZkZESN5efeEKtCiwMWBywOPCcOyHd5tjhTMyhBQ1sutHPAzQEX87RHsHv3bmzatEnFNLBLYEaAGInF3bTf71e/ElOUnhI2tFNDiRmKzNPuAg0AZgJd0tsj7Zb1Rnos9yVOz2+dP80BkTSQZ0tPmeTfswid3W3TxVICYHgYFRvW4bErH51FXoC2fwgmTP9mog4JLwgJPjFrCzNtQtKvKaQjBIw+woMD21G/1Y9S1xqUvlGI234fKnNdqMvOR5M3D6i4oexD6IZn2ITKbjKaAB49Qc3uvajZVoTwleNaxYK/6j+4hdtFHpRtWg80NQATowiNDgMJAjJRBE+exj2fHy0H3tUGP8MRjWpIZ4Vr/PV6fBItu95CeYEbwZt08RsFwmNIJLT0gtIEYn+7uhQYk1JTWgoY8xTfpCGZ42cNxhCAuHz5snoHUSpP5vlsceZWLv8q34mcL5QoIags6pdlZWUwE8FtBr6naNiX+QjIiB0YrkHNxHcgy+Kc5A/eXJ9SVZROJvj+ZT9ZBtevLFP6bX4P8poE1sn6RKKHQA9BGJHK+aM/+qOUZM6f/9lfYOO6zYi1dqFrzx40uu0oL3IDI33aJpIAoOljYrZzacQssWST6aNU2CYn0f/lF2hz5qEtexUqCn24U1CECkch6nK86Mr2Ap98DozQM1sQSEwaNk8IxghswTeFAXQGAxj+5hRq3MUIf/KFcuus1AKHRlG7ex/q6MnsyrdAJAEEYsB4UBvYbW/E7a3r0VBcjJqCQnR/+gnQ0QoEqOZExMaAhqm2SHs2VJESvvc9RsWWjVoypqZKv7mSQSTiAW2Ym/akIjGgrBzNfj8ev7VdqyklQ4hPUelKwzEElYSkZ5SQEX5NP+U0BgtjM8VMqsCYvSh35qP/7HGtvhiJYCoxPZ5kXKWV/NQpMQCOX+IBIgH2VKIFXLDAmHmYxAciE55JecxJzZcgXybyQkh/EciDNL8U5qnKum1x4LlxgOOSHyh+3OjlgXYU+NGyxutzewRWRRYHLA58Dxwwf5vTj83NkXchY37nuUFgzMBYfgXje1MW+lwHLCSY1xSSnuWzrEz3mEbaal5rZDqWdBJL+VY8OwfIRz5Dbi65+eNmUtZ2s+da2p04/QpxU8Jgkozp89rRtd6vVBEUGMOfmg3cQzb43GIRmxB8YtbNiLlpmTYkKiNLDQF9Lbjz7pto3lGMmqJ8lL3hxv0NbtQV+/FoXSFabKvRuakIuHtf/2JOI71KMsDYmcrOSDWSLQNaT32GUv9aNOwsBqLjarPz6OP3cc2ZjebPjwLRYW1ENB5RbmXpxnri1Gnc9heg+cB72mhpKKY7yk6zbAlxGiOdQMuuHSgvcOER7dzEuEGcVGpKEd5n/2IJhMrK0FDgw6MtG4GeDsN9Lrd1okokhc4Rp/NvjqS8pdig0mg1JUrGlBaunGQMxyilQgjicu0m83y2eJ7mLvq2gC6cH1Q7oioQwRgJ5nbIvOI9AigS5D0qZcl1ieU+wRgC31T9pJQg16vmwDUs62Cd6UHe17xvDgcOHFDqSVSTYttpX4YqSwTWgwFtdBqBKDp27US9Mw8PCpzAEN0ya7thqqz0MWE+N1eW4diclMcyFlUrKTUyPopHH72PNtsaDPjy8aDIhdsbilG9fiNaizehq2A9KmwOlUYBMknaMaMbeLo+IiDDCRNTrqsxxf5EkWyrQ6W3GLUFm4GeQT0/7t7CjWI/qg7sV7aVlPHtcAigTZmWWjwsduOhJw8PtxQidvOylphTHs5YvrZNo9qswBi+E3jGuRdTkm01b21FaZEXk7dvKm9pU7EJJBNBDQYRiAmGMXrxEmqdTgzt3Q0M9iIWHlsZMMbM93SG814wgp59GozpS4ExYS21lmaTzlzUbMcEYyigQbtgSw0WGDMP5zjJOZllwvNcXioSy32JzS+jTC+Jeaq0blsceKYc4IdOfn2gOCftxpjFPJ9p5VbhFgcsDlgc+B45kP59Tj8nICKbAWnmbN9xrgG4iTe/P3kuxDVBemBZzJdeR3o65uWGgmXxWNop64zZYkkncXq51vnTHCAvyWdu/rjJpfouwbbZNotPl7DwKwHl/YSeReIaeHncj1tOB5rWvoZqezYwNIhkOKoN5ZrwDgFhJObIkn3GvLVLQnPMbeBUGOhsxNVt61C+zg3cuQIEnwCBAaC2HMHPPka1Ow9VHhe+829E5E6l/hWcGy9uwtgIM9GIKBIINDxA7Xo7Gja6gO4mZYS04a2teFDoBjrqtKvdJH9dj2uAJBrG5Kkzyp5M44ED2oUvVZ7YXumo6iR1IWJKqqZxzw6UFTpQ/+EBIDQEJCcRCIxMG/ANBTB8+Twa/G707d4GDD/ClHLxS6saS+TdvIw2J9BgTMwAYyoOHwZiy1dTIjjBMUpwgp6LZJ7PFptbtFLH8u569913lVQJ1S45fxjk3Sex1Mk5RltXbKfMK15LD1IO66A5iFOnTimVIwJQ8gO45JG0cs6yeY3l8x0rezTzfYIwVKeiitT+/ftBV9dFRUWp9zGFrDgsH7/3DmodObhJA77Dj5U6HceNCuYBZD6W+7PEktQ8ZczHCkyJBFG1fy9aPfnAF78F+juV1Bd62oHrV1C/bTMq1xWifMN6NH10DIgTjKEtJI4tAWQIHNHCVAhJAq6hIbTsehfV/k3K3TtVETv2vY3bBU50lpwyVCbDIChKuzKlm9ajxmVH/64dQMUdIEBvZcAofyww5g6ftoZeecAjKkhFEWF7QkNo2rMNpR4bRi+cBYb6gfA4kskIoqGAVm2anETfl1+iIj8PQ1RNHOtHYHIQiSkaD35aMoZWY8xSMdKO1DOZhefqsjBe0gRDCoypcNnQX3JCA8OxkLbnNDX9reV4mi9wDFOylSA+VeOWGiwwZgGc4wMhAmsO5ofEhyHE6+lkzmcdWxx4UTnAD5h5XL+o7bTaZXHA4oDFgWfFgcV8vyWtfP/NsdyTWNqbfi7X54sl32Lj+cq17mupIz47LqhJ/KWTQTadK8UjCtjTJkKCKgQEY2gcs7YRpXYnumxZqHJkAyNDSEb5y7aulZF5w5Z+LPsMieds64xEBFMiylXuve1vouqNjUB5mQGEGLYdWPPEKPo++hh3vRtxf9s+YGRMqUMo6ZinGpNEnF5TYmN4cnAfHuavBa6eRvjU71HtcaBz525gIqRt4qgNnN7E0UtM4OvTuJrjRPV7+4H+/tRObzLESqCNCiumxJTx0MSV03i4yY/qd7ZrwEc51zV6H5pUahytR/ag0rYK4x+/B0Q6EcSgNmxqJJs1Ej4xXnLQrq2jZ7TNmOqDh4EIwafUFnZJJRMwJDDBX+K5CZzvfbCkSubJJPOCqpi0tcJYJAXTs87WvvR06ecsj6ATiRIx7Pd8aiBSF+eyHEss5Xu9XmXbi+pTtEXzj//4j+rWjD1eIIqevbtQ68lD2fb1wOTg/JIxUoERm4eQ+Th9ypjPqWaEZBQVHx9DdVEhgvTANdALhIaBKXofGwUGWzF57mvccbhwt3gDBumtKEZJO7qip4SMloyhsk9EATJh7Vr6Zhlu2P14cuxdoPQKWlx5eOhzA5N0nR1EMhHWdpq+/Q538r2oWr8VqGnSakuROOgpiXI2MiUIvcQQS82nEEKYxCQmQI9rQxj56D00+PLRfnA30N+luML3X2AqiqloEOhqQ9u7e1HldiDy1e8UCByJjSgwJpFMQCg5lYSZWL+ZZ2beStvSHsWM0yhBw4kJdO3ehWqfG4P0MkX1RaXCKKXNyDLnCceaBcbMyaKVv8lJTUNU1Dk0/2oy1wKMeaxgceBF5wB/QUj/aL3obbbaZ3HA4oDFgZXmgLwHJZ6rfEljXgPIsdyTWMpJP5fr88WSb7HxfOVa9zUHyFdu/LjJFTBGfqAw83w5/KLJSW0FIYopBcaEgJpGVNiceGTLwkNntlJTSLmPNjY/3HzINsG8EUk/ljSztnFGgilta6W9Dfe3bUf5ps1AZbX6gV3l56aFXoqGB4BrV1HuL0Tlm9uBEW4MDVWl9AbQrwulbUiXL6JtXRE6thTi0VsbUO1zacO9EwntdkWpYbEO2rxIANfuocq3EdW79gL9T/SOSzoSpPpGBJigjQxuCZNAezWq3tqIW7TpcfMqEBozvCXRpswQcOcqbjqz8MCdDTTcp4sXJUFAby1zBuGRxHMm1jdnJE2dEIwJgGBMeYEXtQcOAeFXA4wRiRQBYygZM1swzx3z8Wzp5TrBEUoBERwVj3dNTSaX55IwLWYdfAeb6+KxBO7d2H7aSKSKEr3oPRUCEfTs3Yl6nw33d2zQkini3Uueb3psKoS30qfGQs4VGJOIofzjj1C2bgOGP/29Nk6txuwYkHgCDDQDXU3o2LELZes2I05j45TqoJwKDWIbYEwIUQSVfyPaUwoAbT2o37UPdYU2hN/ZjIb8tRg7dhgIcj4HQPVJSsY8fv93KMsvQs+Bj4An48BYBAix7CmtiaT6TUCRBo2DCIQ5r/R5eOIJgAkgNghU3UbrpgJUFrqAB7c1gBsw7NtQFerWd7jtdKCiqBBoadCqhpSuScaVu2y6zCalP8d0tpv5KvdMj2LGIe/HqAoWmMTI0SOo9hKMOWuAMVSjk9JmZJvzhGPNAmPmZNHK3ZSJTFFkfqhpQItBrs+2+JJBtHItsUqyOLDyHKBxtIaGhtR4XvkarBItDlgcsDjwcnBAvtsSz9VqSSNrAHMs9ySWctLP5fpCY8m/0Hih5Vrp8BQYw01bOp+XwycNxtBLSBwKFKCNhtpGVNpd6LLnoNKVC0yMzahCNhjmWLYMmWJzuvTjFKLDGzxJRoGOdtzesQP3tmzRnolClFyhS9sAMDEM3LyMO/5cVBZmoe+T/cDIgLYZk6ly5X7bkHbp7cKjPTtRbsvG9VX/F83v7lJSP8p1LvEQtoEbI6pkDU0AJy+h0b0ejW9sA7p6gDDVkahikQDa+tC+7SBGj/xOg0PcZMZHMXDiM9x0OvHAUwhcuwmMjgPk6Y0bqC8qRl1hAWirBnGCOHHD0CgbPkd4imlzpDW6IaxQKRVveURJhSCiZ46bwBj6LX75JWPMYAzdWdtsNt11E+ghXEufP3Iu99Nj/jDI8gmE0jYnPSJxfUp1JcbzBSk/PTbnIyDz6NEjVd7oKCVOMFP7IRRB7zu70OC34/6ON5SKjQI6mJmi+30AACAASURBVDB9fMi5UQFPZTzwSaeT3MsUK1AyEkPdMQ3GDP3u92yYtsOSnASio0B9FVp27UKpdx3ubX1bzynaaaH6Hhs3pd8tYURBQIaqQ6Ar60gUg59/hQa3Bw35ubjntQMNFUCE/Q+Aki1IBFD21h7UFm5G/MtvgP5BLRkTICDDd0IICIxptcAEVZcI5Awj0lWPkh070PD5V8D4uLIRQ6PHQ59/jNLsHLSt2wjcuA4MDwKjI8C162jYsAX37V4Mf3XcmJcGAwn6JEwkJqrYtdTc0mmF9WZeyrXZYqZV74ivv0KFy4H+kpOGmlJQvw/V0zPasoDIAmMWwKSVSkKRPL4gaF+DSC1/NaG1fVo0J0AjC7D0yS/nK9UOqxyLA8+CA3RtTUv1Inr6LOqwyrQ4YHHA4sDLwAH5bks8V5sljawBzLHck1jKST+X6wuNJf9C44WWa6V7Gozh80zn83L4RDCG3kEygjGOHFS484Dg5IwqZFMhF+XcvAFZ6LEqgwXIAW1MtHfg3ra3ULZpC1BZAQz2IVxfhd4zJ9B4+D3cWe/B/Q0OdBzZCjyq0q6qpRHmWO1ytGfcKYI80UmMnvgSZR4Xygt9iN6+CgRGgTC9rxib2ngMlR/9DvW7D6DKtwE1rkLUF7+B8q07cPP9Y1olamQcj89eQlXhVtSsfxOJqlJt1yYZAAYfo/XoMVx3F6F88w5c9RWjxO1G2Ztv4q7Ti4dbt2vXwASWqL3BX/mNdgoXnorNfUrx6qlUqQtMIvxPXVQHAsZ8YwJjuDF+tcCY//W//pdyOU0325lC+vyR80xpeY17KgIxnHuUOGhublaugwnMzKemxPxSfnos9fE6yxdAidcphcPzUNAwR6HAmJ0ajNm+SRu1pQoQAxGB9DFiGicyHtJBGDmXsZIpVoBhJIjGD46gurgAIaopUS2wpQXjl0vQ/fH7eLhpM+4XrEfp5reAh7XG6KNOpWFjSXkbopxLDARklEokpcmmYoh+dxN1vg3o2rQdNYffA4YeGRIpIQQJxkwFUP3+Mdz2rcNlmwOXXU5cLyzC1aJifFtcjIvri3FqvR/lX3yAUG+1Nhwc68WdLz/AmXXFuLHtbSRqG6YBmZ5HeEzX2N5C3CkqxIOtm3C7uAgVb2zGLVcBmt87CgyOA5NaWo0CPhQYTBG7ZNgGFmE8/RCm/wu/M/Ez0zWVk8DVxQsGGHNKg1WxpYExLM+SjJl+Hs/0iKpJNCRFi97UW6ThLL4YiNTS3SVF6Hi8HEvKz7QDVuEWB0wcoJEpin62trYqrxGU9qLuLD9I/BDylwiCjunG0kxFWIcWBywOWBywODDH4l82AxaTXl4O8BmudKDVGIIxCh0wJGMqHC50OnJQTjAmHFB7vbnqZasWuwnhxuSp3tCgbFcfqja9hYbiLbi1Nhs38tco9Z5Snx0PCj2o2L4JQ/Q40tOs2xyloUsa8DWM+EpjjMK5ZY2Sb7FJoLcNtzauw52tm4CeFp2f+y52n+ljMVzatQ93t+1ExdZtqN68VdGdbdtx/uBBBB73AMEJxHof4fq+3Sj/7VFljwIYUypAiISBsTF0Xr2Gq2/txLXNW3BuXRFKNm9Ae8kZYJzpaNSUOzpqI0zb4pmVv+b+GH2aNa1xQ7LMTGeAMadXFoyhJLOZ5D0zWzyzTcs/k3pYEg3f/su//ItaOxLgYJD7C40ztYhAzHIC615IkDamQHSqzjEEo+h9ZycaCuxoPLgPoA0ijnuGBYIxmYCA+a5hKgIMt6PvxDG0FuSh25aDNncB6twFqHLno9SVh9seH/roorq+eSawSLTHYJtYpqJ1qrh4VqJNmKEhtB/4EJechRguuweERzUQMRVRKk1JhNFx4QLOFa3HGa8XtCX1baEf1wp9uF5A8uJqoQ/X3tqE4aobQLgbiDzCQNNdHN+2ATXH6dmMknW0XUMD1nFgMoCBK5dxbdsmXC724tYb63H77R0YvHlT21CidhCF1rRvN6hHYGLUDDDG6J9+EMbjMIGhpmwpgDT9mso1MozQJ5+g0u3CwPmzWiKG/FFyTBkqMVeY4ZimS+iRlgaqlxosA74L4BwNPXFzKoazbty4oVzKff7550pKhnrGvMY0VrA48KJzgCguJWEIIHLMcvwSnKEIKL1IyDjv7OxUH9YXvT9W+ywOWBywOPB9cUAW9LPF31e7rHpfTA7QI8g0GBMEahtQ4XAuCoxhz7htTN9ozHeuOGJGDqi6MxHE4999gQcbN+FBoR/3fHlo2F6Ewd8eRODM10BvJzA6qG27BCcwRY8r3GgJICPlGftY7q0MB/BKrSL28D6SteVAbFy72+WmkWAMd110dzwxoV1Z0+PK4GMlmaPUGbi5p1kbqkwxhLnRiSCBEUQxqW1jsBwGtekb0+0cfqJjw5UyeaLxH8okRZXcgJErc2Tuj9GnzAnnu0owJoSoAmN8qD1wUKtkLVMyJlOts717eP1ZBXrkZJhh+HaFwJjltnmh/Ra+ZQRj9mnJmMaD7yhA8LmAMZw5iSEMXj+O+k1uVGW/jrIsG+oKNqB739t48skRoKkRGBhSxnaTAQ3cKvhAxq2CFJJKAk9L4VESj3OIUlkRJKsbMXa7DBgbNYATupCPIaomJcdsHBgeB4ZGtEoR5/5wHzD0WNNwPzA+YHhwmkAk8EgbF37SqdzLY4rjgp6cjJcU42BIGQJXao/BcSAwAeVK23jQdMxGqEtZvmFG04tspcEYxauJCYwfO4Yanw+DF0q0Gpgy4Mu7i58zolbHH7OXGiwwZgGc40uHm1VuXL/44gtcuHBB2Y4Ri+bc2JKuXr1qqXosgJ8vahKKEPPvVQ+Dg4MKcPn2229TICNV7gjOEJghyMgxzhcMVfOsYHHA4oDFAYsDmTkgC/rZ4sy5rKt/qBzQ7lm56I8B9CpS34BKpwtdzjxUeGwLkowh79L2LOb9y6zHqUyGV2plt4YSLJERIDwATPYAE91A8DEQGQASGgChioOymUGjvgRiWIMAMmyIiYiPcOvHX+X19opud7lJCanNIA2BqltMSGCCxn4JrkwRrKGqS8DwbGKMEJbNtEpNhK56JxGjy16pk9WwQtqFERe/RpOCCYAespk9gQkkKVGjoJk5Rp+UK/EcSWe/ZWSOhhE9fQLlBQLGRJatppSpztnePbz+rINIxLAe2mKZqy2Z7qW373m02VynuU1q4qiORNH37m40FjjRePBdDR5EOL44sBampmTCE2adj+lp1LyiShG9N430AKMD9CetbSfFCXKwDRzszKn/67E9PQV1mQRgpv8IylBtiRIzKhAIJegSJ/hCIriaUKphqeKVxIph5DseABITyn08qB6YEFVKvs3CiBIoVYa46dWJNmg0KEG8lkXHWRbnqTkQi41q4RjdKmMiK5B3GpBZaTAmzhdHNIaBgwdRX1SAJ+dOA5SKidM2D9uwuDlDIG8lxuyywRg2Wz/86cFg5vfij42XmPntnnYsm+ZMcaoVasLMMmnmqmKWBlNFibY1uEmlyhKBmHPnz+M8RbrOn8eVb7/Ftes3ns6dXtfTKZ66kp4l/fypDM/ggtQpz5axXGP86gWOJr1M0oCMubfP4VjG6wwuPxtOT0wEcPfuPXz66e9w+fIVRRcvXsL58xdw5kwJTp8+i6bGFnx75RriXDi9ikEe6avYN6tPFgcsDjw3DpgX85mOn1tDrIpeCg7oNRX/Lx+Mkc/YQmO1vDAWc9x2qF/Ok5MIB+kFhb9LcyNFORLtKUX/om6wlR6PqOYjgMwsYAz3OiyBMihhBBFXG7MIpuJBTClvL+ZdpMEHEJAhaZ2F1KqDtykswL1SJIJIdAIx5fklqjCdp/dO3IAmEU7qkthylpVQq7sJTC0EjJFMwtQljSojcyyM8JmTuOfzoO7wYSBMMIbb56WHTO+Yua4tvabZc5oBGElFIMbslXOuNpnvSX6Jee95hhlt4XhjCAkY40LjwfeAyXFDTYl7yln2lUZWGTYsKhPJ/dlioxjtNWxiRNmCISDB3Yk5cKZwxnKuPV0PYRf9x/lAN9Sc0WE1JzWcE43SOIsBkhCQIUAj/TdXxElG19kEg5KTSExxThMQmg7hKEE4ATIIxAhYM52GR4kYJXCmMJFIImZ0h7NBVUvAl2pamcAYYftMFqjCeWkxFEtolcWeffsUGNN39oQGxQmM04ZWGp9n9mDmGcfOclXqpMTFgzGmXvOQ7GfzSSmmsnRTuoUfM5N5WLF0vkanidq2ZtLYnx5sHHD8UxZ/RISSXwZzkfMdS7uFQ0bMFw0lY2hfg2oc165dw9mSs/j8qy9x4vRp3Ln/AMOzGLBKK2reU2lCOjfYdLnGOGMwZ5410cyc6Vl4zrr4PPlc9a8c8uuCvrfAomdW9EKfaTCG42calJkedxyDerQvM+YL6ykS/WuTparUoF0ApzM9wLmucck1Momvvz6JE9+cxoXzl3Hn9n309PThXMlFXDj/LS6cv4rAJPu61Ln8HPItdjzNwpNZLi+2dCu9xQGLAxYHLA68ZBwIBALqF302m54yy8rKlE2OZ9ENrjK4TuW6Va2uliEZs+T2GR88WfHodY2s9mQlT48ssv4xVp7yg9GM2PSdNxrE4qeX2SyDZbO/soI1L2SnlItvruD1ClPqZSmmwGV8IoFEIoZ4gh5iWK5e6qf2Fyr5dD5139QWtkO7tWY7FhGkoOmiF5DZyBQPY+LcSVz3u1D3wVGtlrVMMIbef6gOQTsVDGYwIdPxAhq7pCSyJ/q3f/s3NW+GhuhdZ/72pLcxvXLel0CNg++++w7sMx2nzGYkWNIvNZY2qSHKQoIR9O6jNyUnmg7t12CMksyabttcdRlP3zQPpkf/gktI7RN0TTJf9S5XzwDzrJqukzuY9H2ypNc7madmgGSWTsm5irkvYU1Cskdii/Tf9IafJctc1oWlZj3LSu3ooSTbuD2XqhSHlBiM8X4w0utcK/OfRSowhp6lDh1aETCGGgQcl11dXQqMXGpLlwbGpLirBxhf30TpSDxWD1o4PG9shryYUwqXjPLgdTw9EGW46VcsX7MkplLIJcEYkW9SgAzf5vPQjI+M1M+Y6qkx1NXU4PKVSzh+6gSaO1pRcvkCzlw8h2t3buHx0KAagkt9ELPlY+2ZuJIxvbnJ5uOMifVFSSZ1mGOZepkmPPO9eiHTi8XMkQzHMsZSTylDGrknaWfEpvFvHn+SR41n08tJHthcsTRB0qSf8zeoQBT37z7A+ZLzuHThMiKhCO7duY/LF7/FxXNXlDXzcIAZTQMwvRwpPz2WdLPF6enTzyWfXE8/l+uMFxPM+Ux5eShVMJZkiynaSmtxwOKAxQGLAy8fB8RbJlvOjR9/dKusrFQq51xor2Tgt0XDDVxVUTImANTXG2pK+ajw2GdXU1rRD5P5q8fjRQRpR3q8iCLMSVMbYfPFOY4Xnd70fV9kT3UrFt1PU4Z4BKFvz+FqgQt1H76v7eMsc0xxfFLFnKYTCBwKP2aL52Dlkm9xXhDE/NWvfoW//Mu/xIcffrgkqRi2OT2YrxGMoUYCjaNSjb6trS09+YqcC+/UQpAlpoMxyhA0d7hcIS4ssGfmdaWsLReWe+mp9C5m5r6ZO2O9sl16ua9KTmpmKTffhw6irtBncm1Nw+R83z89JufqO82YlJaWKkGN5Zh1WDoYI6NMIVvEm5MIKprGniXJ7DGHjR40HLYzBozpfWbmTaYBzs+aYHECHOjSnoZuBMIxx/ILwDTyx1JMEgzGlAqOjeD6jW/xyTef4ctLp3Di2xJ8euoLtA90YzJJJ2L8zYO90KjkdH+kMxkeqdzKFGdIri5lSrvQa6bNpmSR52P0Wr9ueJM3hLnygwnPee9VCsKITLEwZ744U95M1wy+zXHLQAM4sUyAYgol57jM4PstoySYgI/yVeA5O0Kx3xAGH/fi+uWLKDl5HJWl93Du1AmcPv41IpMBxIImF5BP9d0oJ1WnSbJnQZJoC8wvTJL65dwcszPGufnyXMfT7wY9T/Xvf6liXrnhbQw5K7I4YHHA4oDFgQwcoNoFxc3FdhoX15lUMTJkXdQlfpe4VuWXR8kcRyeB+jpUuWgzhmCMAwgHM3+D5KO2qBpnS8zCzB/W2dJluC7tSI8zJF3IpdRGeCGJl5BmGT3VtS26n1IjH3YUyZtXcb3Ii+qjh4DBgWWrKYltv6+//lp5vhT+zRYvgWULykLg8mc/+xl+9KMfYe/evWr+ZAIvZ2uXXE+vzKz28bzAmFQb+OgYgmH07tuNBr8LTYcOaGO3tCmyiJ/cZRTILGMsxRu1PMPo+639GXZs2UVrMCaGQQXGeNFfckLbmxIPUEt4Svxe0HTJ9wPGcFPODTqt8ySiyghXEiHEEUZSKbboT870C59DkZkYZwocPArZmd4VySg2bikeybFRRKYhJ/iBBmhEcmZalYmQiZAIcwlsowEUo2LZDLPVhmX2mrpqnPnuMk7evIyPTnyOO9VlGA1PIhijzhxrlEbr2qdhIuEHN9PGJlskdairp8hgETtgJimSMa9T2S6daNvDTOn35zqP0qCRUaYch6eA4BQQICWBEPWFaYmJbc/0/F7iazKmMg0m4Tn5bn4OPDbnMx9LOvM149h8SZKZY95XIZVQJGcEmEkHYwjMmIBDdcy0ZjBHjo10yTiC46NAIoKGmkpcv3IBVy6cxVeffYK2pnppwXQ7OE5TUjssO72+9HOp35xPjhebPwOf1bwRAIjAjvFsUjzLkEe1n+3U7ypMie12/tpBoXECw3oapp7BTE5YZxYHLA5YHLA48ApygBtAgi9UQf/qq6+UV8FMG8vldl19Y9QXhx+tKJAGxpS7KRnzPMAY9kQ+mEvolWSVeAlFSJbZNuVyf7kxm5i+RFhUmdJHiefNLLVxrR4F7t3EjWIfKg8fAPp6AXqwWkbgGKV0DIEKer8U/s0WL6OqObNSeuyXv/wl/uqv/goff/xxSjImPdNs7ZLr6elfLDDGjaZDB7VXoSTXigt/djJc0uP0/j67c9YsY5HHViAHuH1AxAzGfKPBGFoZVsbJF8crfjfKy8uVLdm6urolM3lJkjHRIFEYAONRoOsx0N8PDD8Gwk+A5LBhBMywik7Ly8r6Ml1ZTQCxoN7Ui0Fo9luI44abXo53ZeHZMMVMgzs0HmZWPRJAQ4m5zWSeFMdY8A5iCJlIis5UvGoX9440IB/TRDzi85Kz+KzkLE5cuIiRCVqPNoICSuRps3Zu/kSKgcaJotqfuZrUotBFn17jAN19KRoDAmk0PqwtVcuLIBTSrsLoLiwTDQ4BwyPA2ATA9gWYLgwEDJoMA0ITYWAsBPQNA00dQGU9UFoD3K8B7tYA92qAyjqAZdK4kuoTO/oKBRkwxmBJxuPK0JRIkehdehJTiSSSJkokkyCZAz8watBJmaZBmCl/ckqDAOYy0o851CnZGo0mEKYBuBULCQUgfnfzGk6c+Bpnzp7E0LDWQ56viqmpJGLxKKLRlWxP5lpFACd1l2BQIrI4StIdJ7000AjZBBAd0R4kpoKYoDvNKa2DTiySw0BjT9Rn5wO0gsUBiwMWBywOvKocMIMxVP+gfQqGlQZk+DXRv+tw3aDBmMDZM6h2u/HIZcfzBWNe1af5ffdLNsAGGFNVrsCYikPvAWMjywZjCMIQkKH6DsepgBqzxSvNDdbD+VJTU4Of//zn+MUvfoFPPvlEVbMS84VqH7LuYl9pp7O5uVk5T6G60nMJ4Qj63tmDxgIPmg8f0pIxyvXxy7b3kY3Ic+Hay1PJ0Aja3tqBUnsOmn7/IRAhPhHFVJz78sWt+TkXaGuM3w3OiaWGxYMxdDzHDTzbPB7HqYI30HDgMPo//wSRm+eAuluYariNRONdJBoeINFQCgT6gcATTRNDwPgkMBEDQkmAEhgkSl6QwnFgbBIYJ5AwCUxOaLdiwQkgNKmJLrRSFFA6tvw1QVMICIWBUAQIR4FwTJfJciOJuSlK8IcSJqkvpgYWx8OA0GQYV0+exI1zJaj89irweADo6gdaeoCaduBhI0B0rKEWaKgGGqoMegg0VCpKPryLSOkNTNy6hJFrJRi9WoIxRWcx8e1ZTF45i4CJhkuOo/f4p2j86BBqDuxB5/uH8Ojo3FS/+23cLi7ARVsebhX4cJvk9+GO34e7Ph/uGXTH7cFthxN3nS6Uenwo9/hQ6fKh2u5FY54XdTYvyr1+3N68HuhrAiZ7Z7odXOrIe9HyyTuLqAdd2CnQMKABsggtiYf0NV4Xor43jwmu8X6E43UUiEUAghSkcEhTJKTP+UsJiVa7qZ9IpCUUpE9ATQo0iwABg0IxIELXAEkgGNXAGsuMsj3SJjk24mjYqJ+x6Zjp2TdSkj7lOKfG8KTiLirOHEfl2W+A4X5gYgyYGNf6zRMTCDY3IdjcmKKhqnJE2pqA0UHtDk7KTMWsJ/w0peYo5yznMutPJ14PTFPQcCdI0LG7F+H6OqClDmiunqamamBeqgKaK4GmcqC9BpGrZ9B/8QTGK+8h2t+jFkhcQlEYjEJqFhjzok1Qqz0WBywOWBx4NhyYC4xJ3+QupwVcZuituhmMOY1qj0uBMWUuurZ+XpIxy+mJlXd2DswFxgy/9GAM+03jvbRX85Of/AQ//elP1fFKG9flnCQYQ6I3W4Iy7e3ts7N9Je/MAGMOA2Njxr7nZQNjVpIpz7Ms2ZClx8tvA0skBtH05maUO/NQ/+n7QHhc7cmS0ZleohZS2/cKxqgGTnCjCVRu3o0aVyEanU7U+vJQU5iD2gJSLmoL8lDrz0et34Zav90gJyocNjSvK8bwnj2Ivv8BBnbtxsCuPRjYuQd9u/ciefIkYqdPIn7mlKaS04iXnEbi3BnEz51B7PxMil44g4hBsfOnMVVyBjhLOq2o59ABLJT6DhxAXdF6NBZMU1PRBgjVrN+AhgP70PbbI6jbu1MBGw/dftTbvWjJ86Il34k6dy5q/FmoFfJlodaXjVoVZ+F+3v+HCudvUFeQheZ1+ahxr0Gtew3q3GtQ71qDBpJzDRqda9DkXIMWdxbaPNlo9+aiw5OLDmcWOuxr56R22xo05/4GjTmvoTlvFVrta2ZQi30NFDnWoCb7/6LZsQbdhXYMbGQ/VqErexUGVq3C4KpV6M5ejWZvNloPbARGW4CEsUFeyEh92dIQJBmlpFc3UF+GRyVfA5MEEgeAyQEgMKQpOAyQQiNAbBwY7gVaaoDyO0DZfaDUoAf3gcuXMHXpApIXzyNx/pyi+LkSxErOInrmDDoOH9J06BAeHTyI/vcOYfCdgwYdQOiD32Jg3340bdyCMrcb5V4byn05JspFuVcoD+XefIN4PPO8zJMDUlWhDaXuLDxwrVHUsb0YTZu8aNrkQ4XPhkq/A7XrfLjnyEFNsQc1xW5FVYUOVPjzUVlgQ02xE7XrXKgucqhzXlPkt6v8LMNMFT67Kpv5SdNtlrYznm5vhTcflR4b2javR8vGYjQWF6De70atKxe1zmzUOrJR58hGPcmejYY5KQsN9iw0OrLQ6slFc5EL94t9KFlfBPR0K8k7fmbpkI9YrHkB/rINYau9FgcsDlgcsDiwcA7wfc9f9SlxYJaM4ULb/C3g8XIDt+paHZ4/zExgsuQUarwGGON8nmpKy+2JlT8zB/QTVvdiMUBJxnhRcegdYGzIcJ+bOedCrn7fkjHSRhrtpWTMj3/8Y9y5c0cur0gs8+zWrVvKqDbVPzgvOzs7V6T8eQsJh9H3zl40FnjRfPiIAcYsTk1p3jr+QBOkwytyPs0OXhFAMz1e/vs3xgV+JIbqDUWo8uaj7pMjQEj/iB5bgubB9wbGpFjBg/5JlLnXo8vpQ09eHlqzV6N+7a9Rm/U/qM3+H9TnvoaGvNfRZOPGPwttztwUtdiz0ZiXhYbctWjMy0ZTfi6a8vNQZ7ehwuPCfZ8HpX4vHvi9KC3wobTQh7IiP0rT6EGRHw+KhZjGi4cFXtT4Pajxu1Htc6LK68BDt90gGx66p6nKbYOZap35aLbloy0/MzU48vHAnYuqjT7cyluF5kIPmu356MjLR3dOPnpyctBlX4VO529M9Do6nby2Cl3u1Wj3rEarexWaHL9Gk/01tLlWo8O9VlGney26XJoeudai074a7Xmvoy33NXTZV6PLthodeb9BR+5rT1E7r+X9RqXpzF+Fltxfozn312izr0K7YzXanKvR6lylqMW1Cs2uVWh0vo46+69R5/g16pyvodG7Bs2+PHR47ehz2TBsz0XInYeOtf8vyt2/AYZatTTI9Mx5ZY44qSht8t1bG9F3ZBd69m/HbX8+Gg/sRv3BvWg8sBdN+/fg7pZi3N1ShHtbinBnUwFubvDh9kY/7m4uRNmWdbjtdeCu24n7HMceFx543Sj1ulHu96LCRA8LfCBV+r2o9HvwkGPW60ajy4MWp1tRk8OJBpsdjXYHmnnN7UQLwQTPWjSlKAtNnoVRo3stSK0FuWhwrUad83VU5/8aXevsaHCtUtdYVrM3Bx1FdtTYVqHJk50iAoW19tdR51ylypm9XuaRNun8je4slUfawPo1GQCkOp8JRhKQ7Cqwo8NnQ5s7F22uHLS5stHuzkEHyZWDTleuoi5nLuajbkc2BpzZCqCs27wObb/7GOjuUWqRfO0TZrTAmFdmSlsdsThgccDiwLwc4OaP3//nAcZw6azBGHpTmkTo7AnUeZzodtpR5qQB31BmQXmdcd6+WAnIAWFWevw8uMM6jcCdX1U5bhZ7UX1wLzBKA76GmQdJs8j4RQFjDh48qIAYgjGUXFmpwLkYDtNYLpT3JAIxVFNiv3t7e1eqmrnLSYExPjQfOgKMjhpmGkSNRcbV3MVYd2dyQLiWCWLRs4b/zXf5E6mZeE9KWUoMxJSd2wQeFrrR4LOh6dgBgKZAgiHEaNJDN2Rmw+c4I4j/vakpqXaxQ/3jaNv0FlrteejKy8Ijmws1WfmoU3y8aAAAIABJREFUo7GqDV5UrPegrNiF0iIn7vntuOuzqfh+gUPFd7z5uOXKRduuN1PUvHsHOj94H23HPpxBrcc+RIo+/BCtQql0x9B27AO0H3tf5e/64AgefXAYjz44hModW1C6ZQNur/Phut+JGwUufKfIiZsFQg7c8jtwW7XTjnvezHTHZ8fNQge+K3Lgui8fdwtduF/gwgOfA6VeByp9DtT5nGgqcGWkxiI3ata7UbmefLHjQYEN9/02PBDy2VVZqjyfAw+8dtx32xSV+Z0glfsdKPXZMtIDnx33/eSvA3cL7LijyIHbhSQ7bhXa0HngbXQcJL2F9kOaOg6/jY6jb6Ptg32oP3oYNUfeR/XRw+jcvw+d+Vnoyc1Cud0O9D6m8ZI5hubLe4uGmCKtTaha50SfezUGnavQ7clDWXExbm3YjHtFb+BB0XrcKy7AvXVe3C324DbHkc+Jm34XbhV5cXedH/fXF+JukR+3Crz4zufGda9TEY+/8+n0kof5eGymW14XSDd9LtzwOnHVZcc1txM3fG7cLPTggj0LN4vdqNvzJrrefxfth/cqaju8B21Hdhu0C21HzKSvtxzaBVLnB++g+SCPdytq3P+2illG78cH0Mzx8f4eRS2Hd0KI15sP7lRltB/di47396Hj/XcM4jGJ13Xe6Xgv2o/uMdFeqPayzYd5bJzPaP9O3YfDu9E+g/ag/bBBh/ag/dBedBzaNyv1//YIeo8dUPd79u1As20V6pyrMV7yBTD+BKBxbhqLEXNPL+8QtlpuccDigMUBiwNL4ID8Gm/Omuma+f7Sj/m9odp8APHT36DZZUevw4Fyh1OpK2fcD/BixhtLb8WrmVMYJZs6OZf4Ofaati+rK3G32IsbRV5gqF+rqS+jCUNDQzATx+hctIyq5sxKb0p0a031oYjh4GTODC/TTRMY03jgkAmMITAg40qAgZepY8+/rTLrJDZzz3wsLrmn+Ute86dRsbuayVmJ4TxkBmBjBm/Sj+NI0rREYASleavQ4cpF98F3tY1VVsXAhi4iEIyhFyVKbUWXsTdegs0Yo6WcfIMT6NqxG51eG1qzX0efdz3w2UmguxPo75im4BAgFKIx2lGAcWBQq34o9Y9BfR4YAQI0Zkt7HQugAA3UCtG+zLhhAHdUMRzBESiaHAbGBzQFqF7CNpBG0oj35iG2n8T2xyeAR83T1NEIVJQC5bNQZRlQTSoFKu9qtZbxQWCctnSERoBxg8aGgdEhTROjgCLek7RGTFs8KRoBJslHQ6VG8ZTXyG+DlNpNPzBpEO36hPp1v2i3hLZKaJdkYgitBW605+agtugNoG8UiMqoXcSIfQmSKuNjXW1oLLRhzP4aArZf47E7B7h3D6igClINUFENVJYDVaX6OVaVAQ8NqqkA6qqA2iqAXok624DeRwCN4pJGBg0aAEafAGMDmnicIl4b1MRxwTQjvM8xMgxMcBwbzzw4CpD4fDm+1fPmPKI6lWGjKRXzmmm+cfxyPsiYYf08Zhk0tD1Bg9wDmib7psfJRB8wwTEzoOe0mj/mucT5PQSEB6fzq+NBIMQ8g9PvArZHtZltz9D+YD9ASvXBUBdT+eR9wTZL/jli8nGgB+hqQo1zDapcqzFw8SvNE45n4ovy3n4JxqrVRIsDFgcsDlgceFk5YGxNIkEkTx1Hm9OGx3aCMa4/aDAm04ZtcXsjXQIlj5LKgTgN8yeVr0TtKkFqkHhlxs+spdEGZXUl7hfxhzs3MPBY2xRcmWpTpTxvMEYkV9iAVw6IYadMYEzb0fe1DVM6gaBtjtRCkQtGAWRmHQGpZ/SHeiCcmTvm7OQ8FSJvDSBGxbI4T4/pYccM6cx3TG88QWDsMWrsa9DlyELP/n3aQY3sAdjQRQRKVBKE4f6RsdKwWER+SbokMCZBTyY0sjkeRM+7+9HkyEJ73mo88q4DymoBGtulXRGhOA2gGsRryZC+F6Mh3jET0ykCRo7Q/Sy9pYQXQUaZiQCQmDSI3pvGgDA3iMNAdExfnwoCiiiSZKawctGNqXliUHeQ7aNSA91h0aDqpCYaAqKh4eAsFA6oX0OUsVfZSE/R05JQGvpHI6+0Y0JSkB0HG9FASW/E2s+4wUsZsDKYzecsR4i8NvoifFcvGhkedGU9gdZtG1Cdn43G3XuAEfL01QJjZnxMBvqULZQ+1yr0u19HfVG+9hRGT1f0ehUhjQHRcaXvjeiENv4Upoceeg7juKBx3CBA99EjBE5GDUPUk4YxasNzlhivTXnSMupQ1w0j1TxW4CTrofFgLb6pxgI9ddEdW5wGtXmPBoUndbsIEpopxudmjFGOVc4vGtGN0rtZEAm2gccshy+/yCiQpOchpjH6yz6z7+QBy4hzjnOOimcjeiwK6Zed8qJm5FfHMi/5HghqUu01jCA/1f5xID5mEI+N/kg/Unklf5oRY2Xc2Lgmw5lGiyeGUOHOQZVrLQYuHNegpTLcbXxjV8AmgFRnxRYHLA5YHLA4YHFgJgf0tkSBA5EQkqe+Rpsz3wJjjK0tV5eyQmUsq1jGXMmmb7dkk6evTykIJo4EYogbxOOkosQz2DyzfmmTeR+njunCtboC94vcSop6OWBMOuDCTR8p/Xr6+cyxt3Jn3HyqHzBXrsgXpyQTGNP7ye8AOpKIBxHmD/hzjkjzCHhxuvPit0SDMYRQCaImwBmsSYOqvD4N1ehjvSMWjkustsk8yUSKERHgSQdafHloy1+F5v27gSFKyHO/u3jJGDNvOfeWGpYExoS4KeXGLRRB95EjqFjzP3jkzEGzyw/cuAdEooqlZJ+wNDYVB4nncj2ajIHEa9N845G82hYT8zUtr3ED0DEAhiQBGnUsbJLX+8xXO4fDdDsyP0szq9luBtWfRAxxUky7x5qKxUBCOiXimErEkYjHEImEEKZnnDmC4obhbneOZOqWcI6tSifpcYwuiaeSiCbjiMajiMQiimLxCOKJCKaSUSSjEcSjIYQIagUH0Lz3Tdy3r0XLkcPawxU9Dr1CwYzyY3QYNUUe9DrWoNezFg/XOxX4wBdDFFFEEEXM+MSr80QYoWhI8zDJT34SdFf9LEM0MaVGurkO1rgQkhnFvObRr1w6m95DetGia5AXH/Nypko+c/1LOZ6/vXpGzp9u9r5Lu1iG0kQaG0WpJw/V7mwMXDihvV/xBoe08mnNXjK1FSwOWBywOGBx4A+BA7KBffZ95bdFf4XVatMExvTk2/7gJWPIGX6KVx6MISDDTZ5832VVsbwnPv009VM1rxzUsQHGPCj24KbfAQz0rrhkjIzd2eLl9TBzbkoAzPgRM3Oyl/dqNKoM+Db4vHjy+Rfa02lkAhMTA2lgDEerrIj1vLbWj3M8dpl2T8W8QP5xhxE3IQfcZet5q/ce3H8IzcL5p8pO2xzxDdPdjEdFTrTl/gYN+3dq9cEowcU52r6AWwKOLiDpU0mWBMaoUiiZMTKMro8/QqvXhi57DmpdPqCXhnDiSCSUg5I5Y+59zEQerkxIexpTlCShOJPhs3ZlKplRiipeJKZkXMnclFgQEiOdOY+StJJmzyg5w4mkM8Xsmrkajikzseq44baXrnsVmZ5Rqn5VHadDHGEl/TOq7Hzccmah/oPDujGJZY7YDF36vi7xA0ZbMalJNDGBeq8X/TlZ6Hfk4tHbbyqDeuyxCCkS6jPzlt9bEnmqxrOMA3kgktj0/GesCSQdY9Mz/b54wjaYx+aMNrF96cHcZvOxpDNfW8zxcvNnqisUwwN3Hqo82eg79412XU69bj4jPrzUg5HKrdjigMUBiwMWB15lDoiUwYULF3D16lXQaOizCaaPKz+skRAGPzqCFnsOHuXmorF4/ew2+eR79mwa9sKUyh8KIwapHw2TccQS0xRPaIkMSmUk4nEkDUqoH0SjiCUjiCbDiE6FDArr82RY3YsnokgI0ZguHTeQtxKEzxLL9Qwxk6Qv3ySZKpILw/oqlG3waTCmvXHZYAxtU3R3d6OlpQUTExPfi2QM180Mv/3tb/GrX/0KdGtNcEauCw+WEpvLOHPmjJqPAwMDuHHjBkZGRpZS5OLysGvxBMY/OII6jwvhc+eBSf6gn0SMktmIYcpEs0ACi6vzVU1NXgpJH9POo+OTmApTG0YnmIpHkEiEEU+GEKOkvREoIROfiimKMTZEO4xskmw6lok5fUUf0fxGcy26vPnod+eh8+A+bf5Drf/TE89/zvcQbcbU19cvC6BcIhjDXsaByTE8+vL3aPHZ0Z63FlVuP9BHGy1xJBOYl2a8xcwb0fn7v7gU8lAkXlzu+VNzNJg34DLYzDHrNm3GZ2x25bpRTmrwmvObj828Ml83sCZzVVI0Y4IxQgQOBEQQIIFFMfAXGw70EKWJEmPo/ugAbrtyUHP0oLYE/4qBMXz5y2KML932jZvwODcPjx129L/7DhCmLAzA1wKJxwJocf4K8KiAGAIyMhbk2chDkPEnscHv1P7fSM8o/RFL0mceS5uljekN4X0GSSeNnSu9OW2m9Oa8mepbbP708sznwRiqijyo8uRg7Np5rVJIMIbPSC0wpAFGP63I4oDFAYsDFgdeaQ7I95/GSC9evIjq6uoV2VhmZFrqR0ENxjw+egBNtmx05+WjdeMmYHJSgQ+JNDWUjGW95Bdl7cUNjXoGiSSmDEr9UiuLLXMsC9lUzB9U+OsibUIQYDFMHVAdm8fqGq9TrT+OqamEIjDmAk4Wb+lrDZ7PEdKXM+bk6piL6/u3FRhzp8gNNNctG4whYHjp0iUQqCgtLX3uYIwYKf3000/xy1/+Ej/5yU/Q0NCQ8oA0B7sWdCsdjDl58iRaW1tVfwlEPevA8cdFfe++Paj3upG4dEXbjFG/2EUwBdoFiU4DMsZ4moblzKPgWbf2BS+frBBSm6Up5bkUNA0QiQNhmkTg3J2dZ1MRmiKg6RC18zK0XNLNaxjmOji/R2k7kuYamH5Kg9s0rEuirduJSeDBA3TasjHktqFv7x5gIqBsoRp+PBbFVGpWELznvOR3Y6lh0WAMN+rhOO2sREC7J31nv0mBMRVeP9A/BIRoR4K2TuahdMRGiWfoIS3CBAuJZa/LWPZd8vyfYszsz/yppAu+wHab+5JqhbTG2J2b0yhpHX4EmNcQqTA3Wo7TYzYq/Zr53Gg0L5n5wmMOTTOmG0ECEcQVRZWOrdbSIxenqFbGHLFxjPzuGMrcNtTuf0+/lJYry7Vgxj77hHzxy4KAiwEEgujasxctNhvaXA6Mfvyx0iWkNAyBGL4CiNBO2+zhx18jj/zAJ6e0mlKCAI8xHkWsTs612g/PdFCqTYa5ubgCwvSzMo99Gdt8rszJ+NkFqUVG0HTLM9bM5DMa9D3ll3bMFYdCaN6yHpXOLEyV31GuzJECY9hP9nlGZ54dm62SLQ5YHLA4YHHge+cAv/0EBAjGnD17FmVlZcsyxjhrh+TTqIB/gjFBdLy3G/U5a9Brs6N72w5ln4KqziRZm6gNqnzXZi385bwhazDVevaRn2AufmT5YV4IybFezMqi1rRg4q9jejMN2ltUZP5lWFZPJmbyWSSnFAik1uJyS+I52Moks62OeI+/eI6fPwOqKdEDJxqqlg3GcHxy40eQgi51hX+zxXM0f1m3srOz8bd/+7f4wQ9+gHv37qn5Y27DUgtnGRIIOH311VcK7Dl+/LhycS33nlUc5yY+GkHNxnVoLPAB125oA6+0dTjjacuTn2sUPKtWvqTlkmU0ah0xkXSFczua0A5i6K2Z+0yFIRhAK8EUOvVRTkzocGRwJk0ajk0mx4HhIeBxL9DVBVDKMUUNQHUTcOYiHuXnYsRhR1/xFuDKHWAkoPbI0pzFxAQJCZDW1NQsJtuMtEsCY8Zp7FMZ2A2i/9IZtHjt6KDrY4IxA/SkQsOelKqYi4hSy8vSiAlQGO/gTO9a8zV5JzOWd7Y5Tp8mnC7TU3wGD4w76RNKSsgUS2lGHhpSVYi7GNOdpXVMl05qI09AhoDNAtWoRKxm1heD7uu0wSP5vlG4Thsyo/4sgZgwYop4HFXyMAZHk1pvD5EJBL/8FA+9TtS+sw8YGtaTJJ2FL+m5fDzklzEa6np8+DAanQ40eZwIfvUVEKbO4vT3nqCL/rXF9IuLQsf5iwv5JlqOGmah1iNJQBdtkIoQjcAyOj3/M508o/RRxJEoo5Rx5iBjM33cyvXMuWZeZV72WFpgnlk8lrKkFXIudUpembFSjjG2ZoxbKYMt4LHULWVIHnMbpB7G5vwze5HxLBxA51tbUOHMBhofpoExUsciy8xYkXXR4oDFAYsDFgdeBg5wHcA1wLlz59Qv8NxcUu2CKswrGuQTpz4x/HU4gNZdO1C3dhX6nA4Mvf0WUFuNSHMTogahv087ApikMf9J7TyDDjRmJdpzDOp1OG0SzqCw8hRDbzEziQb9SdFZSO5LnJ5f6mHd0ja2NQOlO7foaAOE2tuA+gagrmE65nE61TYAihqBWoNUmnqgnlRnIrlWDzQ0INHYiHjTNKG/X7u2DQS1OgpjM/HHZSHyLRIGoibir/ZCvB7hL/Dc0MfV5nH4i09Q5rejcr0XqCnXeZcxqAhQEDQkGHPnzp3nDsaIrZjf/OY3+OEPf6jcWxO8ZKDUjKypl9rFdDDm1KlTaGtrUyBpFzfXzziEqcYSnMRdpwsd/kI8OXwU4cuXMHnvOuJNlUB7A9Am1KhV3cUJBx1u0JkHnWOkKADQcUuKJpUgg3LiEkk/ZjrOLY4hM1H4YR6KRhSIRCBp3rSzlaXeATLHjfdBKAoIqbaxjeb+LeKYc7/BmNuc56SmZqC2DvHyCoTv3cPItasYvfYtxq6SriB65zZGLl1E62efofbIIbQe3IfOA7tTRJAzRYUulHrsKHfa1J6V+9YKlz7ntTKnA3fzXaj3FKI5azU68nLxMM+Di743EH1C48yL3lGob0Rzc7MCY5aj3rokMIYbRrVpok5X5T20eh3ozMlGmbcAGBhWaH9iKooUJWNIKOOmcSSV9ICWIJje1E3PLn6jZEsksXnrxeOFBpYlZM4j13RMWZ+ZJkqfboG0ROKZJcydXjaMpjwiCaNiUyMlibmxGY+nYRa9wZceaGkMKSZTzNawF3p7THWkmcSSZ4Bk/JheOY9Kvwt1+/YBI/Rww9yvTpCPh/oIhELoPXAATU47Gjx2oOQsEKDXIgMnIFNVkFGpdcCnlFTXTI5zZGX6kxJe7Njcl/SWmu+lGJJhIJt4lJqJs+WVOtLvz3cu+RYYh4N4vO9tVLhygPoKw6MUUXg+xximlCikuU8LLNdKZnHA4oDFAYsDLyUH+O0XMIaSB7dv31bnopKxop2STxpXYuFJDB44iM78fPR77WjJX6PWHdUeJx467ah05KPCnotKR54iHj905KHKmZ+iao8DZbYc1Bd6MLDnbTzasQXdO7ehd+9O9L+3F4/f24de0v530Lv/XTw5fAiRzz8HTp9G4vg3mDp1WlHy1FlMnT6HqdPnkTx1DolvziL69SmEv/wG4S+PI/LF14qeHHkfT44cxcCRIwYdxuCRQxg8cgAjh9/Dk9078HjbG+jcVISWYg+qHNkzqMaZgxqHplpHDtKpzpEDUvp1OZf7Os5FnT0XdY481DpyUee2ocHrRL3XiRqXDdVOG+pcTjR6PIrqXS5UOxyocTrR4PWgyetT1Oz1odXnR5PLgwanW8U8bnR5UGd3oMntRVfxejzavBl97+xG93vTNHB0P0Y+OoLA579F7PhnCH/xKXDmG+DaJeDuDUx9+j7qfTZUu3OAi6eVnaCljqehoSEFSlAyhiAFJWO+r/Daa6/hL/7iL/DXf/3Xyn4N25HJhs1i20f7M2LHkYDTiRMnlJrSciUPFtWO0AQe+jZgwLsBLXz+zjw0udaixU3KQYs7V1GrJx+kFlceGh3ZqHPloMqfh4fFdkWV6+zofffNFPW8+yZ63nsT3SbqObgdQ7/dh+g3x4CSrxA/cQKxE2cRPXEWkZNnECadOo3w6TMInzmDyFmDzp1FuOQMQmdOI3D6FIJnTyNUcgaR8+cRu3AB8YsXVRw9fx6RknOIKipBtKQEsZKziuIlZ6Ho7Fkkzp7F1JkS4Mp14GQJRo99gu59B9G1e/807dmHrj3b0LV3k6JHezZh4tg+PN63BbUbXLjnXI3KgrwUlftyUOrOQpknGw8L8lBdkI8aXx5qPLkpqvXkoi5FOah3T1ODOweNrtxpcmSjybYGLfa1aHdmo92ZgxZ7Fpry1qCZ1/NXoy1/NdrzVqHDtgrt+a8rast9DZpeR0vW62i356DZnYeePTsQuXIFodoGRALiqXZRI0Ulpr0YAqS047TUsCQwRssJcO8VRrTyPto8TnQpMKYQGKQL6RDiU1ET0egOIRz5o2yABg5kuzZb/Cy2RTPrYjsW/pcZ7phZ4tOibGm9mC156iNtfpxycTqW1lLWQpP2cCNQEYufUeN0VlWwqO6ZVXDlWCcwJH2oS0uxsDs3UO5zofvDY8AY3Qy/2mDM8LEP0OSyo85rA65eBib5K4eBYpG5aUHAnLTLr/ipeVAt5phsmTE6ny+fFBizExXuPKC+UrsrVyKRBGOoB8wHneEhP99WWrVZHLA4YHHA4sBz5AC/4wRiuKgmGMOw4pIxM/qTUFIkXW/vQWe+E522HHTb12LqzY2IrC/AmNeBJ7Zs9OevxRNblqLHeWvwKGcVunJJq9GdvxaPbGvRnrMKbbmr0O3KQ4/Xji6PHW1uG5qc+Wh02tDgsqGeaxqXA5X2PNT5vaj1eXE3NwcPPW5Uejyo9PhQ6fHjgZ3nhagvfgMtG7eiwu1HhduHSrdXUYXLjQqXCxVOFypdTlSyTJcdD135qHHmotPvRJc7X22U2h1Z6HRko8uZo4heV3vYRiFnHnoN6nHq6+zDI3ceuhZM+aq+Tk8eOly56LBno8uei26XDb0uhyaHA70OB3rsNnTY8tCWl4PmrDWK2nKy0ZWfh25bPjpzctCRna1iHpO6cnPVvT6nE91uJ5q8NtR4uKGkV8Zc1LhzUevJQ0OBA42FTgW88N5DVw4qHGvVtSpu0l05iJ395pUDYygdI/NkcnIyJRmznHUx87JMgjFUU+Jml2AMbdM866BWp/EobhduRW1+IepcLjS6ctBpX4Ve++votVOlMCtFLav/B505r6PPkYMntJ/qzkaLd5qaPFkQavRkocE7TfXeLNR4VuOhexXKnb9BmXOtnluuApS7C1Dm9qPM40Opx4cyn19Rud+Pcr8PZQU+lPq9eOD14J7HjXtegzw896LU51dU5i8AqaKg0CAe+1GZRlV+P6q8fjx0eVFp96Aiz4nKXBeq872osxdocrhRR9DJuUpRvWMVGhyrUG97HbV5r6Eq53/Q5stBq4m61zvRXpCHBudq1OS/hmZP1kxyZ6HFRK3uLLS6NLW5stBmgC4EXprtWajJW4XqvNWod2QpkKbFYwOp1WtHq8+GNj8pH+0F+Wjz5yrS7clGmy8bnb5cNHlz8Z1jDb7btt4QTdCjaqmr/+8FjOFGKiMYk03JmEJgaESJ7GlHclSG0daPLTDG9Ap5gcEY5ZZZ1McUGBMEvr2ECr8H9VRTojXzVxqMCSL05Wdo8NhQ7c0DHtwGAtGUZIxJndX0QP8QDxcDwJjTklffNxizKwMYQzXB/5+9936OKkmzQP+ejd2JmJ2ZGLMTszGx+8P+CxsvYjfevt3paWjkTalKDtN0N03TNFZIQHfjofHee2RA3luEhBDIq2TKm/PiZN6v6qooIVdCAu5VpPKatOdm3sw89eX3kYzRWoE+xTdq1dlCwELAQuBTRSAeGUM9Mok8OPLJj2aK9He70fLld+hJz0XbZ5/jTUYqhknCZCbjTdo6teAj4aIXf2vRk8KFyxdoz05Ce3YyWjLXoSFtDRoz1qExIwk1qV+gJj1JiejX27PQkJuD+jw76vMcylXnO1BakIPmnVvR+9M+9Py4Dy27f0DL7h1o2b1TuelLlzB+7hwGTpxA3+HDaNmzV7nWoiLQte0r1q64BG0ldMWGK0L7vj1o37UDnTt/wIs9O/Fy325U5Nnx1OQq83MhriovF9WG4znvP8vPxdMC7SoKcjE/50BFoR3P8myos2WhPiMdNanJqExeh5acbLTk2JSrt2XimS0dFdzOkJeF6oIclGanotyWhqf2DJRlpaI0M1n5PKerKchBdZ5NPS+3p6MsLxPlhbaIqyi0qXtPHOl4ZEtFw1eFqF5vR2lOGh6kf6HSZ9r3U9fCffua3kqyyEa1GiVjfv3rX0dqI9v96QsZI34k0DxORKEzLSgJCUOS9H2QMfJT3MvL99BSfBgNB0vQdHA3uou349W+7XhVtBOvinYr17d3F17s3I62rd+gYfNGVBfm4Ul6GkrT01CWkY7yzAxU2LLwNMeGZ44c5Z46ciCuIjcHTd9sRvWmQjzJteFeVgYe2XPxyJ6v3EN7Ph468vDQkYvHuXnKPcnLw5O8XJTl5ytXXlCACsOV5+WjPK8AZbn5KDVcWV4hyvK1K80vQGl+vnYF+Sg1u/x8MO3H9lyUOvJQkVeIp7mFKM8pQGlWnnbZDpRmZaEsi30l6sqzM1XdKnPtqm7lDhvKHDaU5rKfOFD5ZSHqt36F1h3f4fm+XXhevAtdhuss3oXOEsMZ9/i8e5+43egu2qNcV/Ee1O76Hu2H9mPo0ll47t+C88YVw12G88YljF+/gPHr5zF+4xzGrp9RbvTaLxi9dgrjV09g/MIRuG6ewdSja8CLZsA5pLZ1Kh1d82ib8YKsEBnDIYTNlb8ke+GrfYbO9FS8XPuFJmNGnTFkTEBJxUTJmKg0x1ychCzhZlZeFnLyNNafGTre1cx8P3TJmJlSMRzojbcTrboZIj4X09ZxfH441TYlUZzkcmPi5HHU2rNxPSMNGBzQFpWiqX/wZzJYqLp7XAhePo9mWypqbUlAU5XeL0k1MbRlW+HxAAAgAElEQVRAtbJUwirC2tyoFnLOKjD8Ch0elxIzrslMNiRjJgFKxlDpX9iLkEXGrNCLsbK1ELAQsBBYWQREH4dIxnBRmciDqYkmNbUlnEop34wC98tRn1uAitRU1DuylZL5gZ3fYXL/XkyU7FE+z0dK9sB97himzh833An4b5wHqh7r8ayhCqh4BDTVAm/6gKlxZfWUlk+Vm3YCI68AH7ebTwJTw8D4IDA+FHUTY8D0hNZx4XVpHSnUO0M9NMrxnHpU6Jud8ZzKMycY36ONGzidwLjJUbra7MYnADrzPcZfkHMCk2OAk2oSPMDQINDeClQ9A6oro66mEgHi01wNvOnR9Z8eBVxjwCQxGADG3mif53Q0r+txAs5BjR3DmV2Q+nmM58OvgKlRrViUizxiOzEC/5MHuJxvx+t7t4z5s8yZ5te6ZI66GsmYv/71r0pXjNRECBkps/jyfC6fEjGUsOHBbR81NTVqmxL1OXV3d88VfcnPuYZSU9TpIDBI68ATgIttelAv3MdHgPGxqHOyjzHMNDA9rdsy18FjE9o5JwG6iWntaLlH3JRJP9Ekwzm1/iLq5lRuBBgZ1o79anRY648aY79lOUaADupdaQXaDF1JTU0AFcnSsg8df0Cni5R5FHCOxHf8Xrgmlc4cTIwbcekbdaGaitHxmY5WkbjFh/VjP/b4tc4k6k2ibhp+I4jLJPv5mFauOzai6yF1iPXluarzqMZk1KgH16YB6tOhbh32Teppop4cXrMvUmcV9fZMAO5x7Vzs48OAaxCYeqOds19LxdAgEdNcwspkxcgYvZTiot2vPvAdaWkYSs9CtS0fGJtUzK9WRSpbk4SA0f5MMkSTB3Iv7idKbipf5657y4wH84ZS8tJ+PDKG9+I76gDRR7y8490zgpu92GBSILlvDqvykwfal21Kuowz8TMnFUnGHN1AScLF+iqOUlBrsA8cdK9dQU1OJu7n5ujGHkiwUrtIQVfBCTv0rauoz0lFZc46oLNBK9KiRTbDqBoxs47FIMCGuMKHQcY8WfN/CNU+1QoGaX6STBtNFoLSMdYbXuG3ZGVvIWAhYCGw4gioH2gSWAqOLDKPoEi8kpMhIaNIjVkUY5qV4FI5qJduQjuSKspNAL4JwM8fF2jWleZgXQAtwCg3DQQMF5wGQtMA/cCUvu8zxfG7tWJ7ZRJajBSYjW1wbkiLRbxn/JDBa+WMeSPHU3XNX7BoDcVwtFzIdY/ZCTsl90R0SH5ZjJ2kmq8jYZkfy+LXC7WAFwh4ok4U7Mq9IC2+zuIimLkMDE3pSHyzH/QCZifPJH0u5jmnGB82TGxHTWtrXYOzNzAhMsQn0fHy5csZbvbYy/eEkiuZmZn4t3/7t7cykbKK/1aAVXyDs0A2Q6ptUCJsIRo8oWkTLtjZX9ifqLDZC/h92nE9ZHbKGhNVG9AaLZ9RJ6HhuNvA7KTfcM1Fgzdst1Qg7HMBPppbppsCfEa/Vv2U59LXeW44hlFhjXjqG8DvgMmpbwD7/CQQjONCU0DYBYRpMdlwbMeqP7FPsd4mRcFKWbChaHg25d+iiJhYiCNexMGwRPuWLxgp3PjN4HcknjOx2+o7IhIGhkW1SB6G6o0Q+6pLf/9C9Gkym4Z19NpE/194Ax0eHgaVSy9lm96CdcawmJqQ4MfXr9iu9hSSMdmajBlnw6GhZPMfSRhKcGhn/pbGnscFgzfF0lBkn4i6aVALEkv8d4M5M8/ZyJjZSA7JIzb/2a7jlCU2qBRI7s+IIjejviZj9JJRosb6DB05olHVLV7GhpdrHYDvNkrGhK5cVGTMPUc2MPTmo5OMieDEE5Ixj++hxp6GCvs6oL9Dk4thgOqd6IiVdSwGgRmtMm4Cc4eIG23+N5XOmG14mvw5fM+eKGXjaqKoTJHzu2WRMfMH0wppIWAhYCFgITAfBDi2kTvgmoGbYTmXICETmU9HNjDN/CkwOltjbC4Vhb1g7FjnVyYZ5OfP6CycP4xqC5kh5YvNRv0DRDDsVfrSqDONNjdp1iGaL0s+0/HK/KOgzO1FF6R+rmNxvmSOPR+sGEbSkLlpPF/SjZ/mu5/Gj8OMKSVrcvECStL05zj8xo+XXr8PoTC379AFDffu2aQQGiJtYvblmfhzFOO9PZbyiP/eMk5ARnyduo9qq7OcEbqVxVmfImW0+g2zkIHuvQtoDrP2BfZ69lfuIgmE/coATojS2iEPwoo08Co9rRGSJLIikZWJ4dPScTj2uyDX8uWJiWOkFYZH2dsVNSP8VrBM8j3RfT56rchEIV3fteWC7JYZpHn0m8jrjI0Xey0fhtj7s+bBB4zEN81+bpQtkuHCT6jonQSl+NL26c/3WAQZw8bHihhM0+QENBlDyZhcYIKsGz/w0b+oktlFkjF8i/JxVHkL6vIW5ltdHU5iaX9hZAw7jM5dyjCX/3bZGEMdElUKJNfyfEag6MN3ScSYk5qRjOmCKUm4WF9nKb9yAHB74btwDnW52bhlSwfamz9uMoamCWueocqRhtLcdcDEK8WE81PmMhy7sHUsBgG2vDiH0bSlXc4SKk7ERdzyuNC37VvUZaZg8vFd4xct/UGmVIxFxiwCUyuKhYCFgIWAhcCsCHBM04u8KBHDZRHnFUJ7SGTOyTS5oakUmUnreTdTMTn+oh7zQ6WMowzFtN92pFr0MsuPALU6gkvNQORP0zZMRzvOeWXeL3nTDieJGzoSOeJYI4bR82TWSZ9FU5N6zsc3x3rX+XzSmjVMbMKxk+LY57HXsyZsPAhRmICYcOoskkMyx2Zmsx+ymJPFHckYbuOh4+JPdKtIuNlTSuwTD7eGsD5xdCpJWcVPbM7Lmxr7GFu/H14E4QHJiXDIrcgQEpaxZMysekbMbWQhRWY8JVUmkmWUqOG2HEMKTenz9GtBiDg9W/d2tjUTmShrZ+Xze0FJkFmcSlMXXvd5+QZon1VRbU3SNBMxkXKz7HGcihz5qLwbFRaBhxlH87nxeFGeOR3z+aIS032A/VIOaffiy/25/EWSMXzZfmUKlntLW9LS8CY9E9U5DmBiMoaMIQHzbskYMx48n3nwjunryMFHNRj+OsBhRn/kzHHMMaLpRe/qYYXdzuxmDnmmHM25q3OjqZuyZNqzuWgwSZMDrSpXtEhqPJWaSTj6OqQ8YZ11bFPUt8onJYnmPPMsflyNhaoHB3cphNunyJimvBzcyUhB4FmFFs2bmeTHc0Wxu5ZGVDoy8Tg3FfBTB5JbTTk4/Lxv9a66DejW9eGALI2HLS16zLwyuowpKE/Z0t8KF01i6WdulzL72WJPx+j964ASW+TAxbw5HeWvgiyJdVgIWAhYCFgIfAoILHTivFBMOKbJLE5+oxb5FpnFMgydHgdl3qx/l551diq/6kpk40deGUvfJmLM5AxlYPTykhsx9LmWCCDVwjSiycqZOWWpifnX9igZEx3JGcfsForeMoeXqolvLirPE3C4Jt0qlaCPJAzhMC1W35G+WvjyPYTDEfeO4O/lEYkYIWPMi1DJ3FxWKb88W90+V1vsbyQmKSHCLSzcysYtSh6EQhQyII3JFa3xN5vkg7Ql+vM9JA4/FBFn2uZH6RLVbgwiT+Utkcy+kaH51oxzfiQMZ26HPJ+tPuY6xMaZ5fqd7YDlme2QsspzuX5XHAk7H9+cnvl8PnHjhJmLkIwTJe6tRZExUTLErxTl1Kan4UVqGpo3bgLGxo1tSlHBJs3ya6kYnpu/dYJF3NJFhiZTjDBJIO5pmzYEPdk5ogMHQ8oQoakLpsxceCXLacaRP8Y1u5nDhilnVW4ZUHlfJSs31CZDXRump0mUmY2bQ5bbEALVz6OjHQdNqqxyGj6lMFhadn/+Wq/lMhiCH3XmoLOPLZ/cn4mn3NU+855ZZ17rP5UqO6Qk7A4geOkiqlOTUeOwA+3t6v3OTP8juiIZU10JagV/nOvQCqf8Hv355etUL36Z68vXZFCNbAN842w7bCPGo2UugJH8zGYzzzwJEEsrJdZNiWXnHbbkSB1kpsg+xDHH6KXLCrFnGq6DRWixp+INFR+ayBh+FTgh1b1rntW1glkIWAhYCFgIfNAIyPaPGzdu4N69e2hubk54fTjucWyTYY/ndDLMSoZyrWeR0f/RkNEQEifWN4d493l07idzwNjwsWlHr2NDynU0RPwzCZcIP34O8747nyLMO7G5Ay51/jg2NgYq8R0fH8fAwMDcGS5DCC+VpbLdhsNITU1VumNEQkfumxfiSykCFWqzPw4NDYGWlVj/5T2i/YFnqocaek24JYfbzKJOE2QJL48iN4yPg3wkzB8KabMJz3iVJBhbP7mmn+gjQWlTZ0xZWRno81hM+18EGcNWwV+PNUsI7xRa8vPQmZKC2rx8YHTUIGOi5MtcZEx8fIkS84pQhMY5l3MkYiYVXaG5fb3DVXgRWQqSfmEK+pDloF4kysCjSQkdjmHncpKHSpdFlOKxAxk6cfSvCsZb5n2DwaRAp+zIi5AxTEj9Kj+TjJEFuK4D//MO663JGNZJEDKXmfdmHm+H0p8bLa9kpsx4rhAwJ2iQMfXpKajNzgYqq7RC25mZfDxXVKZXXYXK3Fw8ys3X2sH9tLJDBVvG+34b5MTW30hf3rq0BWY/81jugszMbX5XbDxCh/Jcw8a6RKlQIyVWiN2S/nskYwZ3fIMm2zoM3roIKE3qupzst5ZczPzeshXKQsBCwELgY0GAi0k6kjE3b95EQ0ODmlAnun7m2dhqGb3NCweeW8fqRYBkBK0KsY1eunQJFRUVK1bYtLQ0/OY3v8Gf/vQnTNNajnEstT2Z2yDJmAsXLihrSjzv6emRbJbNZw8w94LY+sReJ7og0fT10pFd0uqWiUOZ71aWuOb3vNgc3G43nj9/rvplV1eXSib6DuefwyLJGL3YosgWzUj1bdmC1i/WoTQjQ5vg8nFv3VLIGIFLVmv6twQulajXQS/ruJ+P9IZIuUTXyqb1XRx8tVyIJmMi3Gfk5chLiuezNOL08s2cvF7IiRo01l916UhP0nUiKhHSg9ElI3Y4I33e4vnMw/xUP9EpRpN4O168EKSfWAbi9rZ7i4zxBOA7fxbNWemoSk+D/+atj5+MqapGpSPPIGNoApIUGskYgzV7++XMfFUJuWLL1i3c4CripPr2G48TaNG3WE35XU63yMVVXKej26lQouzFLL3uJjqE9K3F5TLParqn0FaYjYaMzzFy95K2SEGz1oZUTqRc80zOCmYhYCFgIWAh8GEjQMkYIWOuXLmCqqoqpYwx3jaMpdZUxsOlppOo+OaFA8+tY/UiQDLm7NmzuHjxIk6dOoUHDx6898JKG/ntb3+LP//5z/jDH/6gykDlpZM0z7zEQ9JnMiRgTp8+jdbWVlXvjo6OJaa+8Oix/SP2euEpLiyG5LewWFbo2RDgF44z/kStnmhBqb29XbVPtlMe8s7oz/dYEhnDRT3teg/v2IWWtetwPzkJGBl6t2SMaQdMfDDMUHF5pokY2cSgd7SKJnguV/XGJ02xzA9gWWDKC5mvb14smiHWJdaLZ5aIf5HFa8R0mexxkVSYq3FIcLmepy/RYn0dnXfj12xhZIwf3nOn0ZaTgar0VIyfO6usC82ziB9eMJphq6pBpT0XDx15yloYpScU8SivjtAuy6ETljc3d3YMuTyFiS0DW1IicmIa7NGUlKGvtwTpdip9eFmglUTdU6hKX4P6tM8wfu8K4BoHDDJGU8y610hwy7cQsBCwELAQ+LgREDKGUgdcAFLigL94UlHqx36YFw4LWTx87LisxvpxixLb5/Xr13H+/Hm1NeJ9l5OkJfsGpWJ+9atf4S9/+YsqAu8l4jAToKwriSdKHpAkpfng933E9o/Y6+Uuj+S33Pl8KunL2iZRaxqSkGyXbJ+dnZ0KRnln9Od7LJGMCQFuN4Z+2IkXGdkot2UDw4OA14tAKBxxSqBAzH8viIwhXLIkpRZow0XIDr3JiAqXPIFp+GkHXpEzfgRoC11tHYpCQUvcPg+XgBGqZBa6YjYaY+aClDBHoQ4jSLPIAn4gBFDjeJBasEXxEjWp6yWojqkXoSyPP8QFP6V99H7MaAmj5V/YmbnJST7af/c2JdMLYhIeH3znT6PDkYlqWqC5dP7jJ2Na2vHUlov7NgdA8Usq72JLEUijL31hr+QdocPB8Ax9NGz1bCkuH5XK6l7AbT4TAUozLd/h8njhDQTh8vrg8fpndCHeW8gxPelVzf9dcaZc0wpbLaO2DMDGZu6eQnXaGjSmfQZnhIzRYmmcdluSMbGAWdcWAhYCFgIfNwKcNHMRyAk1XWlpqaowJ9qJPjjKvYeRLtHFttJbBQiQjGH75HY6bt8pLy9/76USsuTXv/41fve73ykyZiGLzrkKLOkzHKWASJBy+wcJqO7u7rmiW88tBN6JAL+9siJOxHc44Per9sk+SQkZHkLGvLMgMQ8TQMZ4MPTDLk3G5AgZ4wO5CHFLI2MM2CKmtIz9PBGaJoRAiOpujSVr0AuMDRnXZDni/7IhA6K8lPn6cV8eCZZAEHDT5wo6rH/6V2+dBIw2navJJAaQ3LjkNikkZj0mhwHvKOAaAgITMWEZb76HytwUX/LUBFZUZ87MMzVNkKBMwuND4MIZdDgyUJNFMuYcGa35FuLDC0fC4VkNyrPseEDrYNNTCSZjpAXRl3P9moLsMMSeGvfZljzsRMYr9AUQ9Lm0hE4sqkYyMSnGhlrYNXEYnwYmfZqhcLOtsmy+GcWOl2jIE0Bo2iAVPX7A6wc8XkXcwuUBvNE+rNke3SZVwiZI4qW95HvuKdSkrUFT6meYuHsFmB4HAhYZs2RcrQQsBCwELAQ+YAQ4gRapAyFjKAUgE2vxl1rFhI7TSy2MFf+DQEDaHhWErjYy5h/+4R/imrheLLCsqxy3bt1ShAy3DZJ8amlpkUeWbyGwKATYusxL3EUlYooUS8ZIXzW3Y1PwWU+XRMaoKrkNMiYzG2VCxvj8Wr2GSRrGTMgIEPSj3U7KaIbKFFLIGCMC16iUg6HMAuUGppvq0V38ExqyC9GUlo3G9Cx0frMFg8dPAMMjQJBkiQv+Cdor0huJTKlHXs5c994ur1HugTGgawhNe06i+ofD8JQ1AT4CwEWsbKbSulqi0j6UmvEAI6+Atia0btmOzi+/RXWeDQ8dKeg+Vgz0twPBccMWDYkllnA+xyw4GnaUZlIw0Sv1RgQEJuHxwU/JGHs6aj8RMsZ/8w6epGXhMbcpObmNJZGSMdKC6IvT79Pr9SD8egBdu/ajb8NWtGTkozI5G40bv0b/saNAT5umIGkBSL1HI77h8bXp1jaf9hENw+iRwz0NDPXh+YkjKLPnoSl3I9oKv0bv7iKguQ7wTABBEjJztEMSkJQUq6vDow2bUJ2/Hi05BWiyb8T48ata/7YzoElLhYNR8hmFiZQqcScWGZM4LK2ULAQsBCwEPiIELDLmI3qZH1FVZIG3GskY6o1Z6MJzrlcj0jEkYUg+0VINfVGQOld867mFwGwIcIlhXuLOFm6+92cjY+YbX8IlhIwZ2LELHZlZKHPk6G1K/neTMcbaMWYpKkWib4bLgM1ExvApaQktDxMEAi68ungRzbb1eJVRgPaUDLRmZaE2OwsPU1NQv+Vr4Gk5MEFSg8nHV9xrLpe8LC4R5Vx8nYjxn7+qT/mA8no8y9mCstSNaPm6CCitBybdSjKHv/vTSksAQXDTCXOnHXslcuCbxuTNy3iSnYWq9Dw02daj2paF2sIcVG3Mw/0NDoQayw1CRi9YWc65jzgYGjXR25SiBIz57G0yxovAuV/QYUtDfWYKXBfP6UX23AX4MEN4vXCeOYPS1DRUFBQAo8NAkAbJl7pNydy6CI35mi0L8E9PIdDciq7cDRhMteF5WjYaUjPRnJuHZzlZaNqyASNXzwA+Kkmj+DR7AbfuackOtg6SlNI+JIdIVnHeCMO4AoxFdnMCrx/fw9UNOShd70C1PQ/VqTloSs/Fs+RM1GwogK/0PuB3A2ER2WFE6RnEiHqkPMCEE68unMWdfAfKCvNQlZeHBns+Gm0bUZ/3Pdq2/wx0vtL6WsLcemWQMboky/ffRMZMWpIxy4ezlbKFgIWAhcAHhkAsGcNFoSyExV9KlWRMNvtLSc8c15wmz2VUjr0fey1pxN5fLfGlHPRZxsh8JrbAsddSsVXgm4u2mOJI21uNZMyaNWtUlRK5pY8SaTy47YOETGNjo9qaNTg4uBj4rDgWAhEEzH2R50s9Vg8Z4/Hg5e5daMjKwJPcHICKWWLImNiP6fwAYChzzMinOHJXgcj8JsbRfeBHdOSsBw4dBwZ6gOkBhGvLULf9G1SkrkHr5g1Aa4veLmFSiyI5yAuSF8P7/BzQCSFDX5zOm5amQxg7ehHP7d+gNSkHLak2NDjygTqSMROA3xexikMixm9opXAFSAz5MVZZhlJbBqqyM9H582Ggrx8YHwPaOtC4vQhPcjegfvc2oJ+KgeaHnA4nNRPcpIZaTaqZgNGbREg3GOlLVF56PAicPYmu7FS0ZqSgb1/RR07GuIEbV1CbkYJn+bnA2DBZEiXbpOAROKWhzMsnkAKqJMD3oP9CIRIrulH6n1Wj1W7HwFebgJftertaVxNe/ViM1ux0NObnYLScGvQ1eaH1JDFNfUcPYbpQ8sbVlfFq1bkyt863TW1LYXDzE4+xa+fwbH02qr9ej5bivUBXNzA6DdR3oWvPz3iWaUf1198g3P8SYSWdwzLwkJ4S0FIzo06MX7iCJ3Y7HuTnoP38UcD5Wm3XG6tqRvU3xSjNWI/BIz8BvlFlrt2HYKSfGYkuj0cyJnUNmlM/QywZw1osRPZseQpopWohYCFgIWAhsBoQSOQv/jIem2cCMhuIV1cJH+tHVBCKKkKTBLqMxBzHaGuUjufi5Ln4Zol1nst9c3y5R1/mv7F1kGt5zrDx8uTzGemZyj5b/pwdiWNcVQhzIuZzKYDyTQDFA03uSRyjEup3X1PUGe8m9mXw+h0HHws28fw5oquU2QZJCop7+vSp2q5DYsJsUvodxViWR0lJSfjP//zPSLmEMEpEZonsd4koj5WGhcC7EKCVMyrxHR8fX7SU2NIlY7we9O8vRp0tE4/zcgCvlgYxf+TNH6H5fHx0pWM/Yzqm3I1c+X3AyChelhxEZ04BvEdPAJ4xIDQOeIaBsZd4vW09ajI+R+/p48DoqPo6msvEc6an04zmLraalOQBt11oNa5qLFCBOQi4QnhefASN9o3ApatoSklCU242UF8JTDkRCvjUglcb4SYdwy0mQQSDToQH+/D8zEnUrXega/sWwD0JuKaAAHVsBIHuYdRs/gHP8vPgvXsDIFtsLmTc1sEA8WongWcjY3QsFcocXZExJ9CVmYyOtBS8LtqrJR8kuY/N97iAu9fRbs9AeU4W0NGiyBg1hRBo53wHZlAkkhlU3hMqhgMtpxrUDxNGqKIazY5cdG/9ChimsjInEHYBr3sR/PEgWu05eLZrOwI9HUCQOoUoYcXZRHSiJLnLHEOuoz7Lwrbog1f5zN6H8eun0PhdPrx3rwNOts8RHYXF63iJng3foPOrb4BXvQhze52aVjGITLt8gJ9bk1rQ/OVWVOY64Ll1GQgMIRB2Kkk2lWDDCzR/tQ21BZlw3z4NhKZAMoapsEstCN5opeZ35p5CLcmYlM8wdecKMGXojDHU87AMRMc6LAQsBCwELAQsBBKFgB71o7MzGZ/fnhnoMVDCx/rCIZj9t4kMwKvMQZCQiZIZMsbO4C8MQkTuMQzjSPzYOFJu+uay85z3mI6kwXRi40s+4staQa6jcWnOQpu04KyZaTFMJBNzBDkXXxUyhumRjN7yjTSNypCMIbYS7K35SOwLmaOBmDGKjfpW2nHSMpMxlBgRPUZxgr6XW16vVxEwYj1JSKJEkjHvpSJWJhYCCUKAVvfYL2jmerFE4tLJGI8HI4d/RoMjG/dzMoFJLm60xRfzR0jO5/Px0fgwpMSir2PKXX0VBGg1aXQEL0sOKDLGc/QXtW1j0j2B6YkBYPoVQld/xpP0/0LNri+B4VfqS2tOWc6Zpk6XPjdOGNabvFSm6geCHCa4iDYCqhErrOs8PQL0daJzy0bU5ds0GTPtRCCoyRi9TYkblWRY8SBYWYn7Bfmo3f4l0F1vDFtG63gzBDi9GL9wHaXrUtC7myRIUAkeRQoZtyGxdFIj8aVWuuBvb1NSm3Cii1CJRt/tQeD0cXRlJCkypn/vno+fjLl8Fu32dFSwPddWAv4pPQ0QaM1wxn0H5psSyQwq7wkZQwkVNiS25SACT2tQ79iA9u+2AyNvolMZbrHrf4WGTV/iYU4uUFkJ+EjG8ODMQ7ddc9H0vETnI6F4z48gfIqIccELD7xGfDi7gPEulZZqDNRHPUHNTGGgqxVdtmw0ZqYDfd0GGaPz1VMk1RkAnwu4fh8VaXa07PgeGKEpwjGjdJzhhYDhCfT+dAj19nSMHiqK4GukEG2HuiSJ/W+RMYnF00rNQsBCwELAQmBeCOiRX8/Q9Fj8NlHCUZWzBfNYbk7cTMKocxN5IFyEJjRml4wRooG+pMfz1RSfc2btooQOy6jU1SmyxZj6zHYuFZvTj06ZzUSMYGHGiEmpQ15k7LX5Rck5w7w9/Xt7wibh4/hCdMhCjz5JGS4CSYa870MIGOYr5+YySjnfd7ms/CwEVgIBae/sC3K+0HIkhIyZOHEUjbk23MlOB0YGE0TGsCrmr5j+6skdfcUFrAcYHsKr/SIZc0brcIkgMQHUXUf9ps9RuT0X6G5Q2yXM30bzufpo+oKAj1aOqKjUq7flUA9GgKaqfdpMFFeObgomkEL3ANODQHMlHuakoKZAyJgxeP3uiNwAZRFCiozxAC4n3hw+inupqXh5/jDgeQN4x4Ewh1Gm7dVWdWob0ZW7HnXZeUD3G3hp3UZVnv9mc+Ya8VyjJZBweR7dpuaWWe0AACAASURBVBQlYhhSHQwu0dxuRcZ0pK5FR1oy+vbs/ujJmJEf96EpMxk1BXagqVaRBdzSE2mOM+EU1GbxBUzzO+G9WDImoKwOBStq0Wj/Eu3f7lIkY1DeHQfc592oyC1EWbodeFwOOGk1LCoZIwWITBhUW3UDITZUNlhN27iVHArvcascCR1dIe90n3GtDSCp2y6SMSGM3TiP7gIbOjfmA6+EjOF0hQd9o0N4pzBcfAhtjk0YPncacA0CwVGDhDRmfoEAxm9cRe+mfHRtLgQ8U0oHDVN4uzZGFonyDDKmJeUzTItkjJ/liv7gtqDXm6hyWelYCFgIWAhYCHz0CMiMgDM9/jTHkZijrDjqQlRTS2M85JhodnwWzzEe0+BPR3STCCsn1+IzDMOKk7RWW/wphKGdrk8sPrEYEUs64qqdkDlz+To85x+ML1gLLnItPsNF84hOleW9cqYn/JDMjMxlUw2cgcXNo8UL0bESxEts8WRrlEjpLAcZs9gFbWxZrWsLgfeJwFKk1hJCxuD6VTTl2vCQ25R8idqmJBDO/GLJB4+++uSRIBkeQm9RMcr/by1w/jow7tNfVS5GfcNwnS9CbeHf0HN0OzD6UpmhNi+NzedcU/aevIzK7UXw9lBPiwcIUWEqh4IAfF1tKN+1D00//wJMhY0vt6G0tLoc5XmZaPt6PdBSB7jG4fG54AuHlaO+mGCYn3Sf0nPTu32H0hXjLLulyRg1FHArEq3M+LUp4O4evCrYjN78r4HmHrUtSq+dzaWe61yjZUY0qidGDyaSggqjFMIa5oc9LrzZtwMtSX9DR3oSXu7e+dGTMf1FO9CanYrHGSlAQ41SmEuVy2ovMYFa0CEtVhCmz3uaEtN2tryahHN7MX37MerX5aK14FvA58WEn1MkBg8Dbc/RkLcR9Y6NQGWtMsvs95BQ4dCvU+UZB351lFejZev3GL91DRjoM2zNB+EPME0vug7tx52N+XD2dr9lMpvCYNMTk7pcnc1o3v4Nmr7MQ9+R/VqShSSlImGYI6ccvHYBr56jNf9LdORsAJ5VAH6SPW6DjKH1MPZJ6qGpREtWKtod2cDzdlUHmbgsGGKp73x89xTqqEMq5TO4bl/RUm0GGcN8WZuZvWU+iVphLAQsBCwELAQ+VAQoXs6joaEBDx48QGtr67JWhWON8fMFanq7cKPuGe51NuJ6Ww3O15fh6Wgvmr0jeDrcg7rJAdRNDkZcrXMQM90QapxDqJ4YVK5qcgCVk2/wbOq1cjwXx2cSTnzGXY3xK43yP5tiXd6gkm5yAFWTg6gy6so6lA/3o2ZyBO0hF14ioORwOetYqKOdVc6mKMdLTXZmx3viGE7SlnP6dAzDn8gGTO4lQjhafh+Fh0rQNjGi3vtCiBhzQ6ROCqfTiYmJCVBnzEqQFiRfPB6P2paRn5+PoqIiJaFjLudSz6Vejx49wsOHD9HZ2Yn79++DCoytw0JgNSHA/sD+SF1O/f39i+6TiSFjrlxCQ04Wnn21AZh2zqnAdylAcqHEBZNesAW1VMqEE63f/4C6lCzgcSXwckSvDynN0laHl9/no87xd7w++yPA7URByoXMJCHkmtxL/4FTKM/ZgDe3bwDeYYTC/ABMAL4xDN+/jVtpmeja9zMwwa1LQqWHgMpnqMrNxvOtm4EurWvEH/IpC9e0ch0lY0LA1AT6vt+G6qw0jJXfBjzUEm4scLkdiiaxqX+n/zVeFWxCX95moOmFpuTValFKPB9/5vKSV7PFUu9GkTG0jEOyyYWBoh/QvO7/FBnTu+sHwMPfDD7Sw+PC67070JadiicZyREyhnawKHGiRGQXVPV4aPOevk8bW2pXNKWwXG5M336IzqwNGN62F/BxuhZU+lvw4iXGDh5CU04+Or/fAfS80KUIkVjh29RNkYQGHdPCvYdozMzC8x+2AoOvAK8P4Wm32koUam9Ec2EenqSnItjfizCtIMlBzoTcI9OsrMTT9etxLz0F1Tu3Aq+fmyRt5PchMxnThbb8DejIKUSw8qnWt8O6RaRnKF02hVAjyZg0dDhsQLcmYzRBJYVYgi/wxkvCRMa4Y8gYeVP0rcNCwELAQsBC4NNAQCzBcEJ97do1VFdXqwWmLAoTjQJHbI6KHGY3lOyGvWQHNp85hOxDu+E4vg+O40WG43mxyZXAfqwY9mP0S2A/SrcfOUf3w3asBLbjxcg+XoysE/uQeaJIOZ5nHdeOzxhGhWX4YyUq7qqNf7IImSf3IeOEdpknikGXdaJEOdupg7Cf/hk5p39G1sn9yDq2D47DRcg/sg/5R+jvncPpsHlH9iGX7mgxHEeLFa45xCaCscaaz/KOlSDvGP1iFUfFPVyE3MNFsB8pQtbxYmScLIm4zFP7kXxkD1KPFaFqakhJNS22PZGMuXnzJm7fvg1a/qqoqFhsUouOJ9ujjhw5gt///vf461//uui0ZosoEkAkYy5duqQsKl24cMEybT0bYNb9FUOAkmIkYdgvafVrsUdCyJjwxQuoy85A885twMjAspIxHMS4bNRLxygZ0/DtVjRl2oFT5wGnCxgeR+DOfdRt2ICO1C/QYc8A+l4A7ulZdcaoJa0vBN+tRyi15aNuxw6grx0IvNY8+eBzNBXvxt0v1mDyzDnAbSxgyU1MB4GyCtRlZ+LV9m+BF1Sw6lHyD9ElK3XGUJUvF8uTeLFjKyptyZgouwm4yKWTjAkhRCKGh9KHM4y+wvXoLdgEND3XI7jah8LSztfNXF7KojNebJVvHDKmxSBjenZu/+jJmDd7d6A9OxWl6SRjqpVkDLeYqb3DqpHo1zO///HQ5j25L0SGF3BNY/LuPTTaczDJ7WB9vcDoGFBeg94tP6Anx4FmexYCpXcAj6FclySHwRBxckenDqcTaK1G4+YcVGZ/ATx7DAR8CLldigjsOXsStVnJ6N622dBNY8RjW2aDnQpj7NBZPM/bgrr0fDRv2wlXayPg5e8/DMByS8tme2XOJA+70FJQgDZHLoJVFVqHjJ/sDjdcse1z29QUAo1VaMpOQ0ueDcGeNp1e0NgrRGiWcpjim051isY2JUrGxJIx0h/eirOUslhxLQQsBCwELAQ+CATu3r27/GSMIXTMEZPyOLsv/oL8o8XYcOEIHKcPKDIm93gR8k8Ua3e8BPnH96Pg5AEUnDigznmtHa8PIu/4QeSeOIDcE/vhOLkf9pMlyDlVrBzP7eqefsYwUXdAxV2t8W2nimE7VQLbqf1xHYmZtGP7kHp8HzJPH0DWGe0yT5cg83QxMs4UI31OV4L0M/uRdmY/Us/uR4rhks/tB51ci5927gDSDcc4Ku4vxUj7pRipp4tVeIlLP+lsCVLOH1Du4USfIuAW2xlIxly8eFERMb/88ouS4lpsWkuN94//+I/453/+Z/zpT39SkjIkaUSp71LTFhLUImOWiqQVf7kRYJvv6+tT/bKsrGzR2SWEjAldOI96Wya69+8F3rxcdjKGy0A6pceDVl0GB9Dw7XeoS7OhLi0bj+y5uGd3oDTTjtrkDLxYkwQ8KVPhFFI0EzcLlUElqiRyGrduw7McG1DzBPBQCmEQ6KxFWYEdtTSTXVcbAT3oohJfH/DgMWrTM9C74weg94VS+MtlqixZuaD3qz/yLtPo2vktnmWvxXTpNWCKylpZK71MVwvCgBsYG0B3YS66168Hmju0lSXDstP7JGPakv6GroxkdG/f9kmQMR1ZKShLT3qLjCEhs/CDkcxO3jJboUjGuJXulMm7t9Fkz0aXPRut336Nh7ZstOZuQEtyJobsDuA89bAMa0thHgrSUpeNZohmkDHTk4B/FAOn96M2cw0GS3bp9kWCb2gYDTt2oHFjgbIchUkK1xpFHHUBbS9Qu20vyj/PRHNaPkb3HwOGuFWPO52YF+vCli2EDH0SiW69TakgH+0OB0KVFYDXBfho8jqIkCJjqHtpCqGGKlXPhvxc+HupNFg0CRrJq9wW+c94R4K4SoUXLPp0dJuS59YVwDmmrFip7I0gRvRFZm5FsxCwELAQsBD4EBGgtMGVK1eUZAylZWRRmNC6GAOM+s0DwIWGp0j7eRc+P/g9sk8W42xDOaqGe9HmGUHlUA8u11fgcv3TiLtUV4GZ7iku1tFV4EJ9Bc4rV45zDWXKna8vR9TpMBcYtq5CxdFxV2984hF1FTjbEHVnGitwsb0Wpxoq8GPFXex9dBXb757H93fPY9u9c9h27yy+o7s/i7t3Dt/dO6/c1vvn8a3httw/jy0PDGe6z+ffPbgQcYzD+FvvnlPuW/pGePpMI//WCUXqfPFLEUqnX0etSi6iUZGMuX79Om7cuAFKiixl8beI7CNR2C/+6Z/+Cf/yL/+ifD6gMuFE9RdJxyJjIpBbJ6sYAW6fo0RleXn5oku5JDJGqX71eoA7egHZsme7UkzL7RUBmoo1HBew4iLKRRdZZL181ctA2jsCyZj+PtR9/S1u/9f/odVRiIpNG3HHnoPKjBw8z8pH7xeZeJGdCzy4p/VVBP2zkzGUShkYwPjFC2hPT8bEvq2AuwsIvsSbAztQbctA8+Gf9NYRjqZckyp1GX4EzlJCyI6u4oPAtFct/rhAZjAuV2lXyQOfZsYDXvQWbUd11hq8OntQLZzBrSLGryYMj+Ak0F2H5tx0NFMfz9AgMD0NFW7WGhChWDdzeSnr0thQvFZHjGQMt121J3+G7qxUdG779qMnYwb27EBnVgrK05KA+qhkDN8J2/FMNAW0xfhMiSQFdcZMKwmc3pPH0Z6Wjc6kVFSvd+By2ueozLOhMTsLfbYcvM4rAE6fBl6+ALwkSCJvTZ0JRRIM0Mz0NND4DM8LsvF8cz4w2KfbzpOnKLWvR+X3u4BeKu2VIwA01qL7qy1oTs9GuY1kZJVuc7SCxMZMEBQAbKuGDpgQt9WxDm6lx+b1V9+i6rMvMP3gji4DdTcxLHsCdc2E/Ri7cwuNeXno27UXGNZEj5CW0RpJuRboGy+InnGqYWIGTS3oybfhhS0ZgXs3NBnj55a8aK+JxFlgtlZwCwELAQsBC4EPEwH+ss8tESRjnjx5oqzEyPalhNXINChxrKZkzC+NT5F9+iBSThbBdnwfmob64UYYLnBztB5y6cuPLeJz2hnPiaLZ2fx4ccz3Zosn981h451LuNn8eHHM92aLF+++KNmlzw3b4kTZ70J8UXA8l880JR+G5bUoG+ZMhvfE589cpc5XSDuyB+lH9qByvF8pCF5seyIZQxKGCz+2VW6ne98HJQGoM+a3v/0t/vjHP+IPf/jDsll0qqysVMQTt2NxG0hXl2Ht831X2srPQuAdCKw4GaPkS7xuhC+cQ4vDhraiHcDUmNJ1IUQMfSFi6CeKjNE8CBeEmoyp+WoLWqjYtKwKGHillOeipRX+Y6fQlb8etWnpKM1MRajsodr+E1VgS0op6ihlEB4dAbq70J+Xg9HNuUBfDdBZjhdf5qHeno1Aewt8U1ThxbUmf/XnSBmE9/x51OXlo/PAEYD3ufbkctnAwKcMCXswRYtJIT8mTh1GrW0dXh7eBYz06G1JBr+jFoSTr+F+fAVV9iR0bf8acA4jRMszKsN4VMps92YuL1WZ4lA2kUVwDBkztG8nOlM/x/PMlE+GjOnKTEGFiYzxK6mmiBDFO7rlQh+xF5G4oyTLJHpOHcMLRyFw6JiWMpsaVsp3/dcvo2lTIVocOWhOy8LUkZPAaHxlZnoCx0bnBfp78GrrZrQ6MjH+8A4wOorxQ6dQU7AFr67dByY4xdHb5vCmB40/bEFHRhp6HDlAZwPg7Fcki2pBwvTwQhGHBhlDnTAkRam/ZtqJga07Uf15KsYuXtQ6nahkW+TDWCaPB2PnLqI6Jxc9RQeBCa2PRyZkkXa4UCglvNHcVTHlnuqjABpb0O3IwvOsdXBeOgNMUseVRcYITJZvIWAhYCHwqSFAHRX8NZ4SB5Q8EIkD+bWfz8QtCRsZlAzyn7O5k01PkXH2IJJP7UPOsX1oH+hHKEjTxRy0rONDQEDaRojtxPQjEGc+laN9yDq0G7ZDu1Ez0qcItMXWaTWQMaLP5X/+53/UNiWSMiQtSWYm+iAZw21ZlJCh1FpLS0uis7DSsxBYMgIrSMbo37CVZIrXhbEfD6AxOwMdJbuB8aH3RsZQA4smY16h5qutaHZ8CVTVKwWhCDsBbuOgwt7Rl+jcsxUdOZmoK8hTWye4BI73p34f93NxGYRz3140rfscuHEBvtNH0JqdiaED+4GgGz5lTcZ4hyQvAj44L5/Ds8I8PD9AyRkvMBWKisUoBb4e+OGCh4QK83h8D3X5Wej8fjPQWgN4nEq6gb98qKO7Fc/3/4An9mS8OvUj4HMiROmD90zGBE8fxYvMdehMS8KnoDNmcM8OxJIxPlrSMguGyDtasm8iY4KT6Dp9FI/SU+A6eRJwTgLTHmB8WitzHuuG5+4F9OWuR2t2ITx1DQj7vBGJGE39GUwEQggGufXJCdy8grrMNDRt3QI8q0JD7peo+2o70Eel0cYx5UL45h08SUpCoyMLeHrfsA8wjRBc8Bq/0knqWo5E/15HxdSU+dJkzAR8Zy6jIXs9eneVAK8H1ZY8mh2jviRlHr6tG69/2I9nWXmYuHhd9RFOO+lIxETzkMIt0DcSEGpSxTaRMZ056WhL/Tte/Fyiti0pMsZETi45/wUW1wpuIWAhYCFgIbAyCHAhSdKFx7179xQZI+LmXGDKQlv8JZWSg4vh6FGq4pRFxiwJ0tUQWdpGPDKmavwVsg7vQs5hkjEvP3gyRvBOT0/Hr371K6XEV/qJPEuUTzKG5Cj7I4lSSzImUcha6SQSgVVDxrzcsR316SnopM6YscH3TMZ4gZd9qPnqOzSRjKmuNzB2KUtImBoAXEPA7Uvoy3OgrbBQWQiKR8Twnua1KSngAh48xPP8Akx89x36N25EfZYNePxYmxSGDx5RtEvxH58Xzstn8XS9Ay9LDgDUvTHu16av+ZM/f33nthH/JMLOYb0oba1H3cZ81Nmygfv3gWHT4pi/ilRVoTbfgdv2FLy5exEITypKQOnKUctWWW7O5c9cXvJqthgKvBjJGNy4qMiYtpS1eLl7x0e/TWlo9w4lBfSMCnyNbUpCxnDKNhPNpXbpmWRM55mjuJuRBM/lS5qdMARXFCnjfgO8bMLElu9Rl2SDq6ZOZc53Gf0NjVc8ggiSIPE5gdcv0bX1W9TZ7RjZtQcthZvRffCwDkaxLVpYcvkxsu9nPM8thOvoj8DICyA8BniovJpCtyQBSVJSYTAVZxsm2GmqmtuQKP2iyJ8poKkdLd/uQrVjM1BaA0xOakKGJrVdU8DVu2i2b0aFg0qpqSBbi2OrAiUCXCMNaeMGHFrOu7EFrVkpaEn5DA27vldKk9k3GUXCJ6IIGlzrv4WAhYCFgIXAakaA1jC8Xk7SoLYncTuEWKmRRbbZX1JdOLgYjt67yBiRQFhSflbk94KAtI94ZEy18+MiY6Rd/vd//7eSjPnLX/6ybBiTjCktLUVzc7OSVqM5b+uwEFhtCKwaMubNnl2oTU1C+75dgHPkvZExSvMLt0i86MOtdDsa7RuBmnrAPwFMvQbG+oGpceD2XbRlO9CSnY03h34CfO64UjFcFtPmi/qNhCNlTx/q1n+Jli9S8TzdhqrCjcDgMECLNAG/Jlg8DEjL1z7g1g1U5drQ8912rQdj3AOMTAOTXoSbu9DxfQm6dx8AxgeB8BQw0IPQ1St4bitU5owDV+8CU37A6QNuPsbQpu/Rmp2PiWsXgeFetSAmKaAkkiJLR1lCvss3ymi0YF7NFloFiSVjzh5HV9patCavQf/e3R83GeN24flXm/A8PRlV6akALQL5p8BtSsslGaN2hbM9+J3o5Na1fAfGDh/Vb4uzNRIydLU16PpqI2rXJKF7y3bgFYkS/S41GcM3yzM6vyZjqItm0oneI0fRmJuL9txc1G/cCLRS3DMMv89ge1w+dH3zA7od6xE4dQx40Qx4hjSh6abC4DHANaGtkY3yPomeAEbKa3DHvhVjlx4CznGAhIvPi2f7DuJBRiHqcrcAd54A/UNaSubuQ1Rl56MyZz3enLoITLiAsE9RR6pRsugzm6vGYSH/Gd+kA0ZFZbp8gY0taE5fh/a0z9FWtBOYmlT7KM19YiFZWWEtBCwELAQsBCwE5oWAMTZxfOJpPDJmxO8Fp2DW8WEiIK+Ypefsqm7yTUQy5mrT0yVJxpD06enpARd/nZ2dePOGhj/e78EykLxMS0vDv/7rv6rtSZSMIUkjRE2iSsS8rMNC4ENAoKOjA5OTk4uWpFyEAl92Dm5PIBUSVL94D+zZhZrkdXpxMzG67GSMXmrqElAZKLr7ULnxW/R8sx0oKwdetCjLR8HbV9FftA9VSVmoz8jD0OHjWhkpTfzO8idrNrWedfvhunEHzZk2NGXZ4Ln3AKD5XS5EKdZKaRd3GE9LTqHs6524l5ON++lf4HFKCiry1+PO9zuAESfgnEDHuUtodXyjtm8EGysBZy8QcCr9Nv3bi1CVlIM7a9NRt/EbPEnLQZ2tEF15m9Gw6WvgTa8yB0zTwNyapRQnz0qnxKNZZn7QeBUvFO+pIw4Z05Hy90+GjGnfUICulHWozUwHGmreAxlD1D2AewzNP5WgJTcP4cMngIEJoG8cE9fK0Lf/JGpsDjxe8xlaN28EGmr11iVl3UhP7NgyKA8TVoQdCQ5DvV0oCHR2ovbLQjQU2NDzczHQTwthIXgCHoR8Wtl0/09HUZGeibsZ63AvPx13N2Tj5oZs3NiUg5tf5uLmpgJcYd79PQBJnGkPus7eRHn6t6jdtA/BN4MIc6rhdwNuD5oPHsPTDVtR5tiImsLNqFm/EeWOXNxOS0Xz3iJgcFT3I5AcpdSNwSPNbK5Go1yAx/jvIGOa0r5AR/pa/b2izphgtEctNesFlNIKaiFgIWAhYCHwKSFgjE3vImNI0FjHh4uAvGLWgGRM/dRAQsiYiPSNMeeTrXXvEymSLaIbhueyxc9Mxkg5l1quRKWz1HJY8S0E5oMAJSx5SLsVfz5xGWaRZAwpC5rkDQDeKQzu2Yna5C/QWrQLmBhT+lCWS4EvP3Q6d5aAijf9wMAYmrbuxpN1aWjOykRt8v/iuSMZvQ4bGtOzUJW/CePX7xlCA0xhNipGy5wQGJ+XemAoHfMKNVu+RNWWDUBvt1oAh8OUk+CfUgSDspKTuFnwNS5kp+JuYQbuZifjyaYC3KWJa5rODbsRfNmJ2m+2oPOH7cBoL+DpB0Kj2qS1cwTh8jJUbduKW1kZKN2Qj9JvNmLg+nmt9wZTWsmrKtBsNMq77rPO0UMjEJ+QUaE+cTKmwWFDe9JaNOZkAe3NETKGzYFuJppRXBd3Zry3MCVKptB99AgavkhD599T0ZFdgK6Cr9CcbEdDchaa8xxo3v4V8JpSLePwuEZ0lkwiTMGPMNwIwqvMp1OXDEkOL8amp5TZ7KfF3+DR1xnwVN4B3IwbgifsQ4CWjmjd69ol3FxvR+l363FnYwZuF6bjwYYsPNyQiQfrM/Gg0IbrG3Mx3VKjdUMx9/ZePNu8D/0nbihyMqysJjHpoJKU6b13D/e/+QYP1ufj3gY77n9bgJc3DfPcJIHUQTWGlJBRRVo6wEzHImMMbC3PQsBCwELAQmBVIGCMTRyfeGqWjEn5pVgp8OVPKNbx4SIgr5g1IBnTMD2oyBj7kT2gZExEJ+Q8q8hFHQ9Z3JEEkW11K0HIsCyy8KRVJRIxy0HGsJ5S93lCZQWzEFgxBMxtVfqq+d5cBUsQGbMjhozxR8xaJ9qaEj9LXHsKHaSWx6NOtB8+gccbvsSjrAw0FmShe5MDnv0lwJ37+hd4Xxh+l/4M6rWr2YZS9JzPeLjd2sw0plwI1FdqaZug3tKht6xQHSltdtOWXQgYpyUZSgWRYOG+RmOhGfAg6B3XifpcwNiQ1mHjYRgOxZSymQQmR5W1JFpMUulMDgDTb4DguFKOyjxVzRUrzlLO1+kPuS6A/i8YxktBhfjEyZiarHR0JK1FMy0KPW9XZIwm3/TrfhtRM7oLPQ9j1DmEoI96WfwYvHMblY71eLomDeVJ6WjKLcTgdzuB85eBthZgYkARMdTh4gu74DakWtgUo2RMAFSqG1JKc/3K7CJL5e+tw3TDPWCgw9izE1SbmfxCoKgNem7AN6YJw/F+3T5HXwKjfcBoP+Bku/Vra2VMdNqn1clwBmkCxuc1TSmnJwC/Cwhym5NR/tAkvC7WmQcNRbp1fFMaxsOFe0zDImMWjpsVw0LAQsBCwEJg+RAwxiaOTzyNR8boWebyFcFKeXkRkFfMXJaDjGG6K0XCxEPOImPioWLd+5QQENKFkmJmIkbuzweLD5KMESKGG6WUdE6IWyOow0KbzYVnGnBPad0uHj6j+Wk9+kU/lHI205crBR4vaIs7QAWlXq24VG0S4maQoEpSM0MMEzTCebQyU8ahklNKCJCxUdIHPm1FiUpP1cLXkLXgMypGVXpojLxoApj6cJT8DSV5jJIpllxKOR//7WagqjULnaPrTawodRRWyo5x9jg+pW1KtdmZ6E5NQlueA6ivURIrlJky3qR6E2+jusA78uqUlFYAgRDJC7YBD8A26/ICbjoP4OIWJo/eHqfaodIIbRhkj5IgbCNBlR7/s235Vf9guTU74dVKdtlfFAFDddX6TxN97Cdst16jDZMoNDveNynxpSJftm8/277RXiQvhRLvMU2/jsd0pV0b+espqSAbrcsC0ZwZ3MBWyEb1kFmwOzW24K1tSgH2L01vMqp1WAhYCFgIWAh8OghMTVE6E2hoaMCDBw/Q2tq6fJU3xid6JGPKJvqx9ugupJ4uxo57F9QCfvkyt1JebgSM16uySTQZ43Q6lc4Y6op59erVcldl1vSFgKHemO3bt0ckdSgps9RDFrCUjKHy3rNnz6K7u1sp1ZZ+utQ8rPgWJL58TAAAIABJREFUAolEwO12o7q6GlQwbSZjFpLHoskYkiB6m9IkaApYb1PaDUyMKz0Qy7lNiQsn0YyhdWRwlUXHJ8t9hBEOBxEOU4RO8xV6Qcm8P4ylHEspi89YX6H3iUvG1GVnojc9Be1xyJiEvmXVXKivRJMnqj8pymex7Sj2zZKBSGiJTZ0rNq94+TDMYutiymqhp0a20rZVdIuMWSiKVngLAQsBC4FPAgH+osnj6dOnuHbtmppYU/pAFoYJBcEYn+hFyZidFhmTUJBXLjHj9aoCLAcZQ1PPNMF++/ZttLRwy/r7P0iUkCT54x//iERbU5I+J2TMhQsXVH0vXbqEiYmJ919ZK0cLgTkQGB8fV6bXOX4IGTNHlLceL4qM4fKRv8Eru0OeCQzt/gG1yWvRsm83MLm8ZAxroBdZWgpAkzG0f0THJ8t98FMbu/CMd2+5y7H49KW0slg1+ypVi4yZScb4pxVhknBqgy9CSaZoHUZvt6uFvmN5s/TNbqHpzCe85GVuPby3Cg6j6lIyVaLZyBhaU7IkY1bBS7OKYCFgIWAhsLII3L17d8XImLQz+y3JmJV9/QnJXWZeTCwRZAxJCR5c5FEy5vLly7h165Za/DU2NiakzAtNhGX529/+ht///vf485//rHTGkLwUUnOh6ZnDCxlD6RtKxpCEOXPmDM6fPw8ueq3DQmC1ITAyMgKShhw/pP0utIxLImMUAeKZwPDu7ahLXovmvbuUGV1aGlouyRhWUJaBpIP0Bh5ju897+xXe/LmVEvHeh3EIfrJYNfuqBiLyw4A04332BDpSPkdr8lrDtPXSRRFXLVJuF+qyMvEyIw3tucY2JYOMEZwS9qZVQtwmRHKTqS81ZcZfahoLeTPMK+GoLKQA8cMaMEjJVKAYMmaGaWt/ZBPge0UvfuGtuxYCFgIWAhYCK4EAF7pXrlxRkjGy/z/h5TDGJ3oiGfPFsd2wyJiEI70iCRqvV+U9k4zZi6tNzxaswHe1kTEkXWjC98cff8RvfvMb/OlPf1J1lXIuFXRZzAoZw/7Ifsntg1z0WoeFwGpDgCTpzZs3UVlZueiiJYSM6d36Fdqy09Gw6wdgaGBZtymxpvzYyUJLL6Pkik+sYy4EZuJnxtKIKaMJfbcbuH4JHSlr0JK0BiMHDwAJ2Bc6VxlX7LnbhYm9u/E6KwMNGelAUz3gnza0sWisElu2RJIxiS3Z/FKTxjK/0O8llFEk+SqoPE1kTGPqWpCMefrNJoCWpmii3josBCwELAQsBD5JBLgA5OKPC78bN24o/RQEIlELzBmgGuMTPZIxtb5RpJwswpqjO1FSftPSGTMDrA/vwjwj0mTMELIO7Yb9SBGuNlUumYxh++RWOhIUy6rbaA7oS0pKFBnDrUqJ7Cfsh3KUl5er/sg6U/JgaGhIHlm+hcCqQYAkIfsk2+tij0WQMSRD+MfVjR/wONG1eT1aMlJQTzJmfPS9kDHywaOv6Rl9tlggPqV4REoWqrH+DDgZkIpjL59D27q/ozX5CzgPH/royZjRHT+gPyNdmUlXFox8nDJRr8tykDHSn6z2m7A+SChjrSnx5RkKfEnGtKX+fSYZY8GfMPithCwELAQsBD4kBFaKjKEdwcrpQaSeLMK643vwc/V9i4z5kBpOnLLKPJFTCk3GDCPr8B6LjImD1Wy3hNwpKyvDxYsXFUnKbUr9/bTwaR0WAqsLgRUkY7jWMVY3nnG0FdrRlJaEpqLdgHtaWS9azm1Kq+s1fHil4SAhA0asr2pjLGbVuceD0JkTaF77N3SmpcBz6uRHT8a8/nYLelOT0WqzAS+eA76ZkjHWun2Vt3njBZEuplOXxueK1pQazGSMaxrw0eqTBFzldbOKZyFgIWAhYCGQcAS4AIyVjJEtEwnPzBhuSMY8GX2JpKO7kXyyCCeayj56MuZjHmpZN/OcmjYy613DyDy8BzlHinBlEZIx0gbpczvExy4Zw77Gvsj6ctuH9ElKAlmSMcvxJbLSXCoCK0rGqE8OTS+7xtGYnYZG6owp2atNNPtpqldbu6VPq9LiaCnaOlYCgegQGDtg6MFDay5RJTOCqlfl9cB16ghq1/wv2rPS4Dt/VptYXokqvI883S68+PpLdKUloTE3B3j9MrJNacbi/n2UxcpjSQiIJim2bzVDoo7vphY0ZyShLfkzVG0uBKacAC1pSPdQjX5J2VqRLQQsBCwELAQ+MARWiox5OPAcSYd3If3kPpxrrYR3pXEzjYE8FXLBdHvRJWQasW7RicVEjJeu3GMdOH+jz3vLdTBtmScyL5Jtda5hZBzeA9vRj5eMMW8tWiq2Xq8XNBXMo6enB1VVVYqUodLi6WlKqVuHhcDqQsBMxpBEFAJ1IaVc1DYllUGYbIsPaG1CU3oKmpLXonLX90DACwSDEfJFSBjxLTJmIa8nUWE5RESHVPOVvksiRv9xA5qMlnwGnxdTZ0+g0ZaMxrwsTF+9APg+YgW+Hhf6dm1DY8Y6PFufA0wNAwG9TUkG2eUczBP1xj/1dPiOSMZEbKzxhiJjWtGalYr2tf8fmtbbgYAL8E8BYb+2U2+93E+96Vj1txCwEPgEEVjMBHqpMHHJWeceRfqRvbAdL8bV1ho1TC013UXH5/jHiZ+xzVfGUBlHlzI8Mq4kL7NRI6t5FVfii2+OFC9dyYN14A5lzlpJdPH+ch0sB+eJzJM+yZha1zDSj+xB9tEiXF6iZAzb6MDAAKampvDy5csVsS4kxAv1Y/zHf/yH0q/Ee4nsP0xL3HK9KytdC4FEIODxeEBHEpFK30Wqa6Htd3FkjPryhQC/D2hpQlt6KlpT16HlpxLA77bImES84YSl8fYwFVUZq6VhNA1DnSi0TxVLxviAp49Qa09BbUEWUF/5cZMxXhd6dm9DbfY6lG7MAVxRMoYDLB0RtY7VjQAnXJxAchLGSZF6aXx5Ta1oyUpF1xf/i5a8TGC0H/A59TSNTPFCZoerGwKrdBYCFgIWAhYCqxgBEgRtIRcyjxTBcbQY9543qznGihbZmOBw3OQYSsehUx1LmPwwKp2QJEyfTq7ludmXbOnzvrlMjKcOPoh5xnBy8DHLT+KLeJufSZhE+ZKXYKYUNLs1GZN1rAiXmhcu+SSLOvFpzYgHF3+8txKHEDLMO9FEDNOUuq5U/VYCUyvPDw8Btk+SL+wD4nhtJmTmW6vFkTFMPUjJGL8iY7qyMtGZkYqBS9zCMs0Nf5EPLD+YIhVD35KMme+rSVQ4fqxluNN+VA5G5GFIxASU4zM16nFrGYtAwq25GvWOVNTkZwLPWz8tMsY9EpGM4YDOYTAyCUjUK7LSSSgCbPFsuyRi6CITSZ40taIxLQndSX9Doz0N6GzUZEzYqz9OfLkrM79JKAZWYhYCFgIWAhYCqw8BDi8yxJAceAUgyyBjng30RMerFSg6y8Vh0jx2qrLyHwdVOin8IsrHqBximYzMpyQvITB4n8/jDcUMM2k4hlNlMQLyGfGkU894nyd0XK4Y9eLt5TqYNsvBOtGfAlDjHkba0T1YLBnDssaSE6uJpJCyJRrT5Uo30eW00rMQiEVA2u5C+mlCyJjn2VmKjJm+fxPwTFlkTOybWdFrGf44TGg3k4yJEjEkZOKSMRUPFRlTnZsB1D1TW5dWtErLmXmsZIxFxiwn2suStswbOSGiWLKamDEnnjS3oi5lLXpSP0dddgpQU2aRMcvyFqxELQQsBCwEPlwEFjKRXkgtOT7R8SBxMGIiY+rH30THKyPM+/Q4Q+SYye01QnrwnGOplFnKsxh8mAbzEDKGeVFihRIkdJKXwZ+8lSfvM9yE+ulQSqKHdpZ3FMAwgHGDDFEJGMyO5B1bj2gqSz9j3eKSMUdIxuzDpeaqRekEiv2lnduUeFA6ZiUO+fWfeS9m4TmfMkud5xPWCmMhsNoQkH4x33ItnoyhiEvAj5HbN0HJmPbUJIxcuwj4XG+RMZoCiM90z7egVrjFIiBDUPQtLIyM8SsCpt6RhkpHBjD0+qMnY3DlLGoyv0BH0TbAImMW2/BWLB5bPOdfCyJjQtR1ZYiDLedsbcVQsTK2ELAQsBCwEIhFgEpBRWEo9WBcv34dNTU1StQ8Nmwirjm8yBBDMoYEQvZhvU1pJcgYLnrl8Ab8mAx4MQo/DpXexKYLh5B5dDccx4vw1YkD+PrAHrx4Q1kevQinrgRZdIgvab3LZ44kVjhOk4zpC07hVms1dp89il+uXVL3iVEozjYc5hMMheByu1UaUwjhXlst1p/cj5QjO/DFqd3IPLcfJ+oe4aV/EtMhP4LUaeIPLLtoPsvMepGQEeKo1j2idAJlHS3GpebqRZExsjWJmHZ3dysTz319fQr7d+G8HM9YFnnXhw4dwn/9139FtmgkIj+mzYPtsrS0FNeuXUNdXZ1S5Gsp8E0EwlYaiUaApCgtf3V0dKikpX8sJJ+EkDGdmeloTVmnyZigxyJjFvIGlj2sGtIiUjGkxBZExvgCQF0l6h3peGY3kzFMV380l70K7zMDrwsWGfM+AU98XmyVc5Mxf0d9jiEZ43UCiowxuslH2KwTj7KVooWAhYCFwIePAJUuioTBo0ePImSMWS9GImtpnjmJZMxKkjGsm7muL6ZGUHT9DOxH9sDxSwmSDm2H7XQJbCeL8OXJA6jtbJ0Bhyw8xJ/xMOZCFtq8TcJiPOxDt3tM5Ze0+2sU/LQbJ69HyRhqMYwcPCWL4ze20gMYCrpxqvwuCo4XI/dUCdb+/D1SzxZj7YldyDi5F5vP/oS6Nz3qhxmVTsDQiRhJNLEnLCJJGHFKZ4yLCpqLkH20GJebqqNlWUDWQsaQNCRZeO/ePdy+fRstLS0LSCUxQYW8Y5mowPff//3f1ULU/G6XkpOkwzZJMubMmTO4f/8+aE3JMm29FGStuMuFwOTkpCINb968GSEqF5rX0siYYEBJxrxFxpg/oDNogI9y+b5QzN9zeBnBFikZY5AxDbkZeGpLMyRjOIWQ9EyD5XuuWeKzC2udR1fORCVjPKOWzpjEA72sKbJFzkXGvEj5DPU5SUDtE8A3DoR8H2eTXlakrcQtBCwELAQ+fAS4sOQikwtckYwxExSJrCHHJ5k1cSbFbTUkY+xH9mElJGNYN0occBHcPtCHLVePI/nwD4p4qR7sUZI793uakX5kF+zH9qKma/FkDPOilAoPbyiA58Nv8P3Jn7DheAmyjuyG7acdOHnzclQyxoSVAk1EagyJmotNFcg6vAuF535EyYPL6IEbEwAevWrHtpu/qPKW3L2IXjc3LpEl+fDIGL4XIShevXqFy5cvK2Lixo0baGxs1PVagf8VFRX49a9/jd/+9rcgiSllXGpRJB0zGXPlyhVcuHABw8PsLdZhIbC6EHA6nTh79qxy0n4XWsJFkDHGMBJwA2E3Ru9cQastDU1pSXBe4TYlLRnzzoJQDM3s1FdWhqi5fD2QvSuUznu2EO8smXooMecOuZgQtFcU/29mzWLSXkih4oaVmzpvLR9DGZmZcjJU6atD6AUtfH6gtha1OTaU59iA4SHAbyZjODoy7Q/9YB1CgNeNwNVLeJqVjtZ9OwHPhDZ/jEDk1473U9vo+5rZLmLvx+Ie+/zt65mtLzZ+7PVc8aMtKcpmCFG3HD7LYzS5t4sWKTxz5i9vdCRm1MGTlmbUp/4dvcn/g5acdUD1Y8BDMsavi28kL1Es30LAQsBCwELg40aACz86bol432TMYISMKVoRMoZD3qTXjTG/GyVXTuttSb+UoGmsX42dk2G/0h9z4PE1bD51EF0D/aoxcNEx1zYlps1hV4/HYXXu9mk9J55gAI0vOrHt2I848Ogatj+5jOxje3Hs1hU112Icxo0MyTzhTcN7EZxC5s87kXV0N07UPsJreAwFvjpQ9dgrbDz7E/JOleBS41NM+DwI+yOzAZ1Qgv9LfUk3MSdt2noU6YcXLxljJgVbW1tx6dIl8Bd4ttOGhoYE12Du5ChFRtfZ2Ynf/OY3+N3vfofa2tqEbesTyRshY6RPst7WNqW5348V4v0jQB1O7I8k8xd7LJiM4ec0BC9CwWEg+BpVB75G66Zs1GWlwH3+AuCcBqZd1CwVcWHuKzUc+CEOBoCw8VVVJZevLO+ZXeQzPKN+DEFVs3T+cAj+MH19HggHoV0AgbAfQbpQACHDBUNB0AVojiriwgiEwsrSk6iNkAGEJRA3oxC8kAez+UaE6ONY4kObk6ZJaXF6uGINGcuUh8ASTSxu/mFC6weCvpBaX/JakjKKE9czJytDZ5BDm2caaH6BqqyNeGjbCHjC2sJSZIg1Fyxu0h/ETbYPH0kmAlFRh6cbt6Kh5CdgyqXrG2Zr4/tbyBFGIOhXA5fYote+Fx6P4dzet9+jKgRzYis0XDgIRBzFdMVFTZErglOVUMfRPYTlprCvdmxn/AsYTloe92aLkxqSmPP6RUGctJAo+SJpSvgAJ0O+SYTCHoRDJGU9ALctvsuFqdnFEOpVFo1I9JnuybOIL7nN4bOZBkPw+Nn/tak5WoDztdSjMf3/RX/y/4Ou7DXwnjsBuJzGN0m3fNbUOiwELAQsBCwEPn4ESCoIGXP37l1FyFRXV0N0YyQaARlJmS5HO03G7IX9SJE65+i3nIc5f55z9B0Je3G47BY2nj6Irb/8hPo3lDEhmRCI6F4TBbucXcQ9TAlzfsNjmgt3g5RgfMZlnfkjCZ+xrlS8248wvn18EZmninHk9tXIjyiz5cV4JQ+vIffUfhQe3oeeaS35EvBFY4wijL13L8J+5gD2PLqqFP/Oczoct3rzuUkIWAI6zuBIxlRPDKLgzCGkHtyJZve4qltsWmx/3C7H7Q7yy7qQEhKWRAS3JVEihgQFpUW6urrksfLNxI08MKcn57LtiddmJ3Fm86WfyPPf//73y0bGsIzcniT15XYla5uSIG/5qwkBbh8UqcrFlmsRZIwsR8cBTw/qj27Dw/S/KTLG+eOPQG090NkBdHdF3fPO/7+9N22qK8myRH9QVVl1mbW9ysxqs7L3PuVrK+u2Z/XlvQ/12rozMyIUEvOoKTMjMyIyIjNCI6MmhBAzkgAhEFJojNCAGMUgBBpCM6NAAjFz72pbfs6+uA4XuJdBgst22Zb7cd++3X0dP9zj6/gAeOX5E2CgDxh5A4yPzglPY6JM0h8Bxt8C797MydiIQxBMjjuzcHj08vS0KwxPOjM3pseBaQ6kx4Ap6opMOBvQkhQyMgUz+4MzQCanAP6ITJCEGAfG3i0u70g8LSWjwJgl42yTLW+dNkqc0XUJrXfjwChlYr4wLSATwLsJYGySv3DAuylgjO3hTA9LpjhC9QinbRrh2X8+wEc2h5swvwWmhoDhAeB6AzqSv8Sl2O1A72DEkTE+3yympiYNYUcexHezGdd3f4OOQ7nOryrvMY9snxkDZscBzgojcWP6Gvsb+53IJPB22OnPXPpCg7NTlkxzgbYls8CMCOPJpBk2DZglcSli2aBOMBskOZmX5ZLY8JMQGXdJkXGn7iRGZlwx4UlgZup9Cfw1cV/VWAeTR2yIP2Zmx5nXKz9xGXWE/ce8gvE1bAlhvtl3gE/yEDO3/iYvCTJb3Bks8sZj+/zTxL48OQNMsE1e0hfAw3bcTfj/8Szm/8PDlK2YPF0EjL0FZmcNl7XWL2sBaDWgCCgCioAi8NER4GBUlil9DDKm18yM+bBkjAHd/Y5DcqSp7wn+Ul2A1PwMXGi+jdHZKUzAhyl+8Jz7XGJIBr4VzHMuEUOP+uZXn4d8uGESLiRjejGNN9bR1OPTM4b0ISH13bVKJBVn48QP5977HDOvLLPp8Qz2XjyNHSVHUHTjkrFBVsn/btq8crFkvlGcf9iK5FNH8e0Pp9CDaWNXRjDB7K40juXSvpAxJLRa3r1G7LGDSMnLRv6Ny6hrb8PNm7dRU12LsrLT6OvrM4QIP9TR8Ss7Z4Hs3bsX2dnZhnjhBrbcVJpLdU6cOGEICs6O4ewUuqdPn4Ib+tLZ5ArDtmM/X2p2CfOQCJL62Pk5I0aIHMZzVgyXKbFuJGq85dl5Qw2LDdpraGgwy7IqKipQVFRkNi4O1Y7qKQIfAgH2Vz4rH4GMkebNAhMD6P/xHBq2J+BBcjxak2Jx/4870JIa/540J8eB0kI/KRbNCTFoSYxFm8kTh5b4GDTGbnMkbhsa4rahnn5CNBoSY9CYkoCm1EQ0b09C845k9KUfsOQg+tLSHEk/aOL70/ajP20f+tP3oj+Nsg8DrjhpB9CfJmLlT0vDq/Q0zFScxuTZ+TJx9jQmquZkvOo0vML0qbOnMV1JOWNkqvIMHCnHVGU5Js+WY8JIBSbOilRisvIsJiurMFl5DpMV1UamKmowJ9WYqjiHqYoqTFVSqO/IROVZTJytxHRFBfqyD2Mgy5H+jEMYyDiE/vRs9C0oWehPz0Rfegb6M9Lx5kgWnu37Fk1/TEFd3FaMfvkVHkZFoykpBnj3GiDRZWZv8A+9iPSLjefzi4RDyEwBg6+BOw24kbwdHd99D7wedEjD133AcB/whtI7J2/7gIAwvgcYH3Li+p8CLx8Cd+uAu3csqQfuNsxJfy9AGXBlsAcISC8w2AcM9lsyAAwOWvLaqTfjXg8AQ/3AEOvr1nPyLTA54sgUyUyKS3iS9CTRxI2LeRIaw1yaNTXqzGjh7JYpplv6TGOcxNMe09kvuBGukCjupGHnWxhfNIKIIf7eAdMj8E8MAaMk+yaASZZLIYnq1s34vCaRGoSANSSZq8s6jQ4BI4PAGMkxV9puoyHpf6Ez/n+gfUcMRipKHeJsll+InK+E77++bLz+rDVWBBQBRUARCB0BGUjaZAzj1sLZb0z8RexxyZjUExkfZGZMoE388OQSI+V3bxoi5puKPDzkO475JOL8EoZDxlA3/9oFpJ8txYuRYWOf/41PTRuC4vqT+/iy6BiO1FZiZHYGb99x7g0MQZN+qRI787OR/0O1IU3kO0ugvlbg2egw/nwmz5AxVx92OCQRPzS64DIv94659LTTkDG7K3Lx8N2QIYo+NBlz+EoNdpXk4I+lufjF//v/4Bf/1/+JX/3qv+A//+f/A//pH/8Jv/71/41nz54FWvfTTz/hV7/6FX7xi1/gH/7hH8xSoL/7u7/DP/7jP+KXv/wlfv3rXyMzM9MsVSIZw1kyJESYh8LZKrb8+7//Ozo6OszMGxbCgeM333yDf/3XfzX5mNeWf/u3f8OjR48CxAqfgydPnmDLli345JNP8Nvf/tacoPSb3/zGlLPay5QCQACmHty4l7Njzpw5g0G+46pTBNYRAh+NjCEGw8Pj5gO8+eLf9xz9JfkYyjqIF1/txtj3X8H/3dfAX7+ak2+/BES++RL4+k+Y2JWKwdgoPP/0N+iL2mKkN2oLKD3RW/AqegtexmzB82jK53gatQXPoj/Hs+iteBq9DU9jtuFZbBSexUbjWUyMIwzTZsw2PI/Ziuexnxt5EbMVIs9it+FJXBR+Dkg0HsfFGHkUG22O6G6L24bm+K1oituCRksa4ragIX5O6uO34I5IwhbccYXxDXGfozFuKxpcqY8nwRRl5E58FO7ER+NOfAzqAhKLurh41MUloi4uCXVxybhtJAW34yjO9a34JNxISMJPiYlGfkxMAOV6UgJ+TE7EreQkNCWn4G5yqpGWpBQ0JySjOT4JTXGJaIxLRH18Iu64Uh+fgPr4eDQYiUN9QizuJMSgPjkOjTsT0bojEY9Sk3E/JRGXEz4Deh46M0PkVy/gr6OnY5lV4RTRntZW3Pnrt6hLSkTjjlR0fv0lbiUn4mZKIn5KScSPqQm4tj0eV3fE4wplp0gcruyMxbXUaNxI2oa6pG2oT4lC0/ZYNG2PsyQeTdsTAtKQkoCGlCTcSU50JMXZKLkuNRa3jcThdmoCbqUmWpKEWynJlqTgVkoKbqYm48b2JNzYnoifdiTg+s54XNsZj+7079GVvgddGXtwP2MPOtMcuZe+B/fS96IjfR/a0/ehLWMfWjP34XH+MTwrOYm+ijK8rq7AmwtVGL5wDsMXqo0MXajG0MUaDF04j9cXzuPF2XL01ZzDm8uXMPLTdeDBPfgfhi7oeQbfgw4M1P2EZxdqMHD+PIaqXampwVBNNYZqzuG1K4Pnz0Fk4HwVBmrPYqC2EgO1FRisrQDqrmP0h3N4VpqHjmMZuJ97KCA/fZGKpoRP0R7/KVp3JeNNxRlgnLN6nBdP+0V5md1IsykCioAioAhsIAQ4E4Av1TYZ410mslrNsX9jSMa8gh9JuWlIPZGOXvgNEbFaZS1oh5XgZGgOeCeHsedcEXYWZKL2YQuGzZJmJ43kCmfHUI9CksP5pfRYdhvFTzFfluRgd9ERVDdznxbOGOb3FWffmcNXzuGPJcdw9Gq1MTDFWcGcDQI/Mi9U4A/5hw0ZQ1ykzEBJVsFdAz3YWXgYO0uPgmTMG84WZvoYcwGcBM4ZOBcetSPl9DEkFWWjbfBVYMZKwOYqB1gFkj0i/GxZ86AN8TlpiD96EP+xKxm/jY7Gf/zH/8Cvf/1f8ctf/gv+23/77+jq6grUhEtx4uPjDflCMuaf//mfDenB/Vl4/U//9E/405/+ZGaMcMYMj7om4UI9EiMkbGwh0WLvLcOlP4z7+7//+/dIGCFkSAIJOcRZNAx/9dVXplyWTWFdmJ+6LNe2H2jICgLy7BGLuro68Mh5niAlp56twLRmVQRWFYGPR8bIXxv+lebfUf4R5Bfvgad4/tcv0ZcUj57PPsXAp5+g35W+T34HSq8lPZ/+Dra8+vR3ePnZ7/Dis99hdHsSXifG4MW2T/Hok/9lyBgSMg6hQqIlCs9iovAiNhovYmPwIjbWFYaj8TI2Ci9jt+Fl7Fa8MrINr2IceR4XhYdJ0bif7Mi9xCh0xG9De9w2dMQzHIW2hCi0JkahNSkarcnRaEtyxIRTYtCxPR5tqbFoSY5Gc3KUOSK3dXssWnbDDnThAAAgAElEQVTEonlnLJp2xqJxJ8mMeDTsikf9rnjc2UlJwO0d8bi5PQ43UmNxIzUOP6Y4cj0lHtdSEnEtJQnXUpJxLSUFV1O242rKDnTvO4jufWlG7h1IR3N6OuozMwLScuQw2nOPo7uoEE9OnUL/uWoMVFVjoLrmPXldcx79588DHW3wd1pyrxV+SmcrfF2tmHpw18h0ZzN8rY2Y/PE6Ln37LW7kHHZmV3AJTOCnmZ2APz3WL+WqdvUPY0z++NdVVeHqH/6A5u2pRpqSk9GYkIimxCS0pqbibmoqGkmeGNKExIlIvDltqj4pBs1xUWiLi0JHYgw6k2LRkRiL9viYgHQmJqArJRkPd2zHz7t2oT02PiAdsTHoiNuCe3GfuPIpOmM/Q2fsFks+R2fs1jmJ2YbO2G24F7sVHXGfoz1uC9riP0N74mdoS/wMrUlbcDfpc7Qmb0Vr8jbcTdqKu0n0t6HFSBRaEqON3E2MxpzE4G5i7JwkxOFuYjxaEuPRbCQBzYnERiQJjYnJaEhKRn2IQl2jn5hkCMKG+ES0JCSjLSEFbQnJaE9IQntCIjqTkvFgeyoe7diO1pgYtMVEoy0mypVtaIvdGpCfd6ege0ci7qXEoY2z67Z9avyWOOptw8PYWDxkGcm7cP33X2L20VPn7c3tahu7J3+Y50VLUQQUAUUgUhDgC7XXBYvz6iznmiVJaSQduJyGG9HGZP8NvWZHxuVYDSMPC3fZAr6913Q3mWOh/1pxEo+m35j6mFd7M8d1/jKlxUrim2FJ6y2kFmbjYM0p9JjZrH6z3V332BC+KM3BrqIjuPbCWV4jtl5PT+JAVakhY67dbzV1YN1YzWDOJmMa+txZJWzXhEPuTMzOYhh+NI/0GTJmx6ljhoyRpgezuVpxQsSY6nDPmOFes0Rpe142WoZ6zZIqH7cA5LZ/5iyTudOSQqkDyReeKtTd3Y2enh6zrIkkBd9hKey3i/VdLoPi/iucXbNv3z4z04WzXUQ4i4anw9DRLmekkNzhbBsSMSR8eIoSCZl/+Zd/MfmoG2xZUyjtCaYj7+PSFtsPpq9xisDHRoD7N3n3cAqnTmHvGUPj/CNj/pNxOP9kTr/FjT/vRntKIjig7Ixx5F5MDDqiowPSbgZRHEhFozX2fWmJi0ZzXDQ6tifh0Re70bfnr3iTeQA9e/+Gnr3foXff9+gxsgev9u9Fz4F9juzfjx7KgX3oPbAXffv3oG//9+g78B369n+H/v3fY2DfHiM9B/Zg6nQRxs4UYaKiBBPlJZiqKDPLimaryjF7zpEZ+tUVQeVtWSF8588C9TeAe3eBpjpHmuuAFlfM0hR3eUrrHSAg9UDvU6DvKdD7DOAPiZHnQP8LoP8l0PcK6OPSlT6gvx8YGXFlFBjlMhIuJ6GMO2HubcO4wN4504D5IiFLOdxrxpkNlLkPCWcDcEmHu9xEloLMjsEPRzDN8t4Ab98CY9zbg18f+BNJke8k0glMrwin760r3Ukui2GriHlbK9DUOCf3O4E7d4DaWoycKsPUuSpMVVdhMiDnAuGpqkrMcrZFRTnA08XOVQJVlUBlhSuVGM0vwOucXLzKOoRnB9PxIi3LyMuDWXiZlo5X6XvxKv079LjSm/Y9etP2zMnBveg9uM+S/eg9uB89afvwKm0vXqbvwcuM7/Ey83u8yKLswfOsvXiRvQ8vs/fhVcY+9GTsn5P0A+hJP4heV/q43C/tIPqNuEsAZSlgWjp6KemO35OegTnJRE96JnrSMtEbhvRR90AGevanGek/mImBtCwMpmViMC0Dr77fg2fffIsHX3yBzl27cDcpCXeTEtGalOAKl0g6cjcpAXdio9C2MxXP//ZXDGVmoGffXuMPpjttGsjIRm/2MTw7nIuO3ELMvuxziGW3R27snryuHiutjCKgCCgCioCFAH9f5DeGbx1ceMHjmRNz9q09GcOCyRa4r20kT7J/qkZ8YTqyL1WY2STyqU3e9ORtj298C5Ej0jzqNrx+YQiX3xcfRcvQK0lCSeOPhqT58lQuuic4/8ZxXF30YmwE35TnIzUvE1e6Ws3+MrQlOgEjbuDR8AD+UHoM24sO46enXY4eKzjpIDvp8xsy5vqrh0gqO4LfV+bh/tsBabbX3Kpee+/v+2RMz4rJGFk+x+X1dELCCBETSmPsGSaLER1MI8nCY3uPHTuGnJwc7NixwyxZioqKMnu6cA8Z6q2ms+vkDa9mOWpLEVgpAtL3+ZzY+ymFazdsMsacsIIpTHFA7v5h5wlEzsaj3FtieG4PCkMYjDkb7o6TMAhBSApwA1IKNw3lNfe34Ca/gfwuEWH2lOCpTVOOmL0kuN/EuLsHhrvxKokKls/Ncd+NAO9cf/StQ3Lw9KdxbtrLzXvnToEyhIYhMEhiuMJNtkh+mE1dubGpvRmrG56eASgmjZutupuycsPXGdlg2G2bbDJMYoR7XhjhCTTcsJV5iYOVh/tpmM1UXVtMCzhS7bNOXuYzG7pyU1ePmE16Z1ycuSEqw65YJ+2Y45iszWKnZqYw5XNOp/L7ueEpf5rtn55ARTZYwG828A1UWvod7w3vhznxh/eB+5W4+6sYIoxkmNVv2He45IV9g/3N7MPi9kduCC0ywv7snqLEQuVTivjmkwl3o6PIJxTr9CTR8/qBW+E+mCTMWHc+S+xPpl2TzkbPo5OAkSlgdDq4cDM8bgZtNoTmptAUNz/rb2TCeXb4/LDtwYRE3lLCZ5BEI4W6xp5re2AQ4JcaYs2+7N1wOLCJt/vcjdAO8Z5xNrB+w7DPqTvvAXEwuPB1z4+x0RGnF/ucRy7wphzoEBpQBBQBRUARUARWjkDgZ9qZU44nmEDKyXTsLszGgLvj2spLWcCCvBq4ZAyX0fzlQjHiy7Jx4kZtYEaKu42++ewWDhlD82/gR/b5M0g4mYHcpmsY5YlRs5P4U3ketpcdReGtK2b3OJ4XQUcO5fnMGL48X4SkksP4obvV5GEdgpExXNr0/N1bfFl+Egl56ahuq8c7nnTJk5Scn3TzEz6EWZS330FMQYax/XjiLSbCPhFzARwXifbe34ahV0g5mYXteVloGVo5GUPSRcgUZ79DZzbMIlV6L8medWITOQyT6KFNm2DhSTFCANl5aZSzbGQAyjrJwPS9Apdx4SVg7OtlmNMsisCaIiDPxUoKWQYZM4tJTICH0vGPDgeS8kd1kptk8kQV8+fVHinax/IuEQ6MTGfhMwP/6bX988kd32f88E/74OcmnrN++FxxphDCHHlNNbn2Au6b4THSPsfGtA+YEpkFpoSYcU/MmZ0FAnMU3V/EQJuJGQ9Qdo5QthH0huUPPnUdN4upyTG8GxnG7PQEfO+d9kMyh+SNEEMW+UIShnUSgQ/TrpjjwElC+clR8YhC1mLpryNuhTaMN0qCzjgSHvaMH96facz4JzHpG8fY9BhGuVHtKjkep85nR+6g1+zcPXZ0FruW/sEaU9gKvpfISxUpOwrjzG2kwmIihrxcEA/c4sZ/QWXueGw5Jpu+/UO6UFheBGZJYJqHzfp86ALDF4KZWcp04Kh6brzsiM99bsmB8hmeO/17cowsC+CbJuk2hfHZcUz4xjE9Q5nE2Ax7PNPJt5HA8t4JvVYEFAFFQBGIVAT4u+R1weK8Osu5lt9x5uXMmM6pIewoyMSfTh0zs2Tsz2vLsb9oHhYuLwt+Z4nUnsunsaPyOHJvXcSrWWdDXfsdgvUhacPlVKzvfKTml1jbcBs7So8iuewIHmIMV5/eBzfR/epcIToGuEsOX0dnMesD3vpmcH98CDsrcxGdl4bL3XPLlOQ1xC7h3fikWf707bkiROXsQ2H9NfTOTGBi0j1p0XlNRS9mcLzuEj7P3Y+//nAKz6bfYXTa+a237a122Ht/61+/QMrJTHCDZs4UGuf7vXtggDOmWHxZEevnHezJrJiV1H142DkOPBQbdvlCzNinMjFutZ4XlrXQe+JqlRFKm1VHEQgVAXkWSE6KY1+1nxuJX8gPm4xxiIJZcIaMcTy51w06X/E5wmOE/ElaTX+hZqww3h1Z+n2LDxxDKoXNDT5S5V9UR+ZhE5LloEoOGcN68w+YIxyc+g3p45Yn5QbYpCD3xErj3aWYmS/WH8ZZ+N2t3YJWZcNGCm7ObB/+/LP/OsI4n58vDTOmz7PfzxFgoTfZJickHHru0DW9d1ZaIryLmcVGc17Fha5DL3rZmt4fXq8hb/rc/ZI+731u54hTTjIiMSME66zP6du8mxT2aZJiZpLXlB/+SSq/fzyktz56rQgoAoqAIhAZCPDLvrw0c7PQqqoqNDY2BmYDrHYr5aeWdklutIz0YFfxIaSeSPtwM2P4YuCSLLk/1uLPFXnYf6UCP2PcfKMxHy+4+wAP7ADQ7566xBOKzAcdJ/v8/9m48VkMvXuHb6oK8cmJfah4eQ/pt2ux40wOcm5eNMSOf9qPifEp8+Ho1fQY7k+/xReVJ8GlTQ1PHpo68EPS+OwsuIxJ3lsCH365N01HHZJLj+DrmiJ0TrNm8tbm+B3Tw9hztRJxRVnIb7tplj7Z2M+v/OrE2GXw/tYNPAuQMdyg2ZAx7v4uwYiHYLWwZ59w4MdBHze3lX4bLM9Ccd73qYX0Fopfaf6F7Eo8iR1pF0+LqqmpwY0bN3D16lVwlo46RWC9IcBZYeyr7e3tgaqxD4dDmoZNxgRKsgJr/XBaRa1J0Fv/ha5DLXyh/BIfqp1w9MQ2fXYCih3HcKjOm897HaqdjaLntE8G9u5bilt5abuN53LaJXZsfzl2lpvnY5UbSn3tujHsdd70cK/leaBPMoZk2AzmNiYkWTM3S8iZ8mOX4a2PXisCioAioAhEHgI8TUnIGHupxmq2VAbr9DlYb/4YZIx7rDXLv/3sAXbnZWF32TGcuVdvZtCyvUzjNq4kYrJ/OIcdJw/h+PULgfSgmLBRZvW+H6dabiGuOAtfXjuNP14sQXJRNq4+6XQ+c007v7/86e3FLLizzO9P5YD7ydz6ucsQJ/ab2NvxCbyZnTZ1YrkcknNz3qhj+xCTl4YLr5w8b3wzRmcQflQ+vov4gkwk5meifZKLlj6Mk/vL0gy+/U8MGZOSm2ZOyxrnZ70wyRgZ1HHjXvbPixcvmpO/OAAM19nvNgyH61aaf6nybHKU7eN+NWwvSRk92nop9DT9YyDA/WKuXbtm+qiUz+dExo0St5ivZAwnCYS4lGIxIO20pezZuqsVtsuUP/R2HMOhOm8+73WodjaK3lz73NlAVsUlTR4qXq/Uic2V2gknv5S5GvUPp9xQdO26BaufNz3ca3ke6C9ExpjVaWabHs6SeX+mTShtUB1FQBFQBBSBjY3AhyBjiJAM2A2pMOrMjNl+Iu3DLFNyX2FITpAs6MM0DtVWIP7QXkOGXH35wBAwjzGN84/v4cuyk0jOycAXpbk41Xhz6aO33aXXnUN9+HPZccQWZ2FbQTr21p4yM39YPGe9kGzpw4xp8yPMmCVMPKqahBA3NabO2JSzrKj98SN8mZOFosu1ZrkxMw8BSL9YgS1Zf0VqfhYuPGg19p/MvEPxnWvYWXwEO4qP4OiPzl44pmey0JW/wi3ayeXeUon43ux7jJSTGUjJPWg2aOa+NYu9wwQzzncXzhjhCUpFRUXmWOvz58+b62D6i8V5y15MN1jaSvMHs2nHKRljo6HhjYAAn83KykpDHJI45TMSrlMyRsmYeX3G+8fWez0vwwaPWKx9kqZkzNrdZMFYfG9JEr9cPxgZw+VJnG5tFlVyfxlDxHC/5PkvSt766LUioAgoAopAZCDAwR9fpunsZUoS7/3dWa1W83WdZEzTaA92lxyGkDEyWF+tct6zYzEF5CVIeAz5Z3B/uB/7ThdgZ046dhcdQXJeBpJzM/CHwmNIPnQA3xafwA/32wLHXr9nM8jFhN+Pt/DjxJXzSCk+jF1njuPHlw8DG/Ny/xkifuPn+/imKAe/P5mN7flZiDu2H5+k/QVfF+fg3I/XArNZck+X4c/5R7C39CT6nveYEkd9s3g6O4bvKguRnJOGlMP78WXBUfy1LA9/LjyKlOPp+FtFAR5NvMUQT8vkkuXBdw4LFKTOqxVlQeySMY/MBs0kY3rAmTvz3zHsPuatB9Po2Ee5fK6iogIkYqqrq9HS0uJVX/LaLktsL5nJUlhpfstU0KCSMUFh0ch1ioA8Q5y5RTKfywg55gjXrQoZE26h60Xf+0dlqev1Uu+l6uFtx1L6mr44Aorn4vis91T7/sl+PWavGHezY7NfDP92umLrM6xOEVAEFAFFIHIREDLmp59+MoNc7lHBOA4M1+r3gL8sZmbMu15Dxhy4eAo/z47MG6yvOurWT5ozO4Z7AQIv3r1F+c1r+OJ4Fv6Ym40/5xzCX44ewtXmZvzc2xfyhBIheXjCUf3PD/Cn4mPYW1OGHkyDO7u8c4VbXT4eeY2vj2WZWS8s9/cnsvCnsuP47nQ+yi9dxPSsH2MTU7jScMfEHbtw1pnZ4nBnBr/HUyM43XQTXxUcNWTMjsMH8LeyPFTfazLkB49nMEMj5uEXGHOx6qgGDBJegZgzY5rfvjRkzL6LxGA+GRPIuEBA+ib7YWdnp/kCf/bsWdNPHz9+vECujRvtJWM444BSXFyMFy9ebNyGac0jEgEZI5SXl5t++ubNmwAZI2mhNFzJmBCXKIUDaijAr6UO62rLWpa1GWzbWG6kfrAZ7k0obbTv3zwyhqekuSSMkjGhoKk6ioAioAhEFgLyJdMmYxgnA0OG7d+R1XgP4ICdM0TuvHmOncWHkH65HC8wAdlTZLXLC3bHhDTgJrmTPj96R94awoR7xZA04UlKhruwfyODGXLjaI98B/OxbU+GB3H7yQM09z4zdkfhN8dQk4QiUfF60tkLZnh2Gq990+jHtNlXhZsGS924ae/w1KRZliTnXsqUGZeTwWv4zUbDPBqcOlzmxDiWE9grRsgYMbxIO1aSRPNShJeMeQXuexPe+7mQMazTZiBj2F55vrhnDGcAcdZBWVkZent7V3JrNK8isGYI2GSM9F/xQylUyRgPceH9AbSvQwF0PejYdQ6nM6yHuq/HOiie6/GuhF4n+/4pGRM6bqqpCCgCisBmQEDek2wyhu2WgaH9GyLhleJCfoOExfW+h0gpyED2tbPgxrMT7gavUo74Ky1vwfw8NWli2hyGKjqsmxAKJo4XZDUMMyNa832qCRnDmS8kdLgUisuWnFk4wBSXAnNfmXmFOPbImUhxUsK7ySlD3gj5IvE0wfLGzab8ThV5LXWnb4rhf64QT74HrJWjZbEejIwJ9+jyzUbGCPHJ+0Myhpv3Ujg7ZmiIOwWpUwTWHwJKxqzgnsiPXKj+Cor6oFm97fmghUdgYYrnxr6p3vvHF7HAMiWdGbOxb67WXhFQBBSBFSLA3wg6LxkjA0Pvb4joL6tYd6ROboBkxaWXnUgtzDRkDGekfGgyZmTobYBk4Z5p7zleihhW473UoBckTGRmDMkmcWJ5enoWmOF51RbBI2TJLOCb5gVAPR/VfH6MjU9g5N2YySLVoQ7TKbYbGgnMnzF5mV/02Dz5IGPnWc2wXT8hY5Lz0sBlSlzstdpkzIr64mo2fJVs2e0hGXPlyhVzrDVnyLx96xxhvkpFqRlFYNUQUDJm1aBUQ4qAIrBZEOALU4jvlpsFEm2nIqAIKAKKgIWATcZY0SsLuuQBf39IxlR2NWBX6WGkXyrHAHwBMoZl2+UHCCGLH5GB/3L8YI1YzE4wfW8c87NdsiJIZrkwXriXGWvJl8m/UKFe49Z1sCws1xZbxxAwFm6WqVUPSrk0TDKmYfi52TMm+8eqZZ2WZZMT4+PjZpPpe/fumSU73Cw00C/cWf6r3qAPbNBu7wcuWotTBJaFAJ9L7mfEZYTLdZt6mdJyQdN8ioAisPERsF+aNn5rtAWKgCKgCCgCq4mAPdBdNbv84XGJA5IxFV0N+P2po0j74cySZAxJBWa3SYflhOW3T/xQbbhVXxSKUOvH2alB7UmlvKV44kMtx25b0PK85azw2q4myZia7ibsLMrG9rz0Zc2MkepIX5Rr25c0JTJsVDSsCKw9AnzmuJSQR1pPTPCJX55TMmZ5uGkuRUAR2OAI2C9NG7wpWn1FQBFQBBSBjYCA+8PDmSLcV6WiuwG7Tx1F+g9nMLjEzJjVImNIUMjvn01WLBVmnqUcdZayI+lB7UnF7IIkzsrAoNgJ1bey29ZXNSxVpVEOzc7cvYldxYcQlfWtOU0p3GVKUjmbcOGMKQ7+KN7ZU6KvviKgCKw9AqtFgCoZs/b3SktQBBSBdYiA/dK0DqunVVIEFAFFQBFYYwRW62U65Gq6PzxCxpQbMubYBydjQiUwbL2lfjMl3c6zWJj685wYkQS5Ft+N5+VitoOlMc9aO7uaJGPOP2jBjoIs7MzPwivMhL1nDOsrfZTEC7/C0xdnkzSiJ2nqKwKKwNoiIM/k5OQkuFxpuU7JmOUip/kUAUVAEVAEFAFFQBFQBDYsAvbAtrm5GZcuXUJHR8fatccdrQfImK5G7D6Vg/SL5e+dpsR6UezB9mrOjAlGVoQSJ2TDQn4oNkSHNua5hQxLvJuBl2InVD9oefMqsLIIu5okYzLOn8b2/CyknkjHS0wvi4yx+yhPFBoeHkZXV5epqN0/Vlbz9ZHbbuvDhw9RW1uLy5cvG58DXnWKwHpCgOQolyfx2PW6ujpDyDBOiFH7+ZS4YPVXMiYYKhqnCCgCioAioAgoAoqAIhDRCPDFWRzJGA7+WlpaAi/TkrYqvjAI7mFCPPenvLvJJWMqlkXGyOB/uX6oRMZa6LHO89xSDXEziFo49Qpa3rwKrCxC6kMrJGP2VRYh5WQmdpzMQg98yyJjZBDHDXvPnj1rThg6f/48BgYGAmTdymq9fnLbA1mSMTylpqqqyvgkodQpAusJAfn9IInvPfHLS8TIcxys/krGBENF4xQBRUARUAQUAUVAEVAEIhoB+0s8yRgO/BoaGgL7caxq48kGcLTukjE8qPeMS8ZkXKzAa/gXPU3JOzNGCInl1lHyC4Hwof2g5IhUaiHfaqyohFrvoOVZ9hgUm57okC6ZV+rCMMmYb0tzkZSbjt0Fh/EawFRIluaUZABH//nz5yguLjaEYU1NjZkhI+lzOTZ2SMmYjX3/NmPt+QwWFRWhoqICT548CUAgRE0gYpGAkjGLgKNJioAioAgoAoqAIqAIKAKRiYCXjOELtUw3n56eXt1Gy2jd7xz/TDKm7H4Ddp06DpIxQ2YA78eszxcQvujbwgrRzHuOEYvJe8rzLxbL6k0TsmEh36u/2PX8moQfs5j9hdIWKsWrv5DeQvHMT1zkSO8xAH8oPoroEwewq+iI2bA5XDJG+iAHdjzSmjNFLl68aGbIvHz5cqGqbNh4JWM27K3btBXnjDXOirl69Sra2toCsyrt35alwFEyZimENF0RUAQUAUVAEVAEFAFFIOIQINEhL83Xr19HZWUl6uvrzT4AMjD0kiHLBkFG6xYZU9JxB38oz0NB/TVwEcY4/JjhcakuISNlw+eHERbuZQ1Wch1GY6SYpYiYMEzOY5a8Zci1+GHZ9iiLjcV8aZvoeEwseilEDAkX7gn06N0QPjm+F78tPICU4uXNjPGSMZy5xVkxZ86cQX9//6L12YiJ8syx7lymxGVZbHNpaSkikXzaiPdI6zyHAPsrHYkYPpfd3d1mk+05jdBCSsaEhpNqKQKKgCKgCCgCioAioAhEGAI2GcPBH5cpcbNQxgsZIv6Kms4RPkfsFhlTeq8B20uOorTlpiFjuLRl1ufMjpHyA0QMCRlhCSxb78XZ6aIjDINb9qL63vz2daiNt/MsFbbr5NpnFqkyw/PcUjYXSp9naC5iGVnmMrsh1plbzHI+Ff2m/uf4pDAN/7MkDYmF3DPGH/Yypc1OxnBvHEqkkk/zOpFGbCgElIzZULdLK6sIKAKKgCKgCCgCioAisN4QINFCx5kxNhkjBIztr6juLMYlH/g9lcuUTnU1IT4vA5WdjWbPmGnqzJCt8TkiM2JmudGMRcbYJMZCTILEC7OxkM9pHMEkmL7YXMgPlieYbW+c5BO7ArRciy96tu+1Jde2TrCw2BRfylymzyLGOKsJwAj8uHC/BTGnDuOTskzEnkzHz5gwRE045jcbGSPEKDHizBhujMrTlDg7RjfwDafnqO6HQCAYGWP34VDroDNjQkVK9RQBRUARUAQUAUVAEVAEIgqBj0nGlD9oQdSxA6h+0Ip+zGBBMkZIGSEOxF/qToie7QcjJiROiAz6Emf7tp2Fwra+N2zbt8PUs+1Ju+w4CXttLvda7InPMhlepmM1RqenjYkh+FDWeANJFcex9dQhxJxIQ/fMSNinKclgjwM87hkT6cuU5FnkLSAZc+3aNSOcHTM6OrrMO6PZFIG1QYDPJ/usvUxJyZi1wVqtKgKKgCKgCCgCioAioAgoAstHgAN9l3SQmTFnupuRcDITp9vumA18x3yzmOGsGNdNTE1ienbGZJM4+tSYnJkOypcwTWQF3IJdXCAsTZCJOrbv8EXOhsOBDBssYM+CCi0M+H2OsP10xJ6znvJuXcHvju5BYkUuonPTUP/6JcbDxEMGdqwLNwrlEroXL16Y/VMYp04RUAQ+HgJ8Pimcwcaj5umW81zqzJiPdw+1ZEVAEVAEFAFFQBFQBBSBzYCAMBnW0dbH66+aZUqcGcPv/pwsQqJmzDeDN1Pj5trZg8Q59noSflDG/TMY801jHD6zDwk3jQ0mzOsV2g9V7Ly0z+tg5UhaqHa9erZd7rfCvXMoDItIuXadvHaWurbzesPMu1I3xRsIoBd+/KEgBzEns7D7XBFi87Jwe/Al3i2jACGFmHVqiiggsOn0MsxpFkVAEVglBPhsCiFD335WwylCyZhw0FJdRUARUAQUAUVAEVAEFIGIQGA5XzGX3XAPGTPCPWM6G+oHFjkAACAASURBVLHrVC7OtNej7U0fHoy+xtOJt+jzT2AIMxjEFIYxY/YgIVlD4ZHJQlBwpsUY/JY46dTxComAd/C/J6Pw431xypCyWEfO8uA1w7YvOuLTvl2mUx7z2GW8b1/ySjlvALORMU+WEmGcCOsiIvURGyv1WfeVuvEJZ6XTc/ixI+8ofn+mEH/5oRLx+Udwc+CVwWc5ZSx3kLecsjSPIqAIhIaAkDHyfIofWu45LSVj5rDQkCKgCCgCioAioAgoAorAJkGAXzM/mCMZ4wonUJA8KGmvw2eHvkfq8XTsOHoQXxcew1cFR/CnE1n4Y046dmTtwV/yDyO7ugwFP9Yi54dKnLxag7Jbl1FR/yMudTbhUmezI/eaceleiyOdLfjBlYudLaBwQ9nzXc2o6Z6T6u5miJj4rhbUdFHP8Rmu6b5rpLr7LtIvlCNtQTmD9AunA5Jx4TRqupvmymPZlt3zXXdxvqvVSE1XKyjVXW2OdNNvR42RDtR0daDmfjvOe6T2fjtqO0OU+22ovd+K2vt3XWGYcY78cK8NXQMDeNBnyyAe9FnSP4AHtpi013jQ9xrdfa/R9rwHza96ca3nBZLzc/BVbQW+u16LhOIc/Djwco6MYT8I0Ukf5UCPbnw83MVOIRakaoqAIhA2AvaMGCFj5JkN1ZiSMaEipXqKgCKgCCgCioAioAgoAhGDgGyQygZxP46LFy+ivb19TdvHITXJGM4cybxyDqklR7C96DCiD32PnQVZ2JWfhd0F2UZ+X3QIuwuzIf6uwmzsLMg0kpqXjuTcNCTlpiE1Pwvbiw4hlVJ8GMlF2UgqzEJ8foaRuJPpiCnIwOfF6dhSmjknJen4pOAAfpu3D7/L24fPTh7A1oJ0RBVmIKYoE7HF2YgrOYz4siOIcyW65BC2FWViS0E6PitIx5ZC2nVka3E6KNtKHIkuyURMSVZQiS7KQkxRNmIKshFbeBixhUcQV3QUCUU5SCzORVLxCSQX5SG56KQrDJ9ASlFuQGKOH0Js7hHEnTiKhJM5S8gxJOQfRkL+ISPJhUeRWnwc20tPILU4F6lFx7Gz6AR2FTqyszAPOwtPYmdhvpEdRSexoygP24tOuJKHL8rLsLusCMn5uYg7fgQxxw4hqfAEovOPYWv+EWzNP4zo4mPYVngYdWODc8uUXFIulI4mJyrxuPWREc4HQmB/ilDybyQdIZxYZ27gy417b968aTbxnZjgwjV1isD6QoDkKJ/L5uZm9PT0BPaQCaeWSsaEg5bqKgKKgCKgCCgCioAioAhEBAIy0GVjSMZw8MeX6nC/bIYCBsffsrEufS6LKWq4jl1lx7DvcgVKO+pwrqsRNfcbUd3ZgKp79ahovz0n9+pQ2VmPs10NqOpuxLkHzajsakRZex1ONl1Hzp1L2HPhFL63JOVkJijJJzORWJBpCJZtxZnYVpIJ+p/m7ce2ogwknj6K7VV5SDhzNCCM21qQga0FmQH5JO8gthVnI6H8OFLO5SOq7LAjpw4h6lQ2tpZluZKJrWWZ2FryvnxekgkK9baVZiO67DCiS48ipuw4Yspy8enJLHx6Mhuf5R3CZ3mHseXEUY8w7pArh5FQmo/UilJ8UXsWX1+pXUJq8PXVc/j66llXqvC3G7X46koVdteUIaWiANvyjwRka/5RfJ6fg8/zj7uSgy0Fx/BZwVEjWwqPIao0z8iWQidty4kjiC85iejCHEQVHMWnOenYdbYYn+dmoHF8yCFjhIihH4KTfWK4QWhxcXHguOdIPF3Ifu5Ixpw5c8a0l8/l0NBQCGipiiLw4RHgb0dNTQ26u7vNZr42yR9KbZSMCQUl1VEEFAFFQBFQBBQBRUARiCgEZKDLRvGF+uzZs6ivrwdnIYT7Qr0UMBx7c0YMhWQMv/O3vOlBwtH9OFB72ixbegN3Y17/jNmklxv0UibADXwpc5vbcrHKG9+MIXVk81nGiZDs4ewb2bPlLfx4/GYQD9868uDtILqG+9He/xKNzx/j5pMunOtswtn7c5J5qQqZl84ZybpSjYzL57D/Qjn+VlWKr07nY2f+YezIP4zt+dlIzctEcm46Eo8fRELuASSeOIjkvHRDBqXkZyGlIAvJrnDWTlJhNhLzDyEx/7DZUyWu4ChiXYkpPIqYgmOIKchBbMFxS3jtCGefUJgeX3QCCSV5QYTxIrlIKMl5TzgThzNyovKzsS0vG9H5RxBbQJvHEFN4zJAq0YXHIRJVlINtlvzmeCZ+d+IQPss/gqiCY2Z2zK7Ck0g9mYOUvKPYkr4XsUcysCP/GPrczY9lqdpS/UXSSVCwL3KgV1lZierqapSVlZmv8KITKb6SMZFyJzdXOy5duoRTp07h9u3b5reDM7zC+f1QMmZz9RdtrSKgCCgCioAioAgoAooAN8Kd5Fa4jiMZU1FRgbq6OrMvhz1rRnRW4pOMkdN+GOa5OO3Dvfi6OAcnr9caUoVETWCw7pwVDd+sD/DNHRktEyroU2Vm1o+JyWmMjc21JdR6miJcZZZNAkc2yKXPTXQ5H4HyGsCg63NDXVtPwq8wDUcm8QqTaBvqMdI63ANHenF3WKQP1548wLUnD3H1ySNcfvoI5R0tOHOvBacDchen7y0sZzrbUNBcj0PXL+PAhWqPnMOBC1U4cPGsJZU4cLEiIN9UFmHfhXIcvXUJ+c03UdreaEkTStqbUdLhSHFHM4psudeM8p/v49zLx7g0+BI3hvtR39eLzuFhtA0OoHWgH009r9A9+tZsfkxizJBmvHG2LHKzZNkOB3aNjY2GLCQhU1paisFB3o3IcvYAVmfGRNa9jeTWNDU1mVmVXOYqy+nC+f1QMiaSe4e2TRFQBBQBRUARUAQUAUVgSQSuX79uBrskZUjS2F/pl8wcggJnw/A4ZZnFQvKDJEZz7xM8fTdkyJlZjtJdEoYDcZ9XrKVOM/AbW9M+x+as3xnjh1CVBVVYJxHWU46TFp90D2fn8FrCvJYwZ+U4pzv5MAaKPzBTh2kys4f6k/45mfA7M3pIBsmpSNwdZbVEbMosIZazlDiziubqQxusjxBP9OWUJ/rUJ3ZCtAjfwvvOeF6b/xhBEQWTEPyWCDnBvtDZ2WlmxVRVVZmv8MPDpMoiy9nP3Js3b8weTlyixNlADx48iKzGamsiAgH2Wc6m5HPJ/Y2E4Lf78lINVTJmKYQ0XRFQBBQBRUARUAQUAUUgIhGQ2QckYzjo41fOcL5qhgqKl4zhGPz17ESA3CARY+rikjE2KcN4I9YYnkQNCZgZn0ugkMeRQX+olfLqsVI2WTAL+H1zwsOnKLYaiQZmoU8CZ5pT9P0+zHB5jc/v1I91nAV8rvhngGDCdOrN+vwrFB9mfZRZIz7MYk5IYxHtYOLjXXD/zUFht49tFCG5JkIdAwQTCYaI4Gn7BFDEew+sayFjGLWZyBj2dZIxfB65dJAz1jo6OixkNKgIrA8EvGQMl76av+NhVE/JmDDAUlVFQBFQBBQBRUARUAQUgchDwCZj7EHwarWUY3F7ZgztcrxOR2LFsBYz9D1CxkWERmQQzzgSIyRM3Ak1QpKIimt+nrdguiSIL4QCfZeUMaeBu7NwhF+gOsOmmqZdDtVBYmbaT4IGMDN4OItnUSEJ45AoPt8sjMzOwheO+GbgMzINn48yBfin35cAhSJUivjCpMwBLdQMfVI1Il4qh/FzN8cN88aYI6nlOjy2zO6Hm4GMkUGskjHzHlmNWKcIKBmzTm+MVksRUAQUAUVAEVAEFAFFYOMgYJMx4UwxD7WFHI7LUF/yvHdtWAoPEWMTMy75YlgPi/nwz/id2SsWQSK0gJTj9RdMlwTxhW1xfZklI7yDqNE+w3OTehwyZsaQMSRkRBxShsRMQAxZw9k0nEUjs1kcQsXvm4F/NkzxTcPvm3pP4CchY5EyIZExnsYHaBihY5b2HYrKtkOUQnd2P9yMZMzVq1fNaUoXLlzAkydPQgdONRWBD4SAkjEfCGgtRhFQBBQBRUARUAQUAUVgcyAgX+hXs7WGrHBnkIhdiTPXwmQwMlThxr7u5r5mAoZrWLJLOcv2xZDtL2Fs3j43gX1vbLImWNjZI8fv98Hvn12hzMDvn5O5NUMy1ccmSOyw3dDVDi8BXJBkux+Oj4+bPSkeP35siAnZmyJItoiIYts50OXsIPoUxtmYRERDtREbHoG3b9+itbXVHL9uz2YLtWG6TClUpFRPEVAEFAFFQBFQBBQBRUARWCYCMrwPln05g0wZnIofzO6HjpO6BPedVTuyemfOd/fEMYNtDrpXg5CZI3Tmz1D50KisrDxiSUdCQp0ioAisPwRIyCz3+VQyZv3dT62RIqAIKAKKgCKgCCgCioAisCgCXsJjUeWPkOitX+jXQsisjj9/qtFHAGOFRQohw82lGZYjdFdoVrMrAorAR0ZAyZiPfAO0eEVAEVAEFAFFQBFQBBQBRSBcBLzkRrj511rfW7+Pdb3W7VxL+8TMdlyupE4RUAQiBwElYyLnXmpLFAFFQBFQBBQBRUARUARCRMDed6OhoQGVlZW4d+8eRkZGQrSgaorA2iIge1DwyFzOhhkcHER7e7sp1EturW1NPqx1Lvs4f/48Ll++jFu3bkFJqA+Lv5a2NAKyLInPZVdXF5qamkwm6auhPp9KxiyNtWooAoqAIqAIKAKKgCKgCEQYAkLG8KWZZExVVRVaWlp0CUiE3eeN3BwuS6IjCVNRUWEICpIUJGdCHextlPazPeJIxpw5c8YQpGzv8+fPJUl9RWBdIfDs2TPzXFZXV5t68dkM5/lUMmZd3U6tjCKgCCgCioAioAgoAorAh0BAyBiWRTKmpqYGdXV1ZpArXz0/RD20DEVgIQTYDykPHjwwA77a2lqUl5cbcibSyRiST2wrhTPW1CkC6w0BPpvd3d0oLS1FSUlJoHrh/H4oGROATQOKgCKgCCgCioAioAgoApsFAS8Zwy/wN27cMM2XGQmbBQtt5/pDQGaKcKkSl0CcPXvWEIYkKd68eRPxM2MuXrxoCCi2u7Ozc/3dIK3RpkeAzyhnxly4cAGcGRMOCSPgKRkjSKivCCgCioAioAgoAoqAIrApEbh+/bp5mebMGBIxcmqNPftgUwKjjf5oCNgDO35932xkDNtL4fLBhw8ffrT7oAUrAgshwN8Hzlrj7C3OrJQ9nhbSDxavZEwwVDROEVAEFAFFQBFQBBQBRWDTIEAyhoM+IWP4Um0TMQyrUwQ+JAKbnYw5deoUKNw7Rpcpfciep2WFioCXjLGf2VBtKBkTKlKqpwgoAoqAIqAIKAKKgCIQkQjYZAyJGL5UKxkTkbd6wzTKHththpkx9o3hBr46M8ZGRMPrFQF7Zoz9zIZaXyVjQkVK9RQBRUARUAQUAUVAEVAEIhIBm4zhC7WSMRF5mzdUo+yB3WYkY65evYpr164Z6e/v31D3Tiu7eRCwyZjlzKBUMmbz9BVtqSKgCCgCioAioAgoAorAEgjIjJgl1DRZEfhgCHCz6cbGRnNyC4+55rX0U/E/WGU+QEFsE8komaVmk6MfoHgtQhEIGYGJiQl0dXWZE85CzmQpKhljgaFBRUARUAQUAUVAEVAEFAFFQBFQBNYTAiQn7I2lpW5CxNBXpwgoAh8HARIyy3VKxiwXOc2nCCgCioAioAgoAoqAIqAIKAKKwEdAwCZilIz5CDdAi1QEVgEBJWNWAUQ1oQgoAoqAIqAIKAKKgCKwMRHQgezGvG+bodbSN7lMR2bG2O22CRk7XsOKgCKwMRBQMmZj3CetpSKgCCgCioAioAgoAorAGiDAge6NGzdQWVmJR48emb041qAYNakIhI0A90yhI+nCE4bevXuHZ8+ehW1no2VgW8+fP4/Lly/j1q1bGB8f32hN0PpGOAL83aCTPWPq6urM8ynxoTZfyZhQkVI9RUARUAQUAUVAEVAEFIGIQUBmHXDAa5Mx4b5MRwwg2pB1hQD7J2fDCBFDsrC2thbV1dUYGRlZV3VdjcrI80hbJGPOnDljCFKSMs+fP1+NItSGIrDqCJAc5XPJ07+Gh4cxNTUVVhlKxoQFlyorAoqAIqAIKAKKgCKgCEQCAjL4EzLm7NmzePjwoc6MiYSbGwFtECKG/pMnT1BSUmIIiqqqqgho3fwmyPPIFJIxFRUVKC8vN3Lv3r35GTRGEfjICJC457HzZWVl4HPZ09NjZsqEUy0lY8JBS3UVAUVAEVAEFAFFQBFQBCICARn82WTMgwcPIqJt2oiNjwCPr6bjl/a2tjYzI4YEBUnDSHTyPLJtJGMuXrxoliqxvZ2dnWveZLv8tSiM9te6jOXWO9x6hau/3HpthHyctcW+WlpaiqdPnyoZsxFumtZREVAEFAFFQBFQBBQBReDjI8A9OPh186effjKD3K6urvcqJUuWxLcTZUAivp22VJj2ZLAtuoyzhfEy5Z2zI2T/ENEXn+Uzn9RDwvSXcqJL2wzTJyZeZ5fBOklZUj+vvlyLnlyLv1A820nHdIbFPn3Wz5bFbAWzL22V+vNayqLP8mwR+7YveSSO5YhInPheXYkXn/m4F4r4Ei++tJ33pKWlJUBMcJlSJDriII5kTE1NjSGguEzpxYsXkjTP5z1jnyVO0o/lXts27YyMp9h6EmfrLTds91exK/5ybTIf20pHW6E66gouUgdvftGRePEXKkP0F0r3xhNn1mG5bnR0NOSsgtFiGVh/CuslIvqMl2dP4uhLHvEljQQMSVIKyfxQype89HVmjI2GhhUBRUARUAQUAUVAEVAENgUCHMBxjf/Q0JBZ829/gbdfyAcGBtDb2wv6tghI8uJuDzYkTnTok3yRvT4k3c5j64o+ffvlXvJ543nNQYWki107L3VsJzqSh2mib7dTwv39/RgcHDQ6LIsY0Qbb1dfXhzdv3rwn1GeabL4qtpmXg2tibwvvA/PQedvCr88s2yssUxzDko/3i7ZsYTvs+jMf20DH+nAjTltoi07qzTDjJJ7X3oGZyQAYXARfySdliY73mvGCJ9OkXMZxkEdygvvGbJZlSmwniRiST96ZMYIPMSI+IvY17xP1ROTeSbzch2A+84Srz7IpzLcWjs+RELhsr7RL/MXKDLXN8rzSt59Nhr1O/n7ymfLqroY+/x7QDp9hEh6PHz9+T7z1YT2oQ0Kdy/q84tXnM3/79m2zSXR9fT24AS83i+b+YdevX/eqo7W11TyDXJIk/ZLPJH83uIRQyBjem3CckjHhoKW6ioAioAgoAoqAIqAIKAIRgQBf3q9du2YGuBzwcfAne1NwgMN0xnHfCr5oM2wLl47QcQBGxwHMhQsXzOCRL+h8abeFL/4cWNA2HQdXnJFz6dIlnDp1ymwAyU0gRTg44MCCBIEMwjggaGpqwpUrV8zAgYMGTpHnoIB2OJCwyRXWsbm52diUr7fiU58bT7I+Mohl/WhLdGyfRADrxvqIY1m0QVvE0BZiwXhxMkjlCTksw8aSYZZF+zbBwrzSRpZvCzFme+3BDwdvxIh1Yhm2BKs/caUNlm/XneFg+LANPHGLfcKuC8O8J7w3XsdBIevD+28L68k072CamMpAkoNLhmmXdZRyvWVEwrU8F2yL7BnDPsT7fPPmzXlN5H1ob283mBJ7Pi+2eDMQQ0pjYyMaGhqMLu8HB+AUrxN98fm3whavPgf07KvsO3ye7WeHYa9jX2e/YBqXuHj7k/QL8V++fGlsEw8+88xri+iJby/zkr9hdhne+nD2FfPQPvs+fVu8+sSM9khE2HoSXqk+7znrwWeY7bTrzrDXsQ8QS/7N9eoG0+ffevYvYsNy+HxJWcTB64gP7y3vFfXYTm4yzfwkZ1g2SVP5O+fNv9C1kjELIaPxioAioAgoAoqAIqAIKAIRiwAH/SQq+ILNF3m+jNtkDMkSkhnywi2DDPGZh3lliQSJAL6Uc5DFwRhf0m2hLm3RkUDggJNxJCeoJ3bFl6+v1OcAnfVlHTlwoB0OCqQcDjaE/JDBwFL2OcDh4FL0WX/GcXBlkxgSZl05MKVjHpJVrAeFAxGpt/gc0HR0dBh9/seZKaw/0zlgEj3xOTCmfdabhA99tpV2mI9l2MK6coAkjpjKgIlpYld8toP3m466JGI4MCf+vGfeARz1mSbkEwe57B+sS7DBM+NZLvuDkGdsD+8R62D3BYaJJ+PpWAaXYpCcIza0JQM81oP6bDvTpA+ZjBH0H/EVx3vPdvL+s93E1esYJ8+I3GPiJuLVl37MPLbQTjD71Oc9oj2xzz7C+vB+eJ3oU5d69KUu9L1OyAbaKyoqmtf/hFQRn88SbbIc1lfqJL7oiU/sqMeyWYbUSfS99aF96hYXF5sybIwY9jo+C8SHfy+8uquhT3xYH2LNdnjL8NaHpCp12E6vbrD6SH8Qn7hQj3/XacvraNcWtp31os/nkhgrGeNFTa8VAUVAEVAEFAFFQBFQBBSBIAiQ4CDhwpdoDq75Yk2hY5o4IT/sF3GG+fLOF3cuPZKZJRyEy/R3DiZs4UlNJCRIZNj2SbJwlgRf5DkLgidykOjgAJ3COlI4yKdw0E6R5UPiM412ZTDGOtEO7ZKE4KkftnAZgJAG0lYe08rZBhyY2XVnmEuFOEimYxkkNDggI2FBwoSEhi38ks96i2OdOSNBcJRBkPic6WDPimGYdmUgxoGZLVy6wpk8QiaxHLmHHMjLoFN8zlxgfYgpcWL9SGBxMEUdDqhssWdLsAziS33Wn4M29htbiBt16KjPfsH+QTJG2mz7JPpkeRTvlZBPrDtJMg5CbSFZxTbYBJdgG4k+nwXiR2FY+rX47Eu2SH/lvWG818m9su8Bw9I/xK74dl9jmP3EFq99sSP5RFf690L6ks9bL6mH+GKXfrA8oie+t72SR+yInvhST/pSBtvAPs974HXh2hd9+tKv2WbeLz7nUg/xvXjwb7QQxZwB5XV2/RkmwcWy+PebfcPrvPbZTmJEfZvklXwkaESkr5E8ZZjPJZ95EckTiq8zY0JBSXUUAUVAEVAEFAFFQBFQBCIKAZIJdByUk7DgvgQkNryOM0ZIRHidl8hgOl/GaZeDa4a9TgYa3jTGM5833s5PHaZTRFeu6Ytt+raTfHacN0wd2hQyx5seyrWUI3UJlkfqbpNRwfS8cSRRSG7YQltexzaQoCEJRbLJFiFKmEcwIkHE+GB7zDDN62iXwnqwX9gSrE2sN+sghJntkxRiP7HrI2HGsy2sp4hce+sUiddsMzEgfhSGBYeFfMGBOAVzki9YmsSJDn373jJMctAWySO+9DXJJ7ok2YTEFF36JB9tIVlri10Xhu09UyTfYvr8m0YRHckjdrz2ZTkWfZJZJBg4c4xEscwYtOsfrn3Rpy+kMOtGAph/g731kXqLzzysB+tPrL1OcBZfSG32n4X6hG2DfYx/0+2/K1InxsnfLtoS4TMvtqkrerbdpcJKxiyFkKYrAoqAIqAIKAKKgCKgCEQcAvZLNxsn5ApfykNxQlzwJZwDa3lxXyqv6MnLu7zY2/kkjXUUfTtdwpImvujTJttBn2kLOcnn1fFeS37Gy4CDeImeYCd6wXzBiGmLYUybYncpXbsc2qcTX3AVn2k2YSL3XzCzbXnDgifjWXcZhIltqe9CtkRPfNHztpXxi4m3XpF6TQyIleBjP2uMk3TeC5HVwELKkzLse2GnMWw70WedJY/o23resOhIfskrvp1u55V40Qvm232N6ZJH7PBanOSXPMSbz/RCzynzMs9i7ZXyxLb4zCP3jHHiRF980RefevLcSZ6FfLFBPxRHPWkLfRI44Tqpp112KOUrGRMu0qqvCCgCioAioAgoAoqAIhCRCAipQJ8v1/IyLQMI+iI2ADJwYRrzyIu5bcPWlzDTOTDhIEMcbXFWxlJ5qW+XI2EpX+yJL+len/rSTupK2KvnvaYu673UgE3yUZ+6vJZypOxgvmAiM1REx2Re5D/eAzq5T+Izzp6hIPdayhH74tv6dhtpT/KYgqz/ZCYHo8Q+w8wvIvURXKQ8IZGoH2wwaGMnGFpFR2SQOAvWgtNivoBgY7+YPtPEefWIsdwr+t77JfrML7q8R5JH9MV+uL5dt1DyUp9lSr3EDzWvrSftWawOodgXHa8fDBvRsesRLEy9hVwwG8HKkvyiL77E238nJE506IujbXGM57WtZ+uKntdXMsaLiF4rAoqAIqAIKAKKgCKgCGxKBOwXae+L9VKAyIBNbMggQK6D5Zc0+qLv9UUnWH47TvToh+Js/VDyePXlerGyRMf2F9O30+w8dtjWWauwlLfQvWC610meYGle3WDXdv7l2ghmV+PCR8B7L4Jd21Yl3e4vEie+rR9qmHlDdVKO+KHmUz0HAcFN/HBxkXzih5pfyZhQkVI9RUARUAQUAUVAEVAEFIGIRkBepIP5SzXcm0cGZhIfLL+k0Rd9ry86wfLbcaJHPxS3Ev1Q84aqF6y+dl47HEx3teOkPPteSJz43jIlnv5ynJ1/uTaWU67mCY6A9354r+1ckhZOf7HzLxQOpx9IHcRfyKbGB0dAcBM/uNbCsZJP/IU1309RMuZ9PPRKEVAEFAFFQBFQBBQBRWCTIiAv0sH8pSDx5pGBmcQHyy9p9EXf64tOsPx2XKh6kme5+pJPfLEXzBcd+uE6O68dDtfOcvXtMoOFvXa9Ot70pa5Xmn8p+5oeHgLe++G9tq1Jmv3sSpz4tv5ahKUc8deijEi2KbiJH25bJZ/4oeZXMiZUpFRPEVAEFAFFQBFQBBQBRSCiEZAX6WD+Ug335pGBmcQHyy9p9EXf64tOsPx2XKh6kme5+pJPfLEXzBcd+uE6O68dDtfOcvXtMoOFvXa9Ot70pa5Xmn8p+5oeHgLe++G9tq1Jmv3sSpz4tv5ahKUc8deijEi2KbiJH25bJZ/4oeZXMiZUpFRPEVAEFAFFQBFQBBQBRUARCBEBeSkXf6lsoreQv1R+TV99BOx7sfrW1WIkIWD3/ZTXewAAAQBJREFUlWDhSGqrtmX1EFAyZvWwVEuKgCKgCCgCioAioAgoAoqAQcA7IFsKFq++93qp/Jq++gjY92D1ravFSELA7ivBwpHUVm3L6iGgZMzqYamWFAFFQBFQBBQBRUARUAQUAYOAd0C2FCxefe/1Uvk1XRFQBD4eAt7n1Xv98WqmJa9nBJSMWc93R+umCCgCioAioAgoAoqAIrAhEQh3MObV915vSBC00orAJkHA+7x6rzcJDNrMMBFQMiZMwFRdEVAEFAFFQBFQBBQBRUARUAQUAUVAEVAEFIGVIKBkzErQ07yKgCKgCCgCioAioAgoAoqAIqAIKAKKgCKgCISJwP8Glz3bU00cD8gAAAAASUVORK5CYII=;" vertex="1" parent="1">
          <mxGeometry x="30" y="480" width="564.6" height="182" as="geometry" />
        </mxCell>
        <mxCell id="KOqR1XGdUxo7aQ16TKEq-6" value="" style="curved=1;endArrow=classic;html=1;exitX=1.005;exitY=0.459;exitDx=0;exitDy=0;exitPerimeter=0;entryX=0.999;entryY=0.528;entryDx=0;entryDy=0;entryPerimeter=0;" edge="1" parent="1" source="HKHmvF8L9_0sOz7J5Tm9-19" target="KOqR1XGdUxo7aQ16TKEq-5">
          <mxGeometry width="50" height="50" relative="1" as="geometry">
            <mxPoint x="600" y="580" as="sourcePoint" />
            <mxPoint x="600" y="610" as="targetPoint" />
            <Array as="points">
              <mxPoint x="710" y="500" />
            </Array>
          </mxGeometry>
        </mxCell>
      </root>
    </mxGraphModel>
  </diagram>
</mxfile>
